<?xml version="1.0" encoding="utf-8"?>
<!-- Generator: Adobe Illustrator 28.0.0, SVG Export Plug-In . SVG Version: 6.00 Build 0)  -->
<svg version="1.1" id="Layer_1" xmlns="http://www.w3.org/2000/svg" xmlns:xlink="http://www.w3.org/1999/xlink" x="0px" y="0px"
	 viewBox="0 0 1258 1032" style="enable-background:new 0 0 1258 1032;" xml:space="preserve">
<style type="text/css">
	.st0{fill:none;stroke:#000000;stroke-miterlimit:10;}
	.st1{stroke:#000000;stroke-miterlimit:10;}
	.st2{fill:none;stroke:#000000;stroke-width:2;stroke-miterlimit:10;}
	.st3{fill:#FFFFFF;stroke:#000000;stroke-miterlimit:10;}
	.st4{fill:none;}
	.st5{font-family:'Helvetica';}
	.st6{font-size:12px;}
	.st7{fill:#FFFFFF;stroke:#000000;}
	.st8{fill:#60A917;stroke:#2D7600;}
	.st9{fill:#FFFFFF;}
	.st10{fill:none;stroke:#000000;}
	.st11{fill:#A20025;stroke:#6F0000;}
	.st12{font-family:'ArialMT';}
	.st13{font-size:10px;}
</style>
<g>
	<path pointer-events="stroke" class="st0" d="M1057.5,205.5l-42.5-0.6"/>
	<path pointer-events="all" class="st1" d="M1009.7,204.9l7-3.4l-1.8,3.5l1.7,3.5L1009.7,204.9z"/>
	<path pointer-events="all" class="st2" d="M17.5,205.5h1040"/>
	<path pointer-events="stroke" class="st0" d="M306.9,150.5v43.6"/>
	<path pointer-events="all" class="st1" d="M306.9,199.4l-3.5-7l3.5,1.8l3.5-1.8L306.9,199.4z"/>
	<path pointer-events="all" class="st3" d="M77.5,390.5h150l20,35l-20,35h-150l20-35L77.5,390.5z"/>
	<rect x="102.5" y="415.5" pointer-events="all" class="st4" width="110" height="30"/>
	<g transform="translate(-0.5 -0.5)">
		<text transform="matrix(1 0 0 1 111.1436 434.5)" class="st5 st6">Klik på kødpålæg</text>
	</g>
	<path pointer-events="stroke" class="st0" d="M497.5,200.5v63.6"/>
	<path pointer-events="all" class="st1" d="M497.5,269.4l-3.5-7l3.5,1.8l3.5-1.8L497.5,269.4z"/>
	<path pointer-events="stroke" class="st0" d="M496.7,320.5v43.6"/>
	<path pointer-events="all" class="st1" d="M496.7,369.4l-3.5-7l3.5,1.8l3.5-1.8L496.7,369.4z"/>
	<path pointer-events="stroke" class="st0" d="M156.8,460.5v43.6"/>
	<path pointer-events="all" class="st1" d="M156.8,509.4l-3.5-7l3.5,1.8l3.5-1.8L156.8,509.4z"/>
	<path pointer-events="all" class="st7" d="M105,510.5h105c4.1,0,7.5,3.4,7.5,7.5v35c0,4.1-3.4,7.5-7.5,7.5H105
		c-4.1,0-7.5-3.4-7.5-7.5v-35C97.5,513.9,100.9,510.5,105,510.5z"/>
	<g transform="translate(-0.5 -0.5)">
		<text transform="matrix(1 0 0 1 93.7998 539.5)" class="st5 st6">Eksploderer og man h...</text>
	</g>
	<path pointer-events="stroke" class="st0" d="M156.8,560.5v43.6"/>
	<path pointer-events="all" class="st1" d="M156.8,609.4l-3.5-7l3.5,1.8l3.5-1.8L156.8,609.4z"/>
	<path pointer-events="all" class="st7" d="M105,610.5h105c4.1,0,7.5,3.4,7.5,7.5v35c0,4.1-3.4,7.5-7.5,7.5H105
		c-4.1,0-7.5-3.4-7.5-7.5v-35C97.5,613.9,100.9,610.5,105,610.5z"/>
	<g transform="translate(-0.5 -0.5)">
		<text transform="matrix(1 0 0 1 119.4932 639.5)" class="st5 st6">Du mister 1 liv</text>
	</g>
	<path pointer-events="stroke" class="st0" d="M166.7,200.5v63.6"/>
	<path pointer-events="all" class="st1" d="M166.7,269.4l-3.5-7l3.5,1.8l3.5-1.8L166.7,269.4z"/>
	<path pointer-events="stroke" class="st0" d="M7.5,890.5V206.9"/>
	<path pointer-events="all" class="st1" d="M7.5,201.6l3.5,7l-3.5-1.8L4,208.6L7.5,201.6z"/>
	<path pointer-events="stroke" class="st0" d="M7.5,204.7l13.6-0.2"/>
	<path pointer-events="all" class="st1" d="M26.4,204.5l-7,3.6l1.7-3.5l-1.8-3.5L26.4,204.5z"/>
	<path pointer-events="all" class="st3" d="M731.2,693l-25,22.5l-25-22.5l25-22.5L731.2,693z"/>
	<path pointer-events="stroke" class="st0" d="M1187.5,540.5v203.6"/>
	<path pointer-events="all" class="st1" d="M1187.5,749.4l-3.5-7l3.5,1.8l3.5-1.8L1187.5,749.4z"/>
	<path pointer-events="stroke" class="st0" d="M705.6,605.5v53.6"/>
	<path pointer-events="all" class="st1" d="M705.6,664.4l-3.5-7l3.5,1.8l3.5-1.8L705.6,664.4z"/>
	<path pointer-events="all" class="st2" d="M7.5,795.5h800"/>
	<path pointer-events="stroke" class="st0" d="M901,690.5v53.6"/>
	<path pointer-events="all" class="st1" d="M901,749.4l-3.5-7l3.5,1.8l3.5-1.8L901,749.4z"/>
	<rect x="1137.5" y="750.5" pointer-events="all" class="st8" width="120" height="60"/>
	<g transform="translate(-0.5 -0.5)">
		<text transform="matrix(1 0 0 1 1157.1436 784.5)" class="st9 st5 st6">Level complete</text>
	</g>
	<path pointer-events="stroke" class="st0" d="M900.5,900.5l0.2-90"/>
	<path pointer-events="stroke" class="st0" d="M1187.5,900.5v-90"/>
	<path pointer-events="stroke" class="st0" d="M897.5,900.5h290"/>
	<path pointer-events="stroke" class="st0" d="M1056.5,890.5v73.6"/>
	<path pointer-events="all" class="st1" d="M1056.5,969.4l-3.5-7l3.5,1.8l3.5-1.8L1056.5,969.4z"/>
	<ellipse pointer-events="all" class="st7" cx="1057.5" cy="1001.5" rx="30" ry="30"/>
	<ellipse pointer-events="all" class="st10" cx="1057.5" cy="1001.5" rx="26" ry="26"/>
	<ellipse pointer-events="all" class="st7" cx="307.5" cy="20.5" rx="20" ry="20"/>
	<path pointer-events="all" class="st7" d="M255,100.5h105c4.1,0,7.5,3.4,7.5,7.5v35c0,4.1-3.4,7.5-7.5,7.5H255
		c-4.1,0-7.5-3.4-7.5-7.5v-35C247.5,103.9,250.9,100.5,255,100.5z"/>
	<rect x="277.5" y="110.5" pointer-events="all" class="st4" width="60" height="30"/>
	<g transform="translate(-0.5 -0.5)">
		<text transform="matrix(1 0 0 1 268.4795 129.5)" class="st5 st6">Bagrundsmu...</text>
	</g>
	<path pointer-events="stroke" class="st0" d="M307.1,50.5v43.6"/>
	<path pointer-events="all" class="st1" d="M307.1,99.4l-3.5-7l3.5,1.8l3.5-1.8L307.1,99.4z"/>
	<path pointer-events="all" class="st7" d="M115,270.5h105c4.1,0,7.5,3.4,7.5,7.5v35c0,4.1-3.4,7.5-7.5,7.5H115
		c-4.1,0-7.5-3.4-7.5-7.5v-35C107.5,273.9,110.9,270.5,115,270.5z"/>
	<rect x="137.5" y="280.5" pointer-events="all" class="st4" width="60" height="30"/>
	<g transform="translate(-0.5 -0.5)">
		<text transform="matrix(1 0 0 1 131.4824 299.5)" class="st5 st6">Kødpålæg f...</text>
	</g>
	<path pointer-events="stroke" class="st0" d="M156.8,660.5l1,129.5"/>
	<path pointer-events="all" class="st1" d="M157.9,795.2l-3.6-7l3.5,1.7l3.5-1.8L157.9,795.2z"/>
	<path pointer-events="stroke" class="st0" d="M166.8,320.5v63.6"/>
	<path pointer-events="all" class="st1" d="M166.8,389.4l-3.5-7l3.5,1.8l3.5-1.8L166.8,389.4z"/>
	<path pointer-events="all" class="st7" d="M445,270.5h105c4.1,0,7.5,3.4,7.5,7.5v35c0,4.1-3.4,7.5-7.5,7.5H445
		c-4.1,0-7.5-3.4-7.5-7.5v-35C437.5,273.9,440.9,270.5,445,270.5z"/>
	<g transform="translate(-0.5 -0.5)">
		<text transform="matrix(1 0 0 1 438.7861 299.5)" class="st5 st6">Vegetarpålæg falder...</text>
	</g>
	<path pointer-events="all" class="st3" d="M522.5,393l-25,22.5l-25-22.5l25-22.5L522.5,393z"/>
	<path pointer-events="stroke" class="st0" d="M522.5,392.8l185-2.3"/>
	<path pointer-events="stroke" class="st0" d="M317.5,392.5h155"/>
	<rect x="527.5" y="370.5" pointer-events="all" class="st4" width="170" height="30"/>
	<g transform="translate(-0.5 -0.5)">
		<text transform="matrix(1 0 0 1 537.4707 389.5)" class="st5 st6">Pålæg rammer bunden først</text>
	</g>
	<rect x="317.5" y="370.5" pointer-events="all" class="st4" width="120" height="30"/>
	<g transform="translate(-0.5 -0.5)">
		<text transform="matrix(1 0 0 1 327.1592 389.5)" class="st5 st6">Bruger klikker først</text>
	</g>
	<path pointer-events="stroke" class="st0" d="M707.5,390.5v63.6"/>
	<path pointer-events="all" class="st1" d="M707.5,459.4l-3.5-7l3.5,1.8l3.5-1.8L707.5,459.4z"/>
	<path pointer-events="all" class="st7" d="M647.5,460.5H740c4.1,0,7.5,3.4,7.5,7.5v35c0,4.1-3.4,7.5-7.5,7.5h-92.5
		c-4.1,0-7.5-3.4-7.5-7.5v-35C640,463.9,643.4,460.5,647.5,460.5z"/>
	<g transform="translate(-0.5 -0.5)">
		<text transform="matrix(1 0 0 1 648.7705 499.2922)" class="st5 st6">Eksploderer og man...</text>
	</g>
	<path pointer-events="all" class="st7" d="M296,470.5h65.5c3.3,0,6,2.7,6,6v28c0,3.3-2.7,6-6,6H296c-3.3,0-6-2.7-6-6v-28
		C290,473.2,292.7,470.5,296,470.5z"/>
	<g transform="translate(-0.5 -0.5)">
		<text transform="matrix(1 0 0 1 286.8164 494.5)" class="st5 st6">Forsvinder og...</text>
	</g>
	<path pointer-events="stroke" class="st0" d="M317.5,390.5l0,73.6"/>
	<path pointer-events="all" class="st1" d="M317.5,469.4l-3.5-7l3.5,1.8l3.5-1.8L317.5,469.4z"/>
	<path pointer-events="stroke" class="st0" d="M318,510.5l-0.4,43.6"/>
	<path pointer-events="all" class="st1" d="M317.5,559.4l-3.4-7l3.5,1.8l3.5-1.7L317.5,559.4z"/>
	<path pointer-events="all" class="st7" d="M296,560.5h65.5c3.3,0,6,2.7,6,6v28c0,3.3-2.7,6-6,6H296c-3.3,0-6-2.7-6-6v-28
		C290,563.2,292.7,560.5,296,560.5z"/>
	<g transform="translate(-0.5 -0.5)">
		<text transform="matrix(1 0 0 1 290.8154 584.5)" class="st5 st6">Du får et poi...</text>
	</g>
	<path pointer-events="all" class="st7" d="M673.5,565.5H739c3.3,0,6,2.7,6,6v28c0,3.3-2.7,6-6,6h-65.5c-3.3,0-6-2.7-6-6v-28
		C667.5,568.2,670.2,565.5,673.5,565.5z"/>
	<g transform="translate(-0.5 -0.5)">
		<text transform="matrix(1 0 0 1 667.8252 589.5)" class="st5 st6">Du mister 1 l...</text>
	</g>
	<path pointer-events="stroke" class="st0" d="M706.3,510.5l-0.4,43.6"/>
	<path pointer-events="all" class="st1" d="M705.8,559.4l-3.4-7l3.5,1.8l3.5-1.7L705.8,559.4z"/>
	<path pointer-events="stroke" class="st0" d="M319.3,601.3l-0.6,189.9"/>
	<path pointer-events="all" class="st1" d="M318.7,796.5l-3.5-7l3.5,1.8l3.5-1.7L318.7,796.5z"/>
	<path pointer-events="stroke" class="st0" d="M731.2,692.2h170"/>
	<rect x="731.2" y="670.5" pointer-events="all" class="st4" width="110" height="30"/>
	<g transform="translate(-0.5 -0.5)">
		<text transform="matrix(1 0 0 1 744.8047 689.5)" class="st5 st6">Ingen liv tilbage</text>
	</g>
	<rect x="841.2" y="750.5" pointer-events="all" class="st11" width="120" height="60"/>
	<g transform="translate(-0.5 -0.5)">
		<text transform="matrix(1 0 0 1 871.8223 784.5)" class="st9 st5 st6">Game over</text>
	</g>
	<path pointer-events="stroke" class="st0" d="M705.6,715.5l0.3,74.7"/>
	<path pointer-events="all" class="st1" d="M705.9,795.4l-3.5-7l3.5,1.7l3.5-1.8L705.9,795.4z"/>
	<rect x="717.5" y="765.5" pointer-events="all" class="st4" width="110" height="30"/>
	<g transform="translate(-0.5 -0.5)">
		<text transform="matrix(1 0 0 1 728.8066 784.5)" class="st5 st6">Stadig liv tilbage</text>
	</g>
	<rect x="1077.5" y="520.5" pointer-events="all" class="st4" width="120" height="30"/>
	<g transform="translate(-0.5 -0.5)">
		<text transform="matrix(1 0 0 1 1087.8066 539.5)" class="st5 st6">10 point eller mere</text>
	</g>
	<path pointer-events="stroke" class="st0" d="M927.5,540.5v203.6"/>
	<path pointer-events="all" class="st1" d="M927.5,749.4l-3.5-7l3.5,1.8l3.5-1.8L927.5,749.4z"/>
	<path pointer-events="all" class="st3" d="M1087.5,543l-25,22.5l-25-22.5l25-22.5L1087.5,543z"/>
	<path pointer-events="stroke" class="st0" d="M1087.5,540.8l100-0.3"/>
	<path pointer-events="stroke" class="st0" d="M927.5,540.5l110,0.3"/>
	<path pointer-events="all" class="st3" d="M1027.5,270.5h50l-25,30L1027.5,270.5z"/>
	<path pointer-events="all" class="st3" d="M1027.5,330.5h50l-25-30L1027.5,330.5z"/>
	<path pointer-events="stroke" class="st0" d="M1057.5,204.5v53.6"/>
	<path pointer-events="all" class="st1" d="M1057.5,263.4l-3.5-7l3.5,1.8l3.5-1.8L1057.5,263.4z"/>
	<path pointer-events="stroke" class="st0" d="M1054.5,330.5v153.6"/>
	<path pointer-events="all" class="st1" d="M1054.5,489.4l-3.5-7l3.5,1.8l3.5-1.8L1054.5,489.4z"/>
	<rect x="1077.5" y="275.5" pointer-events="all" class="st4" width="120" height="40"/>
	<g transform="translate(-0.5 -0.5)">
		<text transform="matrix(1 0 0 1 1086.4766 299.5)" class="st5 st6">Spillet slutter efte...</text>
	</g>
	<rect x="547.5" y="390.5" pointer-events="all" class="st4" width="170" height="30"/>
	<g transform="translate(-0.5 -0.5)">
		<text transform="matrix(1 0 0 1 557.4707 409.5)" class="st5 st6">Pålæg rammer bunden først</text>
	</g>
	<path pointer-events="stroke" class="st0" d="M7.5,890.5h320"/>
	<path pointer-events="all" class="st2" d="M322.5,800.5v90"/>
	<rect x="57.5" y="860.5" pointer-events="all" class="st4" width="140" height="30"/>
	<g transform="translate(-0.5 -0.5)">
		<text transform="matrix(1 0 0 1 68.4639 879.5)" class="st5 st6">Spillet er stadig i gang</text>
	</g>
</g>
<a xlink:href="https://www.diagrams.net/doc/faq/svg-export-text-problems"  transform="translate(0,-5)">
	<text transform="matrix(1 0 0 1 558.6333 1032.5)" class="st12 st13">Text is not SVG - cannot display</text>
</a>
</svg>
