<?xml version="1.0" encoding="utf-8"?>
<!-- Generator: Adobe Illustrator 28.0.0, SVG Export Plug-In . SVG Version: 6.00 Build 0)  -->
<svg version="1.1" id="a" xmlns="http://www.w3.org/2000/svg" xmlns:xlink="http://www.w3.org/1999/xlink" x="0px" y="0px"
	 viewBox="0 0 1920 1080" style="enable-background:new 0 0 1920 1080;" xml:space="preserve">
<style type="text/css">
	.st0{fill:#FDE7C3;stroke:#000000;stroke-miterlimit:10;}
	.st1{fill:#FFFFFF;stroke:#DDE3E0;stroke-width:4;stroke-miterlimit:10;}
	.st2{fill:#FED266;stroke:#7F5D2A;stroke-miterlimit:10;}
	.st3{fill:#CD5522;stroke:#F17083;stroke-miterlimit:10;}
	.st4{fill:#FBBB71;stroke:#7F5D3F;stroke-miterlimit:10;}
	.st5{stroke:#000000;stroke-width:0.5;stroke-miterlimit:10;}
	.st6{fill:#FF9492;stroke:#7F5D2A;stroke-width:0.5;stroke-miterlimit:10;}
	.st7{fill:#FF9497;stroke:#7F5D2A;stroke-width:0.5;stroke-miterlimit:10;}
	.st8{fill:#FFFFFF;stroke:#000000;stroke-width:0.5;stroke-miterlimit:10;}
	.st9{fill:#3D465A;stroke:#000000;stroke-miterlimit:10;}
	.st10{fill:#FED266;stroke:#000000;stroke-width:1;stroke-miterlimit:10;}
	.st11{fill:#FED266;stroke:#000000;stroke-miterlimit:10;}
	.st12{fill:#DBD6C1;stroke:#C1BCA7;stroke-width:0.5;stroke-miterlimit:10;}
	.st13{fill:#C1BCA7;}
	.st14{fill:#F6E2FA;}
	.st15{fill:#F6F1FA;}
	.st16{fill:#FED266;}
	.st17{fill:none;}
	.st18{fill:#B82214;}
	.st19{fill:#941B10;}
	.st20{fill:#6DCAF2;}
	.st21{fill:#5B4134;stroke:#271B16;stroke-miterlimit:10;}
	.st22{stroke:#5B4034;stroke-miterlimit:10;}
	.st23{fill:#F5F5F5;stroke:#5B4034;stroke-miterlimit:10;}
	.st24{fill:#FFFFFF;stroke:#5B4034;stroke-miterlimit:10;}
	.st25{fill:#FFFEFD;stroke:#5B4034;stroke-miterlimit:10;}
	.st26{fill:#9B6F59;stroke:#825D4A;stroke-width:4;stroke-miterlimit:10;}
	.st27{fill:#8E6652;stroke:#5B4034;stroke-miterlimit:10;}
	.st28{fill:#F4F6F5;}
	.st29{fill:#DDE3E0;}
	.st30{fill:#DEB985;stroke:#825D4A;stroke-width:3;stroke-miterlimit:10;}
</style>
<rect id="b" x="0.5" y="0.5" class="st0" width="1919" height="598"/>
<path id="c" class="st1" d="M1774.1,511.6h-567.6c-7.4,0-13.4-5.7-13.4-12.7V159.7c0-7,6-12.7,13.4-12.7h567.6
	c0.9,0,5.6,0.1,9.5,3.7c2.4,2.3,3.9,5.5,3.9,9v339.1c50.8,24.4,75.8,38,75.1,40.7C1861.7,542.3,1832.2,533,1774.1,511.6z"/>
<g id="d">
	<path class="st2" d="M1627.8,412.1h-291.1c12-6.6,20.6-13.1,25.8-17.3c13.1-10.7,23.8-22.8,60.2-75.8c7.1-10.4,10.7-15.6,14-20.6
		c17.3-26.2,48.4-68.9,108.5-141.8c-0.5,1.8-0.8,3.2-1.1,4.3c-1,4.4-1.4,7.9-1.7,10.2c0,0-0.2,2-0.4,3.8
		c-8.4,86.7,20.4,150.5,20.4,150.5C1579.8,364.3,1605,392.6,1627.8,412.1L1627.8,412.1z"/>
	<path class="st3" d="M1614.9,431.6h-267.5c-1.4-0.8-3.5-2.1-5.4-4.3c-2.9-3.3-3.9-6.8-4.3-8.7l0,0c0-7.1,5.8-13,12.9-13
		c3.2-0.7,8.1-1.5,14-1.1c3.4,0.2,5.5,0.7,7.5,1.1c7.1,1.2,21.5-1.1,21.5-1.1c6.1-1.1,15.3-1.9,27.9,0c0.9,0.6,2.3,1.6,4.3,2.2
		c3.9,1.2,6.6,0.2,15-1.1c4.6-0.7,6.9-1.1,8.6-1.1c4.4,0,4,0.9,11.8,2.2c4.7,0.8,10,1,11.8,1.1c0.4,0,2,0.1,2,0.1s-2,0-2-0.1
		c0-0.1,8.7-1.6,16.1,0c0.9,0.2,3.2,0.8,6.1,0.2c1.8-0.4,2.9-1,3.6-1.3c5.1-2.3,9.3,2.5,16.1,2.2c5.8-0.2,5.7-3.8,11.8-4.3
		c6-0.5,7.6,2.9,14,4.3c9.6,2.2,11.2-4.1,24.7-4.3c10.3-0.2,21.5,3.2,21.5,3.2s7.6-3.3,15-3.2c8.4,0.1,12.9,4.4,19.3,4.3
		c0.5,0,1.6,0,2.7,0.6c2.4,1.3,3.1,4.6,3.4,6.2c0.2,1,0.3,2,0.3,3l0,0C1627.8,425.8,1622,431.7,1614.9,431.6L1614.9,431.6z"/>
	<path class="st4" d="M1335.8,412.1h292.9c6.6,0,12,5.4,12,12v9.6c0,6.6-5.4,12-12,12h-292.9c-6.6,0-12-5.4-12-12v-9.6
		C1323.8,417.5,1329.1,412.1,1335.8,412.1z"/>
</g>
<path d="M1592.7,397.6c8.1-6.2,13.2-16,12.8-26.4s-6.2-19.4-15.2-24.1c-5.3-2.8-11.4-4-17.5-3.4c-0.9,0.1-1,1.6,0,1.5
	c10-0.9,20.3,3.2,26.3,11.5c5.5,7.6,6.2,17.7,2.9,26.3c-2,5.3-5.6,9.9-10.1,13.3C1591.2,396.9,1591.9,398.2,1592.7,397.6
	L1592.7,397.6L1592.7,397.6z"/>
<path d="M1510.7,446.5c3,2.3,1.8,7.8,1.6,11c-0.4,4.8-0.9,9.6-1.6,14.4c-1.3,9.3-3.2,18.5-5.6,27.6c-0.2,0.9,1.2,1.3,1.4,0.4
	c2.6-9.8,4.6-19.7,5.9-29.8c0.7-5,1.2-10.1,1.5-15.1c0.2-3.5,0.6-7.5-2.5-9.9C1510.7,444.6,1510,445.9,1510.7,446.5L1510.7,446.5
	L1510.7,446.5z"/>
<ellipse class="st5" cx="1440.9" cy="354.8" rx="20.4" ry="18.4"/>
<ellipse class="st5" cx="1534.3" cy="354.8" rx="20.4" ry="18.4"/>
<path class="st6" d="M1505.3,379.8c1.5,3.4-9.2,15.5-21.5,15c-11.4-0.5-20.9-11.7-19.3-15c0.9-2.1,5.7-0.2,20.4-0.1
	C1499.7,379.7,1504.4,377.8,1505.3,379.8L1505.3,379.8z"/>
<ellipse class="st7" cx="1534.3" cy="380" rx="8.3" ry="7"/>
<ellipse class="st8" cx="1450.7" cy="355.1" rx="6.2" ry="5"/>
<ellipse class="st8" cx="1526.1" cy="354" rx="6.2" ry="5"/>
<path class="st8" d="M1544.4,351.1c-2.2,0-4-1.6-4-3.6s1.8-3.6,4-3.6s4,1.6,4,3.6S1546.6,351.1,1544.4,351.1"/>
<path d="M1451.2,445.6c-6.8,17.1-8.8,35.9-6.1,54.1c0.1,1,1.6,0.5,1.4-0.4c-2.7-18-0.6-36.5,6.1-53.4
	C1453,445.1,1451.6,444.8,1451.2,445.6L1451.2,445.6z"/>
<ellipse class="st7" cx="1437.9" cy="380.2" rx="8.3" ry="7"/>
<path class="st8" d="M1432.9,351c-2.2,0-4-1.6-4-3.6s1.8-3.6,4-3.6s4,1.6,4,3.6S1435.1,351,1432.9,351"/>
<ellipse class="st7" cx="1437.9" cy="379.8" rx="8.3" ry="7"/>
<path d="M1404.3,344c-10.1-0.6-20.2,3.6-26.5,11.6s-7.8,19-3.9,28.5c2.3,5.6,6.2,10.4,11.1,14c0.8,0.6,1.5-0.7,0.8-1.3
	c-8.2-5.9-13.4-15.9-12.5-26.1c0.8-9.4,7-17.7,15.3-22c4.9-2.5,10.3-3.5,15.8-3.2C1405.3,345.6,1405.3,344.1,1404.3,344L1404.3,344
	L1404.3,344z"/>
<g id="e">
	
		<ellipse transform="matrix(0.7056 -0.7086 0.7086 0.7056 286.0728 1135.7461)" class="st9" cx="1510" cy="223.6" rx="11.8" ry="12.1"/>
	
		<ellipse transform="matrix(0.5654 -0.8248 0.8248 0.5654 471.7415 1343.5956)" class="st10" cx="1510.9" cy="224.1" rx="6.5" ry="8.3"/>
	
		<ellipse id="f" transform="matrix(0.7056 -0.7086 0.7086 0.7056 283.3326 1149.6221)" class="st9" cx="1525.3" cy="233.8" rx="11.8" ry="12.1"/>
	
		<ellipse transform="matrix(0.5719 -0.8204 0.8204 0.5719 460.9888 1351.8938)" class="st11" cx="1525.7" cy="234.3" rx="6.8" ry="7.9"/>
</g>
<g id="g">
	<path class="st12" d="M1457,327.8c-1.3,1.2-3.5,2.9-6.5,4.1c-1,0.4-1.9,0.7-2.7,0.9c0.2-1.1,0.1-2,0.1-2.6c-0.3-2.6-1.6-4.3-2.2-5
		c-0.2-0.3-0.4-0.5-0.5-0.6c-1-1-2-1.7-2.8-2.1l8.9-5.2c0.2,2.2,0.9,5.6,3.6,8.5C1455.4,326.6,1456.2,327.3,1457,327.8L1457,327.8z"
		/>
	<path class="st12" d="M1457.6,308.1c1,1,3.1,3.7,2.4,4.7c0,0-0.1,0.1-0.2,0.2c-0.4,0.4-1.2,0.5-4.7,2.2c-1.2,0.6-1.8,0.9-2.2,1.2
		c-0.9,0.6-1.5,1.1-1.7,1c-0.1-0.1-0.1-0.2,0-0.4c0.1-0.2,0.2-0.4,0.2-0.4c0,0-0.2,0.8-0.2,0.8c0.1-0.6,0.2-0.8,0.2-0.8
		c0.1,0-0.2,0.9-0.2,0.9l0-0.1c0,0,0,0-0.1,0.2l0,0c-0.1,0.1-0.3,0.2-0.3,0.2c0,0-0.5,0.3-1.4,0.8c-2.2,1.3-4.5,2.6-6.7,3.9
		c-0.3,0.2-0.9,0.5-1.3,0.7c-0.1,0.1-0.6,0.4-0.8,0.4c0,0,0.1,0,0.1,0c-0.9,0.8-1.2,1.1-1.2,1.1c0,0,0.3-0.3,0.3-0.3
		c0,0-1,1-2.2,1.8c-1.1,0.8-2.5,1.8-3.6,1.7c-1.8-0.2-2.8-4-2.7-7c0.3-4.8,3.6-10.1,8.7-13C1446.4,304.4,1454.4,305,1457.6,308.1
		L1457.6,308.1z"/>
	<path class="st13" d="M1451.9,317.1c0.4-0.6,1.1-1.1,1.6-1.6s1.2-0.9,1.9-1.3s1.4-0.6,2.2-1c0.6-0.3,1.4-0.7,2.1-0.6
		c0.9,0.2,1.3-1.2,0.4-1.5s-1.9,0-2.8,0.5c-0.4,0.2-0.8,0.4-1.2,0.6s-0.9,0.4-1.3,0.6c-0.8,0.4-1.6,1-2.3,1.6s-1.4,1.1-1.9,1.9
		S1451.4,317.9,1451.9,317.1L1451.9,317.1L1451.9,317.1z"/>
	<path class="st13" d="M1451.5,318.1c1.6-1,3.3-1.9,5-2.7c0.8-0.4,1.6-0.7,2.4-1s1.7-1,1.7-2c0-1-1.5-1-1.5,0c0,0.3-0.6,0.5-0.8,0.6
		c-0.3,0.1-0.7,0.3-1,0.4c-0.8,0.3-1.5,0.6-2.3,1c-1.5,0.7-3,1.5-4.4,2.4C1449.9,317.3,1450.6,318.6,1451.5,318.1L1451.5,318.1
		L1451.5,318.1z"/>
	<path class="st13" d="M1442.8,321.7c-1.1-0.1-2.2,0-3.2,0.4c-1,0.3-1.9,0.8-2.8,1.4c-0.4,0.3-0.8,0.6-1.1,0.9
		c-0.3,0.3-0.5,0.6-0.9,0.9c-0.8,0.6-1.4,1.4-1.8,2.3s0.9,1.6,1.3,0.8c0.3-0.7,0.8-1.4,1.5-1.9c0.3-0.3,0.6-0.5,0.9-0.9
		c0.2-0.3,0.6-0.6,0.9-0.8c0.7-0.5,1.5-0.9,2.4-1.2c1-0.3,1.9-0.4,2.9-0.3C1443.8,323.3,1443.8,321.8,1442.8,321.7L1442.8,321.7
		L1442.8,321.7z"/>
	<path class="st13" d="M1433.7,328.7c1-0.1,1.8-0.5,2.7-0.9s1.7-0.9,2.5-1.4c1.4-1,2.6-2.4,4.2-3.2c0.8-0.5,0.1-1.8-0.8-1.3
		c-1.5,0.9-2.6,2.1-4,3.1c-0.7,0.5-1.4,1-2.2,1.3s-1.6,0.9-2.5,0.9C1432.8,327.3,1432.8,328.8,1433.7,328.7L1433.7,328.7
		L1433.7,328.7z"/>
</g>
<g id="h">
	<path class="st12" d="M1504.7,261.2c-1.3,1.2-3.5,2.9-6.5,4.1c-1,0.4-1.9,0.7-2.7,0.9c0.2-1.1,0.1-2,0.1-2.6
		c-0.3-2.6-1.6-4.3-2.2-5c-0.2-0.3-0.4-0.5-0.5-0.6c-1-1-2-1.7-2.8-2.1c2.9-1.7,5.9-3.5,8.9-5.2c0.2,2.2,0.9,5.6,3.6,8.6
		C1503.1,260.1,1503.9,260.7,1504.7,261.2L1504.7,261.2z"/>
	<path class="st12" d="M1505.2,241.5c1,1,3.1,3.7,2.4,4.7c0,0.1-0.1,0.1-0.2,0.2c-0.4,0.4-1.2,0.5-4.7,2.2c-1.2,0.6-1.8,0.9-2.2,1.2
		c-0.9,0.6-1.5,1.1-1.7,1c-0.1-0.1-0.1-0.2,0-0.4c0.1-0.2,0.2-0.4,0.2-0.4c0,0-0.2,0.8-0.2,0.8c0.1-0.6,0.2-0.8,0.2-0.8
		c0.1,0-0.2,0.9-0.2,0.9l0-0.1c0,0,0,0-0.1,0.2l0,0c-0.1,0.1-0.3,0.2-0.3,0.2c0,0-0.5,0.3-1.4,0.8c-2.2,1.3-4.5,2.6-6.7,3.9
		c-0.3,0.2-0.9,0.5-1.3,0.7c-0.1,0.1-0.6,0.4-0.8,0.4c0,0,0.1,0,0.1,0c-0.9,0.8-1.2,1.1-1.2,1.1c0,0,0.3-0.3,0.3-0.3
		c0,0-1,1-2.2,1.8c-1.1,0.8-2.5,1.8-3.6,1.7c-1.8-0.2-2.8-4-2.7-7c0.3-4.8,3.6-10.1,8.7-13C1494.1,237.8,1502.1,238.5,1505.2,241.5
		L1505.2,241.5z"/>
	<path class="st13" d="M1499.6,250.6c0.4-0.6,1.1-1.1,1.6-1.6s1.2-0.9,1.9-1.3s1.4-0.6,2.2-1c0.6-0.3,1.4-0.7,2.1-0.6
		c0.9,0.2,1.3-1.2,0.4-1.4s-1.9,0.1-2.8,0.5c-0.4,0.2-0.8,0.4-1.2,0.6s-0.9,0.4-1.3,0.6c-0.8,0.4-1.6,1-2.3,1.6s-1.4,1.1-1.9,1.9
		S1499,251.4,1499.6,250.6L1499.6,250.6L1499.6,250.6z"/>
	<path class="st13" d="M1499.2,251.5c1.6-1,3.3-1.9,5-2.7c0.8-0.4,1.6-0.7,2.4-1s1.7-1,1.7-2c0-1-1.5-1-1.5,0c0,0.3-0.6,0.5-0.8,0.6
		c-0.3,0.1-0.7,0.3-1,0.4c-0.8,0.3-1.5,0.6-2.3,1c-1.5,0.7-3,1.6-4.4,2.4C1497.6,250.8,1498.3,252.1,1499.2,251.5L1499.2,251.5
		L1499.2,251.5z"/>
	<path class="st13" d="M1490.5,255.1c-1.1-0.1-2.2,0-3.2,0.4c-1,0.3-1.9,0.8-2.8,1.4c-0.4,0.3-0.8,0.6-1.1,0.9
		c-0.3,0.3-0.5,0.6-0.9,0.9c-0.8,0.6-1.4,1.4-1.8,2.3s0.9,1.6,1.3,0.8c0.3-0.7,0.8-1.4,1.5-1.9c0.3-0.3,0.6-0.5,0.9-0.9
		c0.2-0.3,0.6-0.6,0.9-0.8c0.7-0.5,1.5-0.9,2.4-1.2c1-0.3,1.9-0.4,2.9-0.3C1491.4,256.7,1491.4,255.2,1490.5,255.1L1490.5,255.1
		L1490.5,255.1z"/>
	<path class="st13" d="M1481.4,262.1c1-0.1,1.8-0.5,2.7-0.9s1.7-0.9,2.5-1.4c1.4-1,2.6-2.4,4.2-3.2c0.8-0.5,0.1-1.8-0.8-1.3
		c-1.5,0.8-2.6,2.1-4,3.1c-0.7,0.5-1.4,1-2.2,1.3s-1.6,0.9-2.5,0.9C1480.4,260.7,1480.4,262.2,1481.4,262.1L1481.4,262.1
		L1481.4,262.1z"/>
</g>
<g id="i">
	<path class="st14" d="M1487.1,359.4c-9.9,0-17.6-4.5-19.2-11.3c-1.9-8.6,6.9-18,19.7-20.9c2.5-0.6,5.1-0.9,7.6-0.9
		c9.9,0,17.6,4.5,19.2,11.3c1.9,8.6-6.9,18-19.7,20.9C1492.1,359.1,1489.6,359.4,1487.1,359.4z"/>
	<path d="M1495.2,326.8L1495.2,326.8c9.7,0,17.2,4.4,18.7,10.9c1.9,8.4-6.8,17.5-19.3,20.3c-2.5,0.6-5,0.9-7.4,0.9
		c-9.7,0-17.2-4.4-18.7-10.9c-1.9-8.4,6.8-17.5,19.3-20.3C1490.2,327.1,1492.8,326.8,1495.2,326.8 M1495.2,325.8
		c-2.5,0-5.1,0.3-7.7,0.9c-13.1,3-22.1,12.6-20.1,21.5c1.6,7.1,9.7,11.6,19.6,11.6c2.5,0,5.1-0.3,7.7-0.9
		c13.1-3,22.1-12.6,20.1-21.5C1513.3,330.3,1505.1,325.8,1495.2,325.8L1495.2,325.8z"/>
	<path class="st15" d="M1487.4,358c-9.2,0-16.3-4.1-17.6-10.2c-1.8-7.9,6.5-16.5,18.4-19.2c2.4-0.5,4.8-0.8,7.1-0.8
		c9.2,0,16.3,4.1,17.6,10.2c1.8,7.9-6.5,16.5-18.4,19.2C1492.1,357.7,1489.7,358,1487.4,358z"/>
	<path d="M1495.3,327.2v1c8.9,0,15.8,4,17.2,9.8c1.7,7.6-6.4,16-18,18.6c-2.3,0.5-4.7,0.8-7,0.8c-8.9,0-15.8-4-17.2-9.8
		c-1.7-7.6,6.4-16,18-18.6c2.3-0.5,4.7-0.8,7-0.8L1495.3,327.2 M1495.3,327.2c-2.3,0-4.8,0.3-7.2,0.8c-12.2,2.8-20.6,11.6-18.8,19.8
		c1.5,6.5,9,10.6,18.1,10.6c2.3,0,4.8-0.3,7.2-0.8c12.2-2.8,20.6-11.6,18.8-19.8C1511.9,331.3,1504.4,327.2,1495.3,327.2
		L1495.3,327.2z"/>
	<path class="st16" d="M1487.3,356.2c-8.5,0-14.9-3.6-16.2-9c-1.6-7.1,6.3-14.9,17.5-17.4c2.3-0.5,4.7-0.8,7-0.8
		c8.5,0,14.9,3.6,16.2,9c1.6,7.1-6.3,14.9-17.5,17.4C1492,356,1489.6,356.2,1487.3,356.2z"/>
	<path d="M1495.6,329.5L1495.6,329.5c8.2,0,14.5,3.5,15.7,8.6c1.5,6.8-6.2,14.3-17.1,16.8c-2.3,0.5-4.6,0.8-6.9,0.8
		c-8.2,0-14.5-3.5-15.7-8.6c-1.5-6.8,6.2-14.3,17.1-16.8C1491,329.8,1493.4,329.5,1495.6,329.5 M1495.6,328.5
		c-2.3,0-4.7,0.3-7.1,0.8c-11.5,2.6-19.5,10.7-17.8,18c1.3,5.8,8.2,9.4,16.6,9.4c2.3,0,4.7-0.3,7.1-0.8c11.5-2.6,19.5-10.7,17.8-18
		C1511,332.1,1504.1,328.5,1495.6,328.5L1495.6,328.5z"/>
</g>
<g id="j">
	<path class="st14" d="M1536.6,314.3c-4.6,0-9.4-1.3-13.9-3.7c-10.9-5.9-16.6-16.6-12.8-24c2.2-4.1,6.9-6.4,12.9-6.4
		c4.6,0,9.4,1.3,13.9,3.7c10.9,5.9,16.6,16.6,12.8,24C1547.4,312,1542.7,314.3,1536.6,314.3z"/>
	<path d="M1522.9,280.7L1522.9,280.7c4.5,0,9.2,1.3,13.7,3.7c10.7,5.8,16.3,16.2,12.5,23.3c-2.1,3.9-6.6,6.1-12.5,6.1
		c-4.5,0-9.2-1.3-13.7-3.7c-10.7-5.8-16.3-16.2-12.5-23.3C1512.5,283,1517,280.7,1522.9,280.7 M1522.9,279.7c-6,0-11.1,2.3-13.4,6.6
		c-4,7.6,1.8,18.6,12.9,24.7c4.8,2.6,9.7,3.8,14.2,3.8c6,0,11.1-2.3,13.4-6.6c4-7.6-1.8-18.6-12.9-24.7
		C1532.3,281,1527.4,279.7,1522.9,279.7L1522.9,279.7z"/>
	<path class="st15" d="M1536.5,313.1c-4.2,0-8.8-1.2-13.1-3.5c-10.2-5.5-15.5-15.4-12-22.1c1.9-3.7,6.2-5.8,11.8-5.8
		c4.2,0,8.8,1.2,13.1,3.5c10.2,5.5,15.5,15.4,12,22.1C1546.4,311,1542.1,313.1,1536.5,313.1z"/>
	<path d="M1523.3,281.2v1c4.1,0,8.7,1.2,12.8,3.5c9.9,5.3,15.2,15,11.8,21.4c-1.8,3.5-6,5.5-11.4,5.5c-4.1,0-8.7-1.2-12.8-3.5
		c-9.9-5.3-15.2-15-11.8-21.4c1.8-3.5,6-5.5,11.4-5.5V281.2 M1523.3,281.2c-5.5,0-10.1,2.1-12.2,6c-3.7,7,1.8,17.2,12.2,22.8
		c4.5,2.4,9.1,3.6,13.3,3.6c5.5,0,10.1-2.1,12.2-6c3.7-7-1.8-17.2-12.2-22.8C1532.1,282.3,1527.5,281.2,1523.3,281.2L1523.3,281.2z"
		/>
	<path class="st16" d="M1537,311.6c-4,0-8.5-1.2-12.7-3.5c-9.6-5.1-14.8-14.2-11.6-20.2c1.7-3.2,5.5-5,10.4-5c4,0,8.5,1.2,12.7,3.5
		c9.6,5.1,14.8,14.2,11.6,20.2C1545.8,309.8,1542,311.6,1537,311.6z"/>
	<path d="M1523.3,283.5c3.9,0,8.4,1.2,12.4,3.4c9.3,5,14.4,13.8,11.4,19.5c-1.6,3-5.2,4.7-10,4.7c-3.9,0-8.4-1.2-12.4-3.4
		c-9.3-5-14.4-13.8-11.4-19.5C1514.9,285.2,1518.5,283.5,1523.3,283.5 M1523.3,282.5c-4.9,0-9.1,1.8-10.9,5.2
		c-3.3,6.2,1.9,15.6,11.8,20.9c4.4,2.4,8.9,3.5,12.9,3.5c4.9,0,9.1-1.8,10.9-5.2c3.3-6.2-1.9-15.6-11.8-20.9
		C1531.8,283.6,1527.2,282.5,1523.3,282.5L1523.3,282.5z"/>
</g>
<g id="k">
	
		<ellipse transform="matrix(0.5648 -0.8252 0.8252 0.5648 399.7425 1342.8245)" class="st9" cx="1473" cy="292.4" rx="11.8" ry="12"/>
	
		<ellipse transform="matrix(0.416 -0.9094 0.9094 0.416 594.5858 1511.4939)" class="st11" cx="1474" cy="292.8" rx="6.5" ry="8.3"/>
	
		<ellipse id="l" transform="matrix(0.5648 -0.8252 0.8252 0.5648 400.8759 1359.9808)" class="st9" cx="1489.9" cy="299.9" rx="11.8" ry="12"/>
	
		<ellipse transform="matrix(0.422 -0.9066 0.9066 0.422 589.1274 1525.0294)" class="st11" cx="1490.6" cy="300.5" rx="6.8" ry="7.9"/>
</g>
<rect id="m" x="0.5" y="598.5" class="st17" width="1919" height="481"/>
<g id="n">
	<path class="st18" d="M83,213.5h215c5.8,0,10.5,4.7,10.5,10.5v287c0,5.8-4.7,10.5-10.5,10.5H83c-5.8,0-10.5-4.7-10.5-10.5V224
		C72.5,218.2,77.2,213.5,83,213.5z"/>
	<path class="st19" d="M298,215c5,0,9,4,9,9v287c0,5-4,9-9,9H83c-5,0-9-4-9-9V224c0-5,4-9,9-9H298 M298,212H83c-6.6,0-12,5.4-12,12
		v287c0,6.6,5.4,12,12,12h215c6.6,0,12-5.4,12-12V224C310,217.4,304.6,212,298,212L298,212z"/>
</g>
<g id="o">
	<path class="st20" d="M104.5,231.6H276c6.1,0,11,4.9,11,11V485c0,6.1-4.9,11-11,11H104.5c-6.1,0-11-4.9-11-11V242.6
		C93.5,236.5,98.4,231.6,104.5,231.6z"/>
	<path d="M276,232.6c5.5,0,10,4.5,10,10V485c0,5.5-4.5,10-10,10H104.5c-5.5,0-10-4.5-10-10V242.6c0-5.5,4.5-10,10-10H276 M276,230.6
		H104.5c-6.6,0-12,5.4-12,12V485c0,6.6,5.4,12,12,12H276c6.6,0,12-5.4,12-12V242.6C288,236,282.6,230.6,276,230.6L276,230.6z"/>
</g>
<rect id="p" x="1" y="997" class="st21" width="1919" height="82"/>
<rect x="0.5" y="604.5" class="st22" width="109" height="47"/>
<rect x="109.5" y="607.5" class="st23" width="109" height="47"/>
<rect x="218.5" y="604.5" class="st22" width="109" height="47"/>
<rect x="327.5" y="604.5" class="st24" width="109" height="47"/>
<rect x="0.5" y="651.5" class="st24" width="109" height="61"/>
<rect x="436.5" y="607.5" class="st22" width="109" height="47"/>
<rect x="545.5" y="604.5" class="st24" width="109" height="47"/>
<rect x="654.5" y="604.5" class="st22" width="109" height="47"/>
<rect x="763.5" y="607.5" class="st24" width="109" height="47"/>
<rect x="872.5" y="604.5" class="st22" width="109" height="47"/>
<rect x="981.5" y="613.5" class="st24" width="109" height="47"/>
<rect x="1090.5" y="604.5" class="st22" width="109" height="47"/>
<rect x="1199.5" y="605.5" class="st24" width="109" height="47"/>
<rect x="1308.5" y="605.5" class="st22" width="109" height="47"/>
<rect x="1417.5" y="605.5" class="st24" width="109" height="47"/>
<rect x="1526.5" y="613.5" class="st22" width="109" height="47"/>
<rect x="1635.5" y="605.5" class="st24" width="109" height="47"/>
<rect x="1744.5" y="605.5" class="st22" width="109" height="47"/>
<rect x="1853.5" y="605.5" class="st25" width="66" height="47"/>
<rect x="109.5" y="651.5" class="st22" width="109" height="61"/>
<rect x="218.5" y="651.5" class="st24" width="109" height="61"/>
<rect x="0.5" y="703.5" class="st22" width="109" height="61"/>
<rect x="327.5" y="651.5" class="st22" width="109" height="61"/>
<rect x="436.5" y="651.5" class="st24" width="109" height="61"/>
<rect x="545.5" y="651.5" class="st22" width="109" height="61"/>
<rect x="654.5" y="651.5" class="st24" width="109" height="61"/>
<rect x="763.5" y="651.5" class="st22" width="109" height="61"/>
<rect x="872.5" y="651.5" class="st24" width="109" height="61"/>
<rect x="981.5" y="651.5" class="st22" width="109" height="61"/>
<rect x="1090.5" y="651.5" class="st24" width="109" height="61"/>
<rect x="1199.5" y="651.5" class="st22" width="109" height="61"/>
<rect x="1308.5" y="651.5" class="st24" width="109" height="61"/>
<rect x="1417.5" y="651.5" class="st22" width="109" height="61"/>
<rect x="1526.5" y="651.5" class="st24" width="109" height="61"/>
<rect x="1635.5" y="651.5" class="st22" width="109" height="61"/>
<rect x="1744.5" y="651.5" class="st24" width="109" height="61"/>
<rect x="1853.5" y="651.5" class="st22" width="66" height="61"/>
<rect x="1853.5" y="703.5" class="st24" width="66" height="61"/>
<rect x="109.5" y="703.5" class="st24" width="109" height="61"/>
<rect x="218.5" y="703.5" class="st22" width="109" height="61"/>
<rect x="327.5" y="703.5" class="st24" width="109" height="61"/>
<rect x="436.5" y="703.5" class="st22" width="109" height="61"/>
<rect x="545.5" y="703.5" class="st24" width="109" height="61"/>
<rect x="654.5" y="703.5" class="st22" width="109" height="61"/>
<rect id="q" x="1" y="585" class="st26" width="1919" height="36"/>
<rect x="763.5" y="703.5" class="st24" width="109" height="61"/>
<rect x="872.5" y="703.5" class="st22" width="109" height="61"/>
<rect x="981.5" y="703.5" class="st24" width="109" height="61"/>
<rect x="1090.5" y="703.5" class="st22" width="109" height="61"/>
<rect x="1199.5" y="703.5" class="st24" width="109" height="61"/>
<rect x="1308.5" y="703.5" class="st22" width="109" height="61"/>
<rect x="1417.5" y="703.5" class="st24" width="109" height="61"/>
<rect x="1526.5" y="703.5" class="st22" width="109" height="61"/>
<rect x="1635.5" y="703.5" class="st24" width="109" height="61"/>
<rect x="1744.5" y="703.5" class="st22" width="109" height="61"/>
<rect id="r" x="0.5" y="720.5" class="st27" width="1919" height="277"/>
<g id="s">
	<path class="st28" d="M446,179h262c6.1,0,11,4.9,11,11v421c0,6.1-4.9,11-11,11H446c-6.1,0-11-4.9-11-11V190
		C435,183.9,439.9,179,446,179z"/>
	<path class="st29" d="M708,180c5.5,0,10,4.5,10,10v421c0,5.5-4.5,10-10,10H446c-5.5,0-10-4.5-10-10V190c0-5.5,4.5-10,10-10H708
		 M708,178H446c-6.6,0-12,5.4-12,12v421c0,6.6,5.4,12,12,12h262c6.6,0,12-5.4,12-12V190C720,183.4,714.6,178,708,178L708,178z"/>
</g>
<g id="t">
	<path class="st18" d="M463.3,622.3c-1.5,0-2.9-0.4-4-1.1c-2.9-1.9-4.2-5.8-3.2-9.5l0.1-0.2V212.2c0-5.8,4.7-10.5,10.5-10.5h219.7
		c5.8,0,10.5,4.7,10.5,10.5l0.1,399.3c0,1.2-0.5,4.5-3.2,7.2c-2.9,2.8-6.4,3.1-7.4,3.1H466.5l-0.2,0.1
		C465.9,622,464.8,622.4,463.3,622.3L463.3,622.3z"/>
	<path class="st19" d="M686.4,203.2c5,0,9,4,9,9l0.1,266.2l0,133.1c0,0.9-0.4,3.9-2.8,6.2c-2.5,2.4-5.5,2.7-6.4,2.7H466.2l-0.5,0.2
		c-0.3,0.1-1.2,0.4-2.4,0.4s-2.3-0.3-3.2-0.9c-2.4-1.5-3.4-4.7-2.5-7.8l0.1-0.4V212.2c0-5,4-9,9-9H686.4 M686.4,200.2H466.7
		c-6.6,0-12,5.4-12,12v399.1c-1.2,4.4,0.4,9,3.8,11.2c1.6,1,3.4,1.3,4.8,1.3c1.7,0,3.1-0.4,3.4-0.5h219.7c0.9,0,5-0.2,8.5-3.5
		c3.4-3.3,3.6-7.4,3.7-8.3c0-133.1-0.1-266.2-0.1-399.3C698.4,205.6,693,200.2,686.4,200.2L686.4,200.2L686.4,200.2z"/>
</g>
<path class="st28" d="M649.4,412.9c-7.5,0-13.5-5.4-13.5-12s6.1-12,13.5-12s13.5,5.4,13.5,12S656.9,412.9,649.4,412.9z"/>
<path class="st29" d="M649.4,390.5c6.7,0,12,4.7,12,10.5s-5.4,10.5-12,10.5s-12-4.7-12-10.5S642.8,390.5,649.4,390.5 M649.4,387.5
	c-8.3,0-15,6-15,13.5s6.7,13.5,15,13.5s15-6,15-13.5S657.8,387.5,649.4,387.5L649.4,387.5z"/>
<g>
	<g id="u">
		<rect x="674.6" y="857.5" class="st30" width="661.9" height="61"/>
		
			<rect x="584.1" y="432.6" transform="matrix(0.9446 -0.3282 0.3282 0.9446 -194.5949 240.083)" class="st30" width="59.6" height="527.7"/>
		
			<rect x="659.9" y="886.9" transform="matrix(0.9446 -0.3282 0.3282 0.9446 -264.7349 271.8505)" class="st30" width="26.2" height="66.5"/>
		
			<rect x="639.8" y="421.6" transform="matrix(0.9446 -0.3282 0.3282 0.9446 -189.3207 249.481)" class="st30" width="9.3" height="528.1"/>
		<rect x="1267.2" y="884.5" class="st30" width="69.3" height="69.9"/>
		<rect x="674.6" y="884.5" class="st30" width="648.9" height="70"/>
		
			<rect x="574.4" y="440.2" transform="matrix(0.9446 -0.3282 0.3282 0.9446 -187.6392 229.7922)" class="st30" width="25.1" height="461.2"/>
		
			<rect x="500" y="445.1" transform="matrix(0.9446 -0.3282 0.3282 0.9446 -118.7977 200.4889)" class="st30" width="69.1" height="14.2"/>
	</g>
	<g id="v">
		<path class="st2" d="M1185.1,766.3H826.9c14.8-9.5,25.4-18.8,31.7-24.8c16.1-15.3,29.3-32.6,74-108.7
			c8.8-14.9,13.1-22.3,17.2-29.5c21.3-37.6,59.6-98.8,133.5-203.3c-0.6,2.5-1,4.7-1.3,6.2c-1.2,6.3-1.8,11.3-2.1,14.7
			c0,0-0.3,2.8-0.5,5.5c-10.3,124.3,25.1,215.7,25.1,215.7C1126.1,697.7,1157.1,738.3,1185.1,766.3L1185.1,766.3z"/>
		<path class="st3" d="M1169.3,794.2H840.1c-1.8-1.1-4.3-3-6.6-6.2c-3.5-4.8-4.8-9.8-5.3-12.4l0,0c0-10.2,7.1-18.6,15.9-18.6
			c4-1,10-2.1,17.2-1.5c4.2,0.3,6.8,1.1,9.2,1.5c8.8,1.8,26.4-1.5,26.4-1.5c7.5-1.6,18.8-2.7,34.4,0c1.1,0.9,2.9,2.2,5.3,3.1
			c4.8,1.8,8.2,0.4,18.5-1.5c5.7-1,8.5-1.6,10.6-1.5c5.4,0.1,4.9,1.2,14.5,3.1c5.8,1.1,12.3,1.4,14.5,1.5c0.5,0,2.5,0.1,2.5,0.1
			s-2.5-0.1-2.5-0.1c0-0.1,10.7-2.4,19.8,0c1.2,0.3,4,1.1,7.5,0.3c2.2-0.5,3.5-1.4,4.4-1.8c6.2-3.3,11.4,3.5,19.8,3.1
			c7.2-0.3,7.1-5.5,14.5-6.2c7.3-0.7,9.4,4.1,17.2,6.2c11.8,3.2,13.8-5.8,30.4-6.2c12.7-0.3,26.4,4.7,26.4,4.7s9.3-4.8,18.5-4.7
			c10.3,0.1,15.9,6.3,23.8,6.2c0.6,0,1.9,0,3.3,0.8c2.9,1.9,3.8,6.7,4.2,8.9c0.3,1.4,0.4,2.8,0.4,4.3l0,0
			C1185.1,785.8,1178,794.2,1169.3,794.2L1169.3,794.2z"/>
		<path class="st4" d="M823,766.3h366c6.6,0,12,5.4,12,12v24.1c0,6.6-5.4,12-12,12H823c-6.6,0-12-5.4-12-12v-24.1
			C811,771.7,816.4,766.3,823,766.3z"/>
	</g>
</g>
<path d="M1142,745.1c10.3-9.2,15.8-23.1,15.5-36.8s-6.5-27.3-18.4-34.7c-6.4-4-14.1-5.8-21.7-5c-0.9,0.1-1,1.6,0,1.5
	c13.4-1.4,26.1,5.7,32.9,17.3c6.7,11.5,7.2,25.9,2.9,38.2c-2.5,7.1-6.7,13.5-12.3,18.5C1140.3,744.7,1141.3,745.7,1142,745.1
	L1142,745.1L1142,745.1z"/>
<path d="M1044.5,815.1c2.6,2.7,2,7.6,1.8,11c-0.2,4.6-0.6,9.3-0.9,13.9c-0.8,9.4-1.9,18.8-3.4,28.1c-0.8,5.3-1.8,10.5-2.8,15.7
	c-0.2,0.9,1.3,1.3,1.4,0.4c3.8-19.2,6.2-38.8,7.1-58.4c0.2-3.8,0.6-8.8-2.3-11.8C1044.9,813.4,1043.8,814.4,1044.5,815.1
	L1044.5,815.1L1044.5,815.1z"/>
<ellipse class="st5" cx="955.1" cy="684" rx="25.1" ry="26.4"/>
<ellipse class="st5" cx="1070.1" cy="684" rx="25.1" ry="26.4"/>
<path class="st6" d="M1034.4,719.9c1.8,4.9-11.3,22.2-26.4,21.5c-14-0.7-25.7-16.8-23.8-21.5c1.2-3,7-0.3,25.1-0.2
	C1027.6,719.8,1033.3,717.1,1034.4,719.9z"/>
<ellipse class="st7" cx="1070.1" cy="720.2" rx="10.2" ry="10.1"/>
<ellipse class="st8" cx="967.2" cy="684.6" rx="7.7" ry="7.2"/>
<ellipse class="st8" cx="1060" cy="683" rx="7.7" ry="7.2"/>
<path class="st8" d="M1082.5,678.9c-2.7,0-5-2.3-5-5.2s2.2-5.2,5-5.2s5,2.3,5,5.2S1085.2,678.9,1082.5,678.9"/>
<path class="st8" d="M948.1,678.1c-2.7,0-5-2.1-5-4.6s2.2-4.6,5-4.6s5,2.1,5,4.6S950.8,678.1,948.1,678.1"/>
<ellipse class="st7" cx="948.3" cy="718.9" rx="10.2" ry="9"/>
<path d="M885.1,733.5c-7.7-7.6-12.1-18.8-11.6-29.5c0.6-13.2,8.8-25.7,20.6-31.7c5.5-2.8,11.8-4.1,17.9-3.7c1,0.1,1-1.4,0-1.5
	c-11.9-0.7-23.4,4.8-31,13.9c-4.7,5.6-7.8,12.3-8.8,19.5c-1.1,7.7,0.3,15.5,3.7,22.5c2,4.2,4.7,8.2,8,11.5
	C884.7,735.2,885.8,734.2,885.1,733.5L885.1,733.5L885.1,733.5z"/>
<path d="M964.3,813.2c-8,17.5-11.9,36.7-11.2,55.9c0.2,5.4,0.8,10.7,1.8,16c0.2,1,1.6,0.5,1.5-0.4c-3.3-18.5-2-37.7,3.5-55.7
	c1.6-5.2,3.5-10.2,5.8-15.1C966,813.1,964.7,812.4,964.3,813.2L964.3,813.2L964.3,813.2z"/>
</svg>
