<?xml version="1.0" encoding="UTF-8"?><svg id="a" xmlns="http://www.w3.org/2000/svg" width="1919.5" height="1091.25" viewBox="0 0 1919.5 1091.25"><defs><style>.u{fill:none;}.u,.v,.w,.x,.y,.z,.aa,.ab,.ac,.ad,.ae,.af{stroke-width:0px;}.ag,.ah,.ai,.aj,.ak,.al,.am,.an,.ao,.ap,.aq,.ar,.as,.at,.au,.av,.aw,.ax{stroke-miterlimit:10;}.ag,.an,.ao,.as,.au{stroke:#5b4034;}.ah{stroke:#dde3e0;}.ah,.ai{stroke-width:4px;}.ah,.aj,.ao{fill:#fff;}.ai{fill:#9b6f59;stroke:#825d4a;}.aj,.ak,.al,.am,.ax{stroke-width:.5px;}.aj,.aq,.aw,.ax{stroke:#000;}.ak{fill:#ff9492;}.ak,.al,.ap{stroke:#7f5d2a;}.al{fill:#ff9497;}.am{fill:#dbd6c1;stroke:#c1bca7;}.an{fill:#fffefd;}.ap,.aq,.ae{fill:#fed266;}.ar{fill:#fbbb71;stroke:#7f5d3f;}.as{fill:#f5f5f5;}.at{fill:#cd5522;stroke:#f17083;}.au{fill:#8e6652;}.av{fill:#5b4134;stroke:#271b16;}.aw{fill:#3d465a;}.w{fill:#f6e2fa;}.x{fill:#f6f1fa;}.y{fill:#6dcaf2;}.z{fill:#dde3e0;}.aa{fill:#b82214;}.ab{fill:#c1bca7;}.ac{fill:#941b10;}.ad{fill:#fde7c3;}.af{fill:#f4f6f5;}</style></defs><rect id="b" class="ad" width="1919" height="598"/><path id="c" class="ah" d="m1773.55,511.07h-567.64c-7.37,0-13.41-5.72-13.41-12.72V159.22c0-6.99,6.03-12.72,13.41-12.72h567.64c.9,0,5.64.1,9.47,3.74,2.43,2.31,3.94,5.48,3.94,8.98v339.13c50.77,24.44,75.79,37.99,75.05,40.66-.78,2.82-30.27-6.5-88.46-27.94Z"/><g id="d"><path class="ap" d="m1627.28,411.64h-291.12c12.02-6.6,20.64-13.12,25.78-17.32,13.06-10.66,23.84-22.76,60.16-75.79,7.12-10.39,10.67-15.58,13.97-20.57,17.32-26.24,48.4-68.89,108.5-141.83-.48,1.77-.83,3.25-1.07,4.33-.97,4.36-1.42,7.86-1.72,10.24,0,0-.25,1.97-.43,3.84-8.39,86.7,20.41,150.49,20.41,150.49,17.51,38.79,42.78,67.07,65.53,86.61Z"/><path class="at" d="m1614.39,431.13h-267.49c-1.43-.78-3.47-2.13-5.37-4.33-2.87-3.32-3.9-6.83-4.3-8.66h0c0-7.15,5.8-12.99,12.89-12.99,3.25-.72,8.11-1.48,13.97-1.08,3.41.23,5.52.74,7.52,1.08,7.11,1.22,21.48-1.08,21.48-1.08,6.11-1.11,15.26-1.88,27.93,0,.9.65,2.35,1.56,4.3,2.17,3.9,1.22,6.64.25,15.04-1.08,4.62-.74,6.93-1.1,8.59-1.08,4.42.05,4,.87,11.82,2.17,4.72.78,10.02,1.01,11.82,1.08.42.02,2,.08,2,.08,0,0-2-.04-2-.08,0-.08,8.7-1.65,16.11,0,.94.21,3.24.78,6.11.2,1.77-.36,2.86-.97,3.56-1.28,5.08-2.27,9.3,2.45,16.11,2.17,5.84-.24,5.73-3.83,11.82-4.33,5.97-.49,7.6,2.85,13.97,4.33,9.57,2.23,11.21-4.08,24.71-4.33,10.28-.19,21.48,3.25,21.48,3.25,0,0,7.56-3.31,15.04-3.25,8.41.07,12.9,4.39,19.34,4.33.48,0,1.56-.04,2.66.57,2.39,1.32,3.08,4.65,3.44,6.2.22.95.34,1.95.34,2.97h0c0,7.15-5.8,12.99-12.89,12.99Z"/><rect class="ar" x="1323.27" y="411.64" width="316.9" height="33.56" rx="12" ry="12"/></g><path class="v" d="m1592.21,397.13c8.13-6.22,13.18-16.04,12.81-26.35s-6.2-19.37-15.22-24.11c-5.35-2.81-11.45-3.95-17.46-3.43-.95.08-.96,1.58,0,1.5,10.01-.87,20.34,3.16,26.27,11.46,5.46,7.65,6.25,17.67,2.89,26.34-2.03,5.26-5.58,9.87-10.05,13.29-.76.58-.01,1.88.76,1.3h0Z"/><path class="v" d="m1510.23,445.96c3.01,2.3,1.84,7.81,1.59,11-.38,4.83-.91,9.64-1.59,14.43-1.33,9.32-3.21,18.55-5.63,27.65-.25.93,1.2,1.33,1.45.4,2.6-9.79,4.58-19.73,5.92-29.76.67-5.02,1.18-10.07,1.53-15.13.24-3.45.56-7.55-2.51-9.88-.77-.59-1.52.72-.76,1.3h0Z"/><ellipse class="ax" cx="1440.36" cy="354.26" rx="20.41" ry="18.41"/><ellipse class="ax" cx="1533.82" cy="354.26" rx="20.41" ry="18.41"/><path class="ak" d="m1504.82,379.3c1.5,3.39-9.2,15.51-21.48,15.02-11.42-.46-20.87-11.68-19.34-15.02.95-2.06,5.68-.18,20.41-.14,14.83.04,19.53-1.85,20.41.14Z"/><ellipse class="al" cx="1533.83" cy="379.46" rx="8.32" ry="7.04"/><ellipse class="aj" cx="1450.23" cy="354.64" rx="6.25" ry="5.03"/><ellipse class="aj" cx="1525.59" cy="353.54" rx="6.25" ry="5.03"/><path class="aj" d="m1543.86,350.65c-2.23,0-4.03-1.61-4.03-3.6s1.81-3.6,4.03-3.6,4.03,1.61,4.03,3.6-1.81,3.6-4.03,3.6"/><path class="v" d="m1450.74,445.15c-6.78,17.14-8.85,35.94-6.08,54.15.14.95,1.59.55,1.45-.4-2.73-17.95-.59-36.48,6.08-53.35.35-.9-1.1-1.29-1.45-.4h0Z"/><ellipse class="al" cx="1437.41" cy="379.7" rx="8.32" ry="7.04"/><path class="aj" d="m1432.36,350.55c-2.23,0-4.03-1.61-4.03-3.6s1.81-3.6,4.03-3.6,4.03,1.61,4.03,3.6-1.81,3.6-4.03,3.6"/><ellipse class="al" cx="1437.39" cy="379.34" rx="8.32" ry="7.04"/><path class="v" d="m1403.83,343.55c-10.11-.58-20.23,3.65-26.54,11.65s-7.8,18.95-3.93,28.46c2.3,5.64,6.2,10.43,11.13,13.98.78.56,1.53-.74.76-1.3-8.25-5.93-13.37-15.87-12.48-26.1.82-9.44,6.96-17.68,15.29-21.96,4.87-2.5,10.32-3.55,15.77-3.24.96.06.96-1.44,0-1.5h0Z"/><g id="e"><ellipse class="aw" cx="1509.38" cy="222.98" rx="11.83" ry="12.05" transform="translate(286.4 1135.26) rotate(-45.12)"/><ellipse class="aq" cx="1510.32" cy="223.6" rx="6.52" ry="8.28" transform="translate(472 1342.96) rotate(-55.57)"/><ellipse id="f" class="aw" cx="1524.72" cy="233.22" rx="11.83" ry="12.05" transform="translate(283.65 1149.14) rotate(-45.12)"/><ellipse class="aq" cx="1525.21" cy="233.84" rx="6.76" ry="7.9" transform="translate(461.13 1351.28) rotate(-55.12)"/></g><g id="g"><path class="am" d="m1456.48,327.31c-1.32,1.19-3.49,2.89-6.49,4.11-1,.41-1.92.69-2.74.9.17-1.13.13-2.03.06-2.63-.29-2.6-1.59-4.26-2.17-4.99-.24-.3-.44-.51-.53-.61-.99-1.05-2.04-1.73-2.82-2.14l8.86-5.19c.19,2.23.91,5.61,3.56,8.55.73.81,1.5,1.47,2.26,2.01Z"/><path class="am" d="m1457.06,307.59c1.02.99,3.07,3.72,2.38,4.73-.03.05-.09.13-.17.21-.42.41-1.24.52-4.73,2.25-1.18.58-1.78.88-2.23,1.17-.91.59-1.53,1.13-1.7,1-.08-.06-.05-.24.02-.41.07-.2.18-.4.19-.39.02,0-.2.81-.2.81.08-.57.19-.81.2-.8.05.01-.25.86-.23.86,0,0,.03-.06.03-.06,0,0-.03.04-.12.21,0,0,0,0,0,0-.13.13-.28.18-.34.2t-1.41.82c-2.23,1.31-4.47,2.62-6.7,3.93-.28.16-.92.54-1.27.74-.12.07-.64.37-.76.44.03-.01.05-.03.08-.04-.89.82-1.25,1.15-1.25,1.14,0,0,.35-.33.35-.34-.01-.01-1.04,1.02-2.2,1.84-1.1.78-2.51,1.79-3.55,1.67-1.85-.21-2.84-4-2.66-7.02.28-4.78,3.64-10.07,8.73-13.01,6.39-3.69,14.39-3.02,17.55.05Z"/><path class="ab" d="m1451.4,316.63c.43-.62,1.07-1.09,1.64-1.56s1.21-.94,1.89-1.3,1.45-.62,2.15-.97c.64-.32,1.4-.74,2.14-.57.94.21,1.34-1.24.4-1.45s-1.87.05-2.75.46c-.42.19-.82.41-1.24.6s-.89.35-1.32.57c-.82.41-1.56.98-2.27,1.56s-1.41,1.15-1.94,1.91.75,1.54,1.3.76h0Z"/><path class="ab" d="m1450.97,317.6c1.61-1.01,3.28-1.92,5-2.73.8-.38,1.64-.66,2.45-1.03s1.72-.96,1.72-1.98c0-.97-1.5-.97-1.5,0,0,.28-.56.49-.77.59-.32.15-.65.28-.97.41-.78.3-1.54.64-2.3,1.01-1.51.73-2.97,1.55-4.4,2.44-.82.51-.07,1.81.76,1.3h0Z"/><path class="ab" d="m1442.31,321.17c-1.11-.09-2.15,0-3.21.35-.99.33-1.94.8-2.8,1.41-.39.27-.79.56-1.1.93-.3.34-.51.62-.87.9-.77.6-1.41,1.37-1.83,2.26s.88,1.63,1.3.76c.35-.74.84-1.36,1.48-1.87.35-.28.62-.51.89-.87.24-.32.55-.57.88-.81.73-.52,1.52-.94,2.36-1.23.97-.34,1.86-.41,2.88-.32.96.08.96-1.42,0-1.5h0Z"/><path class="ab" d="m1433.23,328.2c.97-.08,1.82-.46,2.68-.88s1.71-.86,2.48-1.43c1.42-1.05,2.64-2.36,4.17-3.25.83-.48.08-1.78-.76-1.3-1.46.85-2.64,2.06-3.96,3.09-.67.52-1.4.95-2.16,1.33s-1.59.87-2.46.94c-.96.08-.96,1.58,0,1.5h0Z"/></g><g id="h"><path class="am" d="m1504.16,260.75c-1.32,1.19-3.49,2.89-6.49,4.11-1,.41-1.92.69-2.74.9.17-1.13.13-2.03.06-2.63-.29-2.6-1.59-4.26-2.17-4.99-.24-.3-.44-.51-.53-.61-.99-1.05-2.04-1.73-2.82-2.14,2.95-1.73,5.91-3.46,8.86-5.19.19,2.23.91,5.61,3.56,8.55.73.81,1.5,1.47,2.26,2.01Z"/><path class="am" d="m1504.74,241.04c1.02.99,3.07,3.72,2.38,4.73-.03.05-.09.13-.17.21-.42.41-1.24.52-4.73,2.25-1.18.58-1.78.88-2.23,1.17-.91.59-1.53,1.13-1.7,1-.08-.06-.05-.24.02-.41.07-.2.18-.4.19-.39.02,0-.2.81-.2.81.08-.57.19-.81.2-.8.05.01-.25.86-.23.86,0,0,.03-.06.03-.06,0,0-.03.04-.12.21,0,0,0,0,0,0-.13.13-.28.18-.34.2t-1.41.82c-2.23,1.31-4.47,2.62-6.7,3.93-.28.16-.92.54-1.27.74-.12.07-.64.37-.76.44.03-.01.05-.03.08-.04-.89.82-1.25,1.15-1.25,1.14,0,0,.35-.33.35-.34-.01-.01-1.04,1.02-2.2,1.84-1.1.78-2.51,1.79-3.55,1.67-1.85-.21-2.84-4-2.66-7.02.28-4.78,3.64-10.07,8.73-13.01,6.39-3.69,14.39-3.02,17.55.05Z"/><path class="ab" d="m1499.08,250.07c.43-.62,1.07-1.09,1.64-1.56s1.21-.94,1.89-1.3,1.45-.62,2.15-.97c.64-.32,1.4-.74,2.14-.57.94.21,1.34-1.24.4-1.45s-1.87.05-2.75.46c-.42.19-.82.41-1.24.6s-.89.35-1.32.57c-.82.41-1.56.98-2.27,1.56s-1.41,1.15-1.94,1.91.75,1.54,1.3.76h0Z"/><path class="ab" d="m1498.65,251.04c1.61-1.01,3.28-1.92,5-2.73.8-.38,1.64-.66,2.45-1.03s1.72-.96,1.72-1.98c0-.97-1.5-.97-1.5,0,0,.28-.56.49-.77.59-.32.15-.65.28-.97.41-.78.3-1.54.64-2.3,1.01-1.51.73-2.97,1.55-4.4,2.44-.82.51-.07,1.81.76,1.3h0Z"/><path class="ab" d="m1489.99,254.61c-1.11-.09-2.15,0-3.21.35-.99.33-1.94.8-2.8,1.41-.39.27-.79.56-1.1.93-.3.34-.51.62-.87.9-.77.6-1.41,1.37-1.83,2.26s.88,1.63,1.3.76c.35-.74.84-1.36,1.48-1.87.35-.28.62-.51.89-.87.24-.32.55-.57.88-.81.73-.52,1.52-.94,2.36-1.23.97-.34,1.86-.41,2.88-.32.96.08.96-1.42,0-1.5h0Z"/><path class="ab" d="m1480.91,261.64c.97-.08,1.82-.46,2.68-.88s1.71-.86,2.48-1.43c1.42-1.05,2.64-2.36,4.17-3.25.83-.48.08-1.78-.76-1.3-1.46.85-2.64,2.06-3.96,3.09-.67.52-1.4.95-2.16,1.33s-1.59.87-2.46.94c-.96.08-.96,1.58,0,1.5h0Z"/></g><g id="i"><path class="w" d="m1486.57,358.89c-9.95,0-17.64-4.53-19.15-11.26-1.93-8.64,6.92-18.03,19.72-20.93,2.53-.57,5.07-.86,7.57-.86,9.95,0,17.64,4.53,19.15,11.26,1.93,8.64-6.92,18.03-19.72,20.93-2.53.57-5.07.86-7.57.86Z"/><path class="v" d="m1494.71,326.33h0c9.71,0,17.21,4.37,18.66,10.87,1.87,8.37-6.81,17.49-19.34,20.33-2.49.56-5,.85-7.45.85-9.71,0-17.21-4.37-18.66-10.87-1.87-8.37,6.81-17.49,19.34-20.33,2.49-.56,5-.85,7.46-.85m0-1c-2.47,0-5.06.28-7.68.88-13.09,2.97-22.09,12.61-20.1,21.53,1.59,7.14,9.74,11.65,19.64,11.65,2.47,0,5.06-.28,7.68-.88,13.09-2.97,22.09-12.61,20.1-21.53-1.59-7.14-9.74-11.65-19.64-11.65h0Z"/><path class="x" d="m1486.88,357.45c-9.19,0-16.28-4.11-17.64-10.24-1.76-7.9,6.49-16.52,18.39-19.22,2.39-.54,4.79-.82,7.14-.82,9.19,0,16.28,4.11,17.64,10.24,1.76,7.9-6.49,16.52-18.39,19.22-2.39.54-4.79.82-7.14.82Z"/><path class="v" d="m1494.77,326.68v1c8.95,0,15.84,3.96,17.15,9.84,1.7,7.63-6.38,15.98-18.02,18.62-2.35.53-4.71.8-7.03.8-8.95,0-15.84-3.96-17.16-9.84-1.7-7.63,6.38-15.98,18.02-18.62,2.35-.53,4.71-.8,7.03-.8v-1m0,0c-2.33,0-4.78.27-7.25.83-12.19,2.77-20.6,11.64-18.77,19.81,1.46,6.52,8.97,10.63,18.13,10.63,2.33,0,4.78-.27,7.25-.83,12.19-2.77,20.6-11.64,18.77-19.81-1.46-6.52-8.97-10.63-18.13-10.63h0Z"/><path class="ae" d="m1486.8,355.72c-8.46,0-14.95-3.62-16.15-9-1.58-7.06,6.26-14.87,17.46-17.41,2.35-.53,4.72-.8,7.02-.8,8.46,0,14.95,3.62,16.15,9,1.58,7.06-6.26,14.87-17.46,17.41-2.35.53-4.72.8-7.02.8Z"/><path class="v" d="m1495.13,329h0c8.22,0,14.52,3.46,15.67,8.61,1.52,6.79-6.15,14.34-17.09,16.82-2.32.53-4.64.79-6.91.79-8.22,0-14.52-3.46-15.67-8.61-1.52-6.79,6.15-14.34,17.09-16.82,2.32-.53,4.64-.79,6.91-.79m0-1c-2.29,0-4.69.26-7.14.82-11.49,2.61-19.48,10.67-17.84,18.01,1.29,5.78,8.17,9.39,16.64,9.39,2.29,0,4.69-.26,7.14-.82,11.49-2.61,19.48-10.67,17.84-18.01-1.29-5.78-8.17-9.39-16.64-9.39h0Z"/></g><g id="j"><path class="w" d="m1536.12,313.84c-4.56,0-9.37-1.29-13.91-3.74-10.92-5.88-16.64-16.64-12.75-23.99,2.15-4.06,6.87-6.38,12.95-6.38,4.56,0,9.37,1.29,13.91,3.74,10.92,5.88,16.64,16.65,12.75,23.99-2.15,4.06-6.87,6.38-12.95,6.38Z"/><path class="v" d="m1522.42,280.24h0c4.47,0,9.2,1.27,13.67,3.68,10.68,5.75,16.31,16.21,12.54,23.31-2.06,3.89-6.62,6.12-12.51,6.12-4.47,0-9.2-1.27-13.67-3.68-10.68-5.75-16.31-16.21-12.54-23.31,2.06-3.89,6.62-6.12,12.51-6.12m0-1c-6.01,0-11.08,2.28-13.39,6.65-4.03,7.6,1.77,18.64,12.95,24.66,4.75,2.56,9.71,3.8,14.15,3.8,6.01,0,11.08-2.28,13.39-6.65,4.03-7.6-1.77-18.64-12.95-24.66-4.75-2.56-9.71-3.8-14.15-3.8h0Z"/><path class="x" d="m1536.04,312.56c-4.2,0-8.84-1.25-13.06-3.52-10.16-5.47-15.52-15.38-11.96-22.09,1.94-3.67,6.25-5.77,11.8-5.77,4.2,0,8.84,1.25,13.06,3.52,10.16,5.47,15.52,15.38,11.96,22.09-1.94,3.67-6.25,5.77-11.8,5.77Z"/><path class="v" d="m1522.82,280.68v1c4.12,0,8.68,1.23,12.82,3.46,9.91,5.34,15.19,14.95,11.76,21.42-1.85,3.5-5.99,5.5-11.36,5.5-4.12,0-8.68-1.23-12.82-3.46-9.91-5.34-15.19-14.95-11.76-21.42,1.85-3.5,5.99-5.5,11.36-5.5v-1m0,0c-5.51,0-10.14,2.06-12.24,6.03-3.69,6.96,1.76,17.16,12.17,22.77,4.48,2.41,9.14,3.58,13.3,3.58,5.51,0,10.14-2.06,12.24-6.03,3.69-6.96-1.76-17.16-12.17-22.77-4.48-2.41-9.14-3.58-13.3-3.58h0Z"/><path class="ae" d="m1536.54,311.14c-4.03,0-8.53-1.22-12.65-3.45-9.56-5.15-14.75-14.22-11.57-20.22,1.68-3.17,5.49-4.98,10.44-4.98,4.03,0,8.53,1.22,12.65,3.45,9.56,5.15,14.75,14.22,11.57,20.22-1.68,3.17-5.49,4.98-10.44,4.98Z"/><path class="v" d="m1522.77,282.99c3.95,0,8.36,1.2,12.42,3.39,9.32,5.02,14.41,13.79,11.36,19.54-1.59,3-5.24,4.72-10,4.72-3.95,0-8.36-1.2-12.42-3.39-9.32-5.02-14.41-13.79-11.36-19.54,1.59-3,5.24-4.72,10-4.72m0-1c-4.95,0-9.05,1.78-10.89,5.25-3.32,6.25,1.95,15.61,11.77,20.89,4.37,2.36,8.91,3.51,12.89,3.51,4.95,0,9.05-1.78,10.89-5.25,3.32-6.25-1.95-15.61-11.77-20.89-4.37-2.36-8.91-3.51-12.89-3.51h0Z"/></g><g id="k"><ellipse class="aw" cx="1472.56" cy="291.91" rx="11.84" ry="12.04" transform="translate(399.93 1342.2) rotate(-55.61)"/><ellipse class="aq" cx="1473.59" cy="292.37" rx="6.53" ry="8.27" transform="translate(594.71 1510.78) rotate(-65.42)"/><ellipse id="l" class="aw" cx="1489.39" cy="299.42" rx="11.84" ry="12.04" transform="translate(401.06 1359.35) rotate(-55.61)"/><ellipse class="aq" cx="1489.98" cy="299.94" rx="6.77" ry="7.9" transform="translate(589.38 1524.25) rotate(-65.04)"/></g><rect id="m" class="u" y="598" width="1919" height="481"/><g id="n"><rect class="aa" x="72" y="213" width="236" height="308" rx="10.5" ry="10.5"/><path class="ac" d="m297.5,214.5c4.96,0,9,4.04,9,9v287c0,4.96-4.04,9-9,9H82.5c-4.96,0-9-4.04-9-9V223.5c0-4.96,4.04-9,9-9h215m0-3H82.5c-6.6,0-12,5.4-12,12v287c0,6.6,5.4,12,12,12h215c6.6,0,12-5.4,12-12V223.5c0-6.6-5.4-12-12-12h0Z"/></g><g id="o"><rect class="y" x="93" y="231.1" width="193.5" height="264.4" rx="11" ry="11"/><path class="v" d="m275.5,232.1c5.51,0,10,4.49,10,10v242.4c0,5.51-4.49,10-10,10H104c-5.51,0-10-4.49-10-10v-242.4c0-5.51,4.49-10,10-10h171.5m0-2H104c-6.6,0-12,5.4-12,12v242.4c0,6.6,5.4,12,12,12h171.5c6.6,0,12-5.4,12-12v-242.4c0-6.6-5.4-12-12-12h0Z"/></g><rect id="p" class="av" y="996.5" width="1919.5" height="100.5"/><rect class="ag" y="604" width="109" height="47"/><rect class="as" x="109" y="607" width="109" height="47"/><rect class="ag" x="218" y="604" width="109" height="47"/><rect class="ao" x="327" y="604" width="109" height="47"/><rect class="ao" y="651" width="109" height="61"/><rect class="ag" x="436" y="607" width="109" height="47"/><rect class="ao" x="545" y="604" width="109" height="47"/><rect class="ag" x="654" y="604" width="109" height="47"/><rect class="ao" x="763" y="607" width="109" height="47"/><rect class="ag" x="872" y="604" width="109" height="47"/><rect class="ao" x="981" y="613" width="109" height="47"/><rect class="ag" x="1090" y="604" width="109" height="47"/><rect class="ao" x="1199" y="605" width="109" height="47"/><rect class="ag" x="1308" y="605" width="109" height="47"/><rect class="ao" x="1417" y="605" width="109" height="47"/><rect class="ag" x="1526" y="613" width="109" height="47"/><rect class="ao" x="1635" y="605" width="109" height="47"/><rect class="ag" x="1744" y="605" width="109" height="47"/><rect class="an" x="1853" y="605" width="66" height="47"/><rect class="ag" x="109" y="651" width="109" height="61"/><rect class="ao" x="218" y="651" width="109" height="61"/><rect class="ag" y="703" width="109" height="61"/><rect class="ag" x="327" y="651" width="109" height="61"/><rect class="ao" x="436" y="651" width="109" height="61"/><rect class="ag" x="545" y="651" width="109" height="61"/><rect class="ao" x="654" y="651" width="109" height="61"/><rect class="ag" x="763" y="651" width="109" height="61"/><rect class="ao" x="872" y="651" width="109" height="61"/><rect class="ag" x="981" y="651" width="109" height="61"/><rect class="ao" x="1090" y="651" width="109" height="61"/><rect class="ag" x="1199" y="651" width="109" height="61"/><rect class="ao" x="1308" y="651" width="109" height="61"/><rect class="ag" x="1417" y="651" width="109" height="61"/><rect class="ao" x="1526" y="651" width="109" height="61"/><rect class="ag" x="1635" y="651" width="109" height="61"/><rect class="ao" x="1744" y="651" width="109" height="61"/><rect class="ag" x="1853" y="651" width="66" height="61"/><rect class="ao" x="1853" y="703" width="66" height="61"/><rect class="ao" x="109" y="703" width="109" height="61"/><rect class="ag" x="218" y="703" width="109" height="61"/><rect class="ao" x="327" y="703" width="109" height="61"/><rect class="ag" x="436" y="703" width="109" height="61"/><rect class="ao" x="545" y="703" width="109" height="61"/><rect class="ag" x="654" y="703" width="109" height="61"/><rect id="q" class="ai" x=".5" y="584.5" width="1919" height="36"/><rect class="ao" x="763" y="703" width="109" height="61"/><rect class="ag" x="872" y="703" width="109" height="61"/><rect class="ao" x="981" y="703" width="109" height="61"/><rect class="ag" x="1090" y="703" width="109" height="61"/><rect class="ao" x="1199" y="703" width="109" height="61"/><rect class="ag" x="1308" y="703" width="109" height="61"/><rect class="ao" x="1417" y="703" width="109" height="61"/><rect class="ag" x="1526" y="703" width="109" height="61"/><rect class="ao" x="1635" y="703" width="109" height="61"/><rect class="ag" x="1744" y="703" width="109" height="61"/><rect id="r" class="au" y="720" width="1919" height="277"/><g id="s"><rect class="af" x="434.5" y="178.5" width="284" height="443" rx="11" ry="11"/><path class="z" d="m707.5,179.5c5.51,0,10,4.49,10,10v421c0,5.51-4.49,10-10,10h-262c-5.51,0-10-4.49-10-10V189.5c0-5.51,4.49-10,10-10h262m0-2h-262c-6.6,0-12,5.4-12,12v421c0,6.6,5.4,12,12,12h262c6.6,0,12-5.4,12-12V189.5c0-6.6-5.4-12-12-12h0Z"/></g><g id="t"><path class="aa" d="m462.82,621.85c-1.51,0-2.86-.38-4.01-1.12-2.91-1.86-4.21-5.78-3.17-9.52l.06-.2V211.69c0-5.79,4.71-10.5,10.5-10.5h219.66c5.79,0,10.5,4.71,10.5,10.5l.14,399.31c-.05,1.23-.46,4.52-3.21,7.22-2.87,2.83-6.42,3.08-7.44,3.09h-219.89l-.23.08c-.32.11-1.46.46-2.9.46Z"/><path class="ac" d="m685.86,202.69c4.96,0,9,4.04,9,9l.09,266.16.05,133.09c-.04.93-.38,3.87-2.77,6.22-2.47,2.43-5.53,2.65-6.37,2.66h-220.16l-.47.16c-.26.09-1.21.38-2.41.38s-2.29-.3-3.2-.88c-2.36-1.51-3.4-4.74-2.53-7.85l.11-.4V211.69c0-4.96,4.04-9,9-9h219.66m0-3h-219.66c-6.6,0-12,5.4-12,12v399.13c-1.24,4.44.37,8.99,3.8,11.18,1.64,1.05,3.37,1.35,4.82,1.35,1.73,0,3.06-.43,3.38-.54h219.66c.86-.01,5.04-.15,8.48-3.53,3.38-3.32,3.63-7.41,3.66-8.29-.05-133.1-.09-266.21-.14-399.31,0-6.6-5.4-12-12-12h0Z"/></g><path class="af" d="m648.94,412.38c-7.47,0-13.55-5.37-13.55-11.96s6.08-11.96,13.55-11.96,13.55,5.36,13.55,11.96-6.08,11.96-13.55,11.96Z"/><path class="z" d="m648.94,389.96c6.65,0,12.05,4.69,12.05,10.46s-5.41,10.46-12.05,10.46-12.05-4.69-12.05-10.46,5.41-10.46,12.05-10.46m0-3c-8.31,0-15.05,6.03-15.05,13.46s6.74,13.46,15.05,13.46,15.05-6.03,15.05-13.46-6.74-13.46-15.05-13.46h0Z"/></svg>