<?xml version="1.0" encoding="UTF-8"?><svg id="a" xmlns="http://www.w3.org/2000/svg" width="198" height="116" viewBox="0 0 198 116"><defs><style>.d,.e,.f,.g,.h,.i,.j,.k{stroke-width:0px;}.e{fill:#8c373e;}.f{fill:#c74b42;}.g{fill:#d8a483;}.h{fill:#d99e91;}.i{fill:#b95a51;}.j{fill:#8e2e2c;}.k{fill:#6a101a;}</style></defs><g id="b"><circle class="i" cx="52" cy="52" r="51.5"/><path class="k" d="m52,1c28.12,0,51,22.88,51,51s-22.88,51-51,51S1,80.12,1,52,23.88,1,52,1m0-1C23.28,0,0,23.28,0,52s23.28,52,52,52,52-23.28,52-52S80.72,0,52,0h0Z"/><circle class="e" cx="37.5" cy="36.5" r="4"/><path class="d" d="m37.5,33c1.93,0,3.5,1.57,3.5,3.5s-1.57,3.5-3.5,3.5-3.5-1.57-3.5-3.5,1.57-3.5,3.5-3.5m0-1c-2.49,0-4.5,2.01-4.5,4.5s2.01,4.5,4.5,4.5,4.5-2.01,4.5-4.5-2.01-4.5-4.5-4.5h0Z"/><circle class="e" cx="26.5" cy="22.5" r="3"/><path class="d" d="m26.5,20c1.38,0,2.5,1.12,2.5,2.5s-1.12,2.5-2.5,2.5-2.5-1.12-2.5-2.5,1.12-2.5,2.5-2.5m0-1c-1.93,0-3.5,1.57-3.5,3.5s1.57,3.5,3.5,3.5,3.5-1.57,3.5-3.5-1.57-3.5-3.5-3.5h0Z"/><circle class="e" cx="86" cy="46" r="2.5"/><path class="d" d="m86,44c1.1,0,2,.9,2,2s-.9,2-2,2-2-.9-2-2,.9-2,2-2m0-1c-1.66,0-3,1.34-3,3s1.34,3,3,3,3-1.34,3-3-1.34-3-3-3h0Z"/><circle class="e" cx="71" cy="17" r="2.5"/><path class="d" d="m71,15c1.1,0,2,.9,2,2s-.9,2-2,2-2-.9-2-2,.9-2,2-2m0-1c-1.66,0-3,1.34-3,3s1.34,3,3,3,3-1.34,3-3-1.34-3-3-3h0Z"/><circle class="e" cx="42" cy="54" r="3.5"/><path class="d" d="m42,51c1.65,0,3,1.35,3,3s-1.35,3-3,3-3-1.35-3-3,1.35-3,3-3m0-1c-2.21,0-4,1.79-4,4s1.79,4,4,4,4-1.79,4-4-1.79-4-4-4h0Z"/><circle class="g" cx="48" cy="11" r="2.5"/><path class="d" d="m48,9c1.1,0,2,.9,2,2s-.9,2-2,2-2-.9-2-2,.9-2,2-2m0-1c-1.66,0-3,1.34-3,3s1.34,3,3,3,3-1.34,3-3-1.34-3-3-3h0Z"/><circle class="g" cx="70.5" cy="89.5" r="4"/><path class="d" d="m70.5,86c1.93,0,3.5,1.57,3.5,3.5s-1.57,3.5-3.5,3.5-3.5-1.57-3.5-3.5,1.57-3.5,3.5-3.5m0-1c-2.49,0-4.5,2.01-4.5,4.5s2.01,4.5,4.5,4.5,4.5-2.01,4.5-4.5-2.01-4.5-4.5-4.5h0Z"/><circle class="j" cx="82.5" cy="27.5" r="3"/><path class="d" d="m82.5,25c1.38,0,2.5,1.12,2.5,2.5s-1.12,2.5-2.5,2.5-2.5-1.12-2.5-2.5,1.12-2.5,2.5-2.5m0-1c-1.93,0-3.5,1.57-3.5,3.5s1.57,3.5,3.5,3.5,3.5-1.57,3.5-3.5-1.57-3.5-3.5-3.5h0Z"/><circle class="g" cx="64.5" cy="40.5" r="5"/><path class="d" d="m64.5,36c2.48,0,4.5,2.02,4.5,4.5s-2.02,4.5-4.5,4.5-4.5-2.02-4.5-4.5,2.02-4.5,4.5-4.5m0-1c-3.04,0-5.5,2.46-5.5,5.5s2.46,5.5,5.5,5.5,5.5-2.46,5.5-5.5-2.46-5.5-5.5-5.5h0Z"/><circle class="g" cx="16.5" cy="42.5" r="5"/><path class="d" d="m16.5,38c2.48,0,4.5,2.02,4.5,4.5s-2.02,4.5-4.5,4.5-4.5-2.02-4.5-4.5,2.02-4.5,4.5-4.5m0-1c-3.04,0-5.5,2.46-5.5,5.5s2.46,5.5,5.5,5.5,5.5-2.46,5.5-5.5-2.46-5.5-5.5-5.5h0Z"/><circle class="e" cx="90.5" cy="58.5" r="4"/><path class="d" d="m90.5,55c1.93,0,3.5,1.57,3.5,3.5s-1.57,3.5-3.5,3.5-3.5-1.57-3.5-3.5,1.57-3.5,3.5-3.5m0-1c-2.49,0-4.5,2.01-4.5,4.5s2.01,4.5,4.5,4.5,4.5-2.01,4.5-4.5-2.01-4.5-4.5-4.5h0Z"/><circle class="j" cx="51" cy="24" r="2.5"/><path class="d" d="m51,22c1.1,0,2,.9,2,2s-.9,2-2,2-2-.9-2-2,.9-2,2-2m0-1c-1.66,0-3,1.34-3,3s1.34,3,3,3,3-1.34,3-3-1.34-3-3-3h0Z"/><circle class="e" cx="60" cy="57" r="2.5"/><path class="d" d="m60,55c1.1,0,2,.9,2,2s-.9,2-2,2-2-.9-2-2,.9-2,2-2m0-1c-1.66,0-3,1.34-3,3s1.34,3,3,3,3-1.34,3-3-1.34-3-3-3h0Z"/><circle class="e" cx="77" cy="61" r="2.5"/><path class="d" d="m77,59c1.1,0,2,.9,2,2s-.9,2-2,2-2-.9-2-2,.9-2,2-2m0-1c-1.66,0-3,1.34-3,3s1.34,3,3,3,3-1.34,3-3-1.34-3-3-3h0Z"/><circle class="e" cx="18" cy="62" r="3.5"/><path class="d" d="m18,59c1.65,0,3,1.35,3,3s-1.35,3-3,3-3-1.35-3-3,1.35-3,3-3m0-1c-2.21,0-4,1.79-4,4s1.79,4,4,4,4-1.79,4-4-1.79-4-4-4h0Z"/><circle class="g" cx="41.5" cy="70.5" r="5"/><path class="d" d="m41.5,66c2.48,0,4.5,2.02,4.5,4.5s-2.02,4.5-4.5,4.5-4.5-2.02-4.5-4.5,2.02-4.5,4.5-4.5m0-1c-3.04,0-5.5,2.46-5.5,5.5s2.46,5.5,5.5,5.5,5.5-2.46,5.5-5.5-2.46-5.5-5.5-5.5h0Z"/><circle class="e" cx="59.5" cy="72.5" r="5"/><path class="d" d="m59.5,68c2.48,0,4.5,2.02,4.5,4.5s-2.02,4.5-4.5,4.5-4.5-2.02-4.5-4.5,2.02-4.5,4.5-4.5m0-1c-3.04,0-5.5,2.46-5.5,5.5s2.46,5.5,5.5,5.5,5.5-2.46,5.5-5.5-2.46-5.5-5.5-5.5h0Z"/><circle class="e" cx="82" cy="78" r="2.5"/><path class="d" d="m82,76c1.1,0,2,.9,2,2s-.9,2-2,2-2-.9-2-2,.9-2,2-2m0-1c-1.66,0-3,1.34-3,3s1.34,3,3,3,3-1.34,3-3-1.34-3-3-3h0Z"/><circle class="e" cx="52" cy="92" r="2.5"/><path class="d" d="m52,90c1.1,0,2,.9,2,2s-.9,2-2,2-2-.9-2-2,.9-2,2-2m0-1c-1.66,0-3,1.34-3,3s1.34,3,3,3,3-1.34,3-3-1.34-3-3-3h0Z"/><ellipse class="e" cx="33.5" cy="89.32" rx="3" ry="3.18"/><path class="d" d="m33.5,86.64c1.38,0,2.5,1.2,2.5,2.68s-1.12,2.68-2.5,2.68-2.5-1.2-2.5-2.68,1.12-2.68,2.5-2.68m0-1c-1.93,0-3.5,1.65-3.5,3.68s1.57,3.68,3.5,3.68,3.5-1.65,3.5-3.68-1.57-3.68-3.5-3.68h0Z"/><circle class="e" cx="26" cy="78" r="2.5"/><path class="d" d="m26,76c1.1,0,2,.9,2,2s-.9,2-2,2-2-.9-2-2,.9-2,2-2m0-1c-1.66,0-3,1.34-3,3s1.34,3,3,3,3-1.34,3-3-1.34-3-3-3h0Z"/></g><g id="c"><path class="f" d="m131.34,9.3c-2.97,2.85-4.39,7.22-3.68,11.27.32,1.81,1.03,3.58.96,5.42-.19,4.75-5.35,7.87-6.47,12.49-1.07,4.39,1.73,9.28-.14,13.39-.8,1.75-2.33,3.04-3.58,4.5-2.26,2.65-3.64,6.03-3.89,9.5-.4,5.61,2.04,11.45.13,16.73-.89,2.47-2.66,4.52-4.06,6.75s-2.48,4.92-1.78,7.45c1.06,3.84,5.71,5.57,9.68,5.27,3.98-.29,7.74-1.97,11.7-2.39,2.67-.28,5.37.01,8.05-.12s5.48-.77,7.45-2.59c2.9-2.68,3.25-7.14,2.67-11.05-.21-1.39-.5-2.8-.31-4.19.17-1.2.7-2.32,1.27-3.39,3.49-6.5,9.03-12.26,9.91-19.59.81-6.81-2.63-13.77-.95-20.42.94-3.74,3.43-6.96,4.26-10.73.42-1.9.4-3.86.52-5.79.34-5.44,1.81-10.8,4.29-15.64-5.23.21-10.46.43-15.7.64-6.64.27-13.31.55-19.81,1.93"/><path class="d" d="m130.81,8.77c-2.48,2.47-3.96,5.8-4.07,9.31-.06,1.94.46,3.74.87,5.62s.25,3.68-.69,5.43c-1.48,2.77-3.91,4.95-5.09,7.9-1.4,3.5-.14,7.07.06,10.65.12,2.16-.37,4.03-1.77,5.71-1.25,1.49-2.66,2.8-3.7,4.46-2.07,3.28-2.86,7.08-2.62,10.92.27,4.21,1.57,8.62.42,12.8-1.06,3.82-4.26,6.54-5.67,10.21-1.17,3.04-.81,6.45,1.77,8.64,2.28,1.94,5.49,2.65,8.42,2.4,4.38-.38,8.47-2.29,12.89-2.47,3.92-.17,7.97.48,11.72-1.03,3.11-1.26,5.09-3.93,5.72-7.19.34-1.73.36-3.51.18-5.26-.24-2.25-.85-4.37,0-6.56,1.41-3.6,4-6.78,6.05-10.03,1.91-3.02,3.68-6.23,4.42-9.75,1.7-8.07-3.16-16.23.01-24.12,1.45-3.62,3.49-6.79,3.88-10.76.22-2.25.2-4.52.52-6.76.3-2.1.77-4.17,1.4-6.19s1.5-4.14,2.49-6.12c.24-.48-.05-1.15-.65-1.13-6.04.25-12.08.48-18.13.74s-11.79.65-17.58,1.85c-.94.2-.54,1.64.4,1.45,5.82-1.21,11.75-1.57,17.67-1.82s11.76-.48,17.64-.72l-.65-1.13c-1.81,3.57-3.12,7.38-3.83,11.32s-.22,8.1-1.51,11.88c-1.21,3.55-3.47,6.66-4.08,10.42s.14,7.53.73,11.24c.63,3.96.91,7.84-.4,11.69-1.17,3.43-3.2,6.5-5.18,9.5-.99,1.51-1.98,3.01-2.9,4.56s-1.94,3.27-2.23,5.12.27,3.8.43,5.69c.15,1.73.12,3.51-.32,5.21-1.01,3.9-4.19,5.87-8.05,6.29-4.06.45-8.08-.19-12.11.7-3.76.83-7.63,2.44-11.54,1.79-3.14-.52-6.35-2.5-6.39-6.02-.04-3.93,3.18-6.95,4.99-10.15,1.93-3.41,1.99-7.1,1.54-10.9-.47-4.02-1.15-8,.13-11.95.63-1.93,1.63-3.74,2.93-5.29,1.14-1.36,2.53-2.54,3.41-4.11,1.79-3.17.77-6.76.39-10.14-.2-1.82-.17-3.64.57-5.35.61-1.39,1.53-2.62,2.43-3.82,1.72-2.29,3.58-4.72,3.6-7.72.01-2.04-.84-3.94-1.07-5.95-.2-1.79.02-3.61.61-5.31s1.63-3.35,2.96-4.67c.69-.68-.37-1.74-1.06-1.06h0Z"/><path class="h" d="m120.16,101.09c-1.92-2.79-1.69-6.57-.74-9.83.95-3.26,2.54-6.34,3.14-9.68.73-4.09-.08-8.31.45-12.43,1.22-9.64,9.5-17.79,8.7-27.47-.16-1.97-.71-3.9-.86-5.88-.72-9.63,7.99-18.25,6.67-27.81l7.21.06c.1,2.08.21,4.17.14,6.25-.06,1.65-.22,3.29-.59,4.9-.32,1.41-.79,2.79-1.28,4.15s-1,2.72-1.41,4.11c-.57,1.94-.95,3.92-1.21,5.93-.36,2.72-.53,5.49-.73,8.25-.23,3.13-.52,6.24-1.21,9.28-.12.54-.26,1.09-.41,1.63-1.66,5.91-5.12,11.76-3.85,17.76.39,1.86,1.23,3.61,1.46,5.5.34,2.78-.67,5.54-1.9,8.05s-2.71,4.92-3.43,7.63-.54,5.85,1.27,7.96"/><path class="d" d="m120.48,100.9c-4.08-6.26,1.56-13.4,2.52-19.7.56-3.68-.02-7.41.28-11.1.26-3.17,1.32-6.19,2.6-9.08,2.3-5.19,5.47-10.25,6.13-16,.39-3.42-.74-6.57-.84-9.95-.08-2.93.71-5.8,1.72-8.53,2.22-5.98,5.81-11.92,4.98-18.55l-.38.38c2.4.02,4.81.04,7.21.06l-.38-.38c.17,3.38.35,6.81-.26,10.16s-2.09,6.36-3,9.59c-1.8,6.45-1.47,13.21-2.43,19.79-.44,3.05-1.28,5.95-2.33,8.84s-2.15,5.66-2.6,8.65.08,5.47.94,8.26c1.08,3.52.49,6.64-1.06,9.92-2.35,4.95-6.49,11.25-2.29,16.44.3.38.83-.16.53-.53-4.27-5.28.93-11.86,2.99-16.84,1.06-2.55,1.58-5.21.92-7.92-.35-1.42-.92-2.78-1.22-4.21-.34-1.62-.33-3.29-.08-4.92.45-2.99,1.58-5.82,2.6-8.65s1.88-5.79,2.33-8.84c.92-6.27.66-12.71,2.2-18.89.88-3.56,2.58-6.87,3.23-10.49.62-3.42.46-6.91.28-10.36-.01-.2-.16-.37-.38-.38-2.4-.02-4.81-.04-7.21-.06-.18,0-.4.17-.38.38.77,6.16-2.37,11.75-4.55,17.29-1.05,2.67-1.94,5.44-2.13,8.32-.22,3.37,1.02,6.59.92,9.95-.2,6.16-3.71,11.61-6.14,17.09-1.19,2.69-2.21,5.48-2.59,8.41-.48,3.69.11,7.41-.26,11.11-.7,6.85-6.95,14.36-2.55,21.12.26.4.91.03.65-.38h0Z"/><path class="h" d="m137.22,98.91c-.26-2.28-.41-5.79.59-9.78,1.09-4.34,2.68-5.87,3.7-9.72,1.27-4.81-.23-6.17-.09-12.08.25-10.62,5.58-13.11,6.36-26.9.11-1.97.05-3.9.17-5.87.57-9.58,5.19-17.78,5.5-27.32,1.38-.24,2.77-.48,4.15-.72-.85,3.07-1.28,5.56-1.51,7.27-.21,1.59-.3,2.72-.71,4.84-.27,1.39-.6,2.73-.94,4.07s-.69,2.66-1,4.02c-.43,1.9-.78,3.85-1.08,5.83-.41,2.69-.74,5.43-1.08,8.15-.39,3.09-.81,6.17-1.39,9.16-.1.54-.21,1.07-.33,1.6-1.27,5.8-3.33,11.46-3.33,17.47,0,1.86.21,3.64.13,5.52-.11,2.77-.81,5.47-1.58,7.91-.77,2.44-1.65,4.77-2.21,7.43-.63,2.93-.48,5.66-.18,7.95"/><path class="d" d="m137.59,98.91c-.38-3.39-.2-6.83.69-10.14.8-2.96,2.46-5.55,3.36-8.47.78-2.52.84-4.9.5-7.49-.39-2.98-.5-5.99-.05-8.98.68-4.48,2.81-8.47,4.17-12.75.88-2.74,1.43-5.57,1.72-8.43.4-3.99.12-7.99.78-11.95,1.32-7.91,4.74-15.36,5.05-23.45l-.28.36c1.38-.24,2.77-.48,4.15-.72l-.46-.46c-1.41,5.18-1.73,10.53-3.05,15.73-1.55,6.14-2.5,12.27-3.29,18.55-.42,3.3-.86,6.6-1.54,9.86-.61,2.95-1.45,5.85-2.16,8.78s-1.3,6.04-1.36,9.12.33,6.32-.3,9.52c-.67,3.38-2,6.56-2.9,9.88s-1.06,6.51-.64,9.88c.06.47.81.48.75,0-.41-3.21-.28-6.32.55-9.45.77-2.89,1.88-5.66,2.61-8.56s.86-5.89.73-8.95.2-6.32.87-9.44,1.5-5.91,2.19-8.88,1.19-6.12,1.6-9.21c.84-6.26,1.47-12.53,3.03-18.67.79-3.12,1.55-6.2,1.95-9.4.36-2.9.9-5.74,1.67-8.55.08-.3-.19-.51-.46-.46-1.38.24-2.77.48-4.15.72-.16.03-.27.21-.28.36-.29,7.44-3.23,14.32-4.71,21.53-.76,3.72-.77,7.39-.93,11.17-.14,3.3-.62,6.59-1.53,9.77-1.24,4.32-3.44,8.33-4.33,12.75-.56,2.78-.67,5.66-.4,8.49.25,2.59.73,5.02.16,7.61-.74,3.38-2.69,6.28-3.65,9.58-1.02,3.49-1.24,7.17-.84,10.77.05.47.8.48.75,0h0Z"/></g></svg>