<?xml version="1.0" encoding="UTF-8"?><svg id="a" xmlns="http://www.w3.org/2000/svg" width="840.7" height="560.25" viewBox="0 0 840.7 560.25"><defs><style>.d{fill:#fff;}.d,.e,.f,.g,.h,.i,.j,.k{stroke-miterlimit:10;}.d,.e,.f,.j{stroke-width:.5px;}.d,.j{stroke:#000;}.e{fill:#ff9492;}.e,.f,.g{stroke:#7f5d2a;}.f{fill:#ff9497;}.g{fill:#fed266;}.h{fill:#fbbb71;stroke:#7f5d3f;}.i{fill:#cd5522;stroke:#f17083;}.k{fill:#deb985;stroke:#825d4a;stroke-width:3px;}.l{stroke-width:0px;}</style></defs><g id="b"><rect class="k" x="177.29" y="459.88" width="661.91" height="61"/><rect class="k" x="-147.21" y="269.12" width="527.75" height="59.59" transform="translate(360.73 90.59) rotate(70.84)"/><rect class="k" x="142.46" y="509.49" width="66.52" height="26.25" transform="translate(611.69 185.08) rotate(70.84)"/><rect class="k" x="-116.9" y="283.35" width="528.09" height="9.27" transform="translate(370.88 54.47) rotate(70.84)"/><rect class="k" x="769.9" y="486.88" width="69.3" height="69.89" transform="translate(1609.1 1043.65) rotate(180)"/><rect class="k" x="177.29" y="486.88" width="648.91" height="70"/><rect class="k" x="-140.96" y="260.63" width="461.22" height="25.08" transform="translate(318.26 98.81) rotate(70.84)"/><rect class="k" x="2.72" y="47.45" width="69.07" height="14.16" transform="translate(-15.84 15.25) rotate(-19.16)"/></g><g id="c"><path class="g" d="m687.83,368.69h-358.27c14.79-9.46,25.4-18.82,31.73-24.83,16.08-15.29,29.33-32.63,74.03-108.65,8.76-14.89,13.14-22.34,17.19-29.49,21.31-37.62,59.57-98.76,133.53-203.33-.59,2.53-1.03,4.67-1.32,6.21-1.2,6.26-1.75,11.27-2.12,14.68,0,0-.3,2.82-.53,5.5-10.32,124.3,25.12,215.75,25.12,215.75,21.55,55.6,52.64,96.15,80.64,124.17Z"/><path class="i" d="m671.97,396.63h-329.19c-1.76-1.12-4.27-3.05-6.61-6.21-3.53-4.76-4.8-9.79-5.29-12.42h0c0-10.24,7.14-18.63,15.86-18.63,4.01-1.04,9.98-2.12,17.19-1.55,4.2.33,6.79,1.06,9.25,1.55,8.75,1.75,26.44-1.55,26.44-1.55,7.52-1.59,18.78-2.7,34.37,0,1.11.93,2.9,2.23,5.29,3.1,4.8,1.75,8.18.36,18.51-1.55,5.68-1.05,8.53-1.58,10.58-1.55,5.44.08,4.92,1.25,14.54,3.1,5.81,1.12,12.33,1.44,14.54,1.55.52.03,2.46.12,2.46.12,0,0-2.46-.06-2.46-.12,0-.12,10.7-2.37,19.83,0,1.15.3,3.99,1.12,7.52.29,2.17-.51,3.52-1.39,4.38-1.84,6.25-3.26,11.45,3.51,19.83,3.1,7.18-.35,7.05-5.5,14.54-6.21,7.35-.7,9.36,4.08,17.19,6.21,11.78,3.2,13.8-5.85,30.41-6.21,12.66-.27,26.44,4.66,26.44,4.66,0,0,9.31-4.75,18.51-4.66,10.35.11,15.87,6.29,23.8,6.21.6,0,1.92-.05,3.27.81,2.94,1.89,3.79,6.66,4.24,8.9.28,1.37.42,2.8.42,4.26h0c0,10.24-7.14,18.63-15.86,18.63Z"/><rect class="h" x="313.7" y="368.69" width="390" height="48.12" rx="12" ry="12"/></g><path class="l" d="m644.74,347.49c10.33-9.17,15.79-23.08,15.54-36.8s-6.54-27.32-18.41-34.72c-6.45-4.02-14.09-5.8-21.65-5.02-.95.1-.96,1.6,0,1.5,13.45-1.39,26.13,5.73,32.89,17.28,6.71,11.45,7.23,25.87,2.86,38.23-2.5,7.07-6.68,13.49-12.29,18.47-.72.64.34,1.7,1.06,1.06h0Z"/><path class="l" d="m547.21,417.48c2.63,2.68,2.01,7.56,1.84,10.97-.23,4.64-.55,9.28-.94,13.91-.79,9.4-1.91,18.77-3.36,28.09-.82,5.26-1.75,10.5-2.78,15.73-.19.94,1.26,1.35,1.45.4,3.79-19.25,6.17-38.78,7.14-58.37.19-3.82.64-8.8-2.29-11.78-.68-.69-1.74.37-1.06,1.06h0Z"/><ellipse class="j" cx="457.8" cy="286.42" rx="25.12" ry="26.39"/><ellipse class="j" cx="572.81" cy="286.42" rx="25.12" ry="26.39"/><path class="e" d="m537.12,322.33c1.85,4.86-11.33,22.23-26.44,21.53-14.05-.65-25.69-16.75-23.8-21.53,1.17-2.95,6.99-.26,25.12-.2,18.25.05,24.03-2.65,25.12.2Z"/><ellipse class="f" cx="572.83" cy="322.55" rx="10.24" ry="10.09"/><ellipse class="d" cx="469.93" cy="286.98" rx="7.69" ry="7.21"/><ellipse class="d" cx="562.69" cy="285.39" rx="7.69" ry="7.21"/><path class="d" d="m585.16,281.25c-2.74,0-4.96-2.31-4.96-5.17s2.22-5.17,4.96-5.17,4.96,2.31,4.96,5.17-2.22,5.17-4.96,5.17"/><path class="d" d="m450.78,280.51c-2.74,0-4.96-2.06-4.96-4.6s2.22-4.6,4.96-4.6,4.96,2.06,4.96,4.6-2.22,4.6-4.96,4.6"/><ellipse class="f" cx="450.96" cy="321.25" rx="10.23" ry="8.98"/><path class="l" d="m387.77,335.85c-7.65-7.58-12.11-18.79-11.61-29.52.61-13.2,8.84-25.68,20.6-31.67,5.5-2.8,11.78-4.11,17.94-3.74.96.06.96-1.44,0-1.5-11.93-.73-23.37,4.79-30.95,13.89-4.65,5.58-7.77,12.32-8.76,19.53-1.06,7.73.34,15.55,3.71,22.55,2.01,4.18,4.7,8.23,8.01,11.52.69.68,1.75-.38,1.06-1.06h0Z"/><path class="l" d="m467,415.62c-7.99,17.47-11.94,36.69-11.15,55.91.22,5.38.82,10.74,1.76,16.05.17.95,1.61.55,1.45-.4-3.27-18.52-2.02-37.69,3.48-55.66,1.58-5.17,3.51-10.23,5.76-15.14.4-.87-.89-1.63-1.3-.76h0Z"/></svg>