<?xml version="1.0" encoding="UTF-8"?><svg id="a" xmlns="http://www.w3.org/2000/svg" width="1920" height="1080" viewBox="0 0 1920 1080"><defs><style>.j{fill:none;}.j,.k{stroke-width:0px;}.l,.m,.n,.o,.p,.q,.r,.s,.t,.u,.v,.w,.x,.y,.z,.aa,.ab{stroke-miterlimit:10;}.l,.r,.s,.w,.y{stroke:#5b4034;}.m{fill:#9b6f59;stroke-width:4px;}.m,.ab{stroke:#825d4a;}.n{fill:#0096bf;}.n,.o,.p,.q,.aa{stroke-width:.5px;}.n,.o,.u,.aa{stroke:#000;}.o,.s{fill:#fff;}.p{fill:#ff9492;}.p,.q,.t{stroke:#7f5d2a;}.q{fill:#ff9497;}.r{fill:#fffefd;}.t{fill:#fed266;}.u{fill:#fde7c3;}.v{fill:#fbbb71;stroke:#7f5d3f;}.w{fill:#f5f5f5;}.x{fill:#cd5522;stroke:#f17083;}.y{fill:#8e6652;}.z{fill:#5b4134;stroke:#271b16;}.ab{fill:#deb985;stroke-width:3px;}</style></defs><rect id="b" class="u" x="0" y="-3.19" width="1920.54" height="605.04"/><rect id="c" class="j" y="601.85" width="1919" height="481"/><rect id="d" class="z" x="-.46" y="978.81" width="1919.96" height="103.54"/><rect class="l" y="607.85" width="109" height="47"/><rect class="w" x="109" y="610.85" width="109" height="47"/><rect class="l" x="218" y="607.85" width="109" height="47"/><rect class="s" x="327" y="607.85" width="109" height="47"/><rect class="s" y="654.85" width="109" height="61"/><rect class="l" x="436" y="610.85" width="109" height="47"/><rect class="s" x="545" y="607.85" width="109" height="47"/><rect class="l" x="654" y="607.85" width="109" height="47"/><rect class="s" x="763" y="610.85" width="109" height="47"/><rect class="l" x="872" y="607.85" width="109" height="47"/><rect class="s" x="981" y="616.85" width="109" height="47"/><rect class="l" x="1090" y="607.85" width="109" height="47"/><rect class="s" x="1199" y="608.85" width="109" height="47"/><rect class="l" x="1308" y="608.85" width="109" height="47"/><rect class="s" x="1417" y="608.85" width="109" height="47"/><rect class="l" x="1526" y="616.85" width="109" height="47"/><rect class="s" x="1635" y="608.85" width="109" height="47"/><rect class="l" x="1744" y="608.85" width="109" height="47"/><rect class="r" x="1853" y="608.85" width="66" height="47"/><rect class="l" x="109" y="654.85" width="109" height="61"/><rect class="s" x="218" y="654.85" width="109" height="61"/><rect class="l" y="706.85" width="109" height="61"/><rect class="l" x="327" y="654.85" width="109" height="61"/><rect class="s" x="436" y="654.85" width="109" height="61"/><rect class="l" x="545" y="654.85" width="109" height="61"/><rect class="s" x="654" y="654.85" width="109" height="61"/><rect class="l" x="763" y="654.85" width="109" height="61"/><rect class="s" x="872" y="654.85" width="109" height="61"/><rect class="l" x="981" y="654.85" width="109" height="61"/><rect class="s" x="1090" y="654.85" width="109" height="61"/><rect class="l" x="1199" y="654.85" width="109" height="61"/><rect class="s" x="1308" y="654.85" width="109" height="61"/><rect class="l" x="1417" y="654.85" width="109" height="61"/><rect class="s" x="1526" y="654.85" width="109" height="61"/><rect class="l" x="1635" y="654.85" width="109" height="61"/><rect class="s" x="1744" y="654.85" width="109" height="61"/><rect class="l" x="1853" y="654.85" width="66" height="61"/><rect class="s" x="1853" y="706.85" width="66" height="61"/><rect class="s" x="109" y="706.85" width="109" height="61"/><rect class="l" x="218" y="706.85" width="109" height="61"/><rect class="s" x="327" y="706.85" width="109" height="61"/><rect class="l" x="436" y="706.85" width="109" height="61"/><rect class="s" x="545" y="706.85" width="109" height="61"/><rect class="l" x="654" y="706.85" width="109" height="61"/><rect id="e" class="m" x=".5" y="588.35" width="1919" height="36"/><rect class="s" x="763" y="706.85" width="109" height="61"/><rect class="l" x="872" y="706.85" width="109" height="61"/><rect class="s" x="981" y="706.85" width="109" height="61"/><rect class="l" x="1090" y="706.85" width="109" height="61"/><rect class="s" x="1199" y="706.85" width="109" height="61"/><rect class="l" x="1308" y="706.85" width="109" height="61"/><rect class="s" x="1417" y="706.85" width="109" height="61"/><rect class="l" x="1526" y="706.85" width="109" height="61"/><rect class="s" x="1635" y="706.85" width="109" height="61"/><rect class="l" x="1744" y="706.85" width="109" height="61"/><rect id="f" class="y" x="-.46" y="462.81" width="1920" height="516"/><g id="g"><rect class="ab" x="382.41" y="795.67" width="933.59" height="94.57"/><polygon class="ab" points="379.38 947.71 135.04 174.87 214.43 144.55 458.77 917.38 379.38 947.71"/><polygon class="ab" points="378.11 948.31 347.31 850.89 382.28 837.53 413.08 934.95 378.11 948.31"/><polygon class="ab" points="455.96 918.21 211.47 144.88 223.82 140.16 468.31 913.5 455.96 918.21"/><rect class="ab" x="1218.26" y="837.53" width="97.74" height="108.35" transform="translate(2534.26 1783.41) rotate(180)"/><rect class="ab" x="382.41" y="837.53" width="915.26" height="108.52"/><polygon class="ab" points="348.86 850.29 135.33 174.88 168.74 162.12 382.28 837.53 348.86 850.29"/><polygon class="ab" points="234.18 160.05 142.16 195.2 135.6 174.46 227.62 139.31 234.18 160.05"/></g><g id="h"><g id="i"><path class="t" d="m1183.01,753.17c-167.91-3.77-335.83-7.55-503.74-11.32,21.06-12.26,36.24-24.52,45.31-32.42,23.03-20.07,42.16-42.98,107.14-143.88,12.73-19.77,19.1-29.65,24.99-39.14,31.02-49.95,86.52-131.03,193.44-269.41-.91,3.39-1.57,6.25-2.03,8.31-1.86,8.38-2.77,15.11-3.39,19.69,0,0-.51,3.78-.9,7.38-18,166.95,29.28,291.14,29.28,291.14,28.74,75.51,71.32,131.06,109.91,169.65Z"/><path class="x" d="m1159.92,790.27c-154.28-3.47-308.57-6.93-462.85-10.4-2.45-1.56-5.92-4.24-9.12-8.56-4.83-6.52-6.47-13.32-7.09-16.88h0c.29-13.79,10.56-24.84,22.83-24.56,5.66-1.27,14.09-2.53,24.21-1.55,5.9.58,9.52,1.64,12.97,2.38,12.26,2.63,37.22-1.25,37.22-1.25,10.62-1.9,26.48-3.04,48.33,1.09,1.53,1.28,4.01,3.09,7.35,4.34,6.7,2.51,11.49.75,26.07-1.5,8.02-1.24,12.03-1.86,14.91-1.75,7.65.28,6.88,1.83,20.36,4.64,8.14,1.69,17.3,2.33,20.4,2.55.72.05,3.45.23,3.45.24,0,0-3.45-.16-3.45-.24,0-.16,15.11-2.85,27.88.63,1.61.44,5.58,1.63,10.56.62,3.07-.62,4.99-1.76,6.21-2.34,8.88-4.19,16,5.08,27.8,4.8,10.11-.24,10.07-7.17,20.62-7.9,10.36-.71,13.04,5.79,23.99,8.9,16.47,4.68,19.56-7.43,42.93-7.39,17.8.03,37.05,7.1,37.05,7.1,0,0,13.22-6.1,26.15-5.68,14.55.47,22.14,8.97,33.28,9.11.84.01,2.69-.01,4.58,1.2,4.08,2.63,5.14,9.08,5.71,12.1.35,1.85.51,3.77.47,5.75h0c-.29,13.79-10.56,24.84-22.83,24.56Z"/><path class="v" d="m1189.25,818.09l-518.92-11.66c-8.09-.18-14.57-7.21-14.4-15.62l.71-34.17c.18-8.41,6.94-15.14,15.03-14.96l518.92,11.66c8.09.18,14.57,7.21,14.4,15.62l-.71,34.17c-.18,8.41-6.94,15.14-15.03,14.96Z"/></g><path class="k" d="m863.78,812.54c.1,8.28,0,16.57-.28,24.85-.03.97,1.47.96,1.5,0,.28-8.28.38-16.57.28-24.85-.01-.96-1.51-.97-1.5,0h0Z"/><path class="k" d="m988.39,812.72c.73,1.74.27,4.1.18,5.92-.11,2.11-.25,4.22-.41,6.32-.33,4.32-.75,8.63-1.27,12.93-.12.96,1.38.95,1.5,0,.54-4.46.98-8.93,1.31-13.42.17-2.27.31-4.54.42-6.81.08-1.7.4-3.72-.28-5.34-.37-.88-1.82-.49-1.45.4h0Z"/><ellipse class="q" cx="1027.16" cy="686.44" rx="12.17" ry="18.17" transform="translate(316.46 1696.96) rotate(-88.64)"/><ellipse class="q" cx="859.54" cy="682.84" rx="12.17" ry="18.17" transform="translate(156.43 1525.88) rotate(-88.64)"/><ellipse class="aa" cx="861.75" cy="641.09" rx="29.62" ry="35.33" transform="translate(198.14 1485.63) rotate(-88.49)"/><ellipse class="aa" cx="1023.43" cy="646.82" rx="27.53" ry="35.33" transform="translate(351.2 1653.73) rotate(-88.57)"/><path class="p" d="m900.86,699.79c-1.25-3.62,17.04-21.7,37.91-20.54,19.9,1.1,36.05,17.46,33.27,22.14-1.53,2.58-8.2-.47-35.59-.6-8.54-.04-17.08-.67-25.62-.45-7.54.19-9.6.53-9.97-.55Z"/><ellipse class="o" cx="875.03" cy="644.6" rx="9.7" ry="10.82" transform="translate(205.11 1500.4) rotate(-88.32)"/><path class="o" d="m842.71,639.99c-3.85-.09-6.91-3.27-6.83-7.11s3.27-6.88,7.12-6.8,6.91,3.27,6.83,7.11-3.27,6.88-7.12,6.8"/><ellipse class="o" cx="1007.31" cy="647.52" rx="9.7" ry="10.82" transform="translate(330.59 1635.45) rotate(-88.32)"/><path class="o" d="m1040.84,644.78c-3.85-.09-6.91-3.27-6.83-7.11s3.27-6.88,7.12-6.8c3.85.09,6.91,3.27,6.83,7.11s-3.27,6.88-7.12,6.8"/><ellipse class="n" cx="1023.08" cy="668.38" rx="7.31" ry="24.17" transform="translate(331.71 1676.07) rotate(-88.7)"/><path class="k" d="m1098.14,638.44c4.96-1,8.9,3.68,10.3,7.92,1.63,4.96,1.21,10.36.7,15.47-.99,9.97-3.23,19.79-6.4,29.29-6.3,18.88-16.21,36.34-27.16,52.87-6.1,9.21-12.56,18.17-19.07,27.09-.57.78.73,1.53,1.3.76,12.22-16.76,24.34-33.71,34.08-52.06,9.68-18.24,16.87-37.93,18.81-58.59.53-5.69.88-11.85-1.58-17.18-1.98-4.3-6.4-8.02-11.38-7.02-.95.19-.55,1.64.4,1.45h0Z"/><path class="k" d="m795.77,618.68c-8.72,3.64-16.29,9.61-21.98,17.14-7.3,9.67-10.76,21.43-12.31,33.31s1.78,22.02,8.22,31.24c4.9,7.02,9.59,14.16,14.12,21.43,7.77,12.48,15.25,25.14,22.69,37.82.49.83,1.79.08,1.3-.76-6.6-11.23-13.23-22.44-20.05-33.54-4.73-7.7-9.52-15.37-14.69-22.78-2.15-3.08-4.33-6.11-6.04-9.48-2.78-5.49-4.35-11.55-4.43-17.71-.07-5.45,1.03-10.96,2.26-16.25,1.39-5.99,3.52-11.78,6.62-17.1,5.65-9.68,14.33-17.55,24.7-21.87.88-.37.49-1.82-.4-1.45h0Z"/><ellipse class="n" cx="861.36" cy="664.75" rx="7.31" ry="24.17" transform="translate(177.28 1510.84) rotate(-88.7)"/><path class="n" d="m884.03,692.42c-2.89-.06-6.13-5.37-5.26-9.52.19-.9,1.04-2.39,2.73-5.36,1.87-3.28,2.31-3.92,2.92-3.91.49,0,1.08.41,3.18,4.77,1.32,2.75,1.98,4.13,2.09,4.75.7,4.15-2.7,9.34-5.66,9.28Z"/><path class="n" d="m883.82,718.5c-2.89-.06-6.13-5.37-5.26-9.52.19-.9,1.04-2.39,2.73-5.36,1.87-3.28,2.31-3.92,2.92-3.91.49,0,1.08.41,3.18,4.77,1.32,2.75,1.98,4.13,2.09,4.75.7,4.15-2.7,9.34-5.66,9.28Z"/><path class="n" d="m998.97,694.19c-2.89-.06-6.13-5.37-5.26-9.52.19-.9,1.04-2.39,2.73-5.36,1.87-3.28,2.31-3.92,2.92-3.91.49,0,1.08.41,3.18,4.77,1.32,2.75,1.98,4.13,2.09,4.75.7,4.15-2.7,9.34-5.66,9.28Z"/><path class="n" d="m998.34,721.34c-2.89-.06-6.13-5.37-5.26-9.52.19-.9,1.04-2.39,2.73-5.36,1.87-3.28,2.31-3.92,2.92-3.91.49,0,1.08.41,3.18,4.77,1.32,2.75,1.98,4.13,2.09,4.75.7,4.15-2.7,9.34-5.66,9.28Z"/></g></svg>