<?xml version="1.0" encoding="UTF-8"?><svg id="a" xmlns="http://www.w3.org/2000/svg" width="798" height="218" viewBox="0 0 798 218"><defs><style>.b{fill:#c10000;stroke:#710000;stroke-miterlimit:10;stroke-width:5px;}</style></defs><path class="b" d="m60.29,98.84c-1.57,0-3.03-.32-4.38-.98-1.35-.65-2.54-1.63-3.57-2.93-1.03-1.3-1.84-2.93-2.43-4.89-.59-1.95-.88-4.21-.88-6.76,0-1.98.17-3.79.52-5.43s.76-3.1,1.25-4.38c.49-1.28,1.03-2.36,1.62-3.24.59-.89,1.1-1.59,1.55-2.11h43.7c1.52,2.35,2.6,4.91,3.24,7.7.64,2.79.96,5.54.96,8.25,0,3.13-.36,5.98-1.07,8.56-.71,2.58-1.56,4.68-2.54,6.29h-3.02v23.45c-1.92,1.77-4.1,3.47-6.56,5.08-2.46,1.62-5.24,3.04-8.36,4.26-3.12,1.23-6.62,2.2-10.5,2.93-3.88.73-8.18,1.09-12.9,1.09s-9.04-.44-13.41-1.33c-4.37-.89-8.5-2.25-12.38-4.1-3.88-1.85-7.44-4.19-10.68-7.04-3.24-2.84-6.04-6.21-8.4-10.12s-4.19-8.38-5.49-13.41c-1.3-5.03-1.95-10.67-1.95-16.92,0-8.76,1.26-16.43,3.79-23.02,2.53-6.59,6.07-12.1,10.61-16.53,4.54-4.43,9.97-7.76,16.29-10.01,6.31-2.24,13.28-3.36,20.89-3.36,3.98,0,7.86.35,11.64,1.06,3.78.7,7.32,1.64,10.61,2.81,3.29,1.17,6.29,2.53,8.99,4.06,2.7,1.54,4.99,3.17,6.85,4.89,0,1.72-.1,3.6-.29,5.63-.2,2.03-.46,4.05-.77,6.06-.32,2.01-.71,3.91-1.18,5.71-.47,1.8-.97,3.3-1.51,4.49h-38.83c-.59.68-1.27,1.59-2.03,2.74-.76,1.15-1.47,2.52-2.14,4.1-.66,1.59-1.23,3.41-1.7,5.47-.47,2.06-.7,4.34-.7,6.84,0,3.18.38,5.93,1.14,8.25.76,2.32,1.77,4.25,3.02,5.79,1.25,1.54,2.7,2.68,4.35,3.44,1.65.76,3.35,1.13,5.12,1.13.88,0,1.5-.17,1.84-.51.34-.34.52-.74.52-1.21v-1.8h-.81Z"/><path class="b" d="m116.89,39.43c1.92-1.3,4.08-2.49,6.48-3.56,2.41-1.07,4.95-1.97,7.63-2.7,2.68-.73,5.45-1.29,8.33-1.68,2.87-.39,5.76-.59,8.66-.59,3.83,0,7.63.37,11.38,1.09,3.76.73,7.19,1.88,10.28,3.44s5.75,3.58,7.96,6.06c2.21,2.48,3.71,5.43,4.5,8.87l16.8,73.72c-2.26,3.08-5.43,5.6-9.51,7.58-4.08,1.98-9.24,2.97-15.47,2.97-2.75,0-5.33-.26-7.74-.78-2.41-.52-4.53-1.29-6.37-2.31-1.84-1.02-3.37-2.29-4.57-3.83-1.2-1.54-1.98-3.35-2.32-5.43l-1.62-9.54c1.52-.05,3.03-.25,4.53-.59,1.5-.34,2.85-.75,4.05-1.25,1.2-.5,2.18-1.06,2.95-1.68.76-.62,1.14-1.25,1.14-1.88,0-.83-.32-1.51-.96-2.03-.88.68-1.92,1.29-3.1,1.84-1.18.55-2.42,1-3.72,1.37-1.3.37-2.6.64-3.91.82-1.3.18-2.52.27-3.65.27-2.11,0-3.99-.14-5.64-.43-1.65-.29-3.08-.64-4.31-1.06-1.23-.42-2.28-.87-3.17-1.37-.88-.49-1.62-.98-2.21-1.45-.2.26-.37.56-.52.9-.15.34-.22.72-.22,1.13,0,.78.38,1.5,1.14,2.15.76.65,1.78,1.23,3.06,1.72,1.28.5,2.74.9,4.38,1.21,1.65.31,3.38.52,5.19.63.29,3.65.63,6.55,1,8.72.37,2.16.72,3.53,1.07,4.1-.44.89-1.32,1.84-2.62,2.85-1.3,1.02-2.92,1.97-4.86,2.85-1.94.89-4.15,1.62-6.63,2.19-2.48.57-5.12.86-7.92.86-3.49,0-6.78-.42-9.88-1.25-3.09-.83-5.8-1.99-8.11-3.48s-4.15-3.28-5.53-5.39c-1.38-2.11-2.06-4.47-2.06-7.07,0-.57.02-1.16.07-1.76.05-.6.15-1.21.29-1.84l15.7-74.42Zm34.63,40.26c-.54-3.13-.97-5.63-1.29-7.5-.32-1.88-.64-3.3-.96-4.26-.32-.96-.66-1.59-1.03-1.88-.37-.29-.82-.43-1.36-.43-.34,0-.66.05-.96.16-.29.1-.57.21-.81.31l2.8,15.79c.2.21.48.37.85.47.37.1.7.16,1,.16.44,0,.86-.06,1.25-.2.39-.13.69-.25.88-.35l-.37-2.27Z"/><path class="b" d="m260.87,113.38c1.72-.42,3.59-1.28,5.6-2.58,2.01-1.3,3.96-3.41,5.82-6.33.83-1.35,1.25-2.53,1.25-3.52,0-1.35-.64-2.03-1.92-2.03-.1,0-.18.01-.26.04-.07.03-.16.04-.26.04-3.49,7.66-9.06,11.49-16.73,11.49-1.92,0-3.7-.21-5.34-.63-1.65-.42-3.18-1.09-4.61-2.03-1.42-.94-2.78-2.19-4.05-3.75-1.28-1.56-2.5-3.49-3.68-5.79h-.44c-.54,0-1.01.13-1.4.39-.39.26-.59.73-.59,1.41,0,.89.29,1.82.88,2.81,1.08,1.88,2.25,3.49,3.5,4.85,1.25,1.36,2.53,2.49,3.83,3.4,1.3.91,2.59,1.6,3.87,2.07,1.28.47,2.43.76,3.46.86l-.59,14.77c-1.28.89-2.62,1.69-4.02,2.42-1.4.73-2.98,1.34-4.75,1.84-1.77.49-3.77.87-6,1.13-2.24.26-4.8.39-7.7.39s-5.63-.29-8.62-.86c-3-.57-5.75-1.52-8.25-2.85s-4.58-3.04-6.23-5.12c-1.65-2.08-2.47-4.66-2.47-7.74,0-1.61.07-3.82.22-6.61.15-2.79.36-5.95.63-9.5.27-3.54.58-7.37.92-11.49.34-4.12.71-8.27,1.11-12.47.39-4.19.79-8.35,1.18-12.47.39-4.12.79-7.95,1.18-11.49.39-3.54.75-6.7,1.07-9.46.32-2.76.6-4.92.85-6.49,1.42-1.35,3.04-2.5,4.86-3.44,1.82-.94,3.72-1.68,5.71-2.23,1.99-.55,3.99-.94,6-1.17s3.95-.35,5.82-.35c3.34,0,6.62.39,9.84,1.17,3.22.78,5.88,1.8,7.99,3.05l4.05,14.38-2.58,11.49c-.1.42-.17.81-.22,1.17-.05.37-.07.73-.07,1.09,0,1.77.98,2.71,2.95,2.81l7-30.88c.84-.47,1.9-.96,3.21-1.49,1.3-.52,2.75-.99,4.35-1.41,1.6-.42,3.33-.75,5.19-1.02,1.87-.26,3.78-.39,5.75-.39,3.49,0,6.55.3,9.17.9,2.63.6,4.84,1.56,6.63,2.89,1.79,1.33,3.21,3.06,4.24,5.2,1.03,2.14,1.72,4.77,2.06,7.9.34,3.28.77,7.24,1.29,11.88.52,4.64,1.04,9.55,1.58,14.74.54,5.19,1.08,10.44,1.62,15.75.54,5.32,1.02,10.31,1.44,14.97.42,4.67.76,8.79,1.03,12.39.27,3.6.41,6.25.41,7.97-5.45,6.1-13.31,9.15-23.58,9.15-3.24,0-6.22-.29-8.92-.86-2.7-.57-5.02-1.45-6.96-2.62-1.94-1.17-3.49-2.62-4.64-4.34s-1.83-3.75-2.03-6.1l-.66-7.35Z"/><path class="b" d="m386.95,32.39c.64,1.09,1.23,2.31,1.77,3.64s.98,2.71,1.33,4.14c.34,1.43.61,2.87.81,4.3.2,1.43.29,2.77.29,4.03,0,5.37-.98,9.35-2.95,11.96-1.96,2.61-4.67,3.91-8.11,3.91h-29.7c-1.82,0-2.73.76-2.73,2.27v.63c0,.31.05.52.15.63h35.22c.44.78.86,1.71,1.25,2.77.39,1.07.72,2.19.99,3.36.27,1.17.49,2.37.66,3.6.17,1.23.26,2.38.26,3.48,0,3.13-.29,5.93-.88,8.4-.59,2.48-1.38,4.52-2.36,6.14h-15.99c-4.18,0-7.63.12-10.35.35-2.73.23-4.88.54-6.45.9-1.57.37-2.68.77-3.32,1.21-.64.44-.96.9-.96,1.37,0,.42.06.81.19,1.17.12.37.4.68.85.94,1.23-.42,2.48-.78,3.76-1.09,1.28-.31,2.7-.56,4.27-.74,1.57-.18,3.33-.32,5.27-.43,1.94-.1,4.19-.16,6.74-.16h20.71c.54.83,1.08,1.76,1.62,2.77s1.02,2.19,1.44,3.52c.42,1.33.76,2.85,1.03,4.57.27,1.72.41,3.7.41,5.94,0,1.41-.1,2.91-.29,4.5-.2,1.59-.49,3.17-.88,4.73-.39,1.56-.91,3.05-1.55,4.46-.64,1.41-1.4,2.63-2.29,3.67h-55.19c-2.9,0-5.6-.38-8.11-1.13-2.51-.75-4.69-1.93-6.56-3.52-1.87-1.59-3.34-3.6-4.42-6.02-1.08-2.42-1.62-5.33-1.62-8.72V39.58c0-2.5,2.73-4.33,8.18-5.47,5.45-1.15,13.78-1.72,24.98-1.72h42.52Z"/><path class="b" d="m476.26,135.74c-4.13,0-8.21-.46-12.23-1.37-4.03-.91-7.84-2.31-11.42-4.18-3.59-1.88-6.89-4.25-9.91-7.11-3.02-2.87-5.64-6.25-7.85-10.16-2.21-3.91-3.93-8.36-5.16-13.37-1.23-5-1.84-10.58-1.84-16.73,0-9.12,1.33-17,3.98-23.65,2.65-6.65,6.19-12.14,10.61-16.5,4.42-4.35,9.52-7.57,15.29-9.65,5.77-2.08,11.8-3.13,18.09-3.13,7.47,0,14.17,1.29,20.12,3.87,5.94,2.58,10.98,6.19,15.11,10.83,4.13,4.64,7.3,10.21,9.51,16.73,2.21,6.52,3.32,13.68,3.32,21.5,0,9.28-1.24,17.25-3.72,23.92-2.48,6.67-5.87,12.16-10.17,16.46-4.3,4.3-9.33,7.47-15.11,9.5-5.77,2.03-11.97,3.05-18.61,3.05Zm2.95-56.44c0-2.5-.05-4.65-.15-6.45s-.27-3.3-.52-4.5c-.25-1.09-.58-1.82-1-2.19-.42-.36-.9-.55-1.44-.55s-.96.09-1.25.27c-.29.18-.54.35-.74.51.05.94.12,1.81.22,2.62.1.81.18,1.72.26,2.74.07,1.02.13,2.19.18,3.52.05,1.33.07,2.96.07,4.89v5.08c0,1.93-.03,3.56-.07,4.89-.05,1.33-.11,2.5-.18,3.52-.07,1.02-.16,1.93-.26,2.74-.1.81-.17,1.68-.22,2.62.2.16.44.33.74.51.29.18.71.27,1.25.27s1.02-.18,1.44-.55c.42-.36.75-1.09,1-2.19.25-1.2.42-2.7.52-4.5s.15-3.95.15-6.45v-6.8Z"/><path class="b" d="m522.69,41.77c2.21-3.49,5.2-6.18,8.95-8.05s8.12-2.81,13.08-2.81c3.88,0,7.21.46,9.99,1.37,2.77.91,5.12,2.11,7.04,3.6s3.45,3.21,4.61,5.16c1.15,1.95,2.05,3.97,2.69,6.06l-2.36,49.64c.59.16,1.11.23,1.55.23.79,0,1.41-.27,1.88-.82.47-.55.75-1.58.85-3.09l3.24-56.91c.83-.78,2-1.49,3.5-2.11,1.5-.62,3.13-1.16,4.9-1.6,1.77-.44,3.57-.79,5.42-1.06,1.84-.26,3.55-.39,5.12-.39,3.88,0,7.22.51,10.02,1.52,2.8,1.02,5.11,2.41,6.93,4.18,1.82,1.77,3.14,3.82,3.98,6.14.83,2.32,1.25,4.81,1.25,7.47,0,3.18-1.19,10.23-3.57,21.15-2.38,10.92-5.91,25.97-10.57,45.15-.88,3.54-2.3,6.48-4.24,8.79-1.94,2.32-4.3,4.16-7.07,5.51-2.78,1.36-5.88,2.32-9.32,2.89-3.44.57-7.07.86-10.91.86-2.6,0-5.16-.16-7.66-.47-2.5-.31-4.9-.77-7.18-1.37-2.28-.6-4.41-1.35-6.37-2.27-1.96-.91-3.68-1.97-5.16-3.17-1.82-4.22-3.71-9.39-5.67-15.52-1.96-6.12-3.87-12.9-5.71-20.33-1.84-7.43-3.56-15.35-5.16-23.77-1.6-8.42-2.94-17.08-4.02-25.99Z"/><path class="b" d="m694.23,32.39c.64,1.09,1.23,2.31,1.77,3.64.54,1.33.98,2.71,1.33,4.14.34,1.43.61,2.87.81,4.3.2,1.43.29,2.77.29,4.03,0,5.37-.98,9.35-2.95,11.96-1.96,2.61-4.67,3.91-8.11,3.91h-29.7c-1.82,0-2.73.76-2.73,2.27v.63c0,.31.05.52.15.63h35.22c.44.78.86,1.71,1.25,2.77.39,1.07.72,2.19,1,3.36.27,1.17.49,2.37.66,3.6.17,1.23.26,2.38.26,3.48,0,3.13-.29,5.93-.88,8.4-.59,2.48-1.38,4.52-2.36,6.14h-15.99c-4.18,0-7.63.12-10.35.35-2.73.23-4.88.54-6.45.9-1.57.37-2.68.77-3.32,1.21-.64.44-.96.9-.96,1.37,0,.42.06.81.18,1.17.12.37.41.68.85.94,1.23-.42,2.48-.78,3.76-1.09,1.28-.31,2.7-.56,4.27-.74,1.57-.18,3.33-.32,5.27-.43,1.94-.1,4.19-.16,6.74-.16h20.71c.54.83,1.08,1.76,1.62,2.77.54,1.02,1.02,2.19,1.44,3.52.42,1.33.76,2.85,1.03,4.57.27,1.72.41,3.7.41,5.94,0,1.41-.1,2.91-.29,4.5-.2,1.59-.49,3.17-.88,4.73-.39,1.56-.91,3.05-1.55,4.46-.64,1.41-1.4,2.63-2.28,3.67h-55.19c-2.9,0-5.6-.38-8.11-1.13-2.51-.75-4.69-1.93-6.56-3.52-1.87-1.59-3.34-3.6-4.42-6.02-1.08-2.42-1.62-5.33-1.62-8.72V39.58c0-2.5,2.73-4.33,8.18-5.47,5.45-1.15,13.78-1.72,24.98-1.72h42.52Z"/><path class="b" d="m795.04,109.31c-.84,7.97-3.21,14.19-7.11,18.64-3.91,4.46-9.42,6.68-16.54,6.68-2.31,0-4.63-.29-6.96-.86-2.33-.57-4.59-1.6-6.78-3.09-2.19-1.49-4.24-3.52-6.15-6.1-1.92-2.58-3.56-5.88-4.94-9.89l-2.65-7.66c-1.92-.05-3.46-.17-4.64-.35-1.18-.18-2.24-.35-3.17-.51-.15.16-.28.36-.41.62-.12.26-.18.63-.18,1.09,0,.62.39,1.16,1.18,1.6.79.44,2.38.74,4.79.9l4.2,11.26v6.65c-2.75,2.08-6.02,3.66-9.8,4.73-3.78,1.07-7.76,1.6-11.94,1.6-3.05,0-5.83-.33-8.36-.98-2.53-.65-4.73-1.65-6.59-3.01-1.87-1.35-3.32-3.04-4.35-5.04-1.03-2.01-1.55-4.39-1.55-7.15V44.19c0-1.2.56-2.38,1.69-3.56,1.13-1.17,2.68-2.28,4.64-3.32,1.96-1.04,4.27-1.99,6.93-2.85,2.65-.86,5.49-1.6,8.51-2.23s6.16-1.11,9.43-1.45c3.27-.34,6.5-.51,9.69-.51,7.12,0,13.62.81,19.49,2.42,5.87,1.62,10.89,4.03,15.07,7.23,4.17,3.21,7.41,7.17,9.69,11.88,2.28,4.72,3.43,10.2,3.43,16.46,0,3.65-.53,7.01-1.58,10.08-1.06,3.08-2.47,5.81-4.24,8.21-1.77,2.4-3.84,4.44-6.23,6.14-2.38,1.69-4.9,2.98-7.55,3.87,0,.94.25,1.59.74,1.95.49.37,1.08.55,1.77.55s1.72-.26,3.1-.78c1.37-.52,2.92-1.46,4.64-2.81l12.75,13.84Zm-50.77-31.66c.15.1.38.17.7.2.32.03.53.04.63.04,1.18,0,2.01-.39,2.51-1.17.49-.78.74-2.06.74-3.83v-2.81c0-1.82-.21-3.15-.63-3.99-.42-.83-1.19-1.25-2.32-1.25-.25,0-.54.03-.88.08-.34.05-.61.13-.81.23.05.42.07.86.07,1.33v11.18Z"/></svg>