<?xml version="1.0" encoding="utf-8"?>
<!-- Generator: Adobe Illustrator 28.0.0, SVG Export Plug-In . SVG Version: 6.00 Build 0)  -->
<svg version="1.1" id="a" xmlns="http://www.w3.org/2000/svg" xmlns:xlink="http://www.w3.org/1999/xlink" x="0px" y="0px"
	 viewBox="0 0 1921.5 1093.7" style="enable-background:new 0 0 1921.5 1093.7;" xml:space="preserve">
<style type="text/css">
	.st0{fill:#FDE7C3;}
	.st1{fill:none;}
	.st2{fill:#5B4134;stroke:#271B16;stroke-miterlimit:10;}
	.st3{stroke:#5B4034;stroke-miterlimit:10;}
	.st4{fill:#F5F5F5;stroke:#5B4034;stroke-miterlimit:10;}
	.st5{fill:#FFFFFF;stroke:#5B4034;stroke-miterlimit:10;}
	.st6{fill:#FFFEFD;stroke:#5B4034;stroke-miterlimit:10;}
	.st7{fill:#9B6F59;stroke:#825D4A;stroke-width:4;stroke-miterlimit:10;}
	.st8{fill:#8E6652;stroke:#5B4034;stroke-miterlimit:10;}
	.st9{fill:#DEB985;stroke:#825D4A;stroke-width:3;stroke-miterlimit:10;}
	.st10{fill:#FED266;stroke:#7F5D2A;stroke-miterlimit:10;}
	.st11{fill:#CD5522;stroke:#F17083;stroke-miterlimit:10;}
	.st12{fill:#FBBB71;stroke:#7F5D3F;stroke-miterlimit:10;}
	.st13{fill:#FF9497;stroke:#7F5D2A;stroke-width:0.5;stroke-miterlimit:10;}
	.st14{stroke:#000000;stroke-width:0.5;stroke-miterlimit:10;}
	.st15{fill:#FF9492;stroke:#7F5D2A;stroke-width:0.5;stroke-miterlimit:10;}
	.st16{fill:#FFFFFF;stroke:#000000;stroke-width:0.5;stroke-miterlimit:10;}
	.st17{fill:#0096BF;stroke:#000000;stroke-width:0.5;stroke-miterlimit:10;}
	.st18{fill:#C10000;stroke:#710000;stroke-width:5;stroke-miterlimit:10;}
	.st19{fill:#F4F6F5;}
	.st20{fill:#DDE3E0;}
</style>
<rect id="b" x="0.5" y="0.5" class="st0" width="1920.5" height="605"/>
<rect id="c" x="0.5" y="605.5" class="st1" width="1919" height="481"/>
<rect id="d" x="0" y="973.5" class="st2" width="1921" height="120.7"/>
<rect x="0.5" y="611.5" class="st3" width="109" height="47"/>
<rect x="109.5" y="614.5" class="st4" width="109" height="47"/>
<rect x="218.5" y="611.5" class="st3" width="109" height="47"/>
<rect x="327.5" y="611.5" class="st5" width="109" height="47"/>
<rect x="0.5" y="658.5" class="st5" width="109" height="61"/>
<rect x="436.5" y="614.5" class="st3" width="109" height="47"/>
<rect x="545.5" y="611.5" class="st5" width="109" height="47"/>
<rect x="654.5" y="611.5" class="st3" width="109" height="47"/>
<rect x="763.5" y="614.5" class="st5" width="109" height="47"/>
<rect x="872.5" y="611.5" class="st3" width="109" height="47"/>
<rect x="981.5" y="620.5" class="st5" width="109" height="47"/>
<rect x="1090.5" y="611.5" class="st3" width="109" height="47"/>
<rect x="1199.5" y="612.5" class="st5" width="109" height="47"/>
<rect x="1308.5" y="612.5" class="st3" width="109" height="47"/>
<rect x="1417.5" y="612.5" class="st5" width="109" height="47"/>
<rect x="1526.5" y="620.5" class="st3" width="109" height="47"/>
<rect x="1635.5" y="612.5" class="st5" width="109" height="47"/>
<rect x="1744.5" y="612.5" class="st3" width="109" height="47"/>
<rect x="1853.5" y="612.5" class="st6" width="66" height="47"/>
<rect x="109.5" y="658.5" class="st3" width="109" height="61"/>
<rect x="218.5" y="658.5" class="st5" width="109" height="61"/>
<rect x="0.5" y="710.5" class="st3" width="109" height="61"/>
<rect x="327.5" y="658.5" class="st3" width="109" height="61"/>
<rect x="436.5" y="658.5" class="st5" width="109" height="61"/>
<rect x="545.5" y="658.5" class="st3" width="109" height="61"/>
<rect x="654.5" y="658.5" class="st5" width="109" height="61"/>
<rect x="763.5" y="658.5" class="st3" width="109" height="61"/>
<rect x="872.5" y="658.5" class="st5" width="109" height="61"/>
<rect x="981.5" y="658.5" class="st3" width="109" height="61"/>
<rect x="1090.5" y="658.5" class="st5" width="109" height="61"/>
<rect x="1199.5" y="658.5" class="st3" width="109" height="61"/>
<rect x="1308.5" y="658.5" class="st5" width="109" height="61"/>
<rect x="1417.5" y="658.5" class="st3" width="109" height="61"/>
<rect x="1526.5" y="658.5" class="st5" width="109" height="61"/>
<rect x="1635.5" y="658.5" class="st3" width="109" height="61"/>
<rect x="1744.5" y="658.5" class="st5" width="109" height="61"/>
<rect x="1853.5" y="658.5" class="st3" width="66" height="61"/>
<rect x="1853.5" y="710.5" class="st5" width="66" height="61"/>
<rect x="109.5" y="710.5" class="st5" width="109" height="61"/>
<rect x="218.5" y="710.5" class="st3" width="109" height="61"/>
<rect x="327.5" y="710.5" class="st5" width="109" height="61"/>
<rect x="436.5" y="710.5" class="st3" width="109" height="61"/>
<rect x="545.5" y="710.5" class="st5" width="109" height="61"/>
<rect x="654.5" y="710.5" class="st3" width="109" height="61"/>
<rect id="e" x="1" y="592" class="st7" width="1919" height="36"/>
<rect x="763.5" y="710.5" class="st5" width="109" height="61"/>
<rect x="872.5" y="710.5" class="st3" width="109" height="61"/>
<rect x="981.5" y="710.5" class="st5" width="109" height="61"/>
<rect x="1090.5" y="710.5" class="st3" width="109" height="61"/>
<rect x="1199.5" y="710.5" class="st5" width="109" height="61"/>
<rect x="1308.5" y="710.5" class="st3" width="109" height="61"/>
<rect x="1417.5" y="710.5" class="st5" width="109" height="61"/>
<rect x="1526.5" y="710.5" class="st3" width="109" height="61"/>
<rect x="1635.5" y="710.5" class="st5" width="109" height="61"/>
<rect x="1744.5" y="710.5" class="st3" width="109" height="61"/>
<rect id="f" x="0" y="466.5" class="st8" width="1920" height="516"/>
<g id="g">
	<rect x="382.9" y="799.4" class="st9" width="933.6" height="94.6"/>
	<polygon class="st9" points="379.9,951.4 135.5,178.6 214.9,148.2 459.3,921.1 	"/>
	<polygon class="st9" points="378.6,952 347.8,854.6 382.8,841.2 413.6,938.6 	"/>
	<polygon class="st9" points="456.5,921.9 212,148.6 224.3,143.9 468.8,917.2 	"/>
	<rect x="1218.8" y="841.2" class="st9" width="97.7" height="108.3"/>
	<rect x="382.9" y="841.2" class="st9" width="915.3" height="108.5"/>
	<polygon class="st9" points="349.4,854 135.8,178.6 169.2,165.8 382.8,841.2 	"/>
	<polygon class="st9" points="234.7,163.7 142.7,198.9 136.1,178.1 228.1,143 	"/>
</g>
<g id="h">
	<g id="i">
		<path class="st10" d="M1183.5,756.9c-167.9-3.8-335.8-7.5-503.7-11.3c21.1-12.3,36.2-24.5,45.3-32.4c23-20.1,42.2-43,107.1-143.9
			c12.7-19.8,19.1-29.7,25-39.1c31-50,86.5-131,193.4-269.4c-0.9,3.4-1.6,6.2-2,8.3c-1.9,8.4-2.8,15.1-3.4,19.7c0,0-0.5,3.8-0.9,7.4
			c-18,166.9,29.3,291.1,29.3,291.1C1102.3,662.7,1144.9,718.3,1183.5,756.9L1183.5,756.9z"/>
		<path class="st11" d="M1160.4,794c-154.3-3.5-308.6-6.9-462.8-10.4c-2.5-1.6-5.9-4.2-9.1-8.6c-4.8-6.5-6.5-13.3-7.1-16.9l0,0
			c0.3-13.8,10.6-24.8,22.8-24.6c5.7-1.3,14.1-2.5,24.2-1.5c5.9,0.6,9.5,1.6,13,2.4c12.3,2.6,37.2-1.2,37.2-1.2
			c10.6-1.9,26.5-3,48.3,1.1c1.5,1.3,4,3.1,7.3,4.3c6.7,2.5,11.5,0.8,26.1-1.5c8-1.2,12-1.9,14.9-1.8c7.7,0.3,6.9,1.8,20.4,4.6
			c8.1,1.7,17.3,2.3,20.4,2.5c0.7,0,3.5,0.2,3.5,0.2c0,0-3.5-0.2-3.5-0.2c0-0.2,15.1-2.8,27.9,0.6c1.6,0.4,5.6,1.6,10.6,0.6
			c3.1-0.6,5-1.8,6.2-2.3c8.9-4.2,16,5.1,27.8,4.8c10.1-0.2,10.1-7.2,20.6-7.9c10.4-0.7,13,5.8,24,8.9c16.5,4.7,19.6-7.4,42.9-7.4
			c17.8,0,37.1,7.1,37.1,7.1s13.2-6.1,26.2-5.7c14.6,0.5,22.1,9,33.3,9.1c0.8,0,2.7,0,4.6,1.2c4.1,2.6,5.1,9.1,5.7,12.1
			c0.3,1.8,0.5,3.8,0.5,5.8l0,0C1183,783.2,1172.7,794.2,1160.4,794L1160.4,794z"/>
		<path class="st12" d="M1189.8,821.8l-518.9-11.7c-8.1-0.2-14.6-7.2-14.4-15.6l0.7-34.2c0.2-8.4,6.9-15.1,15-15l518.9,11.7
			c8.1,0.2,14.6,7.2,14.4,15.6l-0.7,34.2C1204.6,815.2,1197.8,822,1189.8,821.8L1189.8,821.8z"/>
	</g>
	<path d="M864.3,816.2c0.1,8.3,0,16.6-0.3,24.8c0,1,1.5,1,1.5,0c0.3-8.3,0.4-16.6,0.3-24.8C865.8,815.3,864.3,815.2,864.3,816.2
		L864.3,816.2z"/>
	<path d="M988.9,816.4c0.7,1.7,0.3,4.1,0.2,5.9c-0.1,2.1-0.2,4.2-0.4,6.3c-0.3,4.3-0.8,8.6-1.3,12.9c-0.1,1,1.4,1,1.5,0
		c0.5-4.5,1-8.9,1.3-13.4c0.2-2.3,0.3-4.5,0.4-6.8c0.1-1.7,0.4-3.7-0.3-5.3C990,815.1,988.5,815.5,988.9,816.4L988.9,816.4
		L988.9,816.4z"/>
	
		<ellipse transform="matrix(2.373274e-02 -0.9997 0.9997 2.373274e-02 313.3145 1700.9786)" class="st13" cx="1027.6" cy="690.1" rx="12.2" ry="18.2"/>
	
		<ellipse transform="matrix(2.373426e-02 -0.9997 0.9997 2.373426e-02 153.2949 1529.9105)" class="st13" cx="860" cy="686.5" rx="12.2" ry="18.2"/>
	
		<ellipse transform="matrix(2.635146e-02 -0.9997 0.9997 2.635146e-02 194.9606 1489.6881)" class="st14" cx="862.2" cy="644.8" rx="29.6" ry="35.3"/>
	
		<ellipse transform="matrix(2.495672e-02 -0.9997 0.9997 2.495672e-02 348.0484 1657.7506)" class="st14" cx="1023.9" cy="650.5" rx="27.5" ry="35.3"/>
	<path class="st15" d="M901.4,703.5c-1.2-3.6,17-21.7,37.9-20.5c19.9,1.1,36,17.5,33.3,22.1c-1.5,2.6-8.2-0.5-35.6-0.6
		c-8.5,0-17.1-0.7-25.6-0.5C903.8,704.2,901.7,704.6,901.4,703.5L901.4,703.5z"/>
	
		<ellipse transform="matrix(2.931734e-02 -0.9996 0.9996 2.931734e-02 201.8664 1504.5183)" class="st16" cx="875.6" cy="648.3" rx="9.7" ry="10.8"/>
	<path class="st16" d="M843.2,643.7c-3.8-0.1-6.9-3.3-6.8-7.1s3.3-6.9,7.1-6.8s6.9,3.3,6.8,7.1S847.1,643.8,843.2,643.7"/>
	
		<ellipse transform="matrix(2.931734e-02 -0.9996 0.9996 2.931734e-02 327.3534 1639.5854)" class="st16" cx="1007.9" cy="651.2" rx="9.7" ry="10.8"/>
	<path class="st16" d="M1041.3,648.5c-3.8-0.1-6.9-3.3-6.8-7.1s3.3-6.9,7.1-6.8c3.8,0.1,6.9,3.3,6.8,7.1S1045.2,648.5,1041.3,648.5"
		/>
	
		<ellipse transform="matrix(2.268739e-02 -0.9997 0.9997 2.268739e-02 328.4779 1680.2188)" class="st17" cx="1023.6" cy="672.1" rx="7.3" ry="24.2"/>
	<path d="M1098.6,642.1c5-1,8.9,3.7,10.3,7.9c1.6,5,1.2,10.4,0.7,15.5c-1,10-3.2,19.8-6.4,29.3c-6.3,18.9-16.2,36.3-27.2,52.9
		c-6.1,9.2-12.6,18.2-19.1,27.1c-0.6,0.8,0.7,1.5,1.3,0.8c12.2-16.8,24.3-33.7,34.1-52.1c9.7-18.2,16.9-37.9,18.8-58.6
		c0.5-5.7,0.9-11.8-1.6-17.2c-2-4.3-6.4-8-11.4-7C1097.3,640.9,1097.7,642.3,1098.6,642.1L1098.6,642.1L1098.6,642.1z"/>
	<path d="M796.3,622.4c-8.7,3.6-16.3,9.6-22,17.1c-7.3,9.7-10.8,21.4-12.3,33.3s1.8,22,8.2,31.2c4.9,7,9.6,14.2,14.1,21.4
		c7.8,12.5,15.2,25.1,22.7,37.8c0.5,0.8,1.8,0.1,1.3-0.8c-6.6-11.2-13.2-22.4-20-33.5c-4.7-7.7-9.5-15.4-14.7-22.8
		c-2.2-3.1-4.3-6.1-6-9.5c-2.8-5.5-4.3-11.5-4.4-17.7c-0.1-5.5,1-11,2.3-16.2c1.4-6,3.5-11.8,6.6-17.1c5.7-9.7,14.3-17.5,24.7-21.9
		C797.6,623.4,797.2,622,796.3,622.4L796.3,622.4L796.3,622.4z"/>
	
		<ellipse transform="matrix(2.268739e-02 -0.9997 0.9997 2.268739e-02 174.0524 1514.9803)" class="st17" cx="861.9" cy="668.5" rx="7.3" ry="24.2"/>
	<path class="st17" d="M884.5,696.1c-2.9-0.1-6.1-5.4-5.3-9.5c0.2-0.9,1-2.4,2.7-5.4c1.9-3.3,2.3-3.9,2.9-3.9c0.5,0,1.1,0.4,3.2,4.8
		c1.3,2.8,2,4.1,2.1,4.8C890.9,691,887.5,696.2,884.5,696.1L884.5,696.1z"/>
	<path class="st17" d="M884.3,722.2c-2.9-0.1-6.1-5.4-5.3-9.5c0.2-0.9,1-2.4,2.7-5.4c1.9-3.3,2.3-3.9,2.9-3.9c0.5,0,1.1,0.4,3.2,4.8
		c1.3,2.8,2,4.1,2.1,4.8C890.7,717.1,887.3,722.3,884.3,722.2L884.3,722.2z"/>
	<path class="st17" d="M999.5,697.9c-2.9-0.1-6.1-5.4-5.3-9.5c0.2-0.9,1-2.4,2.7-5.4c1.9-3.3,2.3-3.9,2.9-3.9c0.5,0,1.1,0.4,3.2,4.8
		c1.3,2.8,2,4.1,2.1,4.8C1005.8,692.8,1002.4,697.9,999.5,697.9L999.5,697.9z"/>
	<path class="st17" d="M998.8,725c-2.9-0.1-6.1-5.4-5.3-9.5c0.2-0.9,1-2.4,2.7-5.4c1.9-3.3,2.3-3.9,2.9-3.9c0.5,0,1.1,0.4,3.2,4.8
		c1.3,2.8,2,4.1,2.1,4.8C1005.2,719.9,1001.8,725.1,998.8,725L998.8,725z"/>
</g>
<path class="st18" d="M657.8,136.3c-1.6,0-3-0.3-4.4-1c-1.3-0.6-2.5-1.6-3.6-2.9c-1-1.3-1.8-2.9-2.4-4.9c-0.6-1.9-0.9-4.2-0.9-6.8
	c0-2,0.2-3.8,0.5-5.4c0.3-1.6,0.8-3.1,1.2-4.4s1-2.4,1.6-3.2c0.6-0.9,1.1-1.6,1.5-2.1h43.7c1.5,2.3,2.6,4.9,3.2,7.7
	c0.6,2.8,1,5.5,1,8.2c0,3.1-0.4,6-1.1,8.6c-0.7,2.6-1.6,4.7-2.5,6.3h-3v23.4c-1.9,1.8-4.1,3.5-6.6,5.1c-2.5,1.6-5.2,3-8.4,4.3
	c-3.1,1.2-6.6,2.2-10.5,2.9s-8.2,1.1-12.9,1.1s-9-0.4-13.4-1.3s-8.5-2.2-12.4-4.1s-7.4-4.2-10.7-7c-3.2-2.8-6-6.2-8.4-10.1
	c-2.4-3.9-4.2-8.4-5.5-13.4s-2-10.7-2-16.9c0-8.8,1.3-16.4,3.8-23c2.5-6.6,6.1-12.1,10.6-16.5s10-7.8,16.3-10
	c6.3-2.2,13.3-3.4,20.9-3.4c4,0,7.9,0.3,11.6,1.1c3.8,0.7,7.3,1.6,10.6,2.8s6.3,2.5,9,4.1c2.7,1.5,5,3.2,6.8,4.9
	c0,1.7-0.1,3.6-0.3,5.6c-0.2,2-0.5,4.1-0.8,6.1c-0.3,2-0.7,3.9-1.2,5.7c-0.5,1.8-1,3.3-1.5,4.5h-38.8c-0.6,0.7-1.3,1.6-2,2.7
	s-1.5,2.5-2.1,4.1c-0.7,1.6-1.2,3.4-1.7,5.5c-0.5,2.1-0.7,4.3-0.7,6.8c0,3.2,0.4,5.9,1.1,8.2c0.8,2.3,1.8,4.2,3,5.8s2.7,2.7,4.3,3.4
	c1.7,0.8,3.3,1.1,5.1,1.1c0.9,0,1.5-0.2,1.8-0.5s0.5-0.7,0.5-1.2v-1.8L657.8,136.3L657.8,136.3z"/>
<path class="st18" d="M714.3,76.9c1.9-1.3,4.1-2.5,6.5-3.6c2.4-1.1,5-2,7.6-2.7c2.7-0.7,5.5-1.3,8.3-1.7c2.9-0.4,5.8-0.6,8.7-0.6
	c3.8,0,7.6,0.4,11.4,1.1c3.8,0.7,7.2,1.9,10.3,3.4c3.1,1.6,5.8,3.6,8,6.1c2.2,2.5,3.7,5.4,4.5,8.9l16.8,73.7
	c-2.3,3.1-5.4,5.6-9.5,7.6s-9.2,3-15.5,3c-2.8,0-5.3-0.3-7.7-0.8s-4.5-1.3-6.4-2.3c-1.8-1-3.4-2.3-4.6-3.8c-1.2-1.5-2-3.4-2.3-5.4
	l-1.6-9.5c1.5-0.1,3-0.2,4.5-0.6s2.8-0.8,4-1.2s2.2-1.1,3-1.7s1.1-1.2,1.1-1.9c0-0.8-0.3-1.5-1-2c-0.9,0.7-1.9,1.3-3.1,1.8
	c-1.2,0.6-2.4,1-3.7,1.4s-2.6,0.6-3.9,0.8c-1.3,0.2-2.5,0.3-3.7,0.3c-2.1,0-4-0.1-5.6-0.4s-3.1-0.6-4.3-1.1s-2.3-0.9-3.2-1.4
	c-0.9-0.5-1.6-1-2.2-1.4c-0.2,0.3-0.4,0.6-0.5,0.9s-0.2,0.7-0.2,1.1c0,0.8,0.4,1.5,1.1,2.1s1.8,1.2,3.1,1.7c1.3,0.5,2.7,0.9,4.4,1.2
	c1.7,0.3,3.4,0.5,5.2,0.6c0.3,3.6,0.6,6.6,1,8.7c0.4,2.2,0.7,3.5,1.1,4.1c-0.4,0.9-1.3,1.8-2.6,2.9c-1.3,1-2.9,2-4.9,2.9
	c-1.9,0.9-4.2,1.6-6.6,2.2s-5.1,0.9-7.9,0.9c-3.5,0-6.8-0.4-9.9-1.2c-3.1-0.8-5.8-2-8.1-3.5c-2.3-1.5-4.2-3.3-5.5-5.4
	s-2.1-4.5-2.1-7.1c0-0.6,0-1.2,0.1-1.8c0-0.6,0.2-1.2,0.3-1.8L714.3,76.9L714.3,76.9z M749,117.1c-0.5-3.1-1-5.6-1.3-7.5
	c-0.3-1.9-0.6-3.3-1-4.3s-0.7-1.6-1-1.9c-0.4-0.3-0.8-0.4-1.4-0.4c-0.3,0-0.7,0.1-1,0.2c-0.3,0.1-0.6,0.2-0.8,0.3l2.8,15.8
	c0.2,0.2,0.5,0.4,0.8,0.5s0.7,0.2,1,0.2c0.4,0,0.9-0.1,1.2-0.2c0.4-0.1,0.7-0.2,0.9-0.3L749,117.1L749,117.1z"/>
<path class="st18" d="M858.3,150.8c1.7-0.4,3.6-1.3,5.6-2.6c2-1.3,4-3.4,5.8-6.3c0.8-1.4,1.2-2.5,1.2-3.5c0-1.4-0.6-2-1.9-2
	c-0.1,0-0.2,0-0.3,0c-0.1,0-0.2,0-0.3,0c-3.5,7.7-9.1,11.5-16.7,11.5c-1.9,0-3.7-0.2-5.3-0.6c-1.7-0.4-3.2-1.1-4.6-2s-2.8-2.2-4-3.8
	c-1.3-1.6-2.5-3.5-3.7-5.8h-0.4c-0.5,0-1,0.1-1.4,0.4s-0.6,0.7-0.6,1.4c0,0.9,0.3,1.8,0.9,2.8c1.1,1.9,2.2,3.5,3.5,4.9
	s2.5,2.5,3.8,3.4c1.3,0.9,2.6,1.6,3.9,2.1c1.3,0.5,2.4,0.8,3.5,0.9l-0.6,14.8c-1.3,0.9-2.6,1.7-4,2.4s-3,1.3-4.8,1.8s-3.8,0.9-6,1.1
	c-2.2,0.3-4.8,0.4-7.7,0.4s-5.6-0.3-8.6-0.9c-3-0.6-5.8-1.5-8.2-2.9s-4.6-3-6.2-5.1c-1.7-2.1-2.5-4.7-2.5-7.7c0-1.6,0.1-3.8,0.2-6.6
	c0.2-2.8,0.4-5.9,0.6-9.5c0.3-3.5,0.6-7.4,0.9-11.5c0.3-4.1,0.7-8.3,1.1-12.5c0.4-4.2,0.8-8.3,1.2-12.5s0.8-7.9,1.2-11.5
	s0.8-6.7,1.1-9.5s0.6-4.9,0.8-6.5c1.4-1.3,3-2.5,4.9-3.4c1.8-0.9,3.7-1.7,5.7-2.2c2-0.6,4-0.9,6-1.2c2-0.2,4-0.3,5.8-0.3
	c3.3,0,6.6,0.4,9.8,1.2c3.2,0.8,5.9,1.8,8,3.1l4,14.4l-2.6,11.5c-0.1,0.4-0.2,0.8-0.2,1.2c0,0.4-0.1,0.7-0.1,1.1c0,1.8,1,2.7,3,2.8
	l7-30.9c0.8-0.5,1.9-1,3.2-1.5c1.3-0.5,2.8-1,4.3-1.4c1.6-0.4,3.3-0.8,5.2-1c1.9-0.3,3.8-0.4,5.8-0.4c3.5,0,6.5,0.3,9.2,0.9
	c2.6,0.6,4.8,1.6,6.6,2.9s3.2,3.1,4.2,5.2c1,2.1,1.7,4.8,2.1,7.9c0.3,3.3,0.8,7.2,1.3,11.9c0.5,4.6,1,9.6,1.6,14.7
	c0.5,5.2,1.1,10.4,1.6,15.8c0.5,5.3,1,10.3,1.4,15c0.4,4.7,0.8,8.8,1,12.4s0.4,6.2,0.4,8c-5.5,6.1-13.3,9.1-23.6,9.1
	c-3.2,0-6.2-0.3-8.9-0.9s-5-1.4-7-2.6s-3.5-2.6-4.6-4.3s-1.8-3.8-2-6.1L858.3,150.8L858.3,150.8z"/>
<path class="st18" d="M984.4,69.8c0.6,1.1,1.2,2.3,1.8,3.6s1,2.7,1.3,4.1c0.3,1.4,0.6,2.9,0.8,4.3s0.3,2.8,0.3,4c0,5.4-1,9.3-3,12
	c-2,2.6-4.7,3.9-8.1,3.9h-29.7c-1.8,0-2.7,0.8-2.7,2.3v0.6c0,0.3,0,0.5,0.2,0.6h35.2c0.4,0.8,0.9,1.7,1.2,2.8c0.4,1.1,0.7,2.2,1,3.4
	s0.5,2.4,0.7,3.6c0.2,1.2,0.3,2.4,0.3,3.5c0,3.1-0.3,5.9-0.9,8.4c-0.6,2.5-1.4,4.5-2.4,6.1h-16c-4.2,0-7.6,0.1-10.3,0.4
	c-2.7,0.2-4.9,0.5-6.5,0.9c-1.6,0.4-2.7,0.8-3.3,1.2s-1,0.9-1,1.4c0,0.4,0.1,0.8,0.2,1.2c0.1,0.4,0.4,0.7,0.8,0.9
	c1.2-0.4,2.5-0.8,3.8-1.1s2.7-0.6,4.3-0.7c1.6-0.2,3.3-0.3,5.3-0.4c1.9-0.1,4.2-0.2,6.7-0.2h20.7c0.5,0.8,1.1,1.8,1.6,2.8
	s1,2.2,1.4,3.5s0.8,2.9,1,4.6s0.4,3.7,0.4,5.9c0,1.4-0.1,2.9-0.3,4.5c-0.2,1.6-0.5,3.2-0.9,4.7s-0.9,3.1-1.5,4.5s-1.4,2.6-2.3,3.7
	h-55.2c-2.9,0-5.6-0.4-8.1-1.1s-4.7-1.9-6.6-3.5c-1.9-1.6-3.3-3.6-4.4-6c-1.1-2.4-1.6-5.3-1.6-8.7V77.1c0-2.5,2.7-4.3,8.2-5.5
	c5.5-1.2,13.8-1.7,25-1.7L984.4,69.8L984.4,69.8z"/>
<path class="st18" d="M1073.7,173.2c-4.1,0-8.2-0.5-12.2-1.4c-4-0.9-7.8-2.3-11.4-4.2c-3.6-1.9-6.9-4.2-9.9-7.1
	c-3-2.9-5.6-6.2-7.8-10.2s-3.9-8.4-5.2-13.4c-1.2-5-1.8-10.6-1.8-16.7c0-9.1,1.3-17,4-23.7s6.2-12.1,10.6-16.5
	c4.4-4.3,9.5-7.6,15.3-9.7s11.8-3.1,18.1-3.1c7.5,0,14.2,1.3,20.1,3.9c5.9,2.6,11,6.2,15.1,10.8s7.3,10.2,9.5,16.7
	s3.3,13.7,3.3,21.5c0,9.3-1.2,17.2-3.7,23.9s-5.9,12.2-10.2,16.5s-9.3,7.5-15.1,9.5C1086.6,172.2,1080.4,173.2,1073.7,173.2
	L1073.7,173.2z M1076.7,116.7c0-2.5-0.1-4.7-0.2-6.4s-0.3-3.3-0.5-4.5c-0.2-1.1-0.6-1.8-1-2.2c-0.4-0.4-0.9-0.6-1.4-0.6
	s-1,0.1-1.2,0.3s-0.5,0.3-0.7,0.5c0.1,0.9,0.1,1.8,0.2,2.6c0.1,0.8,0.2,1.7,0.3,2.7c0.1,1,0.1,2.2,0.2,3.5c0.1,1.3,0.1,3,0.1,4.9
	v5.1c0,1.9,0,3.6-0.1,4.9c-0.1,1.3-0.1,2.5-0.2,3.5c-0.1,1-0.2,1.9-0.3,2.7c-0.1,0.8-0.2,1.7-0.2,2.6c0.2,0.2,0.4,0.3,0.7,0.5
	c0.3,0.2,0.7,0.3,1.2,0.3s1-0.2,1.4-0.6c0.4-0.4,0.8-1.1,1-2.2c0.2-1.2,0.4-2.7,0.5-4.5s0.2-3.9,0.2-6.4V116.7L1076.7,116.7z"/>
<path class="st18" d="M1120.2,79.2c2.2-3.5,5.2-6.2,8.9-8.1s8.1-2.8,13.1-2.8c3.9,0,7.2,0.5,10,1.4c2.8,0.9,5.1,2.1,7,3.6
	s3.4,3.2,4.6,5.2c1.2,1.9,2.1,4,2.7,6.1l-2.4,49.6c0.6,0.2,1.1,0.2,1.6,0.2c0.8,0,1.4-0.3,1.9-0.8s0.8-1.6,0.8-3.1l3.2-56.9
	c0.8-0.8,2-1.5,3.5-2.1s3.1-1.2,4.9-1.6c1.8-0.4,3.6-0.8,5.4-1.1c1.8-0.3,3.6-0.4,5.1-0.4c3.9,0,7.2,0.5,10,1.5
	c2.8,1,5.1,2.4,6.9,4.2c1.8,1.8,3.1,3.8,4,6.1c0.8,2.3,1.2,4.8,1.2,7.5c0,3.2-1.2,10.2-3.6,21.2s-5.9,26-10.6,45.1
	c-0.9,3.5-2.3,6.5-4.2,8.8c-1.9,2.3-4.3,4.2-7.1,5.5c-2.8,1.4-5.9,2.3-9.3,2.9c-3.4,0.6-7.1,0.9-10.9,0.9c-2.6,0-5.2-0.2-7.7-0.5
	s-4.9-0.8-7.2-1.4c-2.3-0.6-4.4-1.4-6.4-2.3c-2-0.9-3.7-2-5.2-3.2c-1.8-4.2-3.7-9.4-5.7-15.5c-2-6.1-3.9-12.9-5.7-20.3
	c-1.8-7.4-3.6-15.3-5.2-23.8S1121.3,88.1,1120.2,79.2L1120.2,79.2z"/>
<path class="st18" d="M1291.7,69.8c0.6,1.1,1.2,2.3,1.8,3.6s1,2.7,1.3,4.1c0.3,1.4,0.6,2.9,0.8,4.3c0.2,1.4,0.3,2.8,0.3,4
	c0,5.4-1,9.3-2.9,12c-2,2.6-4.7,3.9-8.1,3.9h-29.7c-1.8,0-2.7,0.8-2.7,2.3v0.6c0,0.3,0.1,0.5,0.2,0.6h35.2c0.4,0.8,0.9,1.7,1.2,2.8
	c0.4,1.1,0.7,2.2,1,3.4c0.3,1.2,0.5,2.4,0.7,3.6c0.2,1.2,0.3,2.4,0.3,3.5c0,3.1-0.3,5.9-0.9,8.4c-0.6,2.5-1.4,4.5-2.4,6.1h-16
	c-4.2,0-7.6,0.1-10.3,0.4c-2.7,0.2-4.9,0.5-6.4,0.9c-1.6,0.4-2.7,0.8-3.3,1.2c-0.6,0.4-1,0.9-1,1.4c0,0.4,0.1,0.8,0.2,1.2
	c0.1,0.4,0.4,0.7,0.8,0.9c1.2-0.4,2.5-0.8,3.8-1.1s2.7-0.6,4.3-0.7c1.6-0.2,3.3-0.3,5.3-0.4c1.9-0.1,4.2-0.2,6.7-0.2h20.7
	c0.5,0.8,1.1,1.8,1.6,2.8c0.5,1,1,2.2,1.4,3.5c0.4,1.3,0.8,2.9,1,4.6s0.4,3.7,0.4,5.9c0,1.4-0.1,2.9-0.3,4.5
	c-0.2,1.6-0.5,3.2-0.9,4.7s-0.9,3.1-1.6,4.5s-1.4,2.6-2.3,3.7h-55.2c-2.9,0-5.6-0.4-8.1-1.1s-4.7-1.9-6.6-3.5
	c-1.9-1.6-3.3-3.6-4.4-6c-1.1-2.4-1.6-5.3-1.6-8.7V77.1c0-2.5,2.7-4.3,8.2-5.5c5.4-1.2,13.8-1.7,25-1.7L1291.7,69.8L1291.7,69.8z"/>
<path class="st18" d="M1392.5,146.8c-0.8,8-3.2,14.2-7.1,18.6c-3.9,4.5-9.4,6.7-16.5,6.7c-2.3,0-4.6-0.3-7-0.9s-4.6-1.6-6.8-3.1
	c-2.2-1.5-4.2-3.5-6.2-6.1c-1.9-2.6-3.6-5.9-4.9-9.9l-2.7-7.7c-1.9-0.1-3.5-0.2-4.6-0.4c-1.2-0.2-2.2-0.4-3.2-0.5
	c-0.2,0.2-0.3,0.4-0.4,0.6c-0.1,0.3-0.2,0.6-0.2,1.1c0,0.6,0.4,1.2,1.2,1.6s2.4,0.7,4.8,0.9l4.2,11.3v6.6c-2.8,2.1-6,3.7-9.8,4.7
	c-3.8,1.1-7.8,1.6-11.9,1.6c-3.1,0-5.8-0.3-8.4-1s-4.7-1.6-6.6-3c-1.9-1.4-3.3-3-4.3-5c-1-2-1.6-4.4-1.6-7.1V81.6
	c0-1.2,0.6-2.4,1.7-3.6c1.1-1.2,2.7-2.3,4.6-3.3s4.3-2,6.9-2.8c2.7-0.9,5.5-1.6,8.5-2.2s6.2-1.1,9.4-1.4s6.5-0.5,9.7-0.5
	c7.1,0,13.6,0.8,19.5,2.4c5.9,1.6,10.9,4,15.1,7.2c4.2,3.2,7.4,7.2,9.7,11.9c2.3,4.7,3.4,10.2,3.4,16.5c0,3.7-0.5,7-1.6,10.1
	c-1.1,3.1-2.5,5.8-4.2,8.2s-3.8,4.4-6.2,6.1c-2.4,1.7-4.9,3-7.6,3.9c0,0.9,0.2,1.6,0.7,1.9c0.5,0.4,1.1,0.6,1.8,0.6s1.7-0.3,3.1-0.8
	c1.4-0.5,2.9-1.5,4.6-2.8L1392.5,146.8L1392.5,146.8z M1341.7,115.1c0.2,0.1,0.4,0.2,0.7,0.2s0.5,0,0.6,0c1.2,0,2-0.4,2.5-1.2
	c0.5-0.8,0.7-2.1,0.7-3.8v-2.8c0-1.8-0.2-3.2-0.6-4c-0.4-0.8-1.2-1.2-2.3-1.2c-0.2,0-0.5,0-0.9,0.1s-0.6,0.1-0.8,0.2
	c0.1,0.4,0.1,0.9,0.1,1.3L1341.7,115.1L1341.7,115.1z"/>
<g>
	<g id="j">
		<path class="st19" d="M1289.7,531.4h552.9c5.5,0,10,4.5,10,10v112.4c0,5.5-4.5,10-10,10h-552.9c-5.5,0-10-4.5-10-10V541.4
			C1279.7,535.9,1284.2,531.4,1289.7,531.4z"/>
		<path class="st20" d="M1842.7,533.4c4.4,0,8,3.6,8,8v112.4c0,4.4-3.6,8-8,8h-552.9c-4.4,0-8-3.6-8-8V541.4c0-4.4,3.6-8,8-8H1842.7
			 M1842.6,529.4h-552.9c-6.6,0-12,5.4-12,12v112.4c0,6.6,5.4,12,12,12h552.9c6.6,0,12-5.4,12-12V541.4
			C1854.6,534.8,1849.2,529.4,1842.6,529.4L1842.6,529.4z"/>
	</g>
	<g>
		<path class="st18" d="M1376.1,626c-1.2,1.3-3,2.5-5.3,3.5c-2.3,1-5.1,1.6-8.3,1.6c-1.7,0-3.4-0.2-4.9-0.7c-1.6-0.4-3-1.1-4.2-2
			c-1.2-0.9-2.2-2-2.9-3.4s-1.1-3-1.1-4.8v-35h-10.7c-1.2-2-2-4-2.5-6c-0.5-2-0.8-4.1-0.8-6.3c0-1.7,0.1-3.2,0.4-4.5
			c0.2-1.4,0.6-2.6,1-3.6s0.8-2,1.3-2.8s1-1.5,1.5-2h47.4c0.8,1.6,1.6,3.5,2.2,5.8c0.6,2.3,0.9,4.7,0.9,7c0,2.2-0.2,4.1-0.7,5.7
			c-0.4,1.6-1.1,2.9-1.8,3.9c-0.8,1-1.7,1.7-2.8,2.2c-1.1,0.5-2.2,0.7-3.5,0.7h-13.4c-0.1,0.3-0.1,0.6-0.1,0.8
			c0,0.3,0.1,0.6,0.2,0.8c0.1,0.2,0.4,0.4,0.8,0.5c0.4,0.2,0.9,0.2,1.6,0.3c0.7,0,1.6,0.1,2.7,0.1h3.2L1376.1,626L1376.1,626z"/>
		<path class="st18" d="M1449,613.5c-0.5,5.5-2,9.9-4.4,13s-5.9,4.7-10.3,4.7c-1.4,0-2.9-0.2-4.3-0.6s-2.9-1.1-4.2-2.2
			s-2.6-2.5-3.8-4.2s-2.2-4.1-3.1-6.9l-1.7-5.3c-1.2,0-2.2-0.1-2.9-0.2c-0.7-0.1-1.4-0.2-2-0.3c-0.1,0.1-0.2,0.2-0.2,0.4
			c-0.1,0.2-0.1,0.4-0.1,0.8c0,0.4,0.2,0.8,0.7,1.1c0.5,0.3,1.5,0.5,3,0.6l2.6,7.8v4.6c-1.7,1.5-3.7,2.5-6.1,3.3s-4.8,1.1-7.4,1.1
			c-1.9,0-3.6-0.2-5.2-0.7s-2.9-1.2-4.1-2.1s-2.1-2.1-2.7-3.5c-0.6-1.4-1-3-1-5v-51.7c0-0.8,0.3-1.7,1.1-2.5
			c0.7-0.8,1.7-1.6,2.9-2.3c1.2-0.7,2.7-1.4,4.3-2c1.7-0.6,3.4-1.1,5.3-1.5c1.9-0.4,3.8-0.8,5.9-1s4-0.3,6-0.3
			c4.4,0,8.5,0.6,12.1,1.7c3.7,1.1,6.8,2.8,9.4,5c2.6,2.2,4.6,5,6,8.3s2.1,7.1,2.1,11.5c0,2.5-0.3,4.9-1,7c-0.7,2.1-1.5,4-2.6,5.7
			c-1.1,1.7-2.4,3.1-3.9,4.3s-3.1,2.1-4.7,2.7c0,0.7,0.2,1.1,0.5,1.4c0.3,0.2,0.7,0.4,1.1,0.4s1.1-0.2,1.9-0.5c0.8-0.4,1.8-1,2.9-2
			L1449,613.5L1449,613.5z M1417.4,591.4c0.1,0.1,0.2,0.1,0.4,0.1c0.2,0,0.3,0,0.4,0c0.7,0,1.2-0.3,1.6-0.8c0.3-0.5,0.5-1.4,0.5-2.7
			v-2c0-1.3-0.1-2.2-0.4-2.8s-0.7-0.9-1.4-0.9c-0.2,0-0.3,0-0.6,0c-0.2,0-0.4,0.1-0.5,0.2c0,0.3,0.1,0.6,0.1,0.9L1417.4,591.4
			L1417.4,591.4z"/>
		<path class="st18" d="M1469.2,611.9c-3.4-2.7-6.5-5.8-9.1-9.1c-2.6-3.3-4.8-6.9-6.5-10.7c-1.8-3.8-3.1-7.9-4.1-12.2
			c-1-4.3-1.6-8.7-1.8-13.3c0.8-1.3,1.7-2.5,2.8-3.4c1.1-0.9,2.3-1.7,3.7-2.3c1.3-0.6,2.7-1.1,4.1-1.4c1.4-0.3,2.8-0.4,4-0.4
			c2.1,0,3.9,0.2,5.5,0.7c1.6,0.5,3,1.1,4.3,2c0.2,0.7,0.5,1.7,0.9,3c0.4,1.4,0.8,2.8,1.2,4.3s0.8,3.1,1.2,4.6
			c0.4,1.5,0.7,2.8,0.9,3.7l-2,10.5c-0.1,0.4-0.1,0.8-0.2,1.4s-0.2,1-0.2,1.4c0,0.5,0.1,1,0.4,1.3c0.2,0.3,0.7,0.5,1.3,0.5
			c0.2-0.7,0.4-1.8,0.8-3.3c0.3-1.5,0.7-3.3,1.1-5.3s0.8-4.1,1.2-6.3s0.8-4.4,1.2-6.4c0.4-2.1,0.7-4,1.1-5.7s0.6-3.1,0.8-4.1
			c1.2-0.7,2.6-1.3,4.3-1.7s3.4-0.7,5.4-0.7c2.1,0,4.1,0.3,5.9,1s3.3,1.6,4.5,2.8c1.2,1.2,2.2,2.8,2.9,4.6c0.7,1.8,1,3.9,1,6.3
			c0,3.8-0.5,7.4-1.4,10.8c-0.9,3.4-2.1,6.6-3.6,9.5c-1.5,2.9-3.1,5.6-4.9,8.1c-1.8,2.5-3.6,4.6-5.4,6.5v17.9
			c-1.3,1-2.6,1.8-3.8,2.4s-2.3,1.1-3.4,1.4c-1.1,0.3-2.1,0.5-3.1,0.7c-1,0.1-2,0.2-2.9,0.2c-2,0-3.8-0.2-5.5-0.7
			c-1.7-0.4-3.1-1.1-4.3-2c-1.2-0.9-2.1-2.1-2.8-3.5c-0.7-1.4-1-3.1-1-5.1v-9.6c0.2,0.2,0.5,0.5,0.8,0.9s0.8,0.8,1.1,1.1
			s0.8,0.7,1.2,0.9c0.4,0.2,0.8,0.4,1,0.4c0.4,0,0.7-0.1,0.9-0.4C1469,612.9,1469.2,612.5,1469.2,611.9L1469.2,611.9z"/>
		<path class="st18" d="M1538.6,564.9c1.2-0.9,2.5-1.7,4-2.5s3.1-1.4,4.7-1.9s3.4-0.9,5.2-1.2c1.8-0.3,3.6-0.4,5.4-0.4
			c2.4,0,4.7,0.2,7.1,0.8s4.5,1.3,6.4,2.4s3.6,2.5,4.9,4.2s2.3,3.8,2.8,6.2l10.4,51.3c-1.4,2.1-3.4,3.9-5.9,5.3
			c-2.5,1.4-5.7,2.1-9.6,2.1c-1.7,0-3.3-0.2-4.8-0.5s-2.8-0.9-4-1.6c-1.1-0.7-2.1-1.6-2.8-2.7s-1.2-2.3-1.4-3.8l-1-6.6
			c0.9,0,1.9-0.2,2.8-0.4c0.9-0.2,1.8-0.5,2.5-0.9c0.8-0.3,1.4-0.7,1.8-1.2c0.5-0.4,0.7-0.9,0.7-1.3c0-0.6-0.2-1-0.6-1.4
			c-0.6,0.5-1.2,0.9-1.9,1.3c-0.7,0.4-1.5,0.7-2.3,1s-1.6,0.4-2.4,0.6s-1.6,0.2-2.3,0.2c-1.3,0-2.5-0.1-3.5-0.3s-1.9-0.4-2.7-0.7
			s-1.4-0.6-2-1c-0.6-0.3-1-0.7-1.4-1c-0.1,0.2-0.2,0.4-0.3,0.6c-0.1,0.2-0.1,0.5-0.1,0.8c0,0.5,0.2,1,0.7,1.5
			c0.5,0.5,1.1,0.8,1.9,1.2c0.8,0.3,1.7,0.6,2.7,0.8c1,0.2,2.1,0.4,3.2,0.4c0.2,2.5,0.4,4.6,0.6,6.1s0.4,2.5,0.7,2.8
			c-0.3,0.6-0.8,1.3-1.6,2c-0.8,0.7-1.8,1.4-3,2s-2.6,1.1-4.1,1.5s-3.2,0.6-4.9,0.6c-2.2,0-4.2-0.3-6.1-0.9c-1.9-0.6-3.6-1.4-5-2.4
			s-2.6-2.3-3.4-3.8c-0.9-1.5-1.3-3.1-1.3-4.9c0-0.4,0-0.8,0.1-1.2c0-0.4,0.1-0.8,0.2-1.3L1538.6,564.9L1538.6,564.9z M1560.1,592.9
			c-0.3-2.2-0.6-3.9-0.8-5.2c-0.2-1.3-0.4-2.3-0.6-3s-0.4-1.1-0.6-1.3c-0.2-0.2-0.5-0.3-0.8-0.3c-0.2,0-0.4,0-0.6,0.1
			c-0.2,0.1-0.3,0.1-0.5,0.2l1.7,11c0.1,0.2,0.3,0.2,0.5,0.3c0.2,0.1,0.4,0.1,0.6,0.1c0.3,0,0.5,0,0.8-0.1c0.2-0.1,0.4-0.2,0.6-0.2
			L1560.1,592.9L1560.1,592.9z"/>
		<path class="st18" d="M1622.6,606.2c-1,0-1.9-0.2-2.7-0.7c-0.8-0.5-1.6-1.1-2.2-2s-1.2-2-1.5-3.4c-0.4-1.4-0.6-2.9-0.6-4.7
			c0-1.4,0.1-2.6,0.3-3.8s0.5-2.2,0.8-3c0.3-0.9,0.6-1.6,1-2.3s0.7-1.1,1-1.5h27.2c0.9,1.6,1.6,3.4,2,5.4s0.6,3.8,0.6,5.7
			c0,2.2-0.2,4.2-0.7,6c-0.4,1.8-1,3.2-1.6,4.4h-1.9v16.3c-1.2,1.2-2.6,2.4-4.1,3.5c-1.5,1.1-3.3,2.1-5.2,3c-1.9,0.8-4.1,1.5-6.5,2
			c-2.4,0.5-5.1,0.8-8,0.8s-5.6-0.3-8.3-0.9c-2.7-0.6-5.3-1.6-7.7-2.8c-2.4-1.3-4.6-2.9-6.6-4.9c-2-2-3.8-4.3-5.2-7
			s-2.6-5.8-3.4-9.3s-1.2-7.4-1.2-11.8c0-6.1,0.8-11.4,2.4-16s3.8-8.4,6.6-11.5s6.2-5.4,10.1-7s8.2-2.3,13-2.3
			c2.5,0,4.9,0.2,7.2,0.7s4.6,1.1,6.6,2c2,0.8,3.9,1.8,5.6,2.8c1.7,1.1,3.1,2.2,4.3,3.4c0,1.2-0.1,2.5-0.2,3.9s-0.3,2.8-0.5,4.2
			c-0.2,1.4-0.4,2.7-0.7,4s-0.6,2.3-0.9,3.1h-24.1c-0.4,0.5-0.8,1.1-1.3,1.9c-0.5,0.8-0.9,1.8-1.3,2.9s-0.8,2.4-1.1,3.8
			c-0.3,1.4-0.4,3-0.4,4.8c0,2.2,0.2,4.1,0.7,5.7c0.5,1.6,1.1,3,1.9,4s1.7,1.9,2.7,2.4c1,0.5,2.1,0.8,3.2,0.8c0.6,0,0.9-0.1,1.2-0.3
			c0.2-0.2,0.3-0.5,0.3-0.8v-1.2L1622.6,606.2L1622.6,606.2z"/>
		<path class="st18" d="M1657.8,564.9c1.2-0.9,2.5-1.7,4-2.5s3.1-1.4,4.7-1.9s3.4-0.9,5.2-1.2c1.8-0.3,3.6-0.4,5.4-0.4
			c2.4,0,4.7,0.2,7.1,0.8s4.5,1.3,6.4,2.4s3.6,2.5,4.9,4.2s2.3,3.8,2.8,6.2l10.4,51.3c-1.4,2.1-3.4,3.9-5.9,5.3
			c-2.5,1.4-5.7,2.1-9.6,2.1c-1.7,0-3.3-0.2-4.8-0.5s-2.8-0.9-4-1.6c-1.1-0.7-2.1-1.6-2.8-2.7s-1.2-2.3-1.4-3.8l-1-6.6
			c0.9,0,1.9-0.2,2.8-0.4c0.9-0.2,1.8-0.5,2.5-0.9c0.8-0.3,1.4-0.7,1.8-1.2c0.5-0.4,0.7-0.9,0.7-1.3c0-0.6-0.2-1-0.6-1.4
			c-0.6,0.5-1.2,0.9-1.9,1.3c-0.7,0.4-1.5,0.7-2.3,1s-1.6,0.4-2.4,0.6s-1.6,0.2-2.3,0.2c-1.3,0-2.5-0.1-3.5-0.3s-1.9-0.4-2.7-0.7
			s-1.4-0.6-2-1c-0.6-0.3-1-0.7-1.4-1c-0.1,0.2-0.2,0.4-0.3,0.6c-0.1,0.2-0.1,0.5-0.1,0.8c0,0.5,0.2,1,0.7,1.5
			c0.5,0.5,1.1,0.8,1.9,1.2c0.8,0.3,1.7,0.6,2.7,0.8c1,0.2,2.1,0.4,3.2,0.4c0.2,2.5,0.4,4.6,0.6,6.1s0.4,2.5,0.7,2.8
			c-0.3,0.6-0.8,1.3-1.6,2c-0.8,0.7-1.8,1.4-3,2s-2.6,1.1-4.1,1.5s-3.2,0.6-4.9,0.6c-2.2,0-4.2-0.3-6.1-0.9c-1.9-0.6-3.6-1.4-5-2.4
			s-2.6-2.3-3.4-3.8c-0.9-1.5-1.3-3.1-1.3-4.9c0-0.4,0-0.8,0.1-1.2c0-0.4,0.1-0.8,0.2-1.3L1657.8,564.9L1657.8,564.9z M1679.3,592.9
			c-0.3-2.2-0.6-3.9-0.8-5.2c-0.2-1.3-0.4-2.3-0.6-3s-0.4-1.1-0.6-1.3c-0.2-0.2-0.5-0.3-0.8-0.3c-0.2,0-0.4,0-0.6,0.1
			c-0.2,0.1-0.3,0.1-0.5,0.2l1.7,11c0.1,0.2,0.3,0.2,0.5,0.3c0.2,0.1,0.4,0.1,0.6,0.1c0.3,0,0.5,0,0.8-0.1c0.2-0.1,0.4-0.2,0.6-0.2
			L1679.3,592.9L1679.3,592.9z"/>
		<path class="st18" d="M1731.6,629.5c-2.3,1-5.1,1.6-8.3,1.6c-1.7,0-3.4-0.2-4.9-0.7c-1.6-0.4-3-1.1-4.2-2c-1.2-0.9-2.2-2-2.9-3.4
			s-1.1-3-1.1-4.8v-56.2c1.2-1.3,3-2.5,5.3-3.5c2.3-1,5.1-1.6,8.3-1.6c1.7,0,3.4,0.2,4.9,0.7c1.6,0.4,3,1.1,4.2,2
			c1.2,0.9,2.2,2,2.9,3.4s1.1,3,1.1,4.8V626C1735.7,627.3,1733.9,628.5,1731.6,629.5L1731.6,629.5z"/>
		<path class="st18" d="M1768.3,563.7c0.8-0.8,1.7-1.5,2.7-2.1c1-0.6,2-1.1,3.1-1.5s2.2-0.7,3.4-0.9s2.3-0.3,3.4-0.3
			c1.7,0,3.4,0.2,5,0.6c1.6,0.4,3.1,1,4.3,1.9s2.3,2.1,3.1,3.6c0.8,1.5,1.1,3.4,1.1,5.7v51.5c0,1.6-0.3,3-1,4.1
			c-0.7,1.1-1.6,2-2.8,2.7s-2.5,1.2-3.9,1.4s-3,0.4-4.6,0.4c-1,0-2-0.1-2.9-0.2s-1.9-0.3-2.8-0.6c-0.9-0.2-1.7-0.5-2.5-0.9
			s-1.4-0.7-2-1.1c-1.3-2-2.5-3.9-3.6-5.8s-2-3.6-2.9-5.3c-0.9-1.7-1.7-3.3-2.5-4.9s-1.5-3-2.2-4.4c-0.5,0.1-0.9,0.3-1.1,0.6
			s-0.3,0.7-0.3,1.1c0,0.5,0.1,1.1,0.4,1.6c0.2,0.5,0.6,1.2,1,1.9l5.7,11v2.9c-0.5,0.4-1,0.8-1.7,1.2s-1.6,0.9-2.6,1.3
			c-1,0.4-2.2,0.8-3.6,1.1c-1.3,0.3-2.9,0.4-4.6,0.4c-2,0-3.8-0.2-5.5-0.7c-1.7-0.5-3.1-1.2-4.3-2.1c-1.2-0.9-2.2-2.1-2.8-3.5
			c-0.7-1.4-1-3-1-4.8v-54.5c0-0.9,0.3-1.8,1-2.6c0.7-0.8,1.6-1.5,2.8-2.1s2.5-1,4.1-1.4s3.2-0.5,5-0.5c2,0,3.9,0.3,5.6,0.9
			s3,1.3,3.9,2.1c0.7,1,1.4,2.2,2.2,3.6s1.6,2.9,2.5,4.6c0.9,1.7,1.8,3.5,2.8,5.4s1.9,3.8,2.9,5.8c0.3,0,0.6-0.1,0.9-0.3
			c0.3-0.2,0.4-0.6,0.4-1.2c0-0.4-0.1-0.9-0.4-1.4c-0.2-0.6-0.5-1.1-0.8-1.7l-4.9-10.1L1768.3,563.7L1768.3,563.7z"/>
	</g>
</g>
</svg>
