<?xml version="1.0" encoding="UTF-8"?><svg id="a" xmlns="http://www.w3.org/2000/svg" width="1921.54" height="1097.87" viewBox="0 0 1921.54 1097.87"><defs><style>.j{fill:#c10000;stroke:#710000;stroke-width:5px;}.j,.k,.l,.m,.n,.o,.p,.q,.r,.s,.t,.u,.v,.w,.x,.y,.z,.aa{stroke-miterlimit:10;}.ab{fill:none;}.ab,.ac{stroke-width:0px;}.k,.q,.r,.v,.x{stroke:#5b4034;}.l{fill:#9b6f59;stroke-width:4px;}.l,.aa{stroke:#825d4a;}.m{fill:#0096bf;}.m,.n,.o,.p,.z{stroke-width:.5px;}.m,.n,.t,.z{stroke:#000;}.n,.r{fill:#fff;}.o{fill:#ff9492;}.o,.p,.s{stroke:#7f5d2a;}.p{fill:#ff9497;}.q{fill:#fffefd;}.s{fill:#fed266;}.t{fill:#fde7c3;}.u{fill:#fbbb71;stroke:#7f5d3f;}.v{fill:#f5f5f5;}.w{fill:#cd5522;stroke:#f17083;}.x{fill:#8e6652;}.y{fill:#5b4134;stroke:#271b16;}.aa{fill:#deb985;stroke-width:3px;}</style></defs><rect id="b" class="t" x=".5" y=".5" width="1920.54" height="605.04"/><rect id="c" class="ab" x=".5" y="605.54" width="1919" height="481"/><rect id="d" class="y" x=".04" y="973.5" width="1920.96" height="120.69"/><rect class="k" x=".5" y="611.54" width="109" height="47"/><rect class="v" x="109.5" y="614.54" width="109" height="47"/><rect class="k" x="218.5" y="611.54" width="109" height="47"/><rect class="r" x="327.5" y="611.54" width="109" height="47"/><rect class="r" x=".5" y="658.54" width="109" height="61"/><rect class="k" x="436.5" y="614.54" width="109" height="47"/><rect class="r" x="545.5" y="611.54" width="109" height="47"/><rect class="k" x="654.5" y="611.54" width="109" height="47"/><rect class="r" x="763.5" y="614.54" width="109" height="47"/><rect class="k" x="872.5" y="611.54" width="109" height="47"/><rect class="r" x="981.5" y="620.54" width="109" height="47"/><rect class="k" x="1090.5" y="611.54" width="109" height="47"/><rect class="r" x="1199.5" y="612.54" width="109" height="47"/><rect class="k" x="1308.5" y="612.54" width="109" height="47"/><rect class="r" x="1417.5" y="612.54" width="109" height="47"/><rect class="k" x="1526.5" y="620.54" width="109" height="47"/><rect class="r" x="1635.5" y="612.54" width="109" height="47"/><rect class="k" x="1744.5" y="612.54" width="109" height="47"/><rect class="q" x="1853.5" y="612.54" width="66" height="47"/><rect class="k" x="109.5" y="658.54" width="109" height="61"/><rect class="r" x="218.5" y="658.54" width="109" height="61"/><rect class="k" x=".5" y="710.54" width="109" height="61"/><rect class="k" x="327.5" y="658.54" width="109" height="61"/><rect class="r" x="436.5" y="658.54" width="109" height="61"/><rect class="k" x="545.5" y="658.54" width="109" height="61"/><rect class="r" x="654.5" y="658.54" width="109" height="61"/><rect class="k" x="763.5" y="658.54" width="109" height="61"/><rect class="r" x="872.5" y="658.54" width="109" height="61"/><rect class="k" x="981.5" y="658.54" width="109" height="61"/><rect class="r" x="1090.5" y="658.54" width="109" height="61"/><rect class="k" x="1199.5" y="658.54" width="109" height="61"/><rect class="r" x="1308.5" y="658.54" width="109" height="61"/><rect class="k" x="1417.5" y="658.54" width="109" height="61"/><rect class="r" x="1526.5" y="658.54" width="109" height="61"/><rect class="k" x="1635.5" y="658.54" width="109" height="61"/><rect class="r" x="1744.5" y="658.54" width="109" height="61"/><rect class="k" x="1853.5" y="658.54" width="66" height="61"/><rect class="r" x="1853.5" y="710.54" width="66" height="61"/><rect class="r" x="109.5" y="710.54" width="109" height="61"/><rect class="k" x="218.5" y="710.54" width="109" height="61"/><rect class="r" x="327.5" y="710.54" width="109" height="61"/><rect class="k" x="436.5" y="710.54" width="109" height="61"/><rect class="r" x="545.5" y="710.54" width="109" height="61"/><rect class="k" x="654.5" y="710.54" width="109" height="61"/><rect id="e" class="l" x="1" y="592.04" width="1919" height="36"/><rect class="r" x="763.5" y="710.54" width="109" height="61"/><rect class="k" x="872.5" y="710.54" width="109" height="61"/><rect class="r" x="981.5" y="710.54" width="109" height="61"/><rect class="k" x="1090.5" y="710.54" width="109" height="61"/><rect class="r" x="1199.5" y="710.54" width="109" height="61"/><rect class="k" x="1308.5" y="710.54" width="109" height="61"/><rect class="r" x="1417.5" y="710.54" width="109" height="61"/><rect class="k" x="1526.5" y="710.54" width="109" height="61"/><rect class="r" x="1635.5" y="710.54" width="109" height="61"/><rect class="k" x="1744.5" y="710.54" width="109" height="61"/><rect id="f" class="x" x=".04" y="466.5" width="1920" height="516"/><g id="g"><rect class="aa" x="382.91" y="799.36" width="933.59" height="94.57"/><polygon class="aa" points="379.88 951.39 135.54 178.56 214.93 148.23 459.27 921.07 379.88 951.39"/><polygon class="aa" points="378.61 951.99 347.81 854.57 382.78 841.22 413.58 938.63 378.61 951.99"/><polygon class="aa" points="456.46 921.9 211.97 148.56 224.32 143.85 468.81 917.18 456.46 921.9"/><rect class="aa" x="1218.76" y="841.22" width="97.74" height="108.35" transform="translate(2535.26 1790.78) rotate(180)"/><rect class="aa" x="382.91" y="841.22" width="915.26" height="108.52"/><polygon class="aa" points="349.36 853.98 135.83 178.57 169.24 165.8 382.78 841.22 349.36 853.98"/><polygon class="aa" points="234.68 163.74 142.66 198.88 136.1 178.15 228.12 143 234.68 163.74"/></g><g id="h"><g id="i"><path class="s" d="m1183.51,756.86c-167.91-3.77-335.83-7.55-503.74-11.32,21.06-12.26,36.24-24.52,45.31-32.42,23.03-20.07,42.16-42.98,107.14-143.88,12.73-19.77,19.1-29.65,24.99-39.14,31.02-49.95,86.52-131.03,193.44-269.41-.91,3.39-1.57,6.25-2.03,8.31-1.86,8.38-2.77,15.11-3.39,19.69,0,0-.51,3.78-.9,7.38-18,166.95,29.28,291.14,29.28,291.14,28.74,75.51,71.32,131.06,109.91,169.65Z"/><path class="w" d="m1160.42,793.95c-154.28-3.47-308.57-6.93-462.85-10.4-2.45-1.56-5.92-4.24-9.12-8.56-4.83-6.52-6.47-13.32-7.09-16.88h0c.29-13.79,10.56-24.84,22.83-24.56,5.66-1.27,14.09-2.53,24.21-1.55,5.9.58,9.52,1.64,12.97,2.38,12.26,2.63,37.22-1.25,37.22-1.25,10.62-1.9,26.48-3.04,48.33,1.09,1.53,1.28,4.01,3.09,7.35,4.34,6.7,2.51,11.49.75,26.07-1.5,8.02-1.24,12.03-1.86,14.91-1.75,7.65.28,6.88,1.83,20.36,4.64,8.14,1.69,17.3,2.33,20.4,2.55.72.05,3.45.23,3.45.24,0,0-3.45-.16-3.45-.24,0-.16,15.11-2.85,27.88.63,1.61.44,5.58,1.63,10.56.62,3.07-.62,4.99-1.76,6.21-2.34,8.88-4.19,16,5.08,27.8,4.8,10.11-.24,10.07-7.17,20.62-7.9,10.36-.71,13.04,5.79,23.99,8.9,16.47,4.68,19.56-7.43,42.93-7.39,17.8.03,37.05,7.1,37.05,7.1,0,0,13.22-6.1,26.15-5.68,14.55.47,22.14,8.97,33.28,9.11.84.01,2.69-.01,4.58,1.2,4.08,2.63,5.14,9.08,5.71,12.1.35,1.85.51,3.77.47,5.75h0c-.29,13.79-10.56,24.84-22.83,24.56Z"/><path class="u" d="m1189.75,821.78l-518.92-11.66c-8.09-.18-14.57-7.21-14.4-15.62l.71-34.17c.18-8.41,6.94-15.14,15.03-14.96l518.92,11.66c8.09.18,14.57,7.21,14.4,15.62l-.71,34.17c-.18,8.41-6.94,15.14-15.03,14.96Z"/></g><path class="ac" d="m864.28,816.22c.1,8.28,0,16.57-.28,24.85-.03.97,1.47.96,1.5,0,.28-8.28.38-16.57.28-24.85-.01-.96-1.51-.97-1.5,0h0Z"/><path class="ac" d="m988.89,816.41c.73,1.74.27,4.1.18,5.92-.11,2.11-.25,4.22-.41,6.32-.33,4.32-.75,8.63-1.27,12.93-.12.96,1.38.95,1.5,0,.54-4.46.98-8.93,1.31-13.42.17-2.27.31-4.54.42-6.81.08-1.7.4-3.72-.28-5.34-.37-.88-1.82-.49-1.45.4h0Z"/><ellipse class="p" cx="1027.66" cy="690.12" rx="12.17" ry="18.17" transform="translate(313.26 1701.06) rotate(-88.64)"/><ellipse class="p" cx="860.04" cy="686.53" rx="12.17" ry="18.17" transform="translate(153.23 1529.97) rotate(-88.64)"/><ellipse class="z" cx="862.25" cy="644.78" rx="29.62" ry="35.33" transform="translate(194.94 1489.72) rotate(-88.49)"/><ellipse class="z" cx="1023.93" cy="650.5" rx="27.53" ry="35.33" transform="translate(348 1657.83) rotate(-88.57)"/><path class="o" d="m901.36,703.48c-1.25-3.62,17.04-21.7,37.91-20.54,19.9,1.1,36.05,17.46,33.27,22.14-1.53,2.58-8.2-.47-35.59-.6-8.54-.04-17.08-.67-25.62-.45-7.54.19-9.6.53-9.97-.55Z"/><ellipse class="n" cx="875.53" cy="648.28" rx="9.7" ry="10.82" transform="translate(201.91 1504.47) rotate(-88.32)"/><path class="n" d="m843.21,643.68c-3.85-.09-6.91-3.27-6.83-7.11s3.27-6.88,7.12-6.8,6.91,3.27,6.83,7.11-3.27,6.88-7.12,6.8"/><ellipse class="n" cx="1007.81" cy="651.21" rx="9.7" ry="10.82" transform="translate(327.39 1639.53) rotate(-88.32)"/><path class="n" d="m1041.34,648.47c-3.85-.09-6.91-3.27-6.83-7.11s3.27-6.88,7.12-6.8c3.85.09,6.91,3.27,6.83,7.11s-3.27,6.88-7.12,6.8"/><ellipse class="m" cx="1023.58" cy="672.07" rx="7.31" ry="24.17" transform="translate(328.51 1680.17) rotate(-88.7)"/><path class="ac" d="m1098.64,642.13c4.96-1,8.9,3.68,10.3,7.92,1.63,4.96,1.21,10.36.7,15.47-.99,9.97-3.23,19.79-6.4,29.29-6.3,18.88-16.21,36.34-27.16,52.87-6.1,9.21-12.56,18.17-19.07,27.09-.57.78.73,1.53,1.3.76,12.22-16.76,24.34-33.71,34.08-52.06,9.68-18.24,16.87-37.93,18.81-58.59.53-5.69.88-11.85-1.58-17.18-1.98-4.3-6.4-8.02-11.38-7.02-.95.19-.55,1.64.4,1.45h0Z"/><path class="ac" d="m796.27,622.36c-8.72,3.64-16.29,9.61-21.98,17.14-7.3,9.67-10.76,21.43-12.31,33.31s1.78,22.02,8.22,31.24c4.9,7.02,9.59,14.16,14.12,21.43,7.77,12.48,15.25,25.14,22.69,37.82.49.83,1.79.08,1.3-.76-6.6-11.23-13.23-22.44-20.05-33.54-4.73-7.7-9.52-15.37-14.69-22.78-2.15-3.08-4.33-6.11-6.04-9.48-2.78-5.49-4.35-11.55-4.43-17.71-.07-5.45,1.03-10.96,2.26-16.25,1.39-5.99,3.52-11.78,6.62-17.1,5.65-9.68,14.33-17.55,24.7-21.87.88-.37.49-1.82-.4-1.45h0Z"/><ellipse class="m" cx="861.86" cy="668.43" rx="7.31" ry="24.17" transform="translate(174.09 1514.94) rotate(-88.7)"/><path class="m" d="m884.53,696.11c-2.89-.06-6.13-5.37-5.26-9.52.19-.9,1.04-2.39,2.73-5.36,1.87-3.28,2.31-3.92,2.92-3.91.49,0,1.08.41,3.18,4.77,1.32,2.75,1.98,4.13,2.09,4.75.7,4.15-2.7,9.34-5.66,9.28Z"/><path class="m" d="m884.32,722.19c-2.89-.06-6.13-5.37-5.26-9.52.19-.9,1.04-2.39,2.73-5.36,1.87-3.28,2.31-3.92,2.92-3.91.49,0,1.08.41,3.18,4.77,1.32,2.75,1.98,4.13,2.09,4.75.7,4.15-2.7,9.34-5.66,9.28Z"/><path class="m" d="m999.47,697.87c-2.89-.06-6.13-5.37-5.26-9.52.19-.9,1.04-2.39,2.73-5.36,1.87-3.28,2.31-3.92,2.92-3.91.49,0,1.08.41,3.18,4.77,1.32,2.75,1.98,4.13,2.09,4.75.7,4.15-2.7,9.34-5.66,9.28Z"/><path class="m" d="m998.84,725.03c-2.89-.06-6.13-5.37-5.26-9.52.19-.9,1.04-2.39,2.73-5.36,1.87-3.28,2.31-3.92,2.92-3.91.49,0,1.08.41,3.18,4.77,1.32,2.75,1.98,4.13,2.09,4.75.7,4.15-2.7,9.34-5.66,9.28Z"/></g><path class="j" d="m657.76,136.28c-1.57,0-3.03-.32-4.38-.98-1.35-.65-2.54-1.63-3.57-2.93-1.03-1.3-1.84-2.93-2.43-4.89-.59-1.95-.88-4.21-.88-6.76,0-1.98.17-3.79.52-5.43.34-1.64.76-3.1,1.25-4.38.49-1.28,1.03-2.36,1.62-3.24.59-.89,1.1-1.59,1.55-2.11h43.7c1.52,2.35,2.6,4.91,3.24,7.7.64,2.79.96,5.54.96,8.25,0,3.13-.36,5.98-1.07,8.56-.71,2.58-1.56,4.68-2.54,6.29h-3.02v23.45c-1.92,1.77-4.1,3.47-6.56,5.08-2.46,1.62-5.24,3.04-8.36,4.26-3.12,1.23-6.62,2.2-10.5,2.93-3.88.73-8.18,1.09-12.9,1.09s-9.04-.44-13.41-1.33c-4.37-.89-8.5-2.25-12.38-4.1-3.88-1.85-7.44-4.19-10.69-7.04-3.24-2.84-6.04-6.21-8.4-10.12-2.36-3.91-4.19-8.38-5.49-13.41-1.3-5.03-1.95-10.67-1.95-16.92,0-8.76,1.26-16.43,3.79-23.02,2.53-6.59,6.07-12.1,10.61-16.53,4.54-4.43,9.97-7.76,16.28-10.01,6.31-2.24,13.28-3.36,20.89-3.36,3.98,0,7.86.35,11.64,1.06,3.78.7,7.32,1.64,10.61,2.81,3.29,1.17,6.29,2.53,8.99,4.06,2.7,1.54,4.99,3.17,6.85,4.89,0,1.72-.1,3.6-.29,5.63-.2,2.03-.46,4.05-.77,6.06-.32,2.01-.71,3.91-1.18,5.71-.47,1.8-.97,3.3-1.51,4.49h-38.83c-.59.68-1.27,1.59-2.03,2.74-.76,1.15-1.47,2.52-2.14,4.1-.66,1.59-1.23,3.41-1.69,5.47-.47,2.06-.7,4.34-.7,6.84,0,3.18.38,5.93,1.14,8.25.76,2.32,1.77,4.25,3.02,5.79,1.25,1.54,2.7,2.68,4.35,3.44,1.65.76,3.35,1.13,5.12,1.13.88,0,1.5-.17,1.84-.51.34-.34.52-.74.52-1.21v-1.8h-.81Z"/><path class="j" d="m714.35,76.87c1.92-1.3,4.08-2.49,6.48-3.56,2.41-1.07,4.95-1.97,7.63-2.7,2.68-.73,5.45-1.29,8.33-1.68,2.87-.39,5.76-.59,8.66-.59,3.83,0,7.63.37,11.38,1.09,3.76.73,7.18,1.88,10.28,3.44,3.09,1.56,5.75,3.58,7.96,6.06,2.21,2.48,3.71,5.43,4.5,8.87l16.8,73.72c-2.26,3.08-5.43,5.6-9.51,7.58-4.08,1.98-9.24,2.97-15.47,2.97-2.75,0-5.33-.26-7.74-.78-2.41-.52-4.53-1.29-6.37-2.31-1.84-1.02-3.37-2.29-4.57-3.83-1.2-1.54-1.98-3.35-2.32-5.43l-1.62-9.54c1.52-.05,3.03-.25,4.53-.59,1.5-.34,2.85-.75,4.05-1.25,1.2-.5,2.19-1.06,2.95-1.68.76-.62,1.14-1.25,1.14-1.88,0-.83-.32-1.51-.96-2.03-.88.68-1.92,1.29-3.09,1.84-1.18.55-2.42,1-3.72,1.37-1.3.37-2.6.64-3.91.82-1.3.18-2.52.27-3.65.27-2.11,0-3.99-.14-5.64-.43-1.65-.29-3.08-.64-4.31-1.06-1.23-.42-2.28-.87-3.17-1.37-.88-.49-1.62-.98-2.21-1.45-.2.26-.37.56-.52.9-.15.34-.22.72-.22,1.13,0,.78.38,1.5,1.14,2.15.76.65,1.78,1.23,3.06,1.72,1.28.5,2.74.9,4.38,1.21,1.65.31,3.38.52,5.19.63.29,3.65.63,6.55.99,8.72.37,2.16.72,3.53,1.07,4.1-.44.89-1.31,1.84-2.62,2.85-1.3,1.02-2.92,1.97-4.86,2.85-1.94.89-4.15,1.62-6.63,2.19-2.48.57-5.12.86-7.92.86-3.49,0-6.78-.42-9.87-1.25-3.09-.83-5.8-1.99-8.11-3.48-2.31-1.49-4.15-3.28-5.53-5.39-1.38-2.11-2.06-4.47-2.06-7.07,0-.57.02-1.16.07-1.76.05-.6.15-1.21.29-1.84l15.7-74.42Zm34.63,40.26c-.54-3.13-.97-5.63-1.29-7.5-.32-1.88-.64-3.3-.96-4.26-.32-.96-.66-1.59-1.03-1.88-.37-.29-.82-.43-1.36-.43-.34,0-.66.05-.96.16-.29.1-.57.21-.81.31l2.8,15.79c.2.21.48.37.85.47.37.1.7.16.99.16.44,0,.86-.06,1.25-.2.39-.13.69-.25.88-.35l-.37-2.27Z"/><path class="j" d="m858.34,150.82c1.72-.42,3.59-1.28,5.6-2.58,2.01-1.3,3.95-3.41,5.82-6.33.83-1.35,1.25-2.53,1.25-3.52,0-1.35-.64-2.03-1.92-2.03-.1,0-.18.01-.26.04-.07.03-.16.04-.26.04-3.49,7.66-9.06,11.49-16.73,11.49-1.92,0-3.7-.21-5.34-.63-1.65-.42-3.18-1.09-4.61-2.03-1.43-.94-2.78-2.19-4.05-3.75-1.28-1.56-2.51-3.49-3.68-5.79h-.44c-.54,0-1.01.13-1.4.39-.39.26-.59.73-.59,1.41,0,.89.29,1.82.88,2.81,1.08,1.88,2.25,3.49,3.5,4.85,1.25,1.36,2.53,2.49,3.83,3.4,1.3.91,2.59,1.6,3.87,2.07,1.28.47,2.43.76,3.46.86l-.59,14.77c-1.28.89-2.62,1.69-4.02,2.42-1.4.73-2.98,1.34-4.75,1.84s-3.77.87-6.01,1.13c-2.24.26-4.8.39-7.7.39s-5.63-.29-8.62-.86c-3-.57-5.75-1.52-8.25-2.85s-4.58-3.04-6.23-5.12c-1.65-2.08-2.47-4.66-2.47-7.74,0-1.61.07-3.82.22-6.61.15-2.79.36-5.95.63-9.5.27-3.54.58-7.37.92-11.49.34-4.12.71-8.27,1.11-12.47.39-4.19.79-8.35,1.18-12.47.39-4.12.79-7.95,1.18-11.49.39-3.54.75-6.7,1.07-9.46.32-2.76.6-4.92.85-6.49,1.42-1.35,3.05-2.5,4.86-3.44,1.82-.94,3.72-1.68,5.71-2.23,1.99-.55,3.99-.94,6.01-1.17,2.01-.23,3.95-.35,5.82-.35,3.34,0,6.62.39,9.84,1.17,3.22.78,5.88,1.8,8,3.05l4.05,14.38-2.58,11.49c-.1.42-.17.81-.22,1.17-.05.37-.07.73-.07,1.09,0,1.77.98,2.71,2.95,2.81l7-30.88c.83-.47,1.9-.96,3.21-1.49,1.3-.52,2.75-.99,4.35-1.41,1.6-.42,3.33-.75,5.19-1.02,1.87-.26,3.78-.39,5.75-.39,3.49,0,6.55.3,9.17.9,2.63.6,4.84,1.56,6.63,2.89,1.79,1.33,3.21,3.06,4.24,5.2,1.03,2.14,1.72,4.77,2.06,7.9.34,3.28.77,7.24,1.29,11.88.52,4.64,1.04,9.55,1.58,14.74.54,5.19,1.08,10.44,1.62,15.75.54,5.32,1.02,10.31,1.44,14.97.42,4.67.76,8.79,1.03,12.39.27,3.6.41,6.25.41,7.97-5.45,6.1-13.31,9.15-23.58,9.15-3.24,0-6.22-.29-8.92-.86-2.7-.57-5.02-1.45-6.96-2.62-1.94-1.17-3.49-2.62-4.64-4.34-1.15-1.72-1.83-3.75-2.03-6.1l-.66-7.35Z"/><path class="j" d="m984.42,69.84c.64,1.09,1.23,2.31,1.77,3.64s.98,2.71,1.33,4.14c.34,1.43.61,2.87.81,4.3.2,1.43.29,2.77.29,4.03,0,5.37-.98,9.35-2.95,11.96-1.96,2.61-4.67,3.91-8.11,3.91h-29.7c-1.82,0-2.73.76-2.73,2.27v.63c0,.31.05.52.15.63h35.22c.44.78.86,1.71,1.25,2.77.39,1.07.72,2.19.99,3.36.27,1.17.49,2.37.66,3.6.17,1.23.26,2.38.26,3.48,0,3.13-.29,5.93-.88,8.4-.59,2.48-1.38,4.52-2.36,6.14h-15.99c-4.18,0-7.63.12-10.35.35-2.73.23-4.88.54-6.45.9-1.57.37-2.68.77-3.32,1.21-.64.44-.96.9-.96,1.37,0,.42.06.81.19,1.17.12.37.4.68.85.94,1.23-.42,2.48-.78,3.76-1.09,1.28-.31,2.7-.56,4.27-.74,1.57-.18,3.33-.32,5.27-.43,1.94-.1,4.19-.16,6.74-.16h20.71c.54.83,1.08,1.76,1.62,2.77s1.02,2.19,1.44,3.52c.42,1.33.76,2.85,1.03,4.57.27,1.72.41,3.7.41,5.94,0,1.41-.1,2.91-.29,4.5-.2,1.59-.49,3.17-.88,4.73-.39,1.56-.91,3.05-1.55,4.46-.64,1.41-1.4,2.63-2.29,3.67h-55.19c-2.9,0-5.6-.38-8.11-1.13-2.51-.75-4.69-1.93-6.56-3.52-1.87-1.59-3.34-3.6-4.42-6.02-1.08-2.42-1.62-5.33-1.62-8.72v-74.34c0-2.5,2.73-4.33,8.18-5.47,5.45-1.15,13.78-1.72,24.98-1.72h42.52Z"/><path class="j" d="m1073.73,173.18c-4.13,0-8.21-.46-12.23-1.37-4.03-.91-7.84-2.31-11.42-4.18-3.59-1.88-6.89-4.25-9.91-7.11-3.02-2.87-5.64-6.25-7.85-10.16-2.21-3.91-3.93-8.36-5.16-13.37-1.23-5-1.84-10.58-1.84-16.73,0-9.12,1.33-17,3.98-23.65,2.65-6.65,6.19-12.14,10.61-16.5,4.42-4.35,9.52-7.57,15.29-9.65,5.77-2.08,11.8-3.13,18.09-3.13,7.47,0,14.17,1.29,20.12,3.87,5.94,2.58,10.98,6.19,15.11,10.83,4.13,4.64,7.3,10.21,9.51,16.73,2.21,6.52,3.32,13.68,3.32,21.5,0,9.28-1.24,17.25-3.72,23.92-2.48,6.67-5.87,12.16-10.17,16.46-4.3,4.3-9.33,7.47-15.11,9.5-5.77,2.03-11.97,3.05-18.61,3.05Zm2.95-56.44c0-2.5-.05-4.65-.15-6.45s-.27-3.3-.52-4.5c-.25-1.09-.58-1.82-1-2.19-.42-.36-.9-.55-1.44-.55s-.96.09-1.25.27c-.29.18-.54.35-.74.51.05.94.12,1.81.22,2.62.1.81.18,1.72.26,2.74.07,1.02.13,2.19.18,3.52.05,1.33.07,2.96.07,4.89v5.08c0,1.93-.03,3.56-.07,4.89-.05,1.33-.11,2.5-.18,3.52-.07,1.02-.16,1.93-.26,2.74-.1.81-.17,1.68-.22,2.62.2.16.44.33.74.51.29.18.71.27,1.25.27s1.02-.18,1.44-.55c.42-.36.75-1.09,1-2.19.25-1.2.42-2.7.52-4.5s.15-3.95.15-6.45v-6.8Z"/><path class="j" d="m1120.15,79.22c2.21-3.49,5.2-6.18,8.95-8.05s8.12-2.81,13.08-2.81c3.88,0,7.21.46,9.99,1.37,2.77.91,5.12,2.11,7.04,3.6s3.45,3.21,4.61,5.16c1.15,1.95,2.05,3.97,2.69,6.06l-2.36,49.64c.59.16,1.11.23,1.55.23.79,0,1.41-.27,1.88-.82.47-.55.75-1.58.85-3.09l3.24-56.91c.83-.78,2-1.49,3.5-2.11,1.5-.62,3.13-1.16,4.9-1.6,1.77-.44,3.57-.79,5.42-1.06,1.84-.26,3.55-.39,5.12-.39,3.88,0,7.22.51,10.02,1.52,2.8,1.02,5.11,2.41,6.93,4.18,1.82,1.77,3.14,3.82,3.98,6.14.83,2.32,1.25,4.81,1.25,7.47,0,3.18-1.19,10.23-3.57,21.15-2.38,10.92-5.91,25.97-10.57,45.15-.88,3.54-2.3,6.48-4.24,8.79-1.94,2.32-4.3,4.16-7.07,5.51-2.78,1.36-5.88,2.32-9.32,2.89-3.44.57-7.07.86-10.91.86-2.6,0-5.16-.16-7.66-.47-2.5-.31-4.9-.77-7.18-1.37-2.28-.6-4.41-1.35-6.37-2.27-1.96-.91-3.68-1.97-5.16-3.17-1.82-4.22-3.71-9.39-5.67-15.52-1.96-6.12-3.87-12.9-5.71-20.33-1.84-7.43-3.56-15.35-5.16-23.77-1.6-8.42-2.94-17.08-4.02-25.99Z"/><path class="j" d="m1291.69,69.84c.64,1.09,1.23,2.31,1.77,3.64.54,1.33.98,2.71,1.33,4.14.34,1.43.61,2.87.81,4.3.2,1.43.29,2.77.29,4.03,0,5.37-.98,9.35-2.95,11.96-1.96,2.61-4.67,3.91-8.11,3.91h-29.7c-1.82,0-2.73.76-2.73,2.27v.63c0,.31.05.52.15.63h35.22c.44.78.86,1.71,1.25,2.77.39,1.07.72,2.19,1,3.36.27,1.17.49,2.37.66,3.6.17,1.23.26,2.38.26,3.48,0,3.13-.29,5.93-.88,8.4-.59,2.48-1.38,4.52-2.36,6.14h-15.99c-4.18,0-7.63.12-10.35.35-2.73.23-4.88.54-6.45.9-1.57.37-2.68.77-3.32,1.21-.64.44-.96.9-.96,1.37,0,.42.06.81.18,1.17.12.37.41.68.85.94,1.23-.42,2.48-.78,3.76-1.09,1.28-.31,2.7-.56,4.27-.74,1.57-.18,3.33-.32,5.27-.43,1.94-.1,4.19-.16,6.74-.16h20.71c.54.83,1.08,1.76,1.62,2.77.54,1.02,1.02,2.19,1.44,3.52.42,1.33.76,2.85,1.03,4.57.27,1.72.41,3.7.41,5.94,0,1.41-.1,2.91-.29,4.5-.2,1.59-.49,3.17-.88,4.73-.39,1.56-.91,3.05-1.55,4.46-.64,1.41-1.4,2.63-2.28,3.67h-55.19c-2.9,0-5.6-.38-8.11-1.13-2.51-.75-4.69-1.93-6.56-3.52-1.87-1.59-3.34-3.6-4.42-6.02-1.08-2.42-1.62-5.33-1.62-8.72v-74.34c0-2.5,2.73-4.33,8.18-5.47,5.45-1.15,13.78-1.72,24.98-1.72h42.52Z"/><path class="j" d="m1392.5,146.76c-.84,7.97-3.21,14.19-7.11,18.64-3.91,4.46-9.42,6.68-16.54,6.68-2.31,0-4.63-.29-6.96-.86-2.33-.57-4.59-1.6-6.78-3.09-2.19-1.49-4.24-3.52-6.15-6.1-1.92-2.58-3.56-5.88-4.94-9.89l-2.65-7.66c-1.92-.05-3.46-.17-4.64-.35-1.18-.18-2.24-.35-3.17-.51-.15.16-.28.36-.41.62-.12.26-.18.63-.18,1.09,0,.62.39,1.16,1.18,1.6.79.44,2.38.74,4.79.9l4.2,11.26v6.65c-2.75,2.08-6.02,3.66-9.8,4.73-3.78,1.07-7.76,1.6-11.94,1.6-3.05,0-5.83-.33-8.36-.98-2.53-.65-4.73-1.65-6.59-3.01-1.87-1.35-3.32-3.04-4.35-5.04-1.03-2.01-1.55-4.39-1.55-7.15v-74.27c0-1.2.56-2.38,1.69-3.56,1.13-1.17,2.68-2.28,4.64-3.32,1.96-1.04,4.27-1.99,6.93-2.85,2.65-.86,5.49-1.6,8.51-2.23s6.16-1.11,9.43-1.45c3.27-.34,6.5-.51,9.69-.51,7.12,0,13.62.81,19.49,2.42,5.87,1.62,10.89,4.03,15.07,7.23,4.17,3.21,7.41,7.17,9.69,11.88,2.28,4.72,3.43,10.2,3.43,16.46,0,3.65-.53,7.01-1.58,10.08-1.06,3.08-2.47,5.81-4.24,8.21-1.77,2.4-3.84,4.44-6.23,6.14-2.38,1.69-4.9,2.98-7.55,3.87,0,.94.25,1.59.74,1.95.49.37,1.08.55,1.77.55s1.72-.26,3.1-.78c1.37-.52,2.92-1.46,4.64-2.81l12.75,13.84Zm-50.77-31.66c.15.1.38.17.7.2.32.03.53.04.63.04,1.18,0,2.01-.39,2.51-1.17.49-.78.74-2.06.74-3.83v-2.81c0-1.82-.21-3.15-.63-3.99-.42-.83-1.19-1.25-2.32-1.25-.25,0-.54.03-.88.08-.34.05-.61.13-.81.23.05.42.07.86.07,1.33v11.18Z"/></svg>