<?xml version="1.0" encoding="UTF-8"?><svg id="a" xmlns="http://www.w3.org/2000/svg" width="54.04" height="99.05" viewBox="0 0 54.04 99.05"><defs><style>.c{fill:#cd6600;}.c,.d,.e,.f{stroke-width:0px;}.d{fill:#a63f03;}.e{fill:#cdb19c;}.f{fill:#ede0d0;}</style></defs><g id="b"><path class="f" d="m21.89,81.21l.23,3.85c.07,1.24.12,2.58-.59,3.61-.79,1.13-2.28,1.55-3.23,2.55-.73.77-1.07,1.8-1.34,2.81-.17.63-.32,1.3-.21,1.94.22,1.23,1.41,2.14,2.67,2.3s2.53-.33,3.55-1.07,1.83-1.72,2.62-2.69"/><path class="e" d="m21.14,81.21c.09,1.46.21,2.92.26,4.38.05,1.38-.11,2.55-1.29,3.41-.91.66-1.92,1.12-2.63,2.03-.76.98-1.18,2.28-1.41,3.48-.44,2.34,1.1,4.32,3.49,4.51,2.83.23,4.92-2.01,6.55-4,.61-.74-.45-1.81-1.06-1.06-1.38,1.68-3.41,4.17-5.91,3.48-1.03-.28-1.77-1.13-1.68-2.22.09-1.03.48-2.28,1.07-3.13s1.52-1.24,2.33-1.81,1.42-1.22,1.75-2.13c.36-.99.32-2.08.26-3.11-.07-1.28-.15-2.57-.23-3.85-.06-.96-1.56-.97-1.5,0h0Z"/><path class="f" d="m25.58,94.33c.75,1.71,2.43,3.01,4.27,3.15s3.75-.97,4.45-2.7.03-3.96-1.57-4.91c-.64-.37-1.38-.55-1.97-.98-1.26-.92-1.53-2.67-1.63-4.24-.11-1.81-.14-3.63-.08-5.44"/><path class="e" d="m24.93,94.7c1.04,2.23,3.41,3.82,5.92,3.48,2.38-.32,4.38-2.27,4.47-4.71.04-1.13-.32-2.27-1-3.16-.84-1.09-2.03-1.25-3.09-2.01-1.11-.8-1.26-2.39-1.34-3.65-.12-1.81-.14-3.63-.08-5.44.03-.97-1.47-.96-1.5,0-.07,2.5-.25,5.31.41,7.75.26.95.73,1.85,1.51,2.46.87.68,2.06.81,2.8,1.67,1.5,1.74.75,4.32-1.24,5.27-2.24,1.07-4.59-.33-5.57-2.42-.41-.87-1.7-.11-1.3.76h0Z"/><path class="c" d="m21.06,79.79c3.6,1.95,8.83-1.44,10.95-2.81.87-.57,1.43-1.16,1.74-1.86.29-.67.32-1.42.34-2.14.19-6.56.62-13.34,3.61-19.19.88-1.72,1.97-3.33,3.23-4.8,1.81-2.11,3.95-3.91,5.7-6.07,5.14-6.35,6.31-14.98,6.63-23.14.07-1.88.11-3.78-.3-5.62-1.27-5.63-6.58-9.54-12.06-11.36-4.04-1.35-8.33-1.84-12.58-2-5.61-.2-11.41.23-16.43,2.73,0,0-10.41,6.17-11.12,20.7-.04.88.06,2.97.32,4.48.17.98.4,1.66.62,2.21.17.4.32.68.38.79,5.38,10.14,5.74,11.28,7.67,13.56,2.48,2.94,3.77,3.28,4.92,6.03.72,1.72.85,3.09,1.02,4.77.6,5.98,1.04,10.36,1.57,13.47,1.03,6.01,1.54,9.02,3.8,10.24Z"/><path class="d" d="m20.68,80.44c3.12,1.55,6.65.14,9.47-1.44,1.27-.71,2.77-1.49,3.69-2.63,1.29-1.61.99-3.87,1.08-5.8.2-4.66.66-9.38,2.28-13.78.87-2.36,2.12-4.6,3.69-6.57,1.46-1.84,3.21-3.41,4.82-5.11,5.88-6.23,7.65-14.59,8.18-22.89.27-4.26.46-8.58-1.94-12.31-2-3.11-5.12-5.4-8.47-6.88C39.32,1.15,34.73.42,30.21.14s-9.45-.22-13.99.98c-1.95.52-3.97,1.17-5.61,2.38-1.45,1.07-2.77,2.32-3.95,3.68C2.5,12-.04,18.47,0,24.86c.01,1.8.15,3.74.7,5.47.58,1.86,1.7,3.57,2.6,5.29,1.24,2.36,2.43,4.76,3.75,7.07.82,1.43,1.79,2.73,2.9,3.95s2.44,2.22,3.32,3.59c1.23,1.91,1.49,4.12,1.72,6.32.39,3.91.75,7.83,1.32,11.72.47,3.21.79,6.89,2.24,9.83.48.97,1.18,1.79,2.13,2.33.84.48,1.6-.81.76-1.3-2.25-1.29-2.55-4.75-2.97-7.03-.62-3.42-1.08-6.85-1.44-10.31-.4-3.77-.27-8.05-2-11.51-1.21-2.43-3.59-4.02-5.23-6.14-.82-1.06-1.48-2.24-2.11-3.42-1.45-2.69-2.85-5.42-4.28-8.12-.91-1.72-1.54-3.25-1.75-5.21-.19-1.79-.18-3.54.04-5.32.4-3.29,1.4-6.51,2.99-9.42,1.72-3.16,4.21-6.32,7.28-8.28,2.42-1.55,5.65-2.18,8.46-2.54,4.54-.59,9.3-.43,13.83.21,7.2,1.02,16.4,4.45,18.02,12.55.45,2.22.28,4.55.16,6.8-.11,2.1-.29,4.19-.6,6.27-.57,3.88-1.57,7.77-3.44,11.24-2.07,3.84-5.38,6.45-8.14,9.73s-4.51,7-5.5,11.07-1.25,8.24-1.39,12.4c-.04,1.14.06,2.4-.68,3.34-.52.66-1.33,1.09-2.03,1.53-1.34.83-2.74,1.61-4.24,2.12-1.61.55-3.39.85-4.97.06-.86-.43-1.62.86-.76,1.3Z"/></g></svg>