<?xml version="1.0" encoding="UTF-8"?><svg id="a" xmlns="http://www.w3.org/2000/svg" width="131" height="86" viewBox="0 0 131 86"><defs><style>.c,.d,.e,.f{stroke-width:0px;}.d{fill:#f6e2fa;}.e{fill:#f6f1fa;}.f{fill:#fff;}</style></defs><g id="b"><ellipse class="d" cx="65.5" cy="43" rx="65" ry="42.5"/><path class="c" d="m65.5,1c35.57,0,64.5,18.84,64.5,42s-28.93,42-64.5,42S1,66.16,1,43,29.93,1,65.5,1m0-1C29.33,0,0,19.25,0,43s29.33,43,65.5,43,65.5-19.25,65.5-43S101.67,0,65.5,0h0Z"/><ellipse class="e" cx="66" cy="43" rx="60.5" ry="38.92"/><path class="c" d="m66,4.58c33.08,0,60,17.23,60,38.42s-26.92,38.42-60,38.42S6,64.18,6,43,32.92,4.58,66,4.58m0-1C32.31,3.58,5,21.23,5,43s27.31,39.42,61,39.42,61-17.65,61-39.42S99.69,3.58,66,3.58h0Z"/><ellipse class="f" cx="66.5" cy="42.55" rx="57" ry="34.89"/><path class="c" d="m66.5,8.17c31.15,0,56.5,15.43,56.5,34.39s-25.35,34.39-56.5,34.39S10,61.51,10,42.55,35.35,8.17,66.5,8.17m0-1c-31.76,0-57.5,15.84-57.5,35.39s25.74,35.39,57.5,35.39,57.5-15.84,57.5-35.39S98.26,7.17,66.5,7.17h0Z"/></g></svg>