<?xml version="1.0" encoding="UTF-8"?><svg id="a" xmlns="http://www.w3.org/2000/svg" width="1920" height="1086.5" viewBox="0 0 1920 1086.5"><defs><style>.w{fill:none;}.w,.x,.y,.z,.aa,.ab,.ac,.ad,.ae,.af,.ag,.ah{stroke-width:0px;}.ai,.aj,.ak,.al,.am,.an,.ao,.ap,.aq,.ar,.as,.at,.au,.av,.aw,.ax,.ay,.az,.ba,.bb,.bc,.bd,.be,.bf{stroke-miterlimit:10;}.ai,.au,.av,.az,.bb{stroke:#5b4034;}.aj,.ak,.al,.an{stroke-width:2px;}.aj,.ak,.at{stroke:#e2a92b;}.aj,.at,.aw,.ax,.ag{fill:#fed266;}.ak{fill:#f2c357;}.al{fill:#ed6b6b;stroke:#c10000;}.am{stroke:#dde3e0;}.am,.ao{stroke-width:4px;}.am,.ap,.av{fill:#fff;}.an{fill:#c10000;stroke:#710000;}.ao{fill:#9b6f59;}.ao,.bf{stroke:#825d4a;}.ap,.aq,.ar,.as,.be{stroke-width:.5px;}.ap,.ax,.bd,.be{stroke:#000;}.aq{fill:#ff9492;}.aq,.ar,.aw{stroke:#7f5d2a;}.ar{fill:#ff9497;}.as{fill:#dbd6c1;stroke:#c1bca7;}.au{fill:#fffefd;}.ay{fill:#fbbb71;stroke:#7f5d3f;}.az{fill:#f5f5f5;}.ba{fill:#cd5522;stroke:#f17083;}.bb{fill:#8e6652;}.bc{fill:#5b4134;stroke:#271b16;}.bd{fill:#3d465a;}.bf{fill:#deb985;stroke-width:3px;}.y{fill:#f6e2fa;}.z{fill:#f6f1fa;}.aa{fill:#6dcaf2;}.ab{fill:#dde3e0;}.ac{fill:#b82214;}.ad{fill:#c1bca7;}.ae{fill:#941b10;}.af{fill:#fde7c3;}.ah{fill:#f4f6f5;}</style></defs><rect id="b" class="af" x=".5" y=".5" width="1919" height="598"/><path id="c" class="am" d="m1774.05,511.57h-567.64c-7.37,0-13.41-5.72-13.41-12.72V159.72c0-6.99,6.03-12.72,13.41-12.72h567.64c.9,0,5.64.1,9.47,3.74,2.43,2.31,3.94,5.48,3.94,8.98v339.13c50.77,24.44,75.79,37.99,75.05,40.66-.78,2.82-30.27-6.5-88.46-27.94Z"/><g id="d"><path class="aw" d="m1627.78,412.14h-291.12c12.02-6.6,20.64-13.12,25.78-17.32,13.06-10.66,23.84-22.76,60.16-75.79,7.12-10.39,10.67-15.58,13.97-20.57,17.32-26.24,48.4-68.89,108.5-141.83-.48,1.77-.83,3.25-1.07,4.33-.97,4.36-1.42,7.86-1.72,10.24,0,0-.25,1.97-.43,3.84-8.39,86.7,20.41,150.49,20.41,150.49,17.51,38.79,42.78,67.07,65.53,86.61Z"/><path class="ba" d="m1614.89,431.63h-267.49c-1.43-.78-3.47-2.13-5.37-4.33-2.87-3.32-3.9-6.83-4.3-8.66h0c0-7.15,5.8-12.99,12.89-12.99,3.25-.72,8.11-1.48,13.97-1.08,3.41.23,5.52.74,7.52,1.08,7.11,1.22,21.48-1.08,21.48-1.08,6.11-1.11,15.26-1.88,27.93,0,.9.65,2.35,1.56,4.3,2.17,3.9,1.22,6.64.25,15.04-1.08,4.62-.74,6.93-1.1,8.59-1.08,4.42.05,4,.87,11.82,2.17,4.72.78,10.02,1.01,11.82,1.08.42.02,2,.08,2,.08,0,0-2-.04-2-.08,0-.08,8.7-1.65,16.11,0,.94.21,3.24.78,6.11.2,1.77-.36,2.86-.97,3.56-1.28,5.08-2.27,9.3,2.45,16.11,2.17,5.84-.24,5.73-3.83,11.82-4.33,5.97-.49,7.6,2.85,13.97,4.33,9.57,2.23,11.21-4.08,24.71-4.33,10.28-.19,21.48,3.25,21.48,3.25,0,0,7.56-3.31,15.04-3.25,8.41.07,12.9,4.39,19.34,4.33.48,0,1.56-.04,2.66.57,2.39,1.32,3.08,4.65,3.44,6.2.22.95.34,1.95.34,2.97h0c0,7.15-5.8,12.99-12.89,12.99Z"/><rect class="ay" x="1323.77" y="412.14" width="316.9" height="33.56" rx="12" ry="12"/></g><path class="x" d="m1592.71,397.63c8.13-6.22,13.18-16.04,12.81-26.35s-6.2-19.37-15.22-24.11c-5.35-2.81-11.45-3.95-17.46-3.43-.95.08-.96,1.58,0,1.5,10.01-.87,20.34,3.16,26.27,11.46,5.46,7.65,6.25,17.67,2.89,26.34-2.03,5.26-5.58,9.87-10.05,13.29-.76.58-.01,1.88.76,1.3h0Z"/><path class="x" d="m1510.73,446.46c3.01,2.3,1.84,7.81,1.59,11-.38,4.83-.91,9.64-1.59,14.43-1.33,9.32-3.21,18.55-5.63,27.65-.25.93,1.2,1.33,1.45.4,2.6-9.79,4.58-19.73,5.92-29.76.67-5.02,1.18-10.07,1.53-15.13.24-3.45.56-7.55-2.51-9.88-.77-.59-1.52.72-.76,1.3h0Z"/><ellipse class="be" cx="1440.86" cy="354.76" rx="20.41" ry="18.41"/><ellipse class="be" cx="1534.32" cy="354.76" rx="20.41" ry="18.41"/><path class="aq" d="m1505.32,379.8c1.5,3.39-9.2,15.51-21.48,15.02-11.42-.46-20.87-11.68-19.34-15.02.95-2.06,5.68-.18,20.41-.14,14.83.04,19.53-1.85,20.41.14Z"/><ellipse class="ar" cx="1534.33" cy="379.96" rx="8.32" ry="7.04"/><ellipse class="ap" cx="1450.73" cy="355.14" rx="6.25" ry="5.03"/><ellipse class="ap" cx="1526.09" cy="354.04" rx="6.25" ry="5.03"/><path class="ap" d="m1544.36,351.15c-2.23,0-4.03-1.61-4.03-3.6s1.81-3.6,4.03-3.6,4.03,1.61,4.03,3.6-1.81,3.6-4.03,3.6"/><path class="x" d="m1451.24,445.65c-6.78,17.14-8.85,35.94-6.08,54.15.14.95,1.59.55,1.45-.4-2.73-17.95-.59-36.48,6.08-53.35.35-.9-1.1-1.29-1.45-.4h0Z"/><ellipse class="ar" cx="1437.91" cy="380.2" rx="8.32" ry="7.04"/><path class="ap" d="m1432.86,351.05c-2.23,0-4.03-1.61-4.03-3.6s1.81-3.6,4.03-3.6,4.03,1.61,4.03,3.6-1.81,3.6-4.03,3.6"/><ellipse class="ar" cx="1437.89" cy="379.84" rx="8.32" ry="7.04"/><path class="x" d="m1404.33,344.05c-10.11-.58-20.23,3.65-26.54,11.65s-7.8,18.95-3.93,28.46c2.3,5.64,6.2,10.43,11.13,13.98.78.56,1.53-.74.76-1.3-8.25-5.93-13.37-15.87-12.48-26.1.82-9.44,6.96-17.68,15.29-21.96,4.87-2.5,10.32-3.55,15.77-3.24.96.06.96-1.44,0-1.5h0Z"/><g id="e"><ellipse class="bd" cx="1509.88" cy="223.48" rx="11.83" ry="12.05" transform="translate(286.19 1135.76) rotate(-45.12)"/><ellipse class="ax" cx="1510.82" cy="224.1" rx="6.52" ry="8.28" transform="translate(471.8 1343.59) rotate(-55.57)"/><ellipse id="f" class="bd" cx="1525.22" cy="233.72" rx="11.83" ry="12.05" transform="translate(283.44 1149.64) rotate(-45.12)"/><ellipse class="ax" cx="1525.71" cy="234.34" rx="6.76" ry="7.9" transform="translate(460.93 1351.91) rotate(-55.12)"/></g><g id="g"><path class="as" d="m1456.98,327.81c-1.32,1.19-3.49,2.89-6.49,4.11-1,.41-1.92.69-2.74.9.17-1.13.13-2.03.06-2.63-.29-2.6-1.59-4.26-2.17-4.99-.24-.3-.44-.51-.53-.61-.99-1.05-2.04-1.73-2.82-2.14l8.86-5.19c.19,2.23.91,5.61,3.56,8.55.73.81,1.5,1.47,2.26,2.01Z"/><path class="as" d="m1457.56,308.09c1.02.99,3.07,3.72,2.38,4.73-.03.05-.09.13-.17.21-.42.41-1.24.52-4.73,2.25-1.18.58-1.78.88-2.23,1.17-.91.59-1.53,1.13-1.7,1-.08-.06-.05-.24.02-.41.07-.2.18-.4.19-.39.02,0-.2.81-.2.81.08-.57.19-.81.2-.8.05.01-.25.86-.23.86,0,0,.03-.06.03-.06,0,0-.03.04-.12.21,0,0,0,0,0,0-.13.13-.28.18-.34.2t-1.41.82c-2.23,1.31-4.47,2.62-6.7,3.93-.28.16-.92.54-1.27.74-.12.07-.64.37-.76.44.03-.01.05-.03.08-.04-.89.82-1.25,1.15-1.25,1.14,0,0,.35-.33.35-.34-.01-.01-1.04,1.02-2.2,1.84-1.1.78-2.51,1.79-3.55,1.67-1.85-.21-2.84-4-2.66-7.02.28-4.78,3.64-10.07,8.73-13.01,6.39-3.69,14.39-3.02,17.55.05Z"/><path class="ad" d="m1451.9,317.13c.43-.62,1.07-1.09,1.64-1.56s1.21-.94,1.89-1.3,1.45-.62,2.15-.97c.64-.32,1.4-.74,2.14-.57.94.21,1.34-1.24.4-1.45s-1.87.05-2.75.46c-.42.19-.82.41-1.24.6s-.89.35-1.32.57c-.82.41-1.56.98-2.27,1.56s-1.41,1.15-1.94,1.91.75,1.54,1.3.76h0Z"/><path class="ad" d="m1451.47,318.1c1.61-1.01,3.28-1.92,5-2.73.8-.38,1.64-.66,2.45-1.03s1.72-.96,1.72-1.98c0-.97-1.5-.97-1.5,0,0,.28-.56.49-.77.59-.32.15-.65.28-.97.41-.78.3-1.54.64-2.3,1.01-1.51.73-2.97,1.55-4.4,2.44-.82.51-.07,1.81.76,1.3h0Z"/><path class="ad" d="m1442.81,321.67c-1.11-.09-2.15,0-3.21.35-.99.33-1.94.8-2.8,1.41-.39.27-.79.56-1.1.93-.3.34-.51.62-.87.9-.77.6-1.41,1.37-1.83,2.26s.88,1.63,1.3.76c.35-.74.84-1.36,1.48-1.87.35-.28.62-.51.89-.87.24-.32.55-.57.88-.81.73-.52,1.52-.94,2.36-1.23.97-.34,1.86-.41,2.88-.32.96.08.96-1.42,0-1.5h0Z"/><path class="ad" d="m1433.73,328.7c.97-.08,1.82-.46,2.68-.88s1.71-.86,2.48-1.43c1.42-1.05,2.64-2.36,4.17-3.25.83-.48.08-1.78-.76-1.3-1.46.85-2.64,2.06-3.96,3.09-.67.52-1.4.95-2.16,1.33s-1.59.87-2.46.94c-.96.08-.96,1.58,0,1.5h0Z"/></g><g id="h"><path class="as" d="m1504.66,261.25c-1.32,1.19-3.49,2.89-6.49,4.11-1,.41-1.92.69-2.74.9.17-1.13.13-2.03.06-2.63-.29-2.6-1.59-4.26-2.17-4.99-.24-.3-.44-.51-.53-.61-.99-1.05-2.04-1.73-2.82-2.14,2.95-1.73,5.91-3.46,8.86-5.19.19,2.23.91,5.61,3.56,8.55.73.81,1.5,1.47,2.26,2.01Z"/><path class="as" d="m1505.24,241.54c1.02.99,3.07,3.72,2.38,4.73-.03.05-.09.13-.17.21-.42.41-1.24.52-4.73,2.25-1.18.58-1.78.88-2.23,1.17-.91.59-1.53,1.13-1.7,1-.08-.06-.05-.24.02-.41.07-.2.18-.4.19-.39.02,0-.2.81-.2.81.08-.57.19-.81.2-.8.05.01-.25.86-.23.86,0,0,.03-.06.03-.06,0,0-.03.04-.12.21,0,0,0,0,0,0-.13.13-.28.18-.34.2t-1.41.82c-2.23,1.31-4.47,2.62-6.7,3.93-.28.16-.92.54-1.27.74-.12.07-.64.37-.76.44.03-.01.05-.03.08-.04-.89.82-1.25,1.15-1.25,1.14,0,0,.35-.33.35-.34-.01-.01-1.04,1.02-2.2,1.84-1.1.78-2.51,1.79-3.55,1.67-1.85-.21-2.84-4-2.66-7.02.28-4.78,3.64-10.07,8.73-13.01,6.39-3.69,14.39-3.02,17.55.05Z"/><path class="ad" d="m1499.58,250.57c.43-.62,1.07-1.09,1.64-1.56s1.21-.94,1.89-1.3,1.45-.62,2.15-.97c.64-.32,1.4-.74,2.14-.57.94.21,1.34-1.24.4-1.45s-1.87.05-2.75.46c-.42.19-.82.41-1.24.6s-.89.35-1.32.57c-.82.41-1.56.98-2.27,1.56s-1.41,1.15-1.94,1.91.75,1.54,1.3.76h0Z"/><path class="ad" d="m1499.15,251.54c1.61-1.01,3.28-1.92,5-2.73.8-.38,1.64-.66,2.45-1.03s1.72-.96,1.72-1.98c0-.97-1.5-.97-1.5,0,0,.28-.56.49-.77.59-.32.15-.65.28-.97.41-.78.3-1.54.64-2.3,1.01-1.51.73-2.97,1.55-4.4,2.44-.82.51-.07,1.81.76,1.3h0Z"/><path class="ad" d="m1490.49,255.11c-1.11-.09-2.15,0-3.21.35-.99.33-1.94.8-2.8,1.41-.39.27-.79.56-1.1.93-.3.34-.51.62-.87.9-.77.6-1.41,1.37-1.83,2.26s.88,1.63,1.3.76c.35-.74.84-1.36,1.48-1.87.35-.28.62-.51.89-.87.24-.32.55-.57.88-.81.73-.52,1.52-.94,2.36-1.23.97-.34,1.86-.41,2.88-.32.96.08.96-1.42,0-1.5h0Z"/><path class="ad" d="m1481.41,262.14c.97-.08,1.82-.46,2.68-.88s1.71-.86,2.48-1.43c1.42-1.05,2.64-2.36,4.17-3.25.83-.48.08-1.78-.76-1.3-1.46.85-2.64,2.06-3.96,3.09-.67.52-1.4.95-2.16,1.33s-1.59.87-2.46.94c-.96.08-.96,1.58,0,1.5h0Z"/></g><g id="i"><path class="y" d="m1487.07,359.39c-9.95,0-17.64-4.53-19.15-11.26-1.93-8.64,6.92-18.03,19.72-20.93,2.53-.57,5.07-.86,7.57-.86,9.95,0,17.64,4.53,19.15,11.26,1.93,8.64-6.92,18.03-19.72,20.93-2.53.57-5.07.86-7.57.86Z"/><path class="x" d="m1495.21,326.83h0c9.71,0,17.21,4.37,18.66,10.87,1.87,8.37-6.81,17.49-19.34,20.33-2.49.56-5,.85-7.45.85-9.71,0-17.21-4.37-18.66-10.87-1.87-8.37,6.81-17.49,19.34-20.33,2.49-.56,5-.85,7.46-.85m0-1c-2.47,0-5.06.28-7.68.88-13.09,2.97-22.09,12.61-20.1,21.53,1.59,7.14,9.74,11.65,19.64,11.65,2.47,0,5.06-.28,7.68-.88,13.09-2.97,22.09-12.61,20.1-21.53-1.59-7.14-9.74-11.65-19.64-11.65h0Z"/><path class="z" d="m1487.38,357.95c-9.19,0-16.28-4.11-17.64-10.24-1.76-7.9,6.49-16.52,18.39-19.22,2.39-.54,4.79-.82,7.14-.82,9.19,0,16.28,4.11,17.64,10.24,1.76,7.9-6.49,16.52-18.39,19.22-2.39.54-4.79.82-7.14.82Z"/><path class="x" d="m1495.27,327.18v1c8.95,0,15.84,3.96,17.15,9.84,1.7,7.63-6.38,15.98-18.02,18.62-2.35.53-4.71.8-7.03.8-8.95,0-15.84-3.96-17.16-9.84-1.7-7.63,6.38-15.98,18.02-18.62,2.35-.53,4.71-.8,7.03-.8v-1m0,0c-2.33,0-4.78.27-7.25.83-12.19,2.77-20.6,11.64-18.77,19.81,1.46,6.52,8.97,10.63,18.13,10.63,2.33,0,4.78-.27,7.25-.83,12.19-2.77,20.6-11.64,18.77-19.81-1.46-6.52-8.97-10.63-18.13-10.63h0Z"/><path class="ag" d="m1487.3,356.22c-8.46,0-14.95-3.62-16.15-9-1.58-7.06,6.26-14.87,17.46-17.41,2.35-.53,4.72-.8,7.02-.8,8.46,0,14.95,3.62,16.15,9,1.58,7.06-6.26,14.87-17.46,17.41-2.35.53-4.72.8-7.02.8Z"/><path class="x" d="m1495.63,329.5h0c8.22,0,14.52,3.46,15.67,8.61,1.52,6.79-6.15,14.34-17.09,16.82-2.32.53-4.64.79-6.91.79-8.22,0-14.52-3.46-15.67-8.61-1.52-6.79,6.15-14.34,17.09-16.82,2.32-.53,4.64-.79,6.91-.79m0-1c-2.29,0-4.69.26-7.14.82-11.49,2.61-19.48,10.67-17.84,18.01,1.29,5.78,8.17,9.39,16.64,9.39,2.29,0,4.69-.26,7.14-.82,11.49-2.61,19.48-10.67,17.84-18.01-1.29-5.78-8.17-9.39-16.64-9.39h0Z"/></g><g id="j"><path class="y" d="m1536.62,314.34c-4.56,0-9.37-1.29-13.91-3.74-10.92-5.88-16.64-16.64-12.75-23.99,2.15-4.06,6.87-6.38,12.95-6.38,4.56,0,9.37,1.29,13.91,3.74,10.92,5.88,16.64,16.65,12.75,23.99-2.15,4.06-6.87,6.38-12.95,6.38Z"/><path class="x" d="m1522.92,280.74h0c4.47,0,9.2,1.27,13.67,3.68,10.68,5.75,16.31,16.21,12.54,23.31-2.06,3.89-6.62,6.12-12.51,6.12-4.47,0-9.2-1.27-13.67-3.68-10.68-5.75-16.31-16.21-12.54-23.31,2.06-3.89,6.62-6.12,12.51-6.12m0-1c-6.01,0-11.08,2.28-13.39,6.65-4.03,7.6,1.77,18.64,12.95,24.66,4.75,2.56,9.71,3.8,14.15,3.8,6.01,0,11.08-2.28,13.39-6.65,4.03-7.6-1.77-18.64-12.95-24.66-4.75-2.56-9.71-3.8-14.15-3.8h0Z"/><path class="z" d="m1536.54,313.06c-4.2,0-8.84-1.25-13.06-3.52-10.16-5.47-15.52-15.38-11.96-22.09,1.94-3.67,6.25-5.77,11.8-5.77,4.2,0,8.84,1.25,13.06,3.52,10.16,5.47,15.52,15.38,11.96,22.09-1.94,3.67-6.25,5.77-11.8,5.77Z"/><path class="x" d="m1523.32,281.18v1c4.12,0,8.68,1.23,12.82,3.46,9.91,5.34,15.19,14.95,11.76,21.42-1.85,3.5-5.99,5.5-11.36,5.5-4.12,0-8.68-1.23-12.82-3.46-9.91-5.34-15.19-14.95-11.76-21.42,1.85-3.5,5.99-5.5,11.36-5.5v-1m0,0c-5.51,0-10.14,2.06-12.24,6.03-3.69,6.96,1.76,17.16,12.17,22.77,4.48,2.41,9.14,3.58,13.3,3.58,5.51,0,10.14-2.06,12.24-6.03,3.69-6.96-1.76-17.16-12.17-22.77-4.48-2.41-9.14-3.58-13.3-3.58h0Z"/><path class="ag" d="m1537.04,311.64c-4.03,0-8.53-1.22-12.65-3.45-9.56-5.15-14.75-14.22-11.57-20.22,1.68-3.17,5.49-4.98,10.44-4.98,4.03,0,8.53,1.22,12.65,3.45,9.56,5.15,14.75,14.22,11.57,20.22-1.68,3.17-5.49,4.98-10.44,4.98Z"/><path class="x" d="m1523.27,283.49c3.95,0,8.36,1.2,12.42,3.39,9.32,5.02,14.41,13.79,11.36,19.54-1.59,3-5.24,4.72-10,4.72-3.95,0-8.36-1.2-12.42-3.39-9.32-5.02-14.41-13.79-11.36-19.54,1.59-3,5.24-4.72,10-4.72m0-1c-4.95,0-9.05,1.78-10.89,5.25-3.32,6.25,1.95,15.61,11.77,20.89,4.37,2.36,8.91,3.51,12.89,3.51,4.95,0,9.05-1.78,10.89-5.25,3.32-6.25-1.95-15.61-11.77-20.89-4.37-2.36-8.91-3.51-12.89-3.51h0Z"/></g><g id="k"><ellipse class="bd" cx="1473.06" cy="292.41" rx="11.84" ry="12.04" transform="translate(399.73 1342.83) rotate(-55.61)"/><ellipse class="ax" cx="1474.09" cy="292.87" rx="6.53" ry="8.27" transform="translate(594.54 1511.53) rotate(-65.42)"/><ellipse id="l" class="bd" cx="1489.89" cy="299.92" rx="11.84" ry="12.04" transform="translate(400.86 1359.98) rotate(-55.61)"/><ellipse class="ax" cx="1490.48" cy="300.44" rx="6.77" ry="7.9" transform="translate(589.21 1524.99) rotate(-65.04)"/></g><rect id="m" class="w" x=".5" y="598.5" width="1919" height="481"/><g id="n"><rect class="ac" x="72.5" y="213.5" width="236" height="308" rx="10.5" ry="10.5"/><path class="ae" d="m298,215c4.96,0,9,4.04,9,9v287c0,4.96-4.04,9-9,9H83c-4.96,0-9-4.04-9-9V224c0-4.96,4.04-9,9-9h215m0-3H83c-6.6,0-12,5.4-12,12v287c0,6.6,5.4,12,12,12h215c6.6,0,12-5.4,12-12V224c0-6.6-5.4-12-12-12h0Z"/></g><g id="o"><rect class="aa" x="93.5" y="231.6" width="193.5" height="264.4" rx="11" ry="11"/><path class="x" d="m276,232.6c5.51,0,10,4.49,10,10v242.4c0,5.51-4.49,10-10,10H104.5c-5.51,0-10-4.49-10-10v-242.4c0-5.51,4.49-10,10-10h171.5m0-2H104.5c-6.6,0-12,5.4-12,12v242.4c0,6.6,5.4,12,12,12h171.5c6.6,0,12-5.4,12-12v-242.4c0-6.6-5.4-12-12-12h0Z"/></g><rect id="p" class="bc" x=".5" y="997" width="1919.5" height="100.5"/><rect class="ai" x=".5" y="604.5" width="109" height="47"/><rect class="az" x="109.5" y="607.5" width="109" height="47"/><rect class="ai" x="218.5" y="604.5" width="109" height="47"/><rect class="av" x="327.5" y="604.5" width="109" height="47"/><rect class="av" x=".5" y="651.5" width="109" height="61"/><rect class="ai" x="436.5" y="607.5" width="109" height="47"/><rect class="av" x="545.5" y="604.5" width="109" height="47"/><rect class="ai" x="654.5" y="604.5" width="109" height="47"/><rect class="av" x="763.5" y="607.5" width="109" height="47"/><rect class="ai" x="872.5" y="604.5" width="109" height="47"/><rect class="av" x="981.5" y="613.5" width="109" height="47"/><rect class="ai" x="1090.5" y="604.5" width="109" height="47"/><rect class="av" x="1199.5" y="605.5" width="109" height="47"/><rect class="ai" x="1308.5" y="605.5" width="109" height="47"/><rect class="av" x="1417.5" y="605.5" width="109" height="47"/><rect class="ai" x="1526.5" y="613.5" width="109" height="47"/><rect class="av" x="1635.5" y="605.5" width="109" height="47"/><rect class="ai" x="1744.5" y="605.5" width="109" height="47"/><rect class="au" x="1853.5" y="605.5" width="66" height="47"/><rect class="ai" x="109.5" y="651.5" width="109" height="61"/><rect class="av" x="218.5" y="651.5" width="109" height="61"/><rect class="ai" x=".5" y="703.5" width="109" height="61"/><rect class="ai" x="327.5" y="651.5" width="109" height="61"/><rect class="av" x="436.5" y="651.5" width="109" height="61"/><rect class="ai" x="545.5" y="651.5" width="109" height="61"/><rect class="av" x="654.5" y="651.5" width="109" height="61"/><rect class="ai" x="763.5" y="651.5" width="109" height="61"/><rect class="av" x="872.5" y="651.5" width="109" height="61"/><rect class="ai" x="981.5" y="651.5" width="109" height="61"/><rect class="av" x="1090.5" y="651.5" width="109" height="61"/><rect class="ai" x="1199.5" y="651.5" width="109" height="61"/><rect class="av" x="1308.5" y="651.5" width="109" height="61"/><rect class="ai" x="1417.5" y="651.5" width="109" height="61"/><rect class="av" x="1526.5" y="651.5" width="109" height="61"/><rect class="ai" x="1635.5" y="651.5" width="109" height="61"/><rect class="av" x="1744.5" y="651.5" width="109" height="61"/><rect class="ai" x="1853.5" y="651.5" width="66" height="61"/><rect class="av" x="1853.5" y="703.5" width="66" height="61"/><rect class="av" x="109.5" y="703.5" width="109" height="61"/><rect class="ai" x="218.5" y="703.5" width="109" height="61"/><rect class="av" x="327.5" y="703.5" width="109" height="61"/><rect class="ai" x="436.5" y="703.5" width="109" height="61"/><rect class="av" x="545.5" y="703.5" width="109" height="61"/><rect class="ai" x="654.5" y="703.5" width="109" height="61"/><rect id="q" class="ao" x="1" y="585" width="1919" height="36"/><rect class="av" x="763.5" y="703.5" width="109" height="61"/><rect class="ai" x="872.5" y="703.5" width="109" height="61"/><rect class="av" x="981.5" y="703.5" width="109" height="61"/><rect class="ai" x="1090.5" y="703.5" width="109" height="61"/><rect class="av" x="1199.5" y="703.5" width="109" height="61"/><rect class="ai" x="1308.5" y="703.5" width="109" height="61"/><rect class="av" x="1417.5" y="703.5" width="109" height="61"/><rect class="ai" x="1526.5" y="703.5" width="109" height="61"/><rect class="av" x="1635.5" y="703.5" width="109" height="61"/><rect class="ai" x="1744.5" y="703.5" width="109" height="61"/><rect id="r" class="bb" x=".5" y="720.5" width="1919" height="277"/><g id="s"><rect class="ah" x="435" y="179" width="284" height="443" rx="11" ry="11"/><path class="ab" d="m708,180c5.51,0,10,4.49,10,10v421c0,5.51-4.49,10-10,10h-262c-5.51,0-10-4.49-10-10V190c0-5.51,4.49-10,10-10h262m0-2h-262c-6.6,0-12,5.4-12,12v421c0,6.6,5.4,12,12,12h262c6.6,0,12-5.4,12-12V190c0-6.6-5.4-12-12-12h0Z"/></g><g id="t"><path class="ac" d="m463.32,622.35c-1.51,0-2.86-.38-4.01-1.12-2.91-1.86-4.21-5.78-3.17-9.52l.06-.2V212.19c0-5.79,4.71-10.5,10.5-10.5h219.66c5.79,0,10.5,4.71,10.5,10.5l.14,399.31c-.05,1.23-.46,4.52-3.21,7.22-2.87,2.83-6.42,3.08-7.44,3.09h-219.89l-.23.08c-.32.11-1.46.46-2.9.46Z"/><path class="ae" d="m686.36,203.19c4.96,0,9,4.04,9,9l.09,266.16.05,133.09c-.04.93-.38,3.87-2.77,6.22-2.47,2.43-5.53,2.65-6.37,2.66h-220.16l-.47.16c-.26.09-1.21.38-2.41.38s-2.29-.3-3.2-.88c-2.36-1.51-3.4-4.74-2.53-7.85l.11-.4V212.19c0-4.96,4.04-9,9-9h219.66m0-3h-219.66c-6.6,0-12,5.4-12,12v399.13c-1.24,4.44.37,8.99,3.8,11.18,1.64,1.05,3.37,1.35,4.82,1.35,1.73,0,3.06-.43,3.38-.54h219.66c.86-.01,5.04-.15,8.48-3.53,3.38-3.32,3.63-7.41,3.66-8.29-.05-133.1-.09-266.21-.14-399.31,0-6.6-5.4-12-12-12h0Z"/></g><path class="ah" d="m649.44,412.88c-7.47,0-13.55-5.37-13.55-11.96s6.08-11.96,13.55-11.96,13.55,5.36,13.55,11.96-6.08,11.96-13.55,11.96Z"/><path class="ab" d="m649.44,390.46c6.65,0,12.05,4.69,12.05,10.46s-5.41,10.46-12.05,10.46-12.05-4.69-12.05-10.46,5.41-10.46,12.05-10.46m0-3c-8.31,0-15.05,6.03-15.05,13.46s6.74,13.46,15.05,13.46,15.05-6.03,15.05-13.46-6.74-13.46-15.05-13.46h0Z"/><g id="u"><rect class="bf" x="674.59" y="857.5" width="661.91" height="61"/><rect class="bf" x="350.1" y="666.74" width="527.75" height="59.59" transform="translate(1070.38 -112.05) rotate(70.84)"/><rect class="bf" x="639.76" y="907.1" width="66.52" height="26.25" transform="translate(1321.34 -17.57) rotate(70.84)"/><rect class="bf" x="380.41" y="680.97" width="528.09" height="9.27" transform="translate(1080.53 -148.18) rotate(70.84)"/><rect class="bf" x="1267.2" y="884.5" width="69.3" height="69.89" transform="translate(2603.7 1838.89) rotate(180)"/><rect class="bf" x="674.59" y="884.5" width="648.91" height="70"/><rect class="bf" x="356.35" y="658.24" width="461.22" height="25.08" transform="translate(1027.91 -103.83) rotate(70.84)"/><rect class="bf" x="500.02" y="445.07" width="69.07" height="14.16" transform="translate(-118.8 200.52) rotate(-19.16)"/></g><g id="v"><path class="aw" d="m1185.14,766.31h-358.27c14.79-9.46,25.4-18.82,31.73-24.83,16.08-15.29,29.33-32.63,74.03-108.65,8.76-14.89,13.14-22.34,17.19-29.49,21.31-37.62,59.57-98.76,133.53-203.33-.59,2.53-1.03,4.67-1.32,6.21-1.2,6.26-1.75,11.27-2.12,14.68,0,0-.3,2.82-.53,5.5-10.32,124.3,25.12,215.75,25.12,215.75,21.55,55.6,52.64,96.15,80.64,124.17Z"/><path class="ba" d="m1169.27,794.24h-329.19c-1.76-1.12-4.27-3.05-6.61-6.21-3.53-4.76-4.8-9.79-5.29-12.42h0c0-10.24,7.14-18.63,15.86-18.63,4.01-1.04,9.98-2.12,17.19-1.55,4.2.33,6.79,1.06,9.25,1.55,8.75,1.75,26.44-1.55,26.44-1.55,7.52-1.59,18.78-2.7,34.37,0,1.11.93,2.9,2.23,5.29,3.1,4.8,1.75,8.18.36,18.51-1.55,5.68-1.05,8.53-1.58,10.58-1.55,5.44.08,4.92,1.25,14.54,3.1,5.81,1.12,12.33,1.44,14.54,1.55.52.03,2.46.12,2.46.12,0,0-2.46-.06-2.46-.12,0-.12,10.7-2.37,19.83,0,1.15.3,3.99,1.12,7.52.29,2.17-.51,3.52-1.39,4.38-1.84,6.25-3.26,11.45,3.51,19.83,3.1,7.18-.35,7.05-5.5,14.54-6.21,7.35-.7,9.36,4.08,17.19,6.21,11.78,3.2,13.8-5.85,30.41-6.21,12.66-.27,26.44,4.66,26.44,4.66,0,0,9.31-4.75,18.51-4.66,10.35.11,15.87,6.29,23.8,6.21.6,0,1.92-.05,3.27.81,2.94,1.89,3.79,6.66,4.24,8.9.28,1.37.42,2.8.42,4.26h0c0,10.24-7.14,18.63-15.86,18.63Z"/><rect class="ay" x="811" y="766.31" width="390" height="48.12" rx="12" ry="12"/></g><path class="x" d="m1142.04,745.11c10.33-9.17,15.79-23.08,15.54-36.8s-6.54-27.32-18.41-34.72c-6.45-4.02-14.09-5.8-21.65-5.02-.95.1-.96,1.6,0,1.5,13.45-1.39,26.13,5.73,32.89,17.28,6.71,11.45,7.23,25.87,2.86,38.23-2.5,7.07-6.68,13.49-12.29,18.47-.72.64.34,1.7,1.06,1.06h0Z"/><path class="x" d="m1044.52,815.1c2.63,2.68,2.01,7.56,1.84,10.97-.23,4.64-.55,9.28-.94,13.91-.79,9.4-1.91,18.77-3.36,28.09-.82,5.26-1.75,10.5-2.78,15.73-.19.94,1.26,1.35,1.45.4,3.79-19.25,6.17-38.78,7.14-58.37.19-3.82.64-8.8-2.29-11.78-.68-.69-1.74.37-1.06,1.06h0Z"/><ellipse class="be" cx="955.1" cy="684.04" rx="25.12" ry="26.39"/><ellipse class="be" cx="1070.12" cy="684.04" rx="25.12" ry="26.39"/><path class="aq" d="m1034.42,719.94c1.85,4.86-11.33,22.23-26.44,21.53-14.05-.65-25.69-16.75-23.8-21.53,1.17-2.95,6.99-.26,25.12-.2,18.25.05,24.03-2.65,25.12.2Z"/><ellipse class="ar" cx="1070.13" cy="720.17" rx="10.24" ry="10.09"/><ellipse class="ap" cx="967.24" cy="684.6" rx="7.69" ry="7.21"/><ellipse class="ap" cx="1059.99" cy="683.01" rx="7.69" ry="7.21"/><path class="ap" d="m1082.46,678.86c-2.74,0-4.96-2.31-4.96-5.17s2.22-5.17,4.96-5.17,4.96,2.31,4.96,5.17-2.22,5.17-4.96,5.17"/><path class="ap" d="m948.08,678.12c-2.74,0-4.96-2.06-4.96-4.6s2.22-4.6,4.96-4.6,4.96,2.06,4.96,4.6-2.22,4.6-4.96,4.6"/><ellipse class="ar" cx="948.27" cy="718.87" rx="10.23" ry="8.98"/><path class="x" d="m885.07,733.47c-7.65-7.58-12.11-18.79-11.61-29.52.61-13.2,8.84-25.68,20.6-31.67,5.5-2.8,11.78-4.11,17.94-3.74.96.06.96-1.44,0-1.5-11.93-.73-23.37,4.79-30.95,13.89-4.65,5.58-7.77,12.32-8.76,19.53-1.06,7.73.34,15.55,3.71,22.55,2.01,4.18,4.7,8.23,8.01,11.52.69.68,1.75-.38,1.06-1.06h0Z"/><path class="x" d="m964.3,813.24c-7.99,17.47-11.94,36.69-11.15,55.91.22,5.38.82,10.74,1.76,16.05.17.95,1.61.55,1.45-.4-3.27-18.52-2.02-37.69,3.48-55.66,1.58-5.17,3.51-10.23,5.76-15.14.4-.87-.89-1.63-1.3-.76h0Z"/><path class="an" d="m1438.87,45.91c9.39,20.21,18.79,40.41,28.18,60.62l33.27-60.62c3.19-6.06,1.69-13.37-3.43-17.55-4.52-3.69-11.11-4.34-16.58-1.6-1.48.68-3.24,1.69-4.97,3.19-4.58,3.97-6.1,8.89-6.63,11.17-.36-1.42-2.82-10.54-11.61-14.36-3.19-1.38-6.19-1.63-8.29-1.6-.75-.15-1.94-.29-3.32,0,0,0-2.61.55-4.97,3.19-2.73,3.05-3.59,9.74-1.66,17.55Z"/><path class="an" d="m1270.77,45.79c9.39,20.21,18.79,40.41,28.18,60.62l33.27-60.62c3.19-6.06,1.69-13.37-3.43-17.55-4.52-3.69-11.11-4.34-16.58-1.6-1.48.68-3.24,1.69-4.97,3.19-4.58,3.97-6.1,8.89-6.63,11.17-.36-1.42-2.82-10.54-11.61-14.36-3.19-1.38-6.19-1.63-8.29-1.6-.75-.15-1.94-.29-3.32,0,0,0-2.61.55-4.97,3.19-2.73,3.05-3.59,9.74-1.66,17.55Z"/><path class="an" d="m1357.77,44.79c9.39,20.21,18.79,40.41,28.18,60.62l33.27-60.62c3.19-6.06,1.69-13.37-3.43-17.55-4.52-3.69-11.11-4.34-16.58-1.6-1.48.68-3.24,1.69-4.97,3.19-4.58,3.97-6.1,8.89-6.63,11.17-.36-1.42-2.82-10.54-11.61-14.36-3.19-1.38-6.19-1.63-8.29-1.6-.75-.15-1.94-.29-3.32,0,0,0-2.61.55-4.97,3.19-2.73,3.05-3.59,9.74-1.66,17.55Z"/><rect class="aj" x="103.75" y="108.4" width="8.91" height="46.64"/><rect class="aj" x="90.66" y="155.04" width="35.11" height="10.36"/><rect class="aj" x="77.56" y="165.4" width="61.3" height="12.96"/><path class="ak" d="m126.29,106.18c-15.39,11.9-31.14,4.18-34.58,2.36-2.05-1.57-3.87-3.31-5.49-5.13-16.23-18.2-18.27-50.99-18.61-63.21-.17-2.62-.35-5.24-.52-7.85,4.49-1.59,8.26-2.16,11-2.36,2.83-.21,5.19-.07,6.29,0,2.45.15,4.58.46,6.29.79h35.63c1.31.5,2.4.7,3.14.79,1.96.23,4.19,0,4.19,0,0,0,.56-.06.86-.07.66-.02,1.14.05,1.24.07.55.07,1.79-.05,4.72-.79h8.38c3.51,32.1-5.91,62.56-22.53,75.41Z"/><path class="aj" d="m77.03,88.7c-.31,1.83-15.41,3.28-19.55-3.51-.51-.84-.76-1.64-.89-2.21v-37.54c.11-.54.34-1.36.89-2.21,2.56-4.01,9.44-4.6,10.12-3.25.28.57-.32,1.9-4.98,5.46v37.54c11.69,3.27,14.55,4.88,14.41,5.72Z"/><path class="aj" d="m149.59,40.48c.63-1.45,10.18-.63,12.53,4.56.41.9.51,1.74.54,2.33l-5.74,37.34c-.21.52-.58,1.29-1.21,2.07-4.41,5.44-15.45,4.16-15.79,2.44-.15-.78,1.76-2.27,11.05-5.4l5.74-37.34c-6.21-3.86-7.38-5.37-7.11-5.99Z"/><rect class="at" x="58.54" y="26.36" width="98.04" height="6.32" rx="3.16" ry="3.16"/><path class="al" d="m1806.78,141c-2.15-14.97.46-24.41,4.24-30.6,2.47-4.04,4.76-5.59,9.38-10.74,5.03-5.6,10.72-13.1,16.08-23.08-4.25-3.16-17.47-13.82-22.64-33.82-2.77-10.72-2.2-20.07-1.41-25.77h65.08c.79,4.52,2.86,19.43-4.24,35.43-6.7,15.08-17.5,22.01-21.22,24.16,7.36,10.6,13.36,18.97,17.44,24.61,4.42,6.11,6.21,8.49,8.03,12.43,4.69,10.16,4.82,20.44,4.24,27.38h-74.98Z"/></svg>