<?xml version="1.0" encoding="UTF-8"?><svg id="a" xmlns="http://www.w3.org/2000/svg" width="1919" height="1100.62" viewBox="0 0 1919 1100.62"><defs><style>.u{fill:none;}.u,.v,.w,.x,.y,.z,.aa,.ab,.ac{stroke-width:0px;}.ad,.ae,.af,.ag,.ah,.ai,.aj,.ak,.al,.am,.an,.ao,.ap,.aq,.ar,.as,.at,.au,.av,.aw,.ax,.ay,.az{stroke-miterlimit:10;}.ad,.ap,.aq,.at,.av{stroke:#5b4034;}.ae,.af,.ag,.ai{stroke-width:2px;}.ae,.af,.ao{stroke:#e2a92b;}.ae,.ao,.ar{fill:#fed266;}.af{fill:#f2c357;}.ag{fill:#ed6b6b;stroke:#c10000;}.ah{stroke:#dde3e0;}.ah,.aj{stroke-width:4px;}.ah,.ak,.aq{fill:#fff;}.ai{fill:#c10000;stroke:#710000;}.aj{fill:#9b6f59;}.aj,.az{stroke:#825d4a;}.ak,.al,.am,.an,.ay{stroke-width:.5px;}.ak,.ax,.ay{stroke:#000;}.al{fill:#ff9492;}.al,.am,.ar{stroke:#7f5d2a;}.am{fill:#ff9497;}.an{fill:#dbd6c1;stroke:#c1bca7;}.ap{fill:#fffefd;}.as{fill:#fbbb71;stroke:#7f5d3f;}.at{fill:#f5f5f5;}.au{fill:#cd5522;stroke:#f17083;}.av{fill:#8e6652;}.aw{fill:#5b4134;stroke:#271b16;}.ax{fill:#3d465a;}.az{fill:#deb985;stroke-width:3px;}.w{fill:#6dcaf2;}.x{fill:#dde3e0;}.y{fill:#b82214;}.z{fill:#c1bca7;}.aa{fill:#941b10;}.ab{fill:#fde7c3;}.ac{fill:#f4f6f5;}</style></defs><rect id="b" class="ab" width="1919" height="598"/><rect id="c" class="u" y="598" width="1919" height="481"/><g id="d"><rect class="y" x="72" y="213" width="236" height="308" rx="10.5" ry="10.5"/><path class="aa" d="m297.5,214.5c4.96,0,9,4.04,9,9v287c0,4.96-4.04,9-9,9H82.5c-4.96,0-9-4.04-9-9V223.5c0-4.96,4.04-9,9-9h215m0-3H82.5c-6.6,0-12,5.4-12,12v287c0,6.6,5.4,12,12,12h215c6.6,0,12-5.4,12-12V223.5c0-6.6-5.4-12-12-12h0Z"/></g><g id="e"><rect class="w" x="93" y="231.1" width="193.5" height="264.4" rx="11" ry="11"/><path class="v" d="m275.5,232.1c5.51,0,10,4.49,10,10v242.4c0,5.51-4.49,10-10,10H104c-5.51,0-10-4.49-10-10v-242.4c0-5.51,4.49-10,10-10h171.5m0-2H104c-6.6,0-12,5.4-12,12v242.4c0,6.6,5.4,12,12,12h171.5c6.6,0,12-5.4,12-12v-242.4c0-6.6-5.4-12-12-12h0Z"/></g><rect id="f" class="aw" y="996.5" width="1919.5" height="100.5"/><rect class="ad" y="604" width="109" height="47"/><rect class="at" x="109" y="607" width="109" height="47"/><rect class="ad" x="218" y="604" width="109" height="47"/><rect class="aq" x="327" y="604" width="109" height="47"/><rect class="aq" y="651" width="109" height="61"/><rect class="ad" x="436" y="607" width="109" height="47"/><rect class="aq" x="545" y="604" width="109" height="47"/><rect class="ad" x="654" y="604" width="109" height="47"/><rect class="aq" x="763" y="607" width="109" height="47"/><rect class="ad" x="872" y="604" width="109" height="47"/><rect class="aq" x="981" y="613" width="109" height="47"/><rect class="ad" x="1090" y="604" width="109" height="47"/><rect class="aq" x="1199" y="605" width="109" height="47"/><rect class="ad" x="1308" y="605" width="109" height="47"/><rect class="aq" x="1417" y="605" width="109" height="47"/><rect class="ad" x="1526" y="613" width="109" height="47"/><rect class="aq" x="1635" y="605" width="109" height="47"/><rect class="ad" x="1744" y="605" width="109" height="47"/><rect class="ap" x="1853" y="605" width="66" height="47"/><rect class="ad" x="109" y="651" width="109" height="61"/><rect class="aq" x="218" y="651" width="109" height="61"/><rect class="ad" y="703" width="109" height="61"/><rect class="ad" x="327" y="651" width="109" height="61"/><rect class="aq" x="436" y="651" width="109" height="61"/><rect class="ad" x="545" y="651" width="109" height="61"/><rect class="aq" x="654" y="651" width="109" height="61"/><rect class="ad" x="763" y="651" width="109" height="61"/><rect class="aq" x="872" y="651" width="109" height="61"/><rect class="ad" x="981" y="651" width="109" height="61"/><rect class="aq" x="1090" y="651" width="109" height="61"/><rect class="ad" x="1199" y="651" width="109" height="61"/><rect class="aq" x="1308" y="651" width="109" height="61"/><rect class="ad" x="1417" y="651" width="109" height="61"/><rect class="aq" x="1526" y="651" width="109" height="61"/><rect class="ad" x="1635" y="651" width="109" height="61"/><rect class="aq" x="1744" y="651" width="109" height="61"/><rect class="ad" x="1853" y="651" width="66" height="61"/><rect class="aq" x="1853" y="703" width="66" height="61"/><rect class="aq" x="109" y="703" width="109" height="61"/><rect class="ad" x="218" y="703" width="109" height="61"/><rect class="aq" x="327" y="703" width="109" height="61"/><rect class="ad" x="436" y="703" width="109" height="61"/><rect class="aq" x="545" y="703" width="109" height="61"/><rect class="ad" x="654" y="703" width="109" height="61"/><rect id="g" class="aj" x=".5" y="584.5" width="1919" height="36"/><rect class="aq" x="763" y="703" width="109" height="61"/><rect class="ad" x="872" y="703" width="109" height="61"/><rect class="aq" x="981" y="703" width="109" height="61"/><rect class="ad" x="1090" y="703" width="109" height="61"/><rect class="aq" x="1199" y="703" width="109" height="61"/><rect class="ad" x="1308" y="703" width="109" height="61"/><rect class="aq" x="1417" y="703" width="109" height="61"/><rect class="ad" x="1526" y="703" width="109" height="61"/><rect class="aq" x="1635" y="703" width="109" height="61"/><rect class="ad" x="1744" y="703" width="109" height="61"/><rect id="h" class="av" y="720" width="1919" height="277"/><g id="i"><rect class="ac" x="434.5" y="178.5" width="284" height="443" rx="11" ry="11"/><path class="x" d="m707.5,179.5c5.51,0,10,4.49,10,10v421c0,5.51-4.49,10-10,10h-262c-5.51,0-10-4.49-10-10V189.5c0-5.51,4.49-10,10-10h262m0-2h-262c-6.6,0-12,5.4-12,12v421c0,6.6,5.4,12,12,12h262c6.6,0,12-5.4,12-12V189.5c0-6.6-5.4-12-12-12h0Z"/></g><g id="j"><path class="y" d="m462.82,621.85c-1.51,0-2.86-.38-4.01-1.12-2.91-1.86-4.21-5.78-3.17-9.52l.06-.2V211.69c0-5.79,4.71-10.5,10.5-10.5h219.66c5.79,0,10.5,4.71,10.5,10.5l.14,399.31c-.05,1.23-.46,4.52-3.21,7.22-2.87,2.83-6.42,3.08-7.44,3.09h-219.89l-.23.08c-.32.11-1.46.46-2.9.46Z"/><path class="aa" d="m685.86,202.69c4.96,0,9,4.04,9,9l.09,266.16.05,133.09c-.04.93-.38,3.87-2.77,6.22-2.47,2.43-5.53,2.65-6.37,2.66h-220.16l-.47.16c-.26.09-1.21.38-2.41.38s-2.29-.3-3.2-.88c-2.36-1.51-3.4-4.74-2.53-7.85l.11-.4V211.69c0-4.96,4.04-9,9-9h219.66m0-3h-219.66c-6.6,0-12,5.4-12,12v399.13c-1.24,4.44.37,8.99,3.8,11.18,1.64,1.05,3.37,1.35,4.82,1.35,1.73,0,3.06-.43,3.38-.54h219.66c.86-.01,5.04-.15,8.48-3.53,3.38-3.32,3.63-7.41,3.66-8.29-.05-133.1-.09-266.21-.14-399.31,0-6.6-5.4-12-12-12h0Z"/></g><path class="ac" d="m648.94,412.38c-7.47,0-13.55-5.37-13.55-11.96s6.08-11.96,13.55-11.96,13.55,5.36,13.55,11.96-6.08,11.96-13.55,11.96Z"/><path class="x" d="m648.94,389.96c6.65,0,12.05,4.69,12.05,10.46s-5.41,10.46-12.05,10.46-12.05-4.69-12.05-10.46,5.41-10.46,12.05-10.46m0-3c-8.31,0-15.05,6.03-15.05,13.46s6.74,13.46,15.05,13.46,15.05-6.03,15.05-13.46-6.74-13.46-15.05-13.46h0Z"/><g id="k"><rect class="az" x="628.62" y="882.65" width="661.91" height="61"/><rect class="az" x="304.13" y="691.89" width="527.75" height="59.59" transform="translate(1063.26 -51.73) rotate(70.84)"/><rect class="az" x="593.79" y="932.26" width="66.52" height="26.25" transform="translate(1314.22 42.75) rotate(70.84)"/><rect class="az" x="334.43" y="706.13" width="528.09" height="9.27" transform="translate(1073.41 -87.86) rotate(70.84)"/><rect class="az" x="1221.23" y="909.65" width="69.3" height="69.89" transform="translate(2511.76 1889.2) rotate(180)"/><rect class="az" x="628.62" y="909.65" width="648.91" height="70"/><rect class="az" x="310.38" y="683.4" width="461.22" height="25.08" transform="translate(1020.79 -43.51) rotate(70.84)"/><rect class="az" x="454.05" y="470.22" width="69.07" height="14.16" transform="translate(-129.6 186.82) rotate(-19.16)"/></g><g id="l"><path class="ar" d="m1139.16,791.46h-358.27c14.79-9.46,25.4-18.82,31.73-24.83,16.08-15.29,29.33-32.63,74.03-108.65,8.76-14.89,13.14-22.34,17.19-29.49,21.31-37.62,59.57-98.76,133.53-203.33-.59,2.53-1.03,4.67-1.32,6.21-1.2,6.26-1.75,11.27-2.12,14.68,0,0-.3,2.82-.53,5.5-10.32,124.3,25.12,215.75,25.12,215.75,21.55,55.6,52.64,96.15,80.64,124.17Z"/><path class="au" d="m1123.3,819.4h-329.19c-1.76-1.12-4.27-3.05-6.61-6.21-3.53-4.76-4.8-9.79-5.29-12.42h0c0-10.24,7.14-18.63,15.86-18.63,4.01-1.04,9.98-2.12,17.19-1.55,4.2.33,6.79,1.06,9.25,1.55,8.75,1.75,26.44-1.55,26.44-1.55,7.52-1.59,18.78-2.7,34.37,0,1.11.93,2.9,2.23,5.29,3.1,4.8,1.75,8.18.36,18.51-1.55,5.68-1.05,8.53-1.58,10.58-1.55,5.44.08,4.92,1.25,14.54,3.1,5.81,1.12,12.33,1.44,14.54,1.55.52.03,2.46.12,2.46.12,0,0-2.46-.06-2.46-.12,0-.12,10.7-2.37,19.83,0,1.15.3,3.99,1.12,7.52.29,2.17-.51,3.52-1.39,4.38-1.84,6.25-3.26,11.45,3.51,19.83,3.1,7.18-.35,7.05-5.5,14.54-6.21,7.35-.7,9.36,4.08,17.19,6.21,11.78,3.2,13.8-5.85,30.41-6.21,12.66-.27,26.44,4.66,26.44,4.66,0,0,9.31-4.75,18.51-4.66,10.35.11,15.87,6.29,23.8,6.21.6,0,1.92-.05,3.27.81,2.94,1.89,3.79,6.66,4.24,8.9.28,1.37.42,2.8.42,4.26h0c0,10.24-7.14,18.63-15.86,18.63Z"/><rect class="as" x="765.03" y="791.46" width="390" height="48.12" rx="12" ry="12"/></g><path class="v" d="m1096.07,770.26c10.33-9.17,15.79-23.08,15.54-36.8s-6.54-27.32-18.41-34.72c-6.45-4.02-14.09-5.8-21.65-5.02-.95.1-.96,1.6,0,1.5,13.45-1.39,26.13,5.73,32.89,17.28,6.71,11.45,7.23,25.87,2.86,38.23-2.5,7.07-6.68,13.49-12.29,18.47-.72.64.34,1.7,1.06,1.06h0Z"/><path class="v" d="m998.54,840.26c2.63,2.68,2.01,7.56,1.84,10.97-.23,4.64-.55,9.28-.94,13.91-.79,9.4-1.91,18.77-3.36,28.09-.82,5.26-1.75,10.5-2.78,15.73-.19.94,1.26,1.35,1.45.4,3.79-19.25,6.17-38.78,7.14-58.37.19-3.82.64-8.8-2.29-11.78-.68-.69-1.74.37-1.06,1.06h0Z"/><ellipse class="ay" cx="909.13" cy="709.2" rx="25.12" ry="26.39"/><ellipse class="ay" cx="1024.15" cy="709.2" rx="25.12" ry="26.39"/><path class="al" d="m988.45,745.1c1.85,4.86-11.33,22.23-26.44,21.53-14.05-.65-25.69-16.75-23.8-21.53,1.17-2.95,6.99-.26,25.12-.2,18.25.05,24.03-2.65,25.12.2Z"/><ellipse class="am" cx="1024.16" cy="745.32" rx="10.24" ry="10.09"/><ellipse class="ak" cx="921.27" cy="709.75" rx="7.69" ry="7.21"/><ellipse class="ak" cx="1014.02" cy="708.16" rx="7.69" ry="7.21"/><path class="ak" d="m1036.49,704.02c-2.74,0-4.96-2.31-4.96-5.17s2.22-5.17,4.96-5.17,4.96,2.31,4.96,5.17-2.22,5.17-4.96,5.17"/><path class="ak" d="m902.11,703.28c-2.74,0-4.96-2.06-4.96-4.6s2.22-4.6,4.96-4.6,4.96,2.06,4.96,4.6-2.22,4.6-4.96,4.6"/><ellipse class="am" cx="902.3" cy="744.02" rx="10.23" ry="8.98"/><path class="v" d="m839.1,758.62c-7.65-7.58-12.11-18.79-11.61-29.52.61-13.2,8.84-25.68,20.6-31.67,5.5-2.8,11.78-4.11,17.94-3.74.96.06.96-1.44,0-1.5-11.93-.73-23.37,4.79-30.95,13.89-4.65,5.58-7.77,12.32-8.76,19.53-1.06,7.73.34,15.55,3.71,22.55,2.01,4.18,4.7,8.23,8.01,11.52.69.68,1.75-.38,1.06-1.06h0Z"/><path class="v" d="m918.33,838.39c-7.99,17.47-11.94,36.69-11.15,55.91.22,5.38.82,10.74,1.76,16.05.17.95,1.61.55,1.45-.4-3.27-18.52-2.02-37.69,3.48-55.66,1.58-5.17,3.51-10.23,5.76-15.14.4-.87-.89-1.63-1.3-.76h0Z"/><path class="ai" d="m1448.37,48.41c9.39,20.21,18.79,40.41,28.18,60.62l33.27-60.62c3.19-6.06,1.69-13.37-3.43-17.55-4.52-3.69-11.11-4.34-16.58-1.6-1.48.68-3.24,1.69-4.97,3.19-4.58,3.97-6.1,8.89-6.63,11.17-.36-1.42-2.82-10.54-11.61-14.36-3.19-1.38-6.19-1.63-8.29-1.6-.75-.15-1.94-.29-3.32,0,0,0-2.61.55-4.97,3.19-2.73,3.05-3.59,9.74-1.66,17.55Z"/><path class="ai" d="m1299.27,48.29c9.39,20.21,18.79,40.41,28.18,60.62l33.27-60.62c3.19-6.06,1.69-13.37-3.43-17.55-4.52-3.69-11.11-4.34-16.58-1.6-1.48.68-3.24,1.69-4.97,3.19-4.58,3.97-6.1,8.89-6.63,11.17-.36-1.42-2.82-10.54-11.61-14.36-3.19-1.38-6.19-1.63-8.29-1.6-.75-.15-1.94-.29-3.32,0,0,0-2.61.55-4.97,3.19-2.73,3.05-3.59,9.74-1.66,17.55Z"/><path class="ai" d="m1371.27,48.29c9.39,20.21,18.79,40.41,28.18,60.62l33.27-60.62c3.19-6.06,1.69-13.37-3.43-17.55-4.52-3.69-11.11-4.34-16.58-1.6-1.48.68-3.24,1.69-4.97,3.19-4.58,3.97-6.1,8.89-6.63,11.17-.36-1.42-2.82-10.54-11.61-14.36-3.19-1.38-6.19-1.63-8.29-1.6-.75-.15-1.94-.29-3.32,0,0,0-2.61.55-4.97,3.19-2.73,3.05-3.59,9.74-1.66,17.55Z"/><rect class="ae" x="103.25" y="107.9" width="8.91" height="46.64"/><rect class="ae" x="90.16" y="154.54" width="35.11" height="10.36"/><rect class="ae" x="77.06" y="164.9" width="61.3" height="12.96"/><path class="af" d="m125.79,105.68c-15.39,11.9-31.14,4.18-34.58,2.36-2.05-1.57-3.87-3.31-5.49-5.13-16.23-18.2-18.27-50.99-18.61-63.21-.17-2.62-.35-5.24-.52-7.85,4.49-1.59,8.26-2.16,11-2.36,2.83-.21,5.19-.07,6.29,0,2.45.15,4.58.46,6.29.79h35.63c1.31.5,2.4.7,3.14.79,1.96.23,4.19,0,4.19,0,0,0,.56-.06.86-.07.66-.02,1.14.05,1.24.07.55.07,1.79-.05,4.72-.79h8.38c3.51,32.1-5.91,62.56-22.53,75.41Z"/><path class="ae" d="m76.53,88.2c-.31,1.83-15.41,3.28-19.55-3.51-.51-.84-.76-1.64-.89-2.21v-37.54c.11-.54.34-1.36.89-2.21,2.56-4.01,9.44-4.6,10.12-3.25.28.57-.32,1.9-4.98,5.46v37.54c11.69,3.27,14.55,4.88,14.41,5.72Z"/><path class="ae" d="m149.09,39.98c.63-1.45,10.18-.63,12.53,4.56.41.9.51,1.74.54,2.33l-5.74,37.34c-.21.52-.58,1.29-1.21,2.07-4.41,5.44-15.45,4.16-15.79,2.44-.15-.78,1.76-2.27,11.05-5.4l5.74-37.34c-6.21-3.86-7.38-5.37-7.11-5.99Z"/><rect class="ao" x="58.04" y="25.86" width="98.04" height="6.32" rx="3.16" ry="3.16"/><path class="ag" d="m1815.28,151.5c-2.15-14.97.46-24.41,4.24-30.6,2.47-4.04,4.76-5.59,9.38-10.74,5.03-5.6,10.72-13.1,16.08-23.08-4.25-3.16-17.47-13.82-22.64-33.82-2.77-10.72-2.2-20.07-1.41-25.77h65.08c.79,4.52,2.86,19.43-4.24,35.43-6.7,15.08-17.5,22.01-21.22,24.16,7.36,10.6,13.36,18.97,17.44,24.61,4.42,6.11,6.21,8.49,8.03,12.43,4.69,10.16,4.82,20.44,4.24,27.38h-74.98Z"/><path id="m" class="ah" d="m1771.55,512.07h-567.64c-7.37,0-13.41-5.72-13.41-12.72V160.22c0-6.99,6.03-12.72,13.41-12.72h567.64c.9,0,5.64.1,9.47,3.74,2.43,2.31,3.94,5.48,3.94,8.98v339.13c50.77,24.44,75.79,37.99,75.05,40.66-.78,2.82-30.27-6.5-88.46-27.94Z"/><g id="n"><path class="ar" d="m1625.28,412.64h-291.12c12.02-6.6,20.64-13.12,25.78-17.32,13.06-10.66,23.84-22.76,60.16-75.79,7.12-10.39,10.67-15.58,13.97-20.57,17.32-26.24,48.4-68.89,108.5-141.83-.48,1.77-.83,3.25-1.07,4.33-.97,4.36-1.42,7.86-1.72,10.24,0,0-.25,1.97-.43,3.84-8.39,86.7,20.41,150.49,20.41,150.49,17.51,38.79,42.78,67.07,65.53,86.61Z"/><path class="au" d="m1612.39,432.13h-267.49c-1.43-.78-3.47-2.13-5.37-4.33-2.87-3.32-3.9-6.83-4.3-8.66h0c0-7.15,5.8-12.99,12.89-12.99,3.25-.72,8.11-1.48,13.97-1.08,3.41.23,5.52.74,7.52,1.08,7.11,1.22,21.48-1.08,21.48-1.08,6.11-1.11,15.26-1.88,27.93,0,.9.65,2.35,1.56,4.3,2.17,3.9,1.22,6.64.25,15.04-1.08,4.62-.74,6.93-1.1,8.59-1.08,4.42.05,4,.87,11.82,2.17,4.72.78,10.02,1.01,11.82,1.08.42.02,2,.08,2,.08,0,0-2-.04-2-.08,0-.08,8.7-1.65,16.11,0,.94.21,3.24.78,6.11.2,1.77-.36,2.86-.97,3.56-1.28,5.08-2.27,9.3,2.45,16.11,2.17,5.84-.24,5.73-3.83,11.82-4.33,5.97-.49,7.6,2.85,13.97,4.33,9.57,2.23,11.21-4.08,24.71-4.33,10.28-.19,21.48,3.25,21.48,3.25,0,0,7.56-3.31,15.04-3.25,8.41.07,12.9,4.39,19.34,4.33.48,0,1.56-.04,2.66.57,2.39,1.32,3.08,4.65,3.44,6.2.22.95.34,1.95.34,2.97h0c0,7.15-5.8,12.99-12.89,12.99Z"/><rect class="as" x="1321.27" y="412.64" width="316.9" height="33.56" rx="12" ry="12"/></g><path class="v" d="m1590.21,398.13c8.13-6.22,13.18-16.04,12.81-26.35-.36-10.19-6.2-19.37-15.22-24.11-5.35-2.81-11.45-3.95-17.46-3.43-.95.08-.96,1.58,0,1.5,10.01-.87,20.34,3.16,26.27,11.46,5.46,7.65,6.25,17.67,2.89,26.34-2.03,5.26-5.58,9.87-10.05,13.29-.76.58-.01,1.88.76,1.3h0Z"/><path class="v" d="m1508.23,446.96c3.01,2.3,1.84,7.81,1.59,11-.38,4.83-.91,9.64-1.59,14.43-1.33,9.32-3.21,18.55-5.63,27.65-.25.93,1.2,1.33,1.45.4,2.6-9.79,4.58-19.73,5.92-29.76.67-5.02,1.18-10.07,1.53-15.13.24-3.45.56-7.55-2.51-9.88-.77-.59-1.52.72-.76,1.3h0Z"/><ellipse class="ay" cx="1438.36" cy="355.26" rx="20.41" ry="18.41"/><ellipse class="ay" cx="1531.82" cy="355.26" rx="20.41" ry="18.41"/><path class="al" d="m1502.82,380.3c1.5,3.39-9.2,15.51-21.48,15.02-11.42-.46-20.87-11.68-19.34-15.02.95-2.06,5.68-.18,20.41-.14,14.83.04,19.53-1.85,20.41.14Z"/><ellipse class="am" cx="1531.83" cy="380.46" rx="8.32" ry="7.04"/><ellipse class="ak" cx="1448.23" cy="355.64" rx="6.25" ry="5.03"/><ellipse class="ak" cx="1523.59" cy="354.54" rx="6.25" ry="5.03"/><path class="ak" d="m1541.86,351.65c-2.23,0-4.03-1.61-4.03-3.6s1.81-3.6,4.03-3.6,4.03,1.61,4.03,3.6-1.81,3.6-4.03,3.6"/><path class="v" d="m1448.74,446.15c-6.78,17.14-8.85,35.94-6.08,54.15.14.95,1.59.55,1.45-.4-2.73-17.95-.59-36.48,6.08-53.35.35-.9-1.1-1.29-1.45-.4h0Z"/><ellipse class="am" cx="1435.41" cy="380.7" rx="8.32" ry="7.04"/><path class="ak" d="m1430.36,351.55c-2.23,0-4.03-1.61-4.03-3.6s1.81-3.6,4.03-3.6,4.03,1.61,4.03,3.6-1.81,3.6-4.03,3.6"/><ellipse class="am" cx="1435.39" cy="380.34" rx="8.32" ry="7.04"/><path class="v" d="m1401.83,344.55c-10.11-.58-20.23,3.65-26.54,11.65s-7.8,18.95-3.93,28.46c2.3,5.64,6.2,10.43,11.13,13.98.78.56,1.53-.74.76-1.3-8.25-5.93-13.37-15.87-12.48-26.1.82-9.44,6.96-17.68,15.29-21.96,4.87-2.5,10.32-3.55,15.77-3.24.96.06.96-1.44,0-1.5h0Z"/><g id="o"><path class="an" d="m1524.48,233.31c-1.32,1.19-3.49,2.89-6.49,4.11-1,.41-1.92.69-2.74.9.17-1.13.13-2.03.06-2.63-.29-2.6-1.59-4.26-2.17-4.99-.24-.3-.44-.51-.53-.61-.99-1.05-2.04-1.73-2.82-2.14l8.86-5.19c.19,2.23.91,5.61,3.56,8.55.73.81,1.5,1.47,2.26,2.01Z"/><path class="an" d="m1525.06,213.59c1.02.99,3.07,3.72,2.38,4.73-.03.05-.09.13-.17.21-.42.41-1.24.52-4.73,2.25-1.18.58-1.78.88-2.23,1.17-.91.59-1.53,1.13-1.7,1-.08-.06-.05-.24.02-.41.07-.2.18-.4.19-.39.02,0-.2.81-.2.81.08-.57.19-.81.2-.8.05.01-.25.86-.23.86,0,0,.03-.06.03-.06,0,0-.03.04-.12.21,0,0,0,0,0,0-.13.13-.28.18-.34.2t-1.41.82c-2.23,1.31-4.47,2.62-6.7,3.93-.28.16-.92.54-1.27.74-.12.07-.64.37-.76.44.03-.01.05-.03.08-.04-.89.82-1.25,1.15-1.25,1.14,0,0,.35-.33.35-.34-.01-.01-1.04,1.02-2.2,1.84-1.1.78-2.51,1.79-3.55,1.67-1.85-.21-2.84-4-2.66-7.02.28-4.78,3.64-10.07,8.73-13.01,6.39-3.69,14.39-3.02,17.55.05Z"/><path class="z" d="m1519.4,222.63c.43-.62,1.07-1.09,1.64-1.56s1.21-.94,1.89-1.3,1.45-.62,2.15-.97c.64-.32,1.4-.74,2.14-.57.94.21,1.34-1.24.4-1.45s-1.87.05-2.75.46c-.42.19-.82.41-1.24.6s-.89.35-1.32.57c-.82.41-1.56.98-2.27,1.56s-1.41,1.15-1.94,1.91.75,1.54,1.3.76h0Z"/><path class="z" d="m1518.97,223.6c1.61-1.01,3.28-1.92,5-2.73.8-.38,1.64-.66,2.45-1.03s1.72-.96,1.72-1.98c0-.97-1.5-.97-1.5,0,0,.28-.56.49-.77.59-.32.15-.65.28-.97.41-.78.3-1.54.64-2.3,1.01-1.51.73-2.97,1.55-4.4,2.44-.82.51-.07,1.81.76,1.3h0Z"/><path class="z" d="m1510.31,227.17c-1.11-.09-2.15,0-3.21.35-.99.33-1.94.8-2.8,1.41-.39.27-.79.56-1.1.93-.3.34-.51.62-.87.9-.77.6-1.41,1.37-1.83,2.26s.88,1.63,1.3.76c.35-.74.84-1.36,1.48-1.87.35-.28.62-.51.89-.87.24-.32.55-.57.88-.81.73-.52,1.52-.94,2.36-1.23.97-.34,1.86-.41,2.88-.32.96.08.96-1.42,0-1.5h0Z"/><path class="z" d="m1501.23,234.2c.97-.08,1.82-.46,2.68-.88s1.71-.86,2.48-1.43c1.42-1.05,2.64-2.36,4.17-3.25.83-.48.08-1.78-.76-1.3-1.46.85-2.64,2.06-3.96,3.09-.67.52-1.4.95-2.16,1.33s-1.59.87-2.46.94c-.96.08-.96,1.58,0,1.5h0Z"/></g><g id="p"><path class="an" d="m1532.16,322.75c-1.32,1.19-3.49,2.89-6.49,4.11-1,.41-1.92.69-2.74.9.17-1.13.13-2.03.06-2.63-.29-2.6-1.59-4.26-2.17-4.99-.24-.3-.44-.51-.53-.61-.99-1.05-2.04-1.73-2.82-2.14,2.95-1.73,5.91-3.46,8.86-5.19.19,2.23.91,5.61,3.56,8.55.73.81,1.5,1.47,2.26,2.01Z"/><path class="an" d="m1532.74,303.04c1.02.99,3.07,3.72,2.38,4.73-.03.05-.09.13-.17.21-.42.41-1.24.52-4.73,2.25-1.18.58-1.78.88-2.23,1.17-.91.59-1.53,1.13-1.7,1-.08-.06-.05-.24.02-.41.07-.2.18-.4.19-.39.02,0-.2.81-.2.81.08-.57.19-.81.2-.8.05.01-.25.86-.23.86,0,0,.03-.06.03-.06,0,0-.03.04-.12.21,0,0,0,0,0,0-.13.13-.28.18-.34.2t-1.41.82c-2.23,1.31-4.47,2.62-6.7,3.93-.28.16-.92.54-1.27.74-.12.07-.64.37-.76.44.03-.01.05-.03.08-.04-.89.82-1.25,1.15-1.25,1.14,0,0,.35-.33.35-.34-.01-.01-1.04,1.02-2.2,1.84-1.1.78-2.51,1.79-3.55,1.67-1.85-.21-2.84-4-2.66-7.02.28-4.78,3.64-10.07,8.73-13.01,6.39-3.69,14.39-3.02,17.55.05Z"/><path class="z" d="m1527.08,312.07c.43-.62,1.07-1.09,1.64-1.56s1.21-.94,1.89-1.3,1.45-.62,2.15-.97c.64-.32,1.4-.74,2.14-.57.94.21,1.34-1.24.4-1.45s-1.87.05-2.75.46c-.42.19-.82.41-1.24.6s-.89.35-1.32.57c-.82.41-1.56.98-2.27,1.56s-1.41,1.15-1.94,1.91.75,1.54,1.3.76h0Z"/><path class="z" d="m1526.65,313.04c1.61-1.01,3.28-1.92,5-2.73.8-.38,1.64-.66,2.45-1.03s1.72-.96,1.72-1.98c0-.97-1.5-.97-1.5,0,0,.28-.56.49-.77.59-.32.15-.65.28-.97.41-.78.3-1.54.64-2.3,1.01-1.51.73-2.97,1.55-4.4,2.44-.82.51-.07,1.81.76,1.3h0Z"/><path class="z" d="m1517.99,316.61c-1.11-.09-2.15,0-3.21.35-.99.33-1.94.8-2.8,1.41-.39.27-.79.56-1.1.93-.3.34-.51.62-.87.9-.77.6-1.41,1.37-1.83,2.26s.88,1.63,1.3.76c.35-.74.84-1.36,1.48-1.87.35-.28.62-.51.89-.87.24-.32.55-.57.88-.81.73-.52,1.52-.94,2.36-1.23.97-.34,1.86-.41,2.88-.32.96.08.96-1.42,0-1.5h0Z"/></g><g id="q"><path class="ax" d="m1434.98,314.85c-3.79,5.1-3.25,11.92,1.21,15.23s11.15,1.87,14.94-3.22c3.79-5.1,3.25-11.92-1.21-15.23s-11.15-1.87-14.94,3.22Z"/><ellipse id="r" class="ax" cx="1453.56" cy="306.72" rx="11.5" ry="10.06" transform="translate(340.01 1290.05) rotate(-53.36)"/></g><g id="s"><path class="ax" d="m1497.03,267.24c-3.79,5.1-3.25,11.92,1.21,15.23s11.15,1.87,14.94-3.22c3.79-5.1,3.25-11.92-1.21-15.23s-11.15-1.87-14.94,3.22Z"/><ellipse id="t" class="ax" cx="1515.62" cy="259.12" rx="11.5" ry="10.06" transform="translate(403.24 1320.65) rotate(-53.36)"/></g></svg>