<?xml version="1.0" encoding="UTF-8"?><svg id="a" xmlns="http://www.w3.org/2000/svg" width="1920.54" height="1090.02" viewBox="0 0 1920.54 1090.02"><defs><style>.o{fill:#c10000;stroke:#710000;stroke-width:5px;}.o,.p,.q,.r,.s,.t,.u,.v,.w,.x,.y,.z,.aa,.ab,.ac,.ad,.ae,.af{stroke-miterlimit:10;}.ag{fill:none;}.ag,.ah,.ai,.aj{stroke-width:0px;}.p,.v,.w,.z,.ab{stroke:#5b4034;}.q{fill:#9b6f59;stroke-width:4px;}.q,.af{stroke:#825d4a;}.r,.s,.t,.u,.ae{stroke-width:.5px;}.r,.w{fill:#fff;}.r,.ad,.ae{stroke:#000;}.s{fill:#ff9492;}.s,.t,.x{stroke:#7f5d2a;}.t{fill:#ff9497;}.u{fill:#dbd6c1;stroke:#c1bca7;}.v{fill:#fffefd;}.x{fill:#fed266;}.y{fill:#fbbb71;stroke:#7f5d3f;}.z{fill:#f5f5f5;}.aa{fill:#cd5522;stroke:#f17083;}.ab{fill:#8e6652;}.ac{fill:#5b4134;stroke:#271b16;}.ad{fill:#3d465a;}.af{fill:#deb985;stroke-width:3px;}.ai{fill:#c1bca7;}.aj{fill:#fde7c3;}</style></defs><rect id="b" class="aj" width="1920.54" height="605.04"/><rect id="c" class="ag" x="0" y="605.04" width="1919" height="481"/><rect id="d" class="ac" x="-.46" y="982" width="1919.96" height="103.54"/><rect class="p" x="0" y="611.04" width="109" height="47"/><rect class="z" x="109" y="614.04" width="109" height="47"/><rect class="p" x="218" y="611.04" width="109" height="47"/><rect class="w" x="327" y="611.04" width="109" height="47"/><rect class="w" x="0" y="658.04" width="109" height="61"/><rect class="p" x="436" y="614.04" width="109" height="47"/><rect class="w" x="545" y="611.04" width="109" height="47"/><rect class="p" x="654" y="611.04" width="109" height="47"/><rect class="w" x="763" y="614.04" width="109" height="47"/><rect class="p" x="872" y="611.04" width="109" height="47"/><rect class="w" x="981" y="620.04" width="109" height="47"/><rect class="p" x="1090" y="611.04" width="109" height="47"/><rect class="w" x="1199" y="612.04" width="109" height="47"/><rect class="p" x="1308" y="612.04" width="109" height="47"/><rect class="w" x="1417" y="612.04" width="109" height="47"/><rect class="p" x="1526" y="620.04" width="109" height="47"/><rect class="w" x="1635" y="612.04" width="109" height="47"/><rect class="p" x="1744" y="612.04" width="109" height="47"/><rect class="v" x="1853" y="612.04" width="66" height="47"/><rect class="p" x="109" y="658.04" width="109" height="61"/><rect class="w" x="218" y="658.04" width="109" height="61"/><rect class="p" x="0" y="710.04" width="109" height="61"/><rect class="p" x="327" y="658.04" width="109" height="61"/><rect class="w" x="436" y="658.04" width="109" height="61"/><rect class="p" x="545" y="658.04" width="109" height="61"/><rect class="w" x="654" y="658.04" width="109" height="61"/><rect class="p" x="763" y="658.04" width="109" height="61"/><rect class="w" x="872" y="658.04" width="109" height="61"/><rect class="p" x="981" y="658.04" width="109" height="61"/><rect class="w" x="1090" y="658.04" width="109" height="61"/><rect class="p" x="1199" y="658.04" width="109" height="61"/><rect class="w" x="1308" y="658.04" width="109" height="61"/><rect class="p" x="1417" y="658.04" width="109" height="61"/><rect class="w" x="1526" y="658.04" width="109" height="61"/><rect class="p" x="1635" y="658.04" width="109" height="61"/><rect class="w" x="1744" y="658.04" width="109" height="61"/><rect class="p" x="1853" y="658.04" width="66" height="61"/><rect class="w" x="1853" y="710.04" width="66" height="61"/><rect class="w" x="109" y="710.04" width="109" height="61"/><rect class="p" x="218" y="710.04" width="109" height="61"/><rect class="w" x="327" y="710.04" width="109" height="61"/><rect class="p" x="436" y="710.04" width="109" height="61"/><rect class="w" x="545" y="710.04" width="109" height="61"/><rect class="p" x="654" y="710.04" width="109" height="61"/><rect id="e" class="q" x=".5" y="591.54" width="1919" height="36"/><rect class="w" x="763" y="710.04" width="109" height="61"/><rect class="p" x="872" y="710.04" width="109" height="61"/><rect class="w" x="981" y="710.04" width="109" height="61"/><rect class="p" x="1090" y="710.04" width="109" height="61"/><rect class="w" x="1199" y="710.04" width="109" height="61"/><rect class="p" x="1308" y="710.04" width="109" height="61"/><rect class="w" x="1417" y="710.04" width="109" height="61"/><rect class="p" x="1526" y="710.04" width="109" height="61"/><rect class="w" x="1635" y="710.04" width="109" height="61"/><rect class="p" x="1744" y="710.04" width="109" height="61"/><rect id="f" class="ab" x="-.46" y="466" width="1920" height="516"/><g id="g"><rect class="af" x="363.41" y="791.86" width="933.59" height="94.57"/><polygon class="af" points="360.38 943.89 116.04 171.06 195.43 140.73 439.77 913.57 360.38 943.89"/><polygon class="af" points="359.11 944.49 328.31 847.07 363.28 833.72 394.08 931.13 359.11 944.49"/><polygon class="af" points="436.96 914.4 192.47 141.06 204.82 136.35 449.31 909.68 436.96 914.4"/><rect class="af" x="1199.26" y="833.72" width="97.74" height="108.35" transform="translate(2496.26 1775.78) rotate(180)"/><rect class="af" x="363.41" y="833.72" width="915.26" height="108.52"/><polygon class="af" points="329.86 846.48 116.33 171.07 149.74 158.3 363.28 833.72 329.86 846.48"/><polygon class="af" points="215.18 156.24 123.16 191.38 116.6 170.65 208.62 135.5 215.18 156.24"/></g><g id="h"><path class="x" d="m1086.65,667.81h-483.07c19.94-12.3,34.25-24.47,42.78-32.29,21.68-19.88,39.55-42.43,99.82-141.28,11.81-19.37,17.71-29.05,23.17-38.35,28.73-48.92,80.32-128.42,180.04-264.39-.8,3.3-1.38,6.07-1.78,8.07-1.61,8.14-2.36,14.65-2.85,19.09,0,0-.41,3.67-.71,7.15-13.92,161.62,33.87,280.54,33.87,280.54,29.06,72.3,70.98,125.02,108.73,161.46Z"/><path class="aa" d="m1065.26,704.14h-443.85c-2.38-1.46-5.76-3.96-8.91-8.07-4.76-6.2-6.47-12.72-7.13-16.15h0c0-13.32,9.63-24.22,21.39-24.22,5.4-1.35,13.46-2.75,23.17-2.02,5.66.43,9.16,1.38,12.48,2.02,11.8,2.28,35.65-2.02,35.65-2.02,10.14-2.07,25.32-3.51,46.35,0,1.49,1.21,3.91,2.9,7.13,4.04,6.47,2.28,11.03.47,24.96-2.02,7.66-1.37,11.5-2.06,14.26-2.02,7.34.1,6.63,1.62,19.61,4.04,7.83,1.46,16.63,1.88,19.61,2.02.69.03,3.31.15,3.31.16,0,0-3.31-.08-3.31-.16,0-.16,14.43-3.08,26.74,0,1.55.39,5.38,1.45,10.14.37,2.93-.66,4.75-1.81,5.9-2.39,8.43-4.24,15.44,4.56,26.74,4.04,9.69-.45,9.51-7.15,19.61-8.07,9.91-.91,12.62,5.31,23.17,8.07,15.88,4.16,18.6-7.6,41-8.07,17.07-.36,35.65,6.05,35.65,6.05,0,0,12.55-6.18,24.96-6.05,13.95.14,21.4,8.18,32.09,8.07.8,0,2.58-.07,4.41,1.06,3.97,2.45,5.11,8.66,5.72,11.57.37,1.78.57,3.63.57,5.54h0c0,13.32-9.63,24.22-21.39,24.22Z"/><rect class="y" x="582.19" y="667.81" width="525.85" height="62.57" rx="12" ry="12"/></g><path class="ah" d="m1005.94,562.46c17.75-4.63,32.61-17.91,40.02-34.59,7.3-16.44,6.87-35.97-3.39-51.1-5.58-8.24-13.64-14.48-22.97-17.91-.91-.33-1.3,1.12-.4,1.45,16.5,6.05,28.04,21.35,30,38.74,1.97,17.47-5.43,35.07-17.86,47.22-7.18,7.03-16.06,12.21-25.8,14.75-.93.24-.54,1.69.4,1.45h0Z"/><path class="ah" d="m892.51,731.1c4.21,3.49,3.71,10.06,3.43,14.97-.4,6.89-.94,13.78-1.63,20.64-1.39,13.89-3.37,27.71-5.94,41.43-1.43,7.62-3.04,15.21-4.83,22.76-.22.94,1.22,1.34,1.45.4,6.58-27.82,10.74-56.21,12.42-84.75.32-5.43.84-12.64-3.84-16.51-.74-.61-1.8.44-1.06,1.06h0Z"/><ellipse class="ae" cx="775.58" cy="559.26" rx="32.96" ry="32.74"/><ellipse class="ae" cx="931.62" cy="558.26" rx="33.92" ry="31.74"/><ellipse class="t" cx="931.58" cy="607.82" rx="13.81" ry="13.12"/><ellipse class="r" cx="792.85" cy="561.56" rx="10.37" ry="9.37"/><ellipse class="r" cx="917.91" cy="558.5" rx="10.37" ry="9.37"/><path class="r" d="m946.22,553.11c-3.7,0-6.69-3.01-6.69-6.72s3-6.72,6.69-6.72,6.69,3.01,6.69,6.72-3,6.72-6.69,6.72"/><path class="ah" d="m794.18,730.45c-8.84,25.06-12.84,51.8-11.97,78.35.24,7.45.88,14.87,1.89,22.25.13.95,1.58.55,1.45-.4-3.57-26.19-2.25-53.08,3.88-78.79,1.7-7.11,3.77-14.12,6.2-21.01.32-.91-1.13-1.3-1.45-.4h0Z"/><ellipse class="t" cx="771.59" cy="608.27" rx="13.81" ry="13.12"/><path class="r" d="m763.21,553.92c-3.7,0-6.69-3.01-6.69-6.72s3-6.72,6.69-6.72,6.69,3.01,6.69,6.72-3,6.72-6.69,6.72"/><ellipse class="t" cx="771.56" cy="607.59" rx="13.81" ry="13.12"/><path class="ah" d="m671.64,462.63c-15.08,9.13-23.68,26-23.46,43.49.23,18.57,10.23,35.8,25.43,46.22,8.59,5.89,18.67,9.48,29.07,10.16.96.06.96-1.44,0-1.5-18.14-1.18-35.13-11.66-44.74-27.03-9.11-14.57-11.02-33.31-3.96-49.12,3.88-8.68,10.28-16,18.41-20.93.82-.5.07-1.8-.76-1.3h0Z"/><g id="i"><path class="u" d="m937.23,502.61c-2.18,2.22-5.8,5.39-10.76,7.66-1.65.76-3.19,1.29-4.55,1.67.28-2.11.22-3.78.1-4.9-.48-4.85-2.63-7.95-3.6-9.3-.39-.55-.73-.95-.88-1.14-1.65-1.96-3.39-3.22-4.67-3.99,4.9-3.23,9.8-6.45,14.7-9.68.32,4.16,1.51,10.47,5.91,15.93,1.21,1.5,2.5,2.73,3.76,3.74Z"/><path class="u" d="m938.19,465.85c1.69,1.85,5.1,6.94,3.95,8.82-.05.08-.15.25-.29.4-.7.77-2.05.97-7.85,4.19-1.96,1.09-2.95,1.64-3.7,2.18-1.52,1.09-2.54,2.11-2.83,1.86-.13-.11-.08-.44.03-.77.12-.37.29-.74.31-.73.03,0-.34,1.5-.34,1.5.13-1.07.32-1.5.33-1.5.08.02-.42,1.6-.38,1.61.01,0,.06-.11.05-.11,0,0-.05.08-.2.38,0,0,0,0,0,0-.22.24-.46.33-.56.37t-2.34,1.54c-3.7,2.44-7.41,4.88-11.11,7.32-.46.31-1.52,1-2.1,1.38-.2.13-1.06.7-1.26.83.04-.03.09-.06.13-.08-1.48,1.54-2.07,2.14-2.08,2.13,0,0,.59-.62.57-.64-.02-.03-1.73,1.91-3.64,3.42-1.83,1.45-4.17,3.33-5.9,3.12-3.07-.39-4.71-7.46-4.41-13.08.47-8.91,6.04-18.76,14.49-24.25,10.61-6.88,23.87-5.63,29.12.1Z"/><path class="ai" d="m928.38,482.37c.73-1.17,1.77-2.08,2.78-3.01s2.01-1.8,3.17-2.5,2.46-1.19,3.66-1.86,2.54-1.48,3.94-1.13c.94.23,1.34-1.21.4-1.45-1.46-.36-2.88.12-4.18.78-.7.36-1.36.77-2.06,1.12-.76.38-1.56.69-2.29,1.11-1.32.75-2.48,1.75-3.59,2.77s-2.29,2.08-3.11,3.4c-.51.82.79,1.58,1.3.76h0Z"/><path class="ai" d="m927.83,483.94c2.69-1.89,5.5-3.61,8.41-5.14,1.37-.72,2.83-1.25,4.2-1.98,1.19-.63,2.4-1.54,2.38-3.02-.02-.96-1.52-.97-1.5,0,.02,1.26-2.02,1.94-2.95,2.35-1.3.58-2.57,1.18-3.82,1.86-2.58,1.4-5.07,2.96-7.47,4.64-.78.55-.04,1.85.76,1.3h0Z"/><path class="ai" d="m913.73,491.81c-1.91-.17-3.61,0-5.4.71-1.58.62-3.05,1.48-4.38,2.53-.65.51-1.28,1.06-1.77,1.72-.24.33-.42.71-.71,1-.25.26-.55.47-.82.71-1.25,1.12-2.17,2.53-2.82,4.07-.37.89,1.08,1.28,1.45.4.58-1.38,1.49-2.6,2.62-3.57.52-.45.93-.87,1.3-1.45.43-.65,1-1.17,1.6-1.66,1.18-.95,2.52-1.76,3.93-2.31,1.67-.66,3.22-.82,5-.66.96.09.96-1.41,0-1.5h0Z"/><path class="ai" d="m898.66,503.62c1.62-.14,3.02-.9,4.42-1.67s2.74-1.58,3.97-2.6c2.34-1.93,4.29-4.34,6.85-6.01.81-.52.06-1.82-.76-1.3-2.4,1.56-4.28,3.71-6.41,5.6-1.11.98-2.29,1.82-3.58,2.55-1.38.78-2.88,1.78-4.49,1.92-.95.08-.96,1.59,0,1.5h0Z"/></g><g id="j"><path class="u" d="m917.35,343.53c-2.18,2.22-5.8,5.39-10.76,7.66-1.65.76-3.19,1.29-4.55,1.67.28-2.11.22-3.78.1-4.9-.48-4.85-2.63-7.95-3.6-9.3-.39-.55-.73-.95-.88-1.14-1.65-1.96-3.39-3.22-4.67-3.99,4.9-3.23,9.8-6.45,14.7-9.68.32,4.16,1.51,10.47,5.91,15.93,1.21,1.5,2.5,2.73,3.76,3.74Z"/><path class="u" d="m918.31,306.78c1.69,1.85,5.1,6.94,3.95,8.82-.05.08-.15.25-.29.4-.7.77-2.05.97-7.85,4.19-1.96,1.09-2.95,1.64-3.7,2.18-1.52,1.09-2.54,2.11-2.83,1.86-.13-.11-.08-.44.03-.77.12-.37.29-.74.31-.73.03,0-.34,1.5-.34,1.5.13-1.07.32-1.5.33-1.5.08.02-.42,1.6-.38,1.61.01,0,.06-.11.05-.11,0,0-.05.08-.2.38,0,0,0,0,0,0-.22.24-.46.33-.56.37t-2.34,1.54c-3.7,2.44-7.41,4.88-11.11,7.32-.46.31-1.52,1-2.1,1.38-.2.13-1.06.7-1.26.83.04-.03.09-.06.13-.08-1.48,1.54-2.07,2.14-2.08,2.13,0,0,.59-.62.57-.64-.02-.03-1.73,1.91-3.64,3.42-1.83,1.45-4.17,3.33-5.9,3.12-3.07-.39-4.71-7.46-4.41-13.08.47-8.91,6.04-18.76,14.49-24.25,10.61-6.88,23.87-5.63,29.12.1Z"/><path class="ai" d="m908.49,323.29c.73-1.17,1.77-2.08,2.78-3.01s2.01-1.8,3.17-2.5,2.46-1.19,3.66-1.86,2.54-1.48,3.94-1.13c.94.23,1.34-1.21.4-1.45-1.46-.36-2.88.12-4.18.78-.7.36-1.36.77-2.06,1.12-.76.38-1.56.69-2.29,1.11-1.32.75-2.48,1.75-3.59,2.77s-2.29,2.08-3.11,3.4c-.51.82.79,1.58,1.3.76h0Z"/><path class="ai" d="m907.95,324.87c2.69-1.89,5.5-3.61,8.41-5.14,1.37-.72,2.83-1.25,4.2-1.98,1.19-.63,2.4-1.54,2.38-3.02-.02-.96-1.52-.97-1.5,0,.02,1.26-2.02,1.94-2.95,2.35-1.3.58-2.57,1.18-3.82,1.86-2.58,1.4-5.07,2.96-7.47,4.64-.78.55-.04,1.85.76,1.3h0Z"/><path class="ai" d="m893.84,332.73c-1.91-.17-3.61,0-5.4.71-1.58.62-3.05,1.48-4.38,2.53-.65.51-1.28,1.06-1.77,1.72-.24.33-.42.71-.71,1-.25.26-.55.47-.82.71-1.25,1.12-2.17,2.53-2.82,4.07-.37.89,1.08,1.28,1.45.4.58-1.38,1.49-2.6,2.62-3.57.52-.45.93-.87,1.3-1.45.43-.65,1-1.17,1.6-1.66,1.18-.95,2.52-1.76,3.93-2.31,1.67-.66,3.22-.82,5-.66.96.09.96-1.41,0-1.5h0Z"/></g><path class="s" d="m900.74,611.09c3.17,9.11-19.44,41.7-45.37,40.38-24.12-1.23-44.08-31.42-40.84-40.38,2.01-5.54,11.99-.48,43.1-.38,31.31.1,41.24-4.97,43.1.38Z"/><g id="k"><path class="ad" d="m897.24,393.05c-5,6.72-3.26,16.48,3.89,21.8,7.15,5.32,17,4.18,22-2.54,5-6.72,3.26-16.48-3.89-21.8-7.15-5.32-17-4.18-22,2.54Z"/><ellipse id="l" class="ad" cx="924.05" cy="384.04" rx="15.17" ry="16.13" transform="translate(64.45 896.33) rotate(-53.36)"/></g><g id="m"><path class="ad" d="m783.69,467.93c-5.75,7.73-4.35,18.5,3.12,24.06,7.47,5.56,18.19,3.8,23.94-3.93,5.75-7.73,4.35-18.5-3.12-24.06-7.47-5.56-18.19-3.8-23.94,3.93Z"/><ellipse id="n" class="ad" cx="813.16" cy="456.56" rx="17.44" ry="16.86" transform="translate(-38.45 836.6) rotate(-53.36)"/></g><path class="o" d="m688.01,138.7c-5.44-3.66-10.2-7.74-14.27-12.23-4.07-4.49-7.49-9.31-10.26-14.47-2.77-5.15-4.93-10.61-6.47-16.37-1.54-5.76-2.48-11.74-2.82-17.94,1.2-1.81,2.7-3.34,4.48-4.61,1.78-1.27,3.71-2.32,5.78-3.15,2.07-.83,4.22-1.44,6.43-1.83,2.22-.39,4.34-.59,6.36-.59,3.32,0,6.23.32,8.71.95,2.48.64,4.76,1.51,6.83,2.64.34.88.82,2.23,1.45,4.06.63,1.83,1.26,3.78,1.92,5.86.65,2.08,1.28,4.13,1.88,6.15.6,2.03,1.07,3.7,1.41,5.02l-3.18,14.21c-.1.54-.23,1.15-.4,1.83-.17.68-.25,1.29-.25,1.83,0,.73.19,1.33.58,1.79.38.46,1.06.7,2.02.7.29-.93.69-2.43,1.19-4.5.51-2.07,1.06-4.44,1.66-7.1.6-2.66,1.23-5.49,1.88-8.5s1.28-5.9,1.88-8.68c.6-2.78,1.17-5.33,1.7-7.65.53-2.32.96-4.16,1.3-5.53,1.88-.93,4.12-1.7,6.72-2.31,2.6-.61,5.42-.92,8.46-.92,3.37,0,6.46.43,9.25,1.28,2.79.85,5.18,2.11,7.15,3.77,1.98,1.66,3.5,3.72,4.59,6.19,1.08,2.47,1.63,5.31,1.63,8.53,0,5.13-.72,9.99-2.17,14.58-1.45,4.59-3.32,8.86-5.64,12.82s-4.9,7.59-7.77,10.91c-2.87,3.32-5.7,6.25-8.49,8.79v24.17c-2.12,1.32-4.1,2.38-5.93,3.19-1.83.81-3.6,1.43-5.31,1.87-1.71.44-3.35.73-4.91.88-1.57.15-3.12.22-4.66.22-3.18,0-6.08-.29-8.71-.88-2.63-.59-4.88-1.5-6.76-2.75s-3.34-2.82-4.37-4.72c-1.04-1.9-1.55-4.17-1.55-6.81v-12.89c.29.29.72.7,1.3,1.21s1.18,1.01,1.81,1.5c.63.49,1.26.9,1.92,1.25.65.34,1.19.51,1.63.51.58,0,1.06-.18,1.45-.55.39-.37.58-.94.58-1.72Z"/><path class="o" d="m793.37,165.58c-4.05,0-8.05-.43-12-1.28-3.95-.85-7.69-2.16-11.2-3.92-3.52-1.76-6.76-3.98-9.72-6.67-2.96-2.68-5.53-5.86-7.7-9.52s-3.85-7.84-5.06-12.52c-1.2-4.69-1.81-9.91-1.81-15.67,0-8.54,1.3-15.93,3.9-22.16s6.07-11.38,10.41-15.45c4.34-4.08,9.33-7.09,15-9.05,5.66-1.95,11.57-2.93,17.74-2.93,7.32,0,13.9,1.21,19.73,3.63,5.83,2.42,10.77,5.8,14.81,10.14,4.05,4.35,7.15,9.57,9.32,15.67,2.17,6.1,3.25,12.82,3.25,20.14,0,8.69-1.22,16.16-3.65,22.41-2.43,6.25-5.76,11.39-9.97,15.42-4.22,4.03-9.15,6.99-14.81,8.9-5.66,1.9-11.74,2.86-18.25,2.86Zm2.89-52.88c0-2.34-.05-4.36-.14-6.04-.1-1.68-.27-3.09-.51-4.21-.24-1.03-.57-1.71-.98-2.05-.41-.34-.88-.51-1.41-.51s-.94.09-1.23.26c-.29.17-.53.33-.72.48.05.88.12,1.7.22,2.45.1.76.18,1.61.25,2.56s.13,2.05.18,3.3c.05,1.25.07,2.77.07,4.58v4.76c0,1.81-.02,3.33-.07,4.58-.05,1.25-.11,2.34-.18,3.3s-.16,1.81-.25,2.56c-.1.76-.17,1.57-.22,2.45.19.15.43.31.72.48.29.17.7.26,1.23.26s1-.17,1.41-.51c.41-.34.73-1.03.98-2.05.24-1.12.41-2.53.51-4.21.1-1.68.14-3.7.14-6.04v-6.37Z"/><path class="o" d="m906.68,67.44c2.7,0,5.34.38,7.91,1.14,2.58.76,4.87,1.89,6.87,3.41,2,1.51,3.6,3.42,4.81,5.71,1.2,2.3,1.81,4.98,1.81,8.06v40.72c0,6.3-.99,11.87-2.96,16.7-1.98,4.83-4.78,8.89-8.42,12.16-3.64,3.27-8.02,5.74-13.15,7.4s-10.85,2.49-17.16,2.49c-6.7,0-12.67-.83-17.92-2.49-5.25-1.66-9.7-4.11-13.33-7.36-3.64-3.25-6.41-7.29-8.31-12.12-1.9-4.83-2.85-10.42-2.85-16.77v-52.22c2.31-1.85,5.15-3.47,8.53-4.83,3.37-1.37,7.11-2.05,11.2-2.05,3.04,0,5.79.4,8.27,1.21,2.48.81,4.63,2.04,6.43,3.7,1.81,1.66,3.2,3.76,4.19,6.3.99,2.54,1.48,5.54,1.48,9.01v42.7c.48.39,1.08.59,1.81.59.67,0,1.18-.17,1.52-.51.34-.34.51-1.05.51-2.12v-40.72c0-1.61-.04-3.03-.11-4.25-.07-1.22-.19-2.32-.36-3.3-.17-.98-.4-1.88-.69-2.71-.29-.83-.63-1.66-1.01-2.49,2.65-2.25,5.67-4.03,9.07-5.35s7.36-1.98,11.89-1.98Z"/><path class="o" d="m965.22,77.54c2.17-3.17,5.13-5.66,8.89-7.47,3.76-1.81,7.95-2.71,12.57-2.71,3.37,0,6.43.33,9.18.99s5.09,1.65,7.05,2.97,3.46,2.94,4.52,4.87c1.06,1.93,1.59,4.16,1.59,6.7-.24,2.88-.43,5.97-.58,9.27s-.28,6.56-.4,9.78c-.12,3.22-.21,6.3-.25,9.23-.05,2.93-.07,5.45-.07,7.54,0,1.32.13,2.5.4,3.55.26,1.05.95,1.57,2.06,1.57.38,0,.87-.07,1.45-.22-.05-.68-.07-1.42-.07-2.2v-2.56c0-3.12.05-6.74.14-10.84.1-4.1.25-8.25.47-12.45.22-4.2.48-8.24.79-12.12.31-3.88.66-7.14,1.05-9.78,2.07-1.27,4.54-2.27,7.41-3,2.87-.73,5.82-1.1,8.85-1.1,2.36,0,4.72.2,7.08.59,2.36.39,4.5,1.04,6.43,1.94,1.93.9,3.52,2.09,4.77,3.55,1.25,1.46,1.95,3.27,2.1,5.42-.14,2.64-.41,5.63-.79,8.97-.39,3.35-.83,6.85-1.34,10.51s-1.05,7.43-1.62,11.32-1.13,7.68-1.66,11.39c.43.2.89.29,1.37.29.67,0,1.28-.23,1.81-.7.53-.46.99-1.65,1.37-3.55.82-4.39,1.54-8.76,2.17-13.11.62-4.35,1.17-8.54,1.62-12.6.46-4.05.83-7.91,1.12-11.57s.51-7.03.65-10.11c1.78-1.22,4.11-2.28,6.97-3.19,2.87-.9,6.66-1.35,11.38-1.35,3.13,0,5.97.44,8.53,1.32,2.55.88,4.73,2.14,6.54,3.77,1.81,1.64,3.2,3.61,4.19,5.93.99,2.32,1.48,4.9,1.48,7.73,0,.93-.14,2.41-.43,4.43-.29,2.03-.67,4.42-1.16,7.18-.48,2.76-1.06,5.77-1.73,9.05-.68,3.27-1.4,6.64-2.17,10.11-.77,3.47-1.57,6.91-2.38,10.33-.82,3.42-1.64,6.62-2.46,9.59-.82,2.98-1.6,5.67-2.35,8.06-.75,2.39-1.43,4.3-2.06,5.71-1.16,2.59-2.58,4.76-4.26,6.52-1.69,1.76-3.65,3.19-5.89,4.28s-4.75,1.89-7.52,2.38c-2.77.49-5.82.73-9.14.73-1.45,0-3-.11-4.66-.33s-3.3-.51-4.91-.88-3.13-.79-4.55-1.28c-1.42-.49-2.61-1-3.58-1.54-.53-.83-1.07-1.83-1.63-3s-1.08-2.4-1.59-3.7c-.51-1.29-.96-2.56-1.37-3.81s-.71-2.35-.9-3.33c-1.11.05-1.86.34-2.24.88-.39.54-.58,1.27-.58,2.2,0,1.03.22,2.3.65,3.81.43,1.51.96,3.13,1.59,4.83-2.75,2.25-5.89,3.83-9.43,4.76s-7.6,1.39-12.18,1.39c-1.88,0-3.83-.07-5.85-.22s-3.99-.43-5.89-.84c-1.9-.41-3.67-.96-5.31-1.65-1.64-.68-3.04-1.59-4.19-2.71-1.78-3.81-3.69-8.37-5.71-13.7-2.02-5.32-4-11.4-5.93-18.24-1.93-6.84-3.72-14.39-5.38-22.67s-3-17.25-4.01-26.92Z"/><path class="o" d="m1141.84,165.58c-4.05,0-8.05-.43-12-1.28-3.95-.85-7.68-2.16-11.2-3.92-3.52-1.76-6.76-3.98-9.72-6.67-2.96-2.68-5.53-5.86-7.7-9.52s-3.85-7.84-5.06-12.52c-1.21-4.69-1.81-9.91-1.81-15.67,0-8.54,1.3-15.93,3.9-22.16s6.07-11.38,10.41-15.45c4.34-4.08,9.33-7.09,15-9.05,5.66-1.95,11.57-2.93,17.74-2.93,7.32,0,13.9,1.21,19.73,3.63,5.83,2.42,10.77,5.8,14.81,10.14,4.05,4.35,7.15,9.57,9.32,15.67,2.17,6.1,3.25,12.82,3.25,20.14,0,8.69-1.22,16.16-3.65,22.41-2.43,6.25-5.76,11.39-9.97,15.42-4.22,4.03-9.15,6.99-14.81,8.9-5.66,1.9-11.74,2.86-18.25,2.86Zm2.89-52.88c0-2.34-.05-4.36-.14-6.04s-.26-3.09-.51-4.21c-.24-1.03-.57-1.71-.98-2.05-.41-.34-.88-.51-1.41-.51s-.94.09-1.23.26c-.29.17-.53.33-.72.48.05.88.12,1.7.22,2.45.1.76.18,1.61.25,2.56s.13,2.05.18,3.3.07,2.77.07,4.58v4.76c0,1.81-.02,3.33-.07,4.58s-.11,2.34-.18,3.3-.16,1.81-.25,2.56c-.1.76-.17,1.57-.22,2.45.19.15.43.31.72.48.29.17.7.26,1.23.26s1-.17,1.41-.51c.41-.34.73-1.03.98-2.05.24-1.12.41-2.53.51-4.21s.14-3.7.14-6.04v-6.37Z"/><path class="o" d="m1236.58,73.81c1.25-1.07,2.66-2.01,4.23-2.82s3.22-1.48,4.95-2.01c1.73-.54,3.52-.94,5.35-1.21,1.83-.27,3.61-.4,5.35-.4,2.7,0,5.34.26,7.91.77,2.58.51,4.87,1.38,6.87,2.6,2,1.22,3.6,2.86,4.81,4.91,1.2,2.05,1.81,4.61,1.81,7.69v69.36c0,2.2-.54,4.05-1.63,5.57-1.08,1.51-2.53,2.72-4.34,3.63-1.81.9-3.88,1.55-6.21,1.94-2.34.39-4.76.59-7.26.59-1.54,0-3.1-.09-4.66-.26-1.57-.17-3.05-.43-4.44-.77s-2.7-.73-3.9-1.17-2.24-.93-3.11-1.46c-2.07-2.68-3.94-5.27-5.6-7.76s-3.19-4.88-4.59-7.18c-1.4-2.29-2.7-4.48-3.9-6.56-1.2-2.07-2.36-4.04-3.47-5.9-.82.1-1.37.35-1.66.77-.29.42-.43.92-.43,1.5,0,.73.19,1.45.58,2.16.39.71.89,1.57,1.52,2.6l9.03,14.79v3.88c-.72.49-1.64,1.05-2.75,1.68-1.11.64-2.47,1.23-4.08,1.79-1.61.56-3.48,1.04-5.6,1.43-2.12.39-4.55.59-7.3.59-3.13,0-6.02-.32-8.67-.95-2.65-.63-4.94-1.57-6.87-2.82-1.93-1.25-3.42-2.79-4.48-4.65-1.06-1.85-1.59-4-1.59-6.45v-73.39c0-1.22.53-2.38,1.59-3.48,1.06-1.1,2.5-2.04,4.34-2.82,1.83-.78,3.97-1.4,6.43-1.87,2.46-.46,5.08-.7,7.88-.7,3.18,0,6.12.39,8.82,1.17,2.7.78,4.75,1.73,6.14,2.86,1.06,1.37,2.22,2.99,3.47,4.87,1.25,1.88,2.58,3.96,3.97,6.23s2.85,4.69,4.37,7.25,3.07,5.19,4.66,7.87c.48,0,.95-.16,1.41-.48.46-.32.69-.84.69-1.57,0-.54-.19-1.18-.58-1.94-.39-.76-.79-1.5-1.23-2.23l-7.8-13.62v-4.03Z"/></svg>