<?xml version="1.0" encoding="UTF-8"?><svg id="a" xmlns="http://www.w3.org/2000/svg" width="554" height="209.63" viewBox="0 0 554 209.63"><defs><style>.b{fill:#c10000;stroke:#710000;stroke-miterlimit:10;stroke-width:2px;}</style></defs><path class="b" d="m19.56,63.28c22.98,42.79,45.97,85.59,68.95,128.38L169.91,63.28c7.8-12.84,4.13-28.31-8.39-37.16-11.05-7.81-27.19-9.19-40.56-3.38-3.61,1.44-7.92,3.57-12.17,6.76-11.22,8.41-14.92,18.83-16.22,23.65-.88-3.01-6.89-22.32-28.39-30.41-7.8-2.93-15.15-3.46-20.28-3.38-1.84-.32-4.75-.61-8.11,0,0,0-6.39,1.16-12.17,6.76-6.67,6.46-8.79,20.63-4.06,37.16Z"/><path class="b" d="m185.22,63.73c22.98,42.79,45.97,85.59,68.95,128.38l81.4-128.38c7.8-12.84,4.13-28.31-8.39-37.16-11.05-7.81-27.19-9.19-40.56-3.38-3.61,1.44-7.92,3.57-12.17,6.76-11.22,8.41-14.92,18.83-16.22,23.65-.88-3.01-6.89-22.32-28.39-30.41-7.8-2.93-15.15-3.46-20.28-3.38-1.84-.32-4.75-.61-8.11,0,0,0-6.39,1.16-12.17,6.76-6.67,6.46-8.79,20.63-4.06,37.16Z"/><path class="b" d="m351.22,63.73c22.98,42.79,45.97,85.59,68.95,128.38l81.4-128.38c7.8-12.84,4.13-28.31-8.39-37.16-11.05-7.81-27.19-9.19-40.56-3.38-3.61,1.44-7.92,3.57-12.17,6.76-11.22,8.41-14.92,18.83-16.22,23.65-.88-3.01-6.89-22.32-28.39-30.41-7.8-2.93-15.15-3.46-20.28-3.38-1.84-.32-4.75-.61-8.11,0,0,0-6.39,1.16-12.17,6.76-6.67,6.46-8.79,20.63-4.06,37.16Z"/></svg>