<?xml version="1.0" encoding="UTF-8"?><svg id="a" xmlns="http://www.w3.org/2000/svg" width="104" height="104" viewBox="0 0 104 104"><defs><style>.c,.d,.e,.f,.g,.h{stroke-width:0px;}.d{fill:#8c373e;}.e{fill:#d8a483;}.f{fill:#b95a51;}.g{fill:#8e2e2c;}.h{fill:#6a101a;}</style></defs><g id="b"><circle class="f" cx="52" cy="52" r="51.5"/><path class="h" d="m52,1c28.12,0,51,22.88,51,51s-22.88,51-51,51S1,80.12,1,52,23.88,1,52,1m0-1C23.28,0,0,23.28,0,52s23.28,52,52,52,52-23.28,52-52S80.72,0,52,0h0Z"/><circle class="d" cx="37.5" cy="36.5" r="4"/><path class="c" d="m37.5,33c1.93,0,3.5,1.57,3.5,3.5s-1.57,3.5-3.5,3.5-3.5-1.57-3.5-3.5,1.57-3.5,3.5-3.5m0-1c-2.49,0-4.5,2.01-4.5,4.5s2.01,4.5,4.5,4.5,4.5-2.01,4.5-4.5-2.01-4.5-4.5-4.5h0Z"/><circle class="d" cx="26.5" cy="22.5" r="3"/><path class="c" d="m26.5,20c1.38,0,2.5,1.12,2.5,2.5s-1.12,2.5-2.5,2.5-2.5-1.12-2.5-2.5,1.12-2.5,2.5-2.5m0-1c-1.93,0-3.5,1.57-3.5,3.5s1.57,3.5,3.5,3.5,3.5-1.57,3.5-3.5-1.57-3.5-3.5-3.5h0Z"/><circle class="d" cx="86" cy="46" r="2.5"/><path class="c" d="m86,44c1.1,0,2,.9,2,2s-.9,2-2,2-2-.9-2-2,.9-2,2-2m0-1c-1.66,0-3,1.34-3,3s1.34,3,3,3,3-1.34,3-3-1.34-3-3-3h0Z"/><circle class="d" cx="71" cy="17" r="2.5"/><path class="c" d="m71,15c1.1,0,2,.9,2,2s-.9,2-2,2-2-.9-2-2,.9-2,2-2m0-1c-1.66,0-3,1.34-3,3s1.34,3,3,3,3-1.34,3-3-1.34-3-3-3h0Z"/><circle class="d" cx="42" cy="54" r="3.5"/><path class="c" d="m42,51c1.65,0,3,1.35,3,3s-1.35,3-3,3-3-1.35-3-3,1.35-3,3-3m0-1c-2.21,0-4,1.79-4,4s1.79,4,4,4,4-1.79,4-4-1.79-4-4-4h0Z"/><circle class="e" cx="48" cy="11" r="2.5"/><path class="c" d="m48,9c1.1,0,2,.9,2,2s-.9,2-2,2-2-.9-2-2,.9-2,2-2m0-1c-1.66,0-3,1.34-3,3s1.34,3,3,3,3-1.34,3-3-1.34-3-3-3h0Z"/><circle class="e" cx="70.5" cy="89.5" r="4"/><path class="c" d="m70.5,86c1.93,0,3.5,1.57,3.5,3.5s-1.57,3.5-3.5,3.5-3.5-1.57-3.5-3.5,1.57-3.5,3.5-3.5m0-1c-2.49,0-4.5,2.01-4.5,4.5s2.01,4.5,4.5,4.5,4.5-2.01,4.5-4.5-2.01-4.5-4.5-4.5h0Z"/><circle class="g" cx="82.5" cy="27.5" r="3"/><path class="c" d="m82.5,25c1.38,0,2.5,1.12,2.5,2.5s-1.12,2.5-2.5,2.5-2.5-1.12-2.5-2.5,1.12-2.5,2.5-2.5m0-1c-1.93,0-3.5,1.57-3.5,3.5s1.57,3.5,3.5,3.5,3.5-1.57,3.5-3.5-1.57-3.5-3.5-3.5h0Z"/><circle class="e" cx="64.5" cy="40.5" r="5"/><path class="c" d="m64.5,36c2.48,0,4.5,2.02,4.5,4.5s-2.02,4.5-4.5,4.5-4.5-2.02-4.5-4.5,2.02-4.5,4.5-4.5m0-1c-3.04,0-5.5,2.46-5.5,5.5s2.46,5.5,5.5,5.5,5.5-2.46,5.5-5.5-2.46-5.5-5.5-5.5h0Z"/><circle class="e" cx="16.5" cy="42.5" r="5"/><path class="c" d="m16.5,38c2.48,0,4.5,2.02,4.5,4.5s-2.02,4.5-4.5,4.5-4.5-2.02-4.5-4.5,2.02-4.5,4.5-4.5m0-1c-3.04,0-5.5,2.46-5.5,5.5s2.46,5.5,5.5,5.5,5.5-2.46,5.5-5.5-2.46-5.5-5.5-5.5h0Z"/><circle class="d" cx="90.5" cy="58.5" r="4"/><path class="c" d="m90.5,55c1.93,0,3.5,1.57,3.5,3.5s-1.57,3.5-3.5,3.5-3.5-1.57-3.5-3.5,1.57-3.5,3.5-3.5m0-1c-2.49,0-4.5,2.01-4.5,4.5s2.01,4.5,4.5,4.5,4.5-2.01,4.5-4.5-2.01-4.5-4.5-4.5h0Z"/><circle class="g" cx="51" cy="24" r="2.5"/><path class="c" d="m51,22c1.1,0,2,.9,2,2s-.9,2-2,2-2-.9-2-2,.9-2,2-2m0-1c-1.66,0-3,1.34-3,3s1.34,3,3,3,3-1.34,3-3-1.34-3-3-3h0Z"/><circle class="d" cx="60" cy="57" r="2.5"/><path class="c" d="m60,55c1.1,0,2,.9,2,2s-.9,2-2,2-2-.9-2-2,.9-2,2-2m0-1c-1.66,0-3,1.34-3,3s1.34,3,3,3,3-1.34,3-3-1.34-3-3-3h0Z"/><circle class="d" cx="77" cy="61" r="2.5"/><path class="c" d="m77,59c1.1,0,2,.9,2,2s-.9,2-2,2-2-.9-2-2,.9-2,2-2m0-1c-1.66,0-3,1.34-3,3s1.34,3,3,3,3-1.34,3-3-1.34-3-3-3h0Z"/><circle class="d" cx="18" cy="62" r="3.5"/><path class="c" d="m18,59c1.65,0,3,1.35,3,3s-1.35,3-3,3-3-1.35-3-3,1.35-3,3-3m0-1c-2.21,0-4,1.79-4,4s1.79,4,4,4,4-1.79,4-4-1.79-4-4-4h0Z"/><circle class="e" cx="41.5" cy="70.5" r="5"/><path class="c" d="m41.5,66c2.48,0,4.5,2.02,4.5,4.5s-2.02,4.5-4.5,4.5-4.5-2.02-4.5-4.5,2.02-4.5,4.5-4.5m0-1c-3.04,0-5.5,2.46-5.5,5.5s2.46,5.5,5.5,5.5,5.5-2.46,5.5-5.5-2.46-5.5-5.5-5.5h0Z"/><circle class="d" cx="59.5" cy="72.5" r="5"/><path class="c" d="m59.5,68c2.48,0,4.5,2.02,4.5,4.5s-2.02,4.5-4.5,4.5-4.5-2.02-4.5-4.5,2.02-4.5,4.5-4.5m0-1c-3.04,0-5.5,2.46-5.5,5.5s2.46,5.5,5.5,5.5,5.5-2.46,5.5-5.5-2.46-5.5-5.5-5.5h0Z"/><circle class="d" cx="82" cy="78" r="2.5"/><path class="c" d="m82,76c1.1,0,2,.9,2,2s-.9,2-2,2-2-.9-2-2,.9-2,2-2m0-1c-1.66,0-3,1.34-3,3s1.34,3,3,3,3-1.34,3-3-1.34-3-3-3h0Z"/><circle class="d" cx="52" cy="92" r="2.5"/><path class="c" d="m52,90c1.1,0,2,.9,2,2s-.9,2-2,2-2-.9-2-2,.9-2,2-2m0-1c-1.66,0-3,1.34-3,3s1.34,3,3,3,3-1.34,3-3-1.34-3-3-3h0Z"/><ellipse class="d" cx="33.5" cy="89.32" rx="3" ry="3.18"/><path class="c" d="m33.5,86.64c1.38,0,2.5,1.2,2.5,2.68s-1.12,2.68-2.5,2.68-2.5-1.2-2.5-2.68,1.12-2.68,2.5-2.68m0-1c-1.93,0-3.5,1.65-3.5,3.68s1.57,3.68,3.5,3.68,3.5-1.65,3.5-3.68-1.57-3.68-3.5-3.68h0Z"/><circle class="d" cx="26" cy="78" r="2.5"/><path class="c" d="m26,76c1.1,0,2,.9,2,2s-.9,2-2,2-2-.9-2-2,.9-2,2-2m0-1c-1.66,0-3,1.34-3,3s1.34,3,3,3,3-1.34,3-3-1.34-3-3-3h0Z"/></g></svg>