<?xml version="1.0" encoding="UTF-8"?><svg id="a" xmlns="http://www.w3.org/2000/svg" width="384" height="140" viewBox="0 0 384 140"><defs><style>.c{fill:#c10000;stroke:#710000;stroke-miterlimit:10;stroke-width:4px;}.d{fill:#9b6f59;}.d,.e,.f,.g{stroke-width:0px;}.e{fill:#dde3e0;}.f{fill:#825d4a;}.g{fill:#f4f6f5;}</style></defs><g id="b"><path class="d" d="m135.94,137.56c-4.18,0-7.59-3.93-7.59-8.75v-36.94c0-4.82,3.41-8.75,7.59-8.75s7.59,3.93,7.59,8.75v36.94c0,4.82-3.41,8.75-7.59,8.75Z"/><path class="f" d="m135.94,85.07c3.25,0,5.9,3.05,5.9,6.8v36.94c0,3.75-2.65,6.8-5.9,6.8s-5.9-3.05-5.9-6.8v-36.94c0-3.75,2.65-6.8,5.9-6.8m0-3.89c-5.1,0-9.27,4.81-9.27,10.69v36.94c0,5.88,4.17,10.69,9.27,10.69s9.27-4.81,9.27-10.69v-36.94c0-5.88-4.17-10.69-9.27-10.69h0Z"/><path class="d" d="m267.46,137.56c-4.18,0-7.59-3.93-7.59-8.75v-36.94c0-4.82,3.41-8.75,7.59-8.75s7.59,3.93,7.59,8.75v36.94c0,4.82-3.41,8.75-7.59,8.75Z"/><path class="f" d="m267.46,85.07c3.25,0,5.9,3.05,5.9,6.8v36.94c0,3.75-2.65,6.8-5.9,6.8s-5.9-3.05-5.9-6.8v-36.94c0-3.75,2.65-6.8,5.9-6.8m0-3.89c-5.1,0-9.27,4.81-9.27,10.69v36.94c0,5.88,4.17,10.69,9.27,10.69s9.27-4.81,9.27-10.69v-36.94c0-5.88-4.17-10.69-9.27-10.69h0Z"/><path class="g" d="m10.32,2.44h363.37c4.66,0,8.43,4.35,8.43,9.72v71.93c0,5.37-3.77,9.72-8.43,9.72H10.32c-4.66,0-8.43-4.35-8.43-9.72V12.16C1.89,6.8,5.66,2.44,10.32,2.44Z"/><path class="e" d="m373.68,4.39c3.72,0,6.74,3.49,6.74,7.78v71.93c0,4.29-3.03,7.78-6.74,7.78H10.32c-3.72,0-6.74-3.49-6.74-7.78V12.16c0-4.29,3.03-7.78,6.74-7.78h363.37m0-3.89H10.32C4.75.5.2,5.75.2,12.16v71.93c0,6.42,4.55,11.66,10.12,11.66h363.37c5.56,0,10.12-5.25,10.12-11.66V12.16c0-6.42-4.55-11.66-10.12-11.66h0Z"/><path class="c" d="m35.7,35.13c0-.75.44-1.49,1.32-2.2.88-.72,2.06-1.37,3.54-1.95,1.48-.58,3.19-1.05,5.11-1.4s3.95-.53,6.06-.53c2.92,0,5.56.44,7.9,1.32,2.34.88,4.33,2.11,5.97,3.71,1.64,1.59,2.9,3.52,3.79,5.78s1.33,4.75,1.33,7.48c0,2.92-.41,5.48-1.22,7.69-.81,2.21-1.96,4.06-3.45,5.54-1.49,1.48-3.29,2.59-5.39,3.33s-4.44,1.11-7.01,1.11c-.65,0-1.32-.05-2.02-.15-.69-.1-1.34-.23-1.96-.38-.61-.15-1.16-.29-1.63-.44-.47-.15-.82-.28-1.04-.39-.06.07-.11.16-.16.27-.05.11-.07.27-.07.48,0,.25.09.49.28.72.19.23.52.43.99.62.47.18,1.11.35,1.91.5.8.15,1.81.27,3.04.36v5.23c-.47.46-1.04.86-1.7,1.21s-1.37.66-2.12.91-1.54.44-2.36.56c-.82.12-1.64.19-2.45.19-1.13,0-2.21-.13-3.26-.39-1.05-.26-1.97-.68-2.77-1.25-.8-.57-1.44-1.3-1.93-2.2-.48-.9-.73-1.98-.73-3.23v-32.46Zm16.57,15.99c.06.05.15.07.28.08.13.01.21.02.25.02.47,0,.81-.17,1.01-.51.2-.34.3-.9.3-1.67v-2.6c0-.8-.08-1.38-.25-1.74s-.48-.55-.93-.55c-.1,0-.22.01-.36.03-.14.02-.25.06-.33.1.02.18.03.38.03.58v6.25Z"/><path class="c" d="m78.86,74.09c-2.13,0-3.81-.65-5.04-1.96-1.23-1.31-1.84-3.35-1.84-6.13v-33.42c1.05-1.02,2.33-1.82,3.85-2.38,1.52-.56,3.08-.84,4.68-.84,1.11,0,2.19.17,3.25.51,1.06.34,2,.86,2.82,1.55.82.7,1.48,1.58,1.97,2.65.49,1.07.74,2.32.74,3.76v18.69c-.49.05-1.02.16-1.59.34-.56.18-1.09.41-1.57.68-.48.27-.89.58-1.22.91s-.49.67-.49,1.01c0,.25.05.45.16.6.11.15.24.28.4.39,1.11-1.07,2.37-1.81,3.79-2.22s3.06-.62,4.92-.62h7.02c.3.59.56,1.21.8,1.86.24.65.44,1.31.61,1.98s.3,1.34.4,2c.1.66.15,1.28.15,1.85,0,.82-.05,1.66-.16,2.51-.11.85-.26,1.67-.46,2.44s-.43,1.49-.71,2.15c-.28.66-.59,1.22-.95,1.67h-21.55Z"/><path class="c" d="m110.15,33.05c.77-.57,1.64-1.09,2.61-1.55.97-.47,1.99-.86,3.07-1.18,1.08-.32,2.19-.56,3.35-.73s2.32-.26,3.48-.26c1.54,0,3.07.16,4.58.48,1.51.32,2.89.82,4.13,1.5,1.24.68,2.31,1.57,3.2,2.65.89,1.08,1.49,2.38,1.81,3.88l6.76,32.23c-.91,1.34-2.18,2.45-3.82,3.31-1.64.87-3.72,1.3-6.22,1.3-1.11,0-2.14-.11-3.11-.34-.97-.23-1.82-.56-2.56-1.01-.74-.44-1.35-1-1.84-1.67s-.8-1.46-.93-2.38l-.65-4.17c.61-.02,1.22-.11,1.82-.26.6-.15,1.15-.33,1.63-.55.48-.22.88-.46,1.19-.73s.46-.55.46-.82c0-.36-.13-.66-.38-.89-.36.3-.77.56-1.25.8-.47.24-.97.44-1.5.6-.52.16-1.05.28-1.57.36s-1.01.12-1.47.12c-.85,0-1.61-.06-2.27-.19-.66-.12-1.24-.28-1.73-.46-.49-.18-.92-.38-1.27-.6s-.65-.43-.89-.63c-.08.12-.15.25-.21.39s-.09.31-.09.5c0,.34.15.66.46.94.31.29.72.54,1.23.75.51.22,1.1.39,1.76.53s1.36.23,2.09.27c.12,1.59.25,2.87.4,3.81.15.95.29,1.54.43,1.79-.18.39-.53.8-1.05,1.25s-1.18.86-1.96,1.25c-.78.39-1.67.71-2.67.96s-2.06.38-3.19.38c-1.4,0-2.73-.18-3.97-.55-1.25-.36-2.33-.87-3.26-1.52s-1.67-1.44-2.22-2.36c-.55-.92-.83-1.95-.83-3.09,0-.25,0-.51.03-.77.02-.26.06-.53.12-.8l6.31-32.53Zm13.93,17.6c-.22-1.37-.39-2.46-.52-3.28-.13-.82-.26-1.44-.38-1.86-.13-.42-.27-.69-.42-.82-.15-.12-.33-.19-.55-.19-.14,0-.27.02-.38.07-.12.05-.23.09-.33.14l1.13,6.9c.08.09.19.16.34.21s.28.07.4.07c.18,0,.35-.03.5-.09.16-.06.28-.11.36-.15l-.15-.99Z"/><path class="c" d="m152.45,62.61c-2.23-1.71-4.18-3.61-5.85-5.71-1.67-2.1-3.07-4.35-4.21-6.75-1.14-2.4-2.02-4.95-2.65-7.64-.63-2.69-1.02-5.48-1.16-8.37.49-.84,1.11-1.56,1.84-2.15.73-.59,1.52-1.08,2.37-1.47.85-.39,1.73-.67,2.64-.85.91-.18,1.78-.27,2.61-.27,1.36,0,2.55.15,3.57.44,1.02.3,1.95.71,2.8,1.23.14.41.34,1.04.59,1.9s.52,1.77.79,2.73c.27.97.52,1.93.77,2.87s.44,1.73.58,2.34l-1.3,6.63c-.04.25-.09.54-.16.85-.07.32-.1.6-.1.85,0,.34.08.62.24.84.16.22.43.33.83.33.12-.43.28-1.13.49-2.1.21-.97.43-2.07.68-3.32.25-1.24.5-2.56.77-3.96.27-1.4.52-2.75.77-4.05.25-1.3.48-2.49.7-3.57.22-1.08.39-1.94.53-2.58.77-.43,1.69-.79,2.76-1.08,1.07-.29,2.22-.43,3.47-.43,1.38,0,2.65.2,3.79.6,1.15.4,2.12.99,2.93,1.76s1.44,1.74,1.88,2.89c.44,1.15.67,2.48.67,3.98,0,2.39-.3,4.66-.89,6.8s-1.36,4.13-2.31,5.98c-.95,1.84-2.01,3.54-3.19,5.09-1.18,1.55-2.34,2.92-3.48,4.1v11.28c-.87.62-1.68,1.11-2.43,1.49s-1.48.67-2.18.87-1.37.34-2.02.41c-.64.07-1.28.1-1.91.1-1.3,0-2.5-.14-3.57-.41s-2-.7-2.77-1.28c-.77-.58-1.37-1.32-1.79-2.2-.42-.89-.64-1.95-.64-3.18v-6.01c.12.14.3.32.53.56s.48.47.74.7c.26.23.52.42.79.58.27.16.49.24.67.24.24,0,.43-.08.59-.26s.24-.44.24-.8Z"/><path class="c" d="m213.57,59.02c-.63,0-1.22-.14-1.76-.43-.54-.29-1.02-.71-1.44-1.28-.42-.57-.74-1.28-.98-2.14-.24-.85-.36-1.84-.36-2.96,0-.87.07-1.66.21-2.38.14-.72.31-1.35.5-1.91.2-.56.42-1.03.65-1.42.24-.39.45-.7.62-.92h17.58c.61,1.03,1.05,2.15,1.3,3.37s.39,2.42.39,3.6c0,1.37-.14,2.61-.43,3.74-.29,1.13-.63,2.04-1.02,2.75h-1.22v10.25c-.77.77-1.65,1.52-2.64,2.22-.99.71-2.11,1.33-3.36,1.86s-2.66.96-4.22,1.28c-1.56.32-3.29.48-5.19.48s-3.64-.19-5.39-.58c-1.76-.39-3.42-.99-4.98-1.79-1.56-.81-2.99-1.83-4.3-3.08-1.3-1.24-2.43-2.72-3.38-4.42-.95-1.71-1.68-3.66-2.21-5.86-.52-2.2-.79-4.66-.79-7.4,0-3.83.51-7.18,1.53-10.06,1.02-2.88,2.44-5.29,4.27-7.23s4.01-3.39,6.55-4.37,5.34-1.47,8.4-1.47c1.6,0,3.16.15,4.68.46,1.52.31,2.94.72,4.27,1.23,1.32.51,2.53,1.11,3.62,1.78,1.09.67,2,1.38,2.76,2.14,0,.75-.04,1.57-.12,2.46-.08.89-.18,1.77-.31,2.65-.13.88-.29,1.71-.47,2.49-.19.79-.39,1.44-.61,1.96h-15.62c-.24.3-.51.7-.82,1.2s-.59,1.1-.86,1.79c-.27.7-.49,1.49-.68,2.39-.19.9-.28,1.9-.28,2.99,0,1.39.15,2.59.46,3.61s.71,1.86,1.21,2.53,1.09,1.17,1.75,1.5c.66.33,1.35.5,2.06.5.36,0,.6-.07.74-.22.14-.15.21-.32.21-.53v-.79h-.33Z"/><path class="c" d="m236.33,33.05c.77-.57,1.64-1.09,2.61-1.55.97-.47,1.99-.86,3.07-1.18,1.08-.32,2.19-.56,3.35-.73s2.32-.26,3.48-.26c1.54,0,3.07.16,4.58.48,1.51.32,2.89.82,4.13,1.5,1.24.68,2.31,1.57,3.2,2.65.89,1.08,1.49,2.38,1.81,3.88l6.76,32.23c-.91,1.34-2.18,2.45-3.82,3.31-1.64.87-3.72,1.3-6.22,1.3-1.11,0-2.14-.11-3.11-.34-.97-.23-1.82-.56-2.56-1.01-.74-.44-1.35-1-1.84-1.67s-.8-1.46-.93-2.38l-.65-4.17c.61-.02,1.22-.11,1.82-.26.6-.15,1.15-.33,1.63-.55.48-.22.88-.46,1.19-.73s.46-.55.46-.82c0-.36-.13-.66-.38-.89-.36.3-.77.56-1.25.8-.47.24-.97.44-1.5.6-.52.16-1.05.28-1.57.36s-1.01.12-1.47.12c-.85,0-1.61-.06-2.27-.19-.66-.12-1.24-.28-1.73-.46-.49-.18-.92-.38-1.27-.6s-.65-.43-.89-.63c-.08.12-.15.25-.21.39s-.09.31-.09.5c0,.34.15.66.46.94.31.29.72.54,1.23.75.51.22,1.1.39,1.76.53s1.36.23,2.09.27c.12,1.59.25,2.87.4,3.81.15.95.29,1.54.43,1.79-.18.39-.53.8-1.05,1.25s-1.18.86-1.96,1.25c-.78.39-1.67.71-2.67.96s-2.06.38-3.19.38c-1.4,0-2.73-.18-3.97-.55-1.25-.36-2.33-.87-3.26-1.52s-1.67-1.44-2.22-2.36c-.55-.92-.83-1.95-.83-3.09,0-.25,0-.51.03-.77.02-.26.06-.53.12-.8l6.31-32.53Zm13.93,17.6c-.22-1.37-.39-2.46-.52-3.28-.13-.82-.26-1.44-.38-1.86-.13-.42-.27-.69-.42-.82-.15-.12-.33-.19-.55-.19-.14,0-.27.02-.38.07-.12.05-.23.09-.33.14l1.13,6.9c.08.09.19.16.34.21s.28.07.4.07c.18,0,.35-.03.5-.09.16-.06.28-.11.36-.15l-.15-.99Z"/><path class="c" d="m294.25,65.38c.69-.18,1.44-.56,2.25-1.13s1.59-1.49,2.34-2.77c.34-.59.5-1.11.5-1.54,0-.59-.26-.89-.77-.89-.04,0-.07,0-.1.02-.03.01-.06.02-.1.02-1.4,3.35-3.65,5.02-6.73,5.02-.77,0-1.49-.09-2.15-.27-.66-.18-1.28-.48-1.85-.89s-1.12-.96-1.63-1.64c-.51-.68-1.01-1.53-1.48-2.53h-.18c-.22,0-.41.06-.56.17-.16.11-.24.32-.24.62,0,.39.12.8.36,1.23.43.82.9,1.53,1.41,2.12.5.59,1.02,1.09,1.54,1.49.52.4,1.04.7,1.56.91s.98.33,1.39.38l-.24,6.46c-.51.39-1.05.74-1.62,1.06-.56.32-1.2.59-1.91.8-.71.22-1.52.38-2.42.5-.9.11-1.93.17-3.1.17s-2.26-.13-3.47-.38-2.31-.67-3.32-1.25-1.84-1.33-2.5-2.24-.99-2.04-.99-3.38c0-.71.03-1.67.09-2.89.06-1.22.14-2.6.25-4.15.11-1.55.23-3.22.37-5.02.14-1.8.29-3.62.44-5.45.16-1.83.32-3.65.47-5.45.16-1.8.32-3.47.47-5.02.16-1.55.3-2.93.43-4.13.13-1.21.24-2.15.34-2.84.57-.59,1.23-1.09,1.96-1.5.73-.41,1.5-.74,2.3-.97.8-.24,1.6-.41,2.42-.51s1.59-.15,2.34-.15c1.34,0,2.66.17,3.96.51,1.29.34,2.37.79,3.22,1.33l1.63,6.29-1.04,5.02c-.04.18-.07.35-.09.51-.02.16-.03.32-.03.48,0,.78.39,1.19,1.19,1.23l2.82-13.5c.34-.21.77-.42,1.29-.65s1.11-.43,1.75-.62c.64-.18,1.34-.33,2.09-.44.75-.11,1.52-.17,2.31-.17,1.4,0,2.63.13,3.69.39,1.06.26,1.95.68,2.67,1.26s1.29,1.34,1.7,2.27c.42.93.69,2.08.83,3.45.14,1.43.31,3.17.52,5.19.21,2.03.42,4.17.64,6.44.22,2.27.43,4.56.65,6.89.22,2.32.41,4.5.58,6.54s.31,3.84.42,5.42c.11,1.57.16,2.73.16,3.49-2.19,2.67-5.35,4-9.48,4-1.3,0-2.5-.13-3.59-.38-1.09-.25-2.02-.63-2.8-1.14-.78-.51-1.4-1.15-1.87-1.9-.46-.75-.74-1.64-.81-2.67l-.27-3.21Z"/><path class="c" d="m344.96,29.97c.26.48.49,1.01.71,1.59.22.58.39,1.18.53,1.81.14.63.25,1.25.33,1.88.08.63.12,1.21.12,1.76,0,2.35-.4,4.09-1.19,5.23-.79,1.14-1.88,1.71-3.26,1.71h-11.95c-.73,0-1.1.33-1.1.99v.27c0,.14.02.23.06.27h14.17c.18.34.35.75.5,1.21.16.47.29.96.4,1.47.11.51.2,1.04.27,1.57.07.54.1,1.04.1,1.52,0,1.37-.12,2.59-.36,3.67-.24,1.08-.55,1.98-.95,2.68h-6.43c-1.68,0-3.07.05-4.16.15s-1.96.23-2.59.39c-.63.16-1.08.34-1.33.53-.26.19-.39.39-.39.6,0,.18.02.35.07.51.05.16.16.3.34.41.49-.18,1-.34,1.51-.48.51-.14,1.09-.24,1.72-.33.63-.08,1.34-.14,2.12-.19.78-.04,1.68-.07,2.71-.07h8.33c.22.36.43.77.65,1.21.22.44.41.96.58,1.54s.31,1.25.42,2,.16,1.62.16,2.6c0,.61-.04,1.27-.12,1.96s-.2,1.38-.36,2.07c-.16.68-.37,1.33-.62,1.95s-.56,1.15-.92,1.61h-22.2c-1.17,0-2.25-.17-3.26-.5s-1.89-.84-2.64-1.54c-.75-.69-1.34-1.57-1.78-2.63-.43-1.06-.65-2.33-.65-3.81v-32.5c0-1.09,1.1-1.89,3.29-2.39s5.54-.75,10.05-.75h17.1Z"/></g></svg>