<?xml version="1.0" encoding="UTF-8"?><svg id="a" xmlns="http://www.w3.org/2000/svg" width="577" height="165.5" viewBox="0 0 577 165.5"><defs><style>.d{fill:#c10000;stroke:#710000;stroke-miterlimit:10;stroke-width:5px;}.e{fill:#dde3e0;}.e,.f{stroke-width:0px;}.f{fill:#f4f6f5;}</style></defs><g id="c"><rect class="f" x="2" y="2" width="573" height="132.65" rx="10" ry="10"/><path class="e" d="m565,4c4.41,0,8,3.59,8,8v112.65c0,4.41-3.59,8-8,8H12c-4.41,0-8-3.59-8-8V12c0-4.41,3.59-8,8-8h553m0-4H12C5.4,0,0,5.4,0,12v112.65c0,6.6,5.4,12,12,12h553c6.6,0,12-5.4,12-12V12c0-6.6-5.4-12-12-12h0Z"/></g><path class="d" d="m40.83,43.83c0-1.2.68-2.37,2.04-3.51,1.36-1.14,3.18-2.18,5.47-3.1s4.92-1.67,7.9-2.23c2.98-.56,6.1-.84,9.37-.84,4.52,0,8.59.7,12.21,2.1,3.62,1.4,6.7,3.37,9.23,5.91,2.53,2.54,4.49,5.61,5.86,9.21,1.38,3.59,2.06,7.57,2.06,11.93,0,4.65-.63,8.73-1.88,12.25-1.25,3.52-3.03,6.46-5.34,8.82s-5.08,4.13-8.34,5.31c-3.25,1.18-6.86,1.77-10.83,1.77-1.01,0-2.05-.08-3.11-.25-1.07-.16-2.08-.36-3.02-.6-.95-.24-1.79-.47-2.52-.71-.73-.24-1.27-.44-1.6-.63-.09.11-.18.25-.25.44-.08.18-.11.44-.11.76,0,.4.14.78.43,1.14.29.36.8.69,1.54.98.73.29,1.72.55,2.95.79,1.24.24,2.8.43,4.7.57v8.33c-.73.73-1.61,1.37-2.63,1.93-1.02.56-2.12,1.04-3.28,1.44-1.16.4-2.38.7-3.64.9-1.27.2-2.53.3-3.78.3-1.74,0-3.42-.21-5.04-.63-1.62-.42-3.05-1.08-4.28-1.99-1.24-.91-2.23-2.08-2.98-3.51-.75-1.43-1.12-3.15-1.12-5.15v-51.74Zm25.61,25.49c.09.07.24.12.43.14.2.02.33.03.39.03.73,0,1.25-.27,1.56-.82.3-.54.46-1.43.46-2.67v-4.14c0-1.27-.13-2.2-.39-2.78-.26-.58-.74-.87-1.44-.87-.15,0-.34.02-.55.05-.21.04-.38.09-.5.16.03.29.05.6.05.93v9.97Z"/><path class="d" d="m107.53,105.92c-3.3,0-5.89-1.04-7.79-3.13-1.89-2.09-2.84-5.35-2.84-9.78v-53.27c1.62-1.63,3.6-2.9,5.96-3.79s4.76-1.33,7.24-1.33c1.71,0,3.38.27,5.02.82s3.08,1.37,4.35,2.48c1.27,1.11,2.28,2.51,3.05,4.22.76,1.71,1.14,3.7,1.14,5.99v29.79c-.76.07-1.58.25-2.45.54-.87.29-1.68.65-2.43,1.09-.75.44-1.38.92-1.88,1.44s-.76,1.06-.76,1.61c0,.4.08.72.25.95.17.24.37.45.62.63,1.71-1.71,3.66-2.89,5.86-3.54,2.2-.65,4.73-.98,7.6-.98h10.86c.46.94.87,1.93,1.24,2.97s.68,2.09.94,3.16c.26,1.07.46,2.13.62,3.19.15,1.05.23,2.03.23,2.94,0,1.31-.08,2.64-.25,4-.17,1.36-.41,2.66-.71,3.89-.31,1.23-.67,2.38-1.1,3.43-.43,1.05-.92,1.94-1.47,2.67h-33.3Z"/><path class="d" d="m155.9,40.5c1.19-.91,2.53-1.73,4.03-2.48,1.5-.74,3.08-1.37,4.74-1.88,1.67-.51,3.39-.9,5.18-1.17s3.58-.41,5.38-.41c2.38,0,4.74.25,7.08.76,2.34.51,4.47,1.31,6.39,2.4,1.92,1.09,3.57,2.5,4.95,4.22,1.37,1.73,2.31,3.79,2.79,6.18l10.44,51.36c-1.41,2.14-3.38,3.9-5.91,5.28-2.54,1.38-5.74,2.07-9.62,2.07-1.71,0-3.31-.18-4.81-.54-1.5-.36-2.82-.9-3.96-1.61-1.14-.71-2.09-1.6-2.84-2.67s-1.23-2.33-1.44-3.79l-1.01-6.64c.95-.04,1.88-.17,2.82-.41.93-.24,1.77-.53,2.52-.87.75-.34,1.36-.74,1.83-1.17.47-.44.71-.87.71-1.31,0-.58-.2-1.05-.6-1.42-.55.47-1.19.9-1.92,1.28-.73.38-1.5.7-2.31.95-.81.25-1.62.45-2.43.57-.81.13-1.57.19-2.27.19-1.31,0-2.48-.1-3.5-.3-1.02-.2-1.92-.44-2.68-.74-.76-.29-1.42-.61-1.97-.95-.55-.34-1.01-.68-1.37-1.01-.12.18-.23.39-.32.63s-.14.5-.14.79c0,.54.24,1.04.71,1.5.47.45,1.11.85,1.9,1.2.79.35,1.7.63,2.73.84,1.02.22,2.1.36,3.23.44.18,2.54.39,4.57.62,6.07.23,1.51.45,2.46.66,2.86-.27.62-.82,1.28-1.63,1.99-.81.71-1.82,1.37-3.02,1.99-1.21.62-2.58,1.13-4.12,1.53s-3.18.6-4.92.6c-2.17,0-4.21-.29-6.14-.87-1.92-.58-3.6-1.39-5.04-2.42-1.44-1.03-2.58-2.29-3.44-3.76-.86-1.47-1.28-3.11-1.28-4.93,0-.4.01-.81.05-1.23.03-.42.09-.84.18-1.28l9.76-51.85Zm21.53,28.05c-.34-2.18-.6-3.92-.8-5.23-.2-1.31-.4-2.3-.59-2.97-.2-.67-.41-1.11-.64-1.31-.23-.2-.51-.3-.85-.3-.21,0-.41.04-.6.11-.18.07-.35.15-.5.22l1.74,11c.12.15.3.25.53.33.23.07.44.11.62.11.27,0,.53-.04.78-.14.24-.09.43-.17.55-.25l-.23-1.58Z"/><path class="d" d="m221.27,87.62c-3.45-2.72-6.47-5.75-9.05-9.1s-4.75-6.93-6.5-10.76c-1.76-3.83-3.12-7.89-4.1-12.17-.98-4.28-1.57-8.73-1.79-13.34.76-1.34,1.71-2.49,2.84-3.43,1.13-.94,2.35-1.72,3.67-2.34,1.31-.62,2.67-1.07,4.08-1.36,1.4-.29,2.75-.44,4.03-.44,2.11,0,3.95.24,5.52.71,1.57.47,3.02,1.13,4.33,1.96.21.65.52,1.66.92,3.02.4,1.36.8,2.81,1.21,4.36s.81,3.07,1.19,4.58.68,2.75.89,3.73l-2.02,10.57c-.06.4-.15.85-.25,1.36-.11.51-.16.96-.16,1.36,0,.54.12.99.37,1.33.24.35.67.52,1.28.52.18-.69.43-1.81.76-3.35.32-1.54.67-3.3,1.05-5.28.38-1.98.78-4.08,1.19-6.32.41-2.23.81-4.38,1.19-6.45.38-2.07.74-3.97,1.08-5.69s.61-3.1.82-4.11c1.19-.69,2.61-1.26,4.26-1.72s3.44-.68,5.36-.68c2.14,0,4.09.32,5.86.95,1.77.64,3.28,1.57,4.54,2.8,1.25,1.24,2.22,2.77,2.91,4.6.69,1.83,1.03,3.95,1.03,6.35,0,3.81-.46,7.43-1.37,10.84s-2.11,6.59-3.57,9.53c-1.47,2.94-3.11,5.65-4.92,8.12-1.82,2.47-3.61,4.65-5.38,6.54v17.97c-1.34.98-2.6,1.77-3.76,2.37-1.16.6-2.28,1.06-3.37,1.39-1.08.33-2.12.54-3.12.65-.99.11-1.98.16-2.96.16-2.01,0-3.86-.22-5.52-.65-1.67-.44-3.09-1.12-4.28-2.04-1.19-.93-2.12-2.1-2.77-3.51-.66-1.42-.98-3.1-.98-5.07v-9.59c.18.22.46.52.82.9.37.38.75.75,1.15,1.12.4.36.8.67,1.21.93s.76.38,1.03.38c.37,0,.67-.14.92-.41s.37-.7.37-1.28Z"/><path class="d" d="m290.72,40.5c1.19-.91,2.53-1.73,4.03-2.48,1.5-.74,3.08-1.37,4.74-1.88,1.67-.51,3.39-.9,5.18-1.17s3.58-.41,5.38-.41c2.38,0,4.74.25,7.08.76,2.34.51,4.47,1.31,6.39,2.4,1.92,1.09,3.57,2.5,4.95,4.22,1.37,1.73,2.31,3.79,2.79,6.18l10.44,51.36c-1.41,2.14-3.38,3.9-5.91,5.28-2.54,1.38-5.74,2.07-9.62,2.07-1.71,0-3.31-.18-4.81-.54-1.5-.36-2.82-.9-3.96-1.61-1.14-.71-2.09-1.6-2.84-2.67s-1.23-2.33-1.44-3.79l-1.01-6.64c.95-.04,1.88-.17,2.82-.41.93-.24,1.77-.53,2.52-.87.75-.34,1.36-.74,1.83-1.17.47-.44.71-.87.71-1.31,0-.58-.2-1.05-.6-1.42-.55.47-1.19.9-1.92,1.28-.73.38-1.5.7-2.31.95-.81.25-1.62.45-2.43.57-.81.13-1.57.19-2.27.19-1.31,0-2.48-.1-3.5-.3-1.02-.2-1.92-.44-2.68-.74-.76-.29-1.42-.61-1.97-.95-.55-.34-1.01-.68-1.37-1.01-.12.18-.23.39-.32.63s-.14.5-.14.79c0,.54.24,1.04.71,1.5.47.45,1.11.85,1.9,1.2.79.35,1.7.63,2.73.84,1.02.22,2.1.36,3.23.44.18,2.54.39,4.57.62,6.07.23,1.51.45,2.46.66,2.86-.27.62-.82,1.28-1.63,1.99-.81.71-1.82,1.37-3.02,1.99-1.21.62-2.58,1.13-4.12,1.53s-3.18.6-4.92.6c-2.17,0-4.21-.29-6.14-.87-1.92-.58-3.6-1.39-5.04-2.42-1.44-1.03-2.58-2.29-3.44-3.76-.86-1.47-1.28-3.11-1.28-4.93,0-.4.01-.81.05-1.23.03-.42.09-.84.18-1.28l9.76-51.85Zm21.53,28.05c-.34-2.18-.6-3.92-.8-5.23-.2-1.31-.4-2.3-.59-2.97-.2-.67-.41-1.11-.64-1.31-.23-.2-.51-.3-.85-.3-.21,0-.41.04-.6.11-.18.07-.35.15-.5.22l1.74,11c.12.15.3.25.53.33.23.07.44.11.62.11.27,0,.53-.04.78-.14.24-.09.43-.17.55-.25l-.23-1.58Z"/><path class="d" d="m374.77,81.9c-.98,0-1.89-.23-2.73-.68s-1.58-1.13-2.22-2.04c-.64-.91-1.14-2.04-1.51-3.4-.37-1.36-.55-2.93-.55-4.71,0-1.38.11-2.64.32-3.79.21-1.14.47-2.16.78-3.05.3-.89.64-1.64,1.01-2.26.37-.62.69-1.11.96-1.47h27.17c.95,1.63,1.62,3.42,2.02,5.37.4,1.94.59,3.86.59,5.75,0,2.18-.22,4.17-.66,5.96-.44,1.8-.97,3.26-1.58,4.38h-1.88v16.34c-1.19,1.24-2.55,2.42-4.08,3.54-1.53,1.13-3.26,2.12-5.2,2.97-1.94.85-4.12,1.53-6.53,2.04-2.41.51-5.08.76-8.02.76s-5.62-.31-8.34-.93-5.28-1.57-7.7-2.86c-2.41-1.29-4.63-2.92-6.64-4.9-2.02-1.98-3.76-4.33-5.22-7.05-1.47-2.72-2.6-5.84-3.41-9.34-.81-3.5-1.21-7.43-1.21-11.79,0-6.1.79-11.45,2.36-16.04,1.57-4.59,3.77-8.43,6.6-11.52,2.83-3.09,6.2-5.41,10.12-6.97,3.92-1.56,8.25-2.34,12.99-2.34,2.47,0,4.89.25,7.24.74,2.35.49,4.55,1.14,6.6,1.96,2.04.82,3.91,1.76,5.59,2.83s3.1,2.21,4.26,3.4c0,1.2-.06,2.5-.18,3.92-.12,1.42-.28,2.82-.48,4.22-.2,1.4-.44,2.72-.73,3.98-.29,1.25-.6,2.3-.94,3.13h-24.14c-.37.47-.79,1.11-1.26,1.91s-.92,1.75-1.33,2.86-.76,2.38-1.05,3.81c-.29,1.43-.44,3.02-.44,4.77,0,2.22.24,4.13.71,5.75.47,1.62,1.1,2.96,1.88,4.03.78,1.07,1.68,1.87,2.7,2.4s2.08.79,3.18.79c.55,0,.93-.12,1.15-.35.21-.24.32-.52.32-.84v-1.25h-.5Z"/><path class="d" d="m409.96,40.5c1.19-.91,2.53-1.73,4.03-2.48,1.5-.74,3.08-1.37,4.74-1.88,1.67-.51,3.39-.9,5.18-1.17s3.58-.41,5.38-.41c2.38,0,4.74.25,7.08.76,2.34.51,4.47,1.31,6.39,2.4,1.92,1.09,3.57,2.5,4.95,4.22,1.37,1.73,2.31,3.79,2.79,6.18l10.44,51.36c-1.41,2.14-3.38,3.9-5.91,5.28-2.54,1.38-5.74,2.07-9.62,2.07-1.71,0-3.31-.18-4.81-.54-1.5-.36-2.82-.9-3.96-1.61-1.14-.71-2.09-1.6-2.84-2.67s-1.23-2.33-1.44-3.79l-1.01-6.64c.95-.04,1.88-.17,2.82-.41.93-.24,1.77-.53,2.52-.87.75-.34,1.36-.74,1.83-1.17.47-.44.71-.87.71-1.31,0-.58-.2-1.05-.6-1.42-.55.47-1.19.9-1.92,1.28-.73.38-1.5.7-2.31.95-.81.25-1.62.45-2.43.57-.81.13-1.57.19-2.27.19-1.31,0-2.48-.1-3.5-.3-1.02-.2-1.92-.44-2.68-.74-.76-.29-1.42-.61-1.97-.95-.55-.34-1.01-.68-1.37-1.01-.12.18-.23.39-.32.63s-.14.5-.14.79c0,.54.24,1.04.71,1.5.47.45,1.11.85,1.9,1.2.79.35,1.7.63,2.73.84,1.02.22,2.1.36,3.23.44.18,2.54.39,4.57.62,6.07.23,1.51.45,2.46.66,2.86-.27.62-.82,1.28-1.63,1.99-.81.71-1.82,1.37-3.02,1.99-1.21.62-2.58,1.13-4.12,1.53s-3.18.6-4.92.6c-2.17,0-4.21-.29-6.14-.87-1.92-.58-3.6-1.39-5.04-2.42-1.44-1.03-2.58-2.29-3.44-3.76-.86-1.47-1.28-3.11-1.28-4.93,0-.4.01-.81.05-1.23.03-.42.09-.84.18-1.28l9.76-51.85Zm21.53,28.05c-.34-2.18-.6-3.92-.8-5.23-.2-1.31-.4-2.3-.59-2.97-.2-.67-.41-1.11-.64-1.31-.23-.2-.51-.3-.85-.3-.21,0-.41.04-.6.11-.18.07-.35.15-.5.22l1.74,11c.12.15.3.25.53.33.23.07.44.11.62.11.27,0,.53-.04.78-.14.24-.09.43-.17.55-.25l-.23-1.58Z"/><path class="d" d="m483.77,105.26c-2.31,1.05-5.08,1.58-8.31,1.58-1.71,0-3.36-.22-4.95-.65-1.59-.44-2.99-1.1-4.19-1.99-1.21-.89-2.17-2.02-2.89-3.38-.72-1.36-1.08-2.97-1.08-4.82v-56.27c1.25-1.31,3.03-2.49,5.34-3.54,2.31-1.05,5.08-1.58,8.31-1.58,1.71,0,3.36.22,4.95.65,1.59.44,2.98,1.1,4.19,1.99,1.21.89,2.17,2.02,2.89,3.38.72,1.36,1.08,2.97,1.08,4.82v56.26c-1.25,1.31-3.03,2.49-5.34,3.54Z"/><path class="d" d="m520.49,39.36c.79-.8,1.69-1.5,2.68-2.1.99-.6,2.04-1.1,3.14-1.5s2.23-.7,3.39-.9c1.16-.2,2.29-.3,3.39-.3,1.71,0,3.38.19,5.02.57,1.63.38,3.08,1.03,4.35,1.93,1.27.91,2.28,2.12,3.05,3.65s1.15,3.43,1.15,5.72v51.58c0,1.63-.34,3.01-1.03,4.14-.69,1.13-1.6,2.02-2.75,2.7-1.14.67-2.46,1.15-3.94,1.44-1.48.29-3.02.44-4.6.44-.98,0-1.96-.06-2.96-.19-.99-.13-1.93-.32-2.82-.57-.89-.25-1.71-.54-2.47-.87-.76-.33-1.42-.69-1.97-1.09-1.31-2-2.5-3.92-3.55-5.77-1.05-1.85-2.02-3.63-2.91-5.34-.89-1.71-1.71-3.33-2.47-4.87s-1.5-3-2.2-4.38c-.52.07-.87.26-1.05.57-.18.31-.27.68-.27,1.12,0,.54.12,1.08.37,1.61.24.53.56,1.17.96,1.93l5.73,11v2.89c-.46.36-1.04.78-1.74,1.25-.7.47-1.57.92-2.59,1.33-1.02.42-2.21.77-3.55,1.06s-2.89.44-4.63.44c-1.99,0-3.82-.24-5.5-.71-1.68-.47-3.13-1.17-4.35-2.1s-2.17-2.08-2.84-3.46-1.01-2.98-1.01-4.79v-54.58c0-.91.34-1.77,1.01-2.59.67-.82,1.59-1.52,2.75-2.1,1.16-.58,2.52-1.04,4.08-1.39,1.56-.34,3.22-.52,4.99-.52,2.02,0,3.88.29,5.59.87,1.71.58,3.01,1.29,3.89,2.12.67,1.02,1.4,2.22,2.2,3.62.79,1.4,1.63,2.94,2.52,4.63.88,1.69,1.81,3.49,2.77,5.39.96,1.91,1.95,3.86,2.95,5.85.3,0,.6-.12.89-.35.29-.24.44-.63.44-1.17,0-.4-.12-.88-.37-1.44-.24-.56-.5-1.12-.78-1.66l-4.95-10.13v-3Z"/></svg>