<?xml version="1.0" encoding="UTF-8"?><svg id="a" xmlns="http://www.w3.org/2000/svg" width="568" height="195.72" viewBox="0 0 568 195.72"><defs><style>.d{fill:#c10000;stroke:#710000;stroke-miterlimit:10;stroke-width:4px;}.e{fill:#9b6f59;}.e,.f,.g,.h{stroke-width:0px;}.f{fill:#dde3e0;}.g{fill:#825d4a;}.h{fill:#f4f6f5;}</style></defs><g id="c"><path class="e" d="m200.98,192.98c-6.19,0-11.24-5.53-11.24-12.32v-52.01c0-6.79,5.04-12.32,11.24-12.32s11.24,5.53,11.24,12.32v52.01c0,6.79-5.04,12.32-11.24,12.32Z"/><path class="g" d="m200.98,119.07c4.82,0,8.74,4.3,8.74,9.58v52.01c0,5.28-3.92,9.58-8.74,9.58s-8.74-4.3-8.74-9.58v-52.01c0-5.28,3.92-9.58,8.74-9.58m0-5.47c-7.55,0-13.73,6.77-13.73,15.06v52.01c0,8.28,6.18,15.06,13.73,15.06s13.73-6.77,13.73-15.06v-52.01c0-8.28-6.18-15.06-13.73-15.06h0Z"/><path class="e" d="m395.73,192.98c-6.19,0-11.24-5.53-11.24-12.32v-52.01c0-6.79,5.04-12.32,11.24-12.32s11.24,5.53,11.24,12.32v52.01c0,6.79-5.04,12.32-11.24,12.32Z"/><path class="g" d="m395.73,119.07c4.82,0,8.74,4.3,8.74,9.58v52.01c0,5.28-3.92,9.58-8.74,9.58s-8.74-4.3-8.74-9.58v-52.01c0-5.28,3.92-9.58,8.74-9.58m0-5.47c-7.55,0-13.73,6.77-13.73,15.06v52.01c0,8.28,6.18,15.06,13.73,15.06s13.73-6.77,13.73-15.06v-52.01c0-8.28-6.18-15.06-13.73-15.06h0Z"/><path class="h" d="m14.98,2.74h538.04c6.89,0,12.48,6.13,12.48,13.69v101.28c0,7.56-5.59,13.69-12.48,13.69H14.98c-6.89,0-12.48-6.13-12.48-13.69V16.42c0-7.56,5.59-13.69,12.48-13.69Z"/><path class="f" d="m553.02,5.47c5.51,0,9.99,4.91,9.99,10.95v101.28c0,6.04-4.48,10.95-9.99,10.95H14.98c-5.51,0-9.99-4.91-9.99-10.95V16.42c0-6.04,4.48-10.95,9.99-10.95h538.04m0-5.47H14.98C6.74,0,0,7.39,0,16.42v101.28c0,9.03,6.74,16.42,14.98,16.42h538.04c8.24,0,14.98-7.39,14.98-16.42V16.42c0-9.03-6.74-16.42-14.98-16.42h0Z"/><path class="d" d="m52.57,48.76c0-1.06.65-2.09,1.95-3.1,1.3-1.01,3.05-1.92,5.24-2.74s4.72-1.48,7.57-1.97c2.85-.5,5.84-.75,8.98-.75,4.33,0,8.23.62,11.7,1.85,3.47,1.24,6.41,2.98,8.84,5.22,2.43,2.25,4.3,4.96,5.62,8.13,1.32,3.18,1.98,6.69,1.98,10.54,0,4.11-.6,7.72-1.8,10.83-1.2,3.11-2.9,5.71-5.11,7.79-2.21,2.08-4.87,3.65-7.99,4.69-3.12,1.04-6.58,1.56-10.38,1.56-.97,0-1.96-.07-2.98-.22-1.02-.14-1.99-.32-2.9-.53-.91-.21-1.71-.42-2.41-.62s-1.21-.39-1.54-.55c-.09.1-.17.22-.24.38-.07.16-.11.38-.11.67,0,.35.14.69.42,1.01.28.32.77.61,1.47.87s1.65.49,2.83.7c1.19.21,2.68.38,4.5.5v7.36c-.7.64-1.54,1.21-2.52,1.71-.98.5-2.03.92-3.14,1.28-1.11.35-2.28.62-3.49.79-1.21.18-2.42.26-3.62.26-1.67,0-3.28-.18-4.83-.55-1.55-.37-2.92-.95-4.1-1.76-1.19-.8-2.14-1.84-2.85-3.1-.72-1.27-1.08-2.78-1.08-4.55v-45.71Zm24.53,22.52c.09.06.23.1.42.12.19.02.31.02.37.02.7,0,1.2-.24,1.49-.72.29-.48.44-1.27.44-2.36v-3.66c0-1.12-.12-1.94-.37-2.45-.25-.51-.71-.77-1.38-.77-.15,0-.32.02-.53.05-.21.03-.37.08-.48.14.03.26.04.53.04.82v8.81Z"/><path class="d" d="m116.47,103.62c-3.16,0-5.65-.92-7.46-2.77-1.81-1.84-2.72-4.72-2.72-8.64v-47.06c1.55-1.44,3.45-2.56,5.71-3.34,2.25-.79,4.56-1.18,6.93-1.18,1.64,0,3.24.24,4.81.72,1.56.48,2.96,1.21,4.17,2.19,1.21.98,2.19,2.22,2.92,3.73.73,1.51,1.1,3.27,1.1,5.29v26.32c-.73.06-1.51.22-2.35.48-.83.26-1.61.58-2.33.96-.72.38-1.32.81-1.8,1.27-.48.47-.72.94-.72,1.42,0,.35.08.63.24.84.16.21.36.39.59.55,1.64-1.51,3.51-2.55,5.62-3.13s4.53-.87,7.29-.87h10.4c.44.83.83,1.71,1.19,2.62.35.91.65,1.84.9,2.79.25.95.45,1.88.59,2.82.15.93.22,1.8.22,2.6,0,1.16-.08,2.33-.24,3.54-.16,1.2-.39,2.35-.68,3.44-.29,1.09-.64,2.1-1.05,3.03-.41.93-.88,1.72-1.4,2.36h-31.91Z"/><path class="d" d="m162.81,45.83c1.14-.8,2.43-1.53,3.86-2.19,1.43-.66,2.95-1.21,4.54-1.66s3.25-.79,4.96-1.03c1.71-.24,3.43-.36,5.16-.36,2.28,0,4.54.22,6.78.67,2.24.45,4.28,1.16,6.12,2.12,1.84.96,3.42,2.21,4.74,3.73,1.32,1.52,2.21,3.34,2.68,5.46l10.01,45.37c-1.35,1.89-3.23,3.45-5.66,4.67-2.43,1.22-5.5,1.83-9.22,1.83-1.64,0-3.17-.16-4.61-.48-1.43-.32-2.7-.79-3.8-1.42-1.1-.63-2-1.41-2.72-2.36-.72-.95-1.18-2.06-1.38-3.34l-.96-5.87c.91-.03,1.81-.15,2.7-.36.89-.21,1.7-.46,2.41-.77s1.3-.65,1.76-1.03c.45-.39.68-.77.68-1.16,0-.51-.19-.93-.57-1.25-.53.42-1.14.79-1.84,1.13s-1.44.62-2.22.84c-.78.22-1.55.39-2.33.5-.78.11-1.5.17-2.17.17-1.26,0-2.38-.09-3.36-.26-.98-.18-1.84-.39-2.57-.65-.73-.26-1.36-.54-1.89-.84-.53-.3-.96-.6-1.32-.89-.12.16-.22.34-.31.55-.09.21-.13.44-.13.7,0,.48.23.92.68,1.32.45.4,1.06.75,1.82,1.06.76.31,1.63.55,2.61.75s2.01.32,3.09.38c.18,2.25.37,4.03.59,5.37s.43,2.17.64,2.53c-.26.55-.78,1.13-1.56,1.76-.78.62-1.74,1.21-2.9,1.76-1.16.55-2.47,1-3.95,1.35-1.48.35-3.05.53-4.72.53-2.08,0-4.04-.26-5.88-.77-1.84-.51-3.45-1.23-4.83-2.14-1.38-.91-2.47-2.02-3.29-3.32-.82-1.3-1.23-2.75-1.23-4.35,0-.35.01-.71.04-1.08.03-.37.09-.75.18-1.13l9.35-45.81Zm20.63,24.78c-.32-1.92-.58-3.46-.77-4.62-.19-1.16-.38-2.03-.57-2.62-.19-.59-.4-.98-.62-1.15-.22-.18-.49-.26-.81-.26-.21,0-.39.03-.57.1-.18.07-.34.13-.48.19l1.67,9.72c.12.13.29.23.5.29.22.06.42.1.59.1.26,0,.51-.04.75-.12.23-.08.41-.15.53-.22l-.22-1.4Z"/><path class="d" d="m225.44,87.45c-3.31-2.41-6.2-5.08-8.67-8.04s-4.55-6.12-6.23-9.5c-1.68-3.38-2.99-6.97-3.93-10.75-.94-3.78-1.51-7.71-1.71-11.79.73-1.19,1.64-2.2,2.72-3.03,1.08-.83,2.25-1.52,3.51-2.07,1.26-.54,2.56-.95,3.91-1.2s2.63-.38,3.86-.38c2.02,0,3.78.21,5.29.62,1.51.42,2.89,1,4.15,1.73.2.58.5,1.47.88,2.67.38,1.2.77,2.49,1.16,3.85.39,1.36.77,2.71,1.14,4.04.37,1.33.65,2.43.86,3.3l-1.93,9.33c-.06.35-.14.75-.24,1.2s-.15.85-.15,1.2c0,.48.12.87.35,1.18s.64.46,1.23.46c.18-.61.42-1.6.72-2.96.31-1.36.64-2.92,1.01-4.67.37-1.75.75-3.61,1.14-5.58.4-1.97.78-3.87,1.14-5.7.37-1.83.71-3.5,1.03-5.03.32-1.52.58-2.73.79-3.63,1.14-.61,2.5-1.11,4.08-1.52,1.58-.4,3.29-.6,5.13-.6,2.05,0,3.92.28,5.62.84,1.7.56,3.14,1.39,4.34,2.48,1.2,1.09,2.13,2.45,2.79,4.07.66,1.62.99,3.49.99,5.61,0,3.37-.44,6.56-1.32,9.58-.88,3.02-2.02,5.82-3.42,8.42-1.4,2.6-2.98,4.99-4.72,7.17-1.74,2.18-3.46,4.11-5.16,5.77v15.88c-1.29.87-2.49,1.56-3.6,2.09s-2.19.94-3.23,1.23c-1.04.29-2.03.48-2.98.58-.95.1-1.89.14-2.83.14-1.93,0-3.69-.19-5.29-.58-1.59-.39-2.96-.99-4.1-1.8-1.14-.82-2.03-1.85-2.66-3.1s-.94-2.74-.94-4.47v-8.47c.18.19.44.46.79.79.35.34.72.67,1.1.99.38.32.77.59,1.16.82.39.23.72.34.99.34.35,0,.64-.12.88-.36.23-.24.35-.62.35-1.13Z"/><path class="d" d="m315.93,82.4c-.94,0-1.81-.2-2.61-.6-.81-.4-1.51-1-2.13-1.8s-1.1-1.8-1.45-3.01c-.35-1.2-.53-2.59-.53-4.16,0-1.22.1-2.33.31-3.34.21-1.01.45-1.91.75-2.69.29-.79.62-1.45.97-2,.35-.54.66-.98.92-1.3h26.03c.91,1.44,1.55,3.02,1.93,4.74.38,1.72.57,3.41.57,5.08,0,1.92-.21,3.68-.64,5.27-.42,1.59-.93,2.88-1.51,3.87h-1.8v14.43c-1.14,1.09-2.44,2.13-3.91,3.13-1.46.99-3.12,1.87-4.98,2.62-1.86.75-3.94,1.36-6.25,1.8s-4.87.67-7.68.67-5.38-.27-7.99-.82c-2.6-.55-5.06-1.39-7.37-2.53-2.31-1.14-4.43-2.58-6.36-4.33-1.93-1.75-3.6-3.83-5-6.23-1.4-2.41-2.5-5.16-3.27-8.25-.78-3.1-1.16-6.57-1.16-10.42,0-5.39.75-10.11,2.26-14.17,1.51-4.06,3.61-7.45,6.32-10.18,2.71-2.73,5.94-4.78,9.7-6.16,3.76-1.38,7.91-2.07,12.44-2.07,2.37,0,4.68.22,6.93.65,2.25.43,4.36,1.01,6.32,1.73s3.75,1.56,5.35,2.5c1.61.95,2.97,1.95,4.08,3.01,0,1.06-.06,2.21-.17,3.46-.12,1.25-.27,2.49-.46,3.73-.19,1.24-.42,2.41-.7,3.51-.28,1.11-.58,2.03-.9,2.77h-23.13c-.35.42-.75.98-1.21,1.68-.45.71-.88,1.55-1.27,2.53-.4.98-.73,2.1-1.01,3.37-.28,1.27-.42,2.67-.42,4.21,0,1.96.23,3.65.68,5.08.45,1.43,1.05,2.62,1.8,3.56.75.95,1.61,1.65,2.59,2.12.98.47,2,.7,3.05.7.53,0,.89-.1,1.1-.31.2-.21.31-.46.31-.75v-1.11h-.48Z"/><path class="d" d="m349.64,45.83c1.14-.8,2.43-1.53,3.86-2.19,1.43-.66,2.95-1.21,4.54-1.66s3.25-.79,4.96-1.03c1.71-.24,3.43-.36,5.16-.36,2.28,0,4.54.22,6.78.67,2.24.45,4.28,1.16,6.12,2.12,1.84.96,3.42,2.21,4.74,3.73,1.32,1.52,2.21,3.34,2.68,5.46l10.01,45.37c-1.35,1.89-3.23,3.45-5.66,4.67-2.43,1.22-5.5,1.83-9.22,1.83-1.64,0-3.17-.16-4.61-.48-1.43-.32-2.7-.79-3.8-1.42-1.1-.63-2-1.41-2.72-2.36-.72-.95-1.18-2.06-1.38-3.34l-.96-5.87c.91-.03,1.81-.15,2.7-.36.89-.21,1.7-.46,2.41-.77s1.3-.65,1.76-1.03c.45-.39.68-.77.68-1.16,0-.51-.19-.93-.57-1.25-.53.42-1.14.79-1.84,1.13s-1.44.62-2.22.84c-.78.22-1.55.39-2.33.5-.78.11-1.5.17-2.17.17-1.26,0-2.38-.09-3.36-.26-.98-.18-1.84-.39-2.57-.65-.73-.26-1.36-.54-1.89-.84-.53-.3-.96-.6-1.32-.89-.12.16-.22.34-.31.55-.09.21-.13.44-.13.7,0,.48.23.92.68,1.32.45.4,1.06.75,1.82,1.06.76.31,1.63.55,2.61.75s2.01.32,3.09.38c.18,2.25.37,4.03.59,5.37s.43,2.17.64,2.53c-.26.55-.78,1.13-1.56,1.76-.78.62-1.74,1.21-2.9,1.76-1.16.55-2.47,1-3.95,1.35-1.48.35-3.05.53-4.72.53-2.08,0-4.04-.26-5.88-.77-1.84-.51-3.45-1.23-4.83-2.14-1.38-.91-2.47-2.02-3.29-3.32-.82-1.3-1.23-2.75-1.23-4.35,0-.35.01-.71.04-1.08.03-.37.09-.75.18-1.13l9.35-45.81Zm20.63,24.78c-.32-1.92-.58-3.46-.77-4.62-.19-1.16-.38-2.03-.57-2.62-.19-.59-.4-.98-.62-1.15-.22-.18-.49-.26-.81-.26-.21,0-.39.03-.57.1-.18.07-.34.13-.48.19l1.67,9.72c.12.13.29.23.5.29.22.06.42.1.59.1.26,0,.51-.04.75-.12.23-.08.41-.15.53-.22l-.22-1.4Z"/><path class="d" d="m435.4,91.35c1.02-.26,2.13-.79,3.33-1.59,1.2-.8,2.35-2.1,3.47-3.9.5-.83.75-1.56.75-2.17,0-.83-.38-1.25-1.14-1.25-.06,0-.11,0-.15.02-.04.02-.1.02-.15.02-2.08,4.72-5.4,7.07-9.96,7.07-1.14,0-2.2-.13-3.18-.38-.98-.26-1.9-.67-2.74-1.25-.85-.58-1.65-1.35-2.41-2.31-.76-.96-1.49-2.15-2.19-3.56h-.26c-.32,0-.6.08-.83.24-.23.16-.35.45-.35.87,0,.55.18,1.12.53,1.73.64,1.15,1.34,2.15,2.08,2.98.75.83,1.51,1.53,2.28,2.09.77.56,1.54.99,2.3,1.27.76.29,1.45.47,2.06.53l-.35,9.09c-.76.55-1.56,1.04-2.39,1.49-.83.45-1.78.83-2.83,1.13s-2.25.54-3.58.7c-1.33.16-2.86.24-4.59.24s-3.35-.18-5.13-.53c-1.79-.35-3.42-.94-4.92-1.76-1.49-.82-2.73-1.87-3.71-3.15-.98-1.28-1.47-2.87-1.47-4.76,0-.99.04-2.35.13-4.07.09-1.72.21-3.67.37-5.85.16-2.18.34-4.54.55-7.07.2-2.53.42-5.09.66-7.67.23-2.58.47-5.14.7-7.67s.47-4.89.7-7.07.45-4.12.64-5.82.36-3.03.5-3.99c.85-.83,1.81-1.54,2.9-2.12,1.08-.58,2.22-1.03,3.4-1.37,1.18-.34,2.38-.58,3.58-.72,1.2-.14,2.36-.22,3.47-.22,1.99,0,3.94.24,5.86.72,1.92.48,3.5,1.11,4.76,1.88l2.41,8.85-1.54,7.07c-.06.26-.1.5-.13.72-.03.22-.04.45-.04.67,0,1.09.58,1.67,1.76,1.73l4.17-19.01c.5-.29,1.13-.59,1.91-.91.78-.32,1.64-.61,2.59-.87.95-.26,1.98-.46,3.09-.62,1.11-.16,2.25-.24,3.42-.24,2.08,0,3.9.19,5.46.55,1.56.37,2.88.96,3.95,1.78s1.91,1.88,2.52,3.2c.62,1.32,1.02,2.94,1.23,4.86.2,2.02.46,4.46.77,7.31.31,2.86.62,5.88.94,9.07.32,3.19.64,6.42.97,9.7.32,3.27.61,6.34.86,9.21.25,2.87.45,5.41.62,7.63.16,2.21.24,3.85.24,4.91-3.25,3.75-7.93,5.63-14.04,5.63-1.93,0-3.7-.18-5.31-.53-1.61-.35-2.99-.89-4.15-1.61-1.16-.72-2.08-1.61-2.76-2.67-.69-1.06-1.09-2.31-1.21-3.75l-.39-4.52Z"/><path class="d" d="m510.49,41.5c.38.67.73,1.42,1.05,2.24.32.82.58,1.67.79,2.55.2.88.37,1.76.48,2.65.12.88.18,1.71.18,2.48,0,3.3-.59,5.76-1.76,7.36-1.17,1.6-2.78,2.41-4.83,2.41h-17.69c-1.08,0-1.62.46-1.62,1.39v.39c0,.19.03.32.09.38h20.98c.26.48.51,1.05.75,1.71.23.66.43,1.35.59,2.07.16.72.29,1.46.39,2.21.1.75.15,1.47.15,2.14,0,1.92-.18,3.65-.53,5.17-.35,1.52-.82,2.78-1.4,3.78h-9.52c-2.49,0-4.54.07-6.17.22s-2.9.33-3.84.55c-.94.22-1.6.47-1.98.75-.38.27-.57.55-.57.84,0,.26.04.5.11.72.07.22.24.42.5.58.73-.26,1.48-.48,2.24-.67s1.61-.34,2.55-.46c.94-.11,1.98-.2,3.14-.26,1.16-.06,2.49-.1,4.02-.1h12.33c.32.51.64,1.08.96,1.71.32.62.61,1.35.86,2.17.25.82.45,1.76.61,2.81.16,1.06.24,2.28.24,3.66,0,.87-.06,1.79-.18,2.77s-.29,1.95-.53,2.91c-.23.96-.54,1.88-.92,2.74-.38.87-.83,1.62-1.36,2.26h-32.87c-1.73,0-3.33-.23-4.83-.7s-2.79-1.19-3.91-2.17c-1.11-.98-1.99-2.21-2.63-3.71-.64-1.49-.97-3.28-.97-5.37v-45.76c0-1.54,1.62-2.66,4.87-3.37,3.25-.71,8.21-1.06,14.88-1.06h25.32Z"/></g></svg>