<?xml version="1.0" encoding="UTF-8"?><svg id="a" xmlns="http://www.w3.org/2000/svg" width="293" height="357" viewBox="0 0 293 357"><defs><style>.b,.c{stroke-width:2px;}.b,.c,.d{stroke:#e2a92b;stroke-miterlimit:10;}.b,.d{fill:#fed266;}.c{fill:#f2c357;}</style></defs><rect class="b" x="128.5" y="204.5" width="17" height="90"/><rect class="b" x="103.5" y="294.5" width="67" height="20"/><rect class="b" x="78.5" y="314.5" width="117" height="25"/><path class="c" d="m171.5,200.23c-29.38,22.95-59.43,8.06-66,4.55-3.91-3.04-7.39-6.39-10.47-9.89-30.97-35.11-34.87-98.38-35.53-121.97-.33-5.05-.67-10.1-1-15.16,8.57-3.06,15.77-4.16,21-4.55,5.4-.4,9.9-.13,12,0,4.68.29,8.73.89,12,1.52h68c2.51.97,4.58,1.35,6,1.52,3.73.44,7.99,0,8,0,0,0,1.07-.11,1.63-.13,1.26-.03,2.18.1,2.37.13,1.04.13,3.41-.1,9-1.52h16c6.7,61.93-11.27,120.72-43,145.51Z"/><path class="b" d="m77.5,166.5c-.59,3.54-29.4,6.34-37.31-6.77-.98-1.62-1.44-3.17-1.69-4.26v-72.43c.21-1.04.66-2.62,1.69-4.26,4.89-7.75,18.02-8.89,19.31-6.27.54,1.1-.6,3.68-9.5,10.54v72.43c22.31,6.31,27.77,9.41,27.5,11.04Z"/><path class="b" d="m215.97,73.45c1.21-2.79,19.43-1.21,23.91,8.8.78,1.73.98,3.36,1.03,4.49l-10.96,72.06c-.41,1.01-1.11,2.48-2.31,3.99-8.41,10.5-29.5,8.02-30.14,4.71-.29-1.5,3.37-4.37,21.09-10.43l10.96-72.06c-11.85-7.45-14.09-10.36-13.57-11.56Z"/><rect class="d" x="54.5" y="50.5" width="165" height="8" rx="4" ry="4"/></svg>