<?xml version="1.0" encoding="UTF-8"?><svg id="a" xmlns="http://www.w3.org/2000/svg" width="1921" height="1080" viewBox="0 0 1921 1080"><defs><style>.z{fill:#edb25a;stroke:#e9a135;}.z,.aa{stroke-width:4px;}.z,.aa,.ab,.ac,.ad,.ae,.af,.ag,.ah{stroke-miterlimit:10;}.aa,.af{fill:#c10000;stroke:#710000;}.ai{fill:#fbbb71;stroke:#7f5d3f;stroke-miterlimit:10;stroke-width:1px;}.aj,.ab{fill:#fff;}.aj,.ab,.ak{stroke:#000;}.aj,.al,.ak{stroke-miterlimit:10;stroke-width:.5px;}.ab,.ac{stroke-width:.5px;}.ac{fill:#ff9492;}.ac,.al,.ad{stroke:#7f5d2a;}.al{fill:#ff9497;}.ad{fill:#fed266;}.ae{fill:#cd5522;stroke:#f17083;}.af{stroke-width:7px;}.ag,.ah{fill:#eaedec;stroke:#e0e0e0;stroke-width:6px;}.am,.an,.ao,.ap,.aq,.ar,.as,.at,.au,.av,.aw,.ax,.ay,.az,.ba,.bb,.bc,.bd,.be,.bf{stroke-width:0px;}.ah{isolation:isolate;opacity:.95;}.an{fill:#619438;}.ao{fill:#473a33;}.ap{fill:#755443;}.aq{fill:#9b6f59;}.ar{fill:#89b342;}.as{fill:#6dcaf2;}.at{fill:#56c2f0;}.au{fill:#dde3e0;}.av{fill:#a59f9b;}.aw{fill:#b82214;}.ax{fill:#8e6652;}.ay{fill:#7ebb4b;}.az{fill:#7c7c7b;}.ba{fill:#941b10;}.bb{fill:#825d4a;}.bc{fill:#654b3d;}.bd{fill:#eece95;}.be{fill:#e5b561;}.bf{fill:#f4f6f5;}</style></defs><g id="b"><rect class="at" width="1921" height="1080"/></g><rect class="bc" x="1437.25" y="624.38" width="83.04" height="395.85" rx="10.5" ry="10.5"/><path class="ao" d="m1509.79,625.88c4.96,0,9,4.04,9,9v374.85c0,4.96-4.04,9-9,9h-62.04c-4.96,0-9-4.04-9-9v-374.85c0-4.96,4.04-9,9-9h62.04m0-3h-62.04c-6.6,0-12,5.4-12,12v374.85c0,6.6,5.4,12,12,12h62.04c6.6,0,12-5.4,12-12v-374.85c0-6.6-5.4-12-12-12h0Z"/><path class="ay" d="m1480.23,746.46c-36.35-.15-67.8-26.29-73.17-60.81-.44-26.92-2.19-27.04-3.59-27.14h-.05c-1.31,0-2.83.25-6.11,19.13-9.79,6.92-25.46,15.04-45.14,15.04-1.29,0-2.59-.04-3.88-.11-4.55-.25-13.03-.72-21.83-4.91-15.39-7.33-28.65-24.84-33.78-44.61-3.42-13.2-2.41-24.95,2.78-32.25,7.26-10.21,21.71-11.03,34.46-11.75,10.57-.6,19.69-1.12,21.87-7.3,2.14-6.09-4.4-11.45-13.45-18.88-10.58-8.68-25.06-20.57-32.31-39.47-7.89-20.58-8.27-49.99,9.54-65.95,8.8-7.89,21.53-12.24,35.84-12.24,15.45,0,31.75,5.08,45.92,14.3.42.42,1.08.65,1.89.65s1.69-.24,2.36-.66c1.06-.66,1.46-1.63,1.81-2.48l.14-.33c.3-.69.45-.89.94-1.56.41-.56,1.04-1.4,2.1-2.99.64-.97,1.58-2.67,2.88-5.02,6.06-10.95,20.26-36.59,40.64-51.02,4.78-3.38,10.49-6.57,14.66-8.9,6.53-3.65,15.59-8.28,20.28-10.08,5.36-2.06,12.5-3.23,19.58-3.23,14.2,0,26.21,4.41,32.94,12.09,15.31,17.46,16.49,64.93,16.5,65.41.01,1.34.04,5.16,2.68,7.26,1.15.92,2.65,1.38,4.45,1.38.58,0,1.21-.05,1.86-.15l.32-.05.23-.23c6.63-6.55,12.19-13.84,16.51-21.68,2.12-3.83,3.44-6.87,4.62-9.56,1.99-4.55,3.3-7.56,6.88-10.58,6.33-5.35,14.29-6.08,21.24-6.08.99,0,1.93.01,2.82.03h.28c5.88.09,15.73.23,23.79,6.52,1.75,1.37,2.67,2.43,4.19,4.21,1.47,1.71,3.49,4.05,7.27,7.84,3.53,3.53,6.56,6.2,8.37,7.79.86.76,1.54,1.36,1.76,1.6,11.15,12.26,17.6,36.09,16.05,59.3-1.35,20.28-8.48,36.81-20.06,46.56-12.3,10.35-28.34,12.49-38.96,13.9-7.92,1.05-12.69,1.69-13.01,4.94-.36,3.68,6,5.27,16.53,7.91,15.95,4,40.06,10.04,50.26,27.17,12.32,20.69,5.01,57.75-23.22,76.36-10.78,7.11-23.56,10.87-36.94,10.87-18.22,0-35.41-6.82-48.4-19.22l-.69-.66-8.78,8.42-.05.33c-5.37,34.71-36.97,60.88-73.51,60.88h-.32.01Z"/><path class="an" d="m1504.6,384.9c13.91,0,25.65,4.28,32.19,11.75,15.08,17.21,16.25,64.29,16.25,64.76v.09c.01,1.37.05,5.54,3.05,7.94,1.33,1.06,3.04,1.6,5.08,1.6.63,0,1.31-.05,2.01-.16l.64-.1.46-.46c6.7-6.62,12.31-13.99,16.69-21.9,2.14-3.87,3.54-7.07,4.66-9.64,1.93-4.42,3.21-7.34,6.6-10.22,6.08-5.15,13.82-5.84,20.59-5.84.98,0,1.92.01,2.81.03h.29c5.76.09,15.39.22,23.19,6.31,1.67,1.3,2.57,2.35,4.05,4.07,1.48,1.72,3.51,4.08,7.32,7.89,3.56,3.56,6.6,6.23,8.41,7.84.77.68,1.5,1.32,1.68,1.52,10.98,12.07,17.32,35.61,15.79,58.56-1.34,20-8.33,36.29-19.7,45.86-5.31,4.47-11.74,7.77-19.63,10.08-6.8,1.99-13.46,2.88-18.82,3.59-8.12,1.08-13.48,1.8-13.88,5.83-.45,4.54,6.23,6.21,17.28,8.98,15.79,3.96,39.66,9.93,49.64,26.71,12.09,20.31,4.86,56.7-22.91,75.01-10.62,7-23.2,10.7-36.39,10.7-17.96,0-34.91-6.73-47.71-18.94l-1.38-1.32-1.38,1.32-7.84,7.52-.49.47-.1.67c-5.29,34.22-36.47,60.03-72.52,60.03h-.32c-17.43-.07-34.35-6.2-47.64-17.25-13.24-11.01-21.95-26.15-24.54-42.64-.42-25.9-1.99-27.88-4.52-28.06h-.17c-2.21,0-3.79,1.34-6.98,19.56-9.69,6.78-25.03,14.62-44.22,14.62-1.27,0-2.56-.04-3.83-.11-4.48-.25-12.83-.71-21.45-4.82-15.14-7.21-28.19-24.47-33.24-43.96-3.35-12.91-2.39-24.36,2.63-31.42,6.99-9.82,21.18-10.62,33.7-11.33,10.92-.62,20.36-1.15,22.75-7.97,2.37-6.75-4.39-12.3-13.76-19.98-10.49-8.61-24.86-20.4-32.01-39.05-3.94-10.28-5.74-22.35-4.94-33.11.99-13.32,5.9-24.3,14.21-31.74,8.62-7.73,21.11-11.98,35.18-11.98,15.23,0,31.31,5,45.29,14.08.61.56,1.48.86,2.52.86s2.06-.3,2.89-.81c1.33-.83,1.84-2.05,2.21-2.95l.13-.31c.25-.58.34-.7.83-1.36.42-.56,1.05-1.42,2.13-3.04.67-1,1.61-2.72,2.92-5.08,6.03-10.89,20.15-36.39,40.34-50.69,4.74-3.35,10.42-6.53,14.57-8.85,6.49-3.63,15.49-8.23,20.15-10.01,5.25-2.01,12.26-3.17,19.22-3.17m0-2c-7.47,0-14.59,1.25-19.94,3.3-4.59,1.76-13.46,6.26-20.41,10.14-4.21,2.35-9.93,5.55-14.75,8.96-24.71,17.5-40.07,50.71-43.78,56.29-2.36,3.56-2.51,3.28-3.13,4.71-.39.91-.66,1.79-1.56,2.36-.55.34-1.23.51-1.83.51-.55,0-1.03-.14-1.24-.42-15.05-9.83-31.54-14.53-46.57-14.53s-27.36,4.29-36.51,12.49c-19.44,17.42-16.94,48.44-9.8,67.05,13.29,34.67,50,45.54,45.74,57.65-4.36,12.4-42.53-.4-56.2,18.8-13.77,19.35,2.53,64.59,31.38,78.34,8.8,4.19,17.25,4.73,22.2,5.01,1.33.07,2.65.11,3.94.11,22.45,0,39.23-10.6,46.05-15.46,2.16-12.48,3.87-18.71,5.15-18.71h.03c1.5.11,2.38,8.85,2.66,26.23,5.45,35.21,37.18,61.57,74.17,61.73h.33c37.09,0,69.03-26.39,74.5-61.73,2.61-2.51,5.23-5.01,7.84-7.52,13.53,12.91,31.38,19.5,49.09,19.5,13.18,0,26.28-3.64,37.49-11.04,28.78-18.98,36.01-56.73,23.53-77.71-16.44-27.61-67.41-26.78-66.65-34.47.62-6.25,30.98-.8,51.62-18.17,28.98-24.39,24.69-84.65,4.1-107.3-.76-.83-4.85-4.11-10.16-9.42-7.69-7.69-7.98-9.33-11.56-12.12-8.33-6.49-18.37-6.64-24.39-6.72-.98-.01-2.03-.03-3.12-.03-6.67,0-15.17.63-21.89,6.31-5.89,4.98-5.96,9.98-11.72,20.42-3.92,7.09-9.18,14.38-16.34,21.45-.52.08-1.1.14-1.71.14-1.29,0-2.7-.26-3.83-1.17-2.32-1.86-2.29-5.45-2.3-6.49-.05-4.38-1.82-49.02-16.75-66.05-7.87-8.98-21.27-12.43-33.7-12.43h.02Zm-106.19,84.29c-.16,0-.77.94-.49,1.47l.06.09c.08.05.16.1.24.15.18-.86.33-1.68.21-1.72h-.02Z"/><rect class="bc" x="143.58" y="618.79" width="83.04" height="392.9" rx="10.5" ry="10.5"/><path class="ao" d="m216.12,620.29c4.96,0,9,4.04,9,9v371.9c0,4.96-4.04,9-9,9h-62.04c-4.96,0-9-4.04-9-9v-371.9c0-4.96,4.04-9,9-9h62.04m0-3h-62.04c-6.6,0-12,5.4-12,12v371.9c0,6.6,5.4,12,12,12h62.04c6.6,0,12-5.4,12-12v-371.9c0-6.6-5.4-12-12-12h0Z"/><path class="ay" d="m186.56,739.94c-36.35-.15-67.8-26.09-73.18-60.36-.44-26.73-2.19-26.85-3.59-26.95h-.05c-1.31,0-2.83.25-6.11,18.99-9.79,6.87-25.46,14.93-45.13,14.93-1.29,0-2.6-.04-3.89-.11-4.55-.25-13.03-.71-21.83-4.88-15.44-7.3-28.72-24.74-33.82-44.42-3.38-13.04-2.35-24.65,2.82-31.86,7.26-10.13,21.71-10.94,34.46-11.66,10.57-.59,19.69-1.11,21.87-7.25,2.14-6.05-4.4-11.38-13.45-18.75-10.58-8.62-25.06-20.41-32.3-39.17-7.89-20.42-8.27-49.61,9.53-65.45,8.8-7.83,21.53-12.15,35.85-12.15,15.45,0,31.75,5.04,45.92,14.19.42.42,1.08.64,1.89.64s1.69-.24,2.36-.65c1.06-.66,1.46-1.62,1.82-2.47l.14-.32c.3-.68.45-.88.94-1.55.41-.55,1.04-1.39,2.1-2.97.64-.96,1.58-2.65,2.88-4.98,6.06-10.87,20.26-36.32,40.64-50.64,4.78-3.36,10.49-6.53,14.66-8.84,6.52-3.62,15.58-8.21,20.28-10,5.36-2.04,12.5-3.21,19.58-3.21,14.2,0,26.21,4.37,32.95,12,15.31,17.34,16.49,64.45,16.5,64.92.01,1.33.04,5.12,2.68,7.22,1.15.91,2.65,1.37,4.45,1.37.58,0,1.21-.05,1.86-.15l.32-.05.23-.23c6.63-6.5,12.19-13.74,16.52-21.52,2.12-3.8,3.45-6.82,4.62-9.49,1.99-4.52,3.3-7.5,6.87-10.5,6.33-5.32,14.29-6.03,21.25-6.03.98,0,1.93.01,2.82.03h.28c5.88.09,15.73.23,23.79,6.47,1.75,1.35,2.67,2.42,4.19,4.17,1.47,1.7,3.49,4.02,7.27,7.78,3.53,3.51,6.56,6.15,8.37,7.73.86.75,1.54,1.35,1.76,1.59,11.14,12.16,17.59,35.79,16.05,58.8-1.34,20.15-8.47,36.58-20.06,46.26-12.3,10.27-28.35,12.4-38.97,13.8-7.92,1.05-12.69,1.68-13.01,4.91-.36,3.66,6,5.24,16.53,7.86,15.95,3.97,40.06,9.96,50.26,26.97,12.32,20.54,5,57.31-23.22,75.78-10.78,7.06-23.56,10.79-36.94,10.79-18.22,0-35.41-6.77-48.41-19.08l-.69-.65-8.78,8.35-.05.34c-5.37,34.45-36.97,60.43-73.51,60.43h-.32v.02Z"/><path class="an" d="m210.93,381.07c13.92,0,25.65,4.25,32.2,11.66,15.08,17.07,16.24,63.8,16.25,64.26v.09c.01,1.36.05,5.51,3.06,7.9,1.33,1.06,3.04,1.59,5.07,1.59.63,0,1.31-.05,2.01-.16l.64-.1.46-.45c6.7-6.57,12.32-13.89,16.69-21.75,2.14-3.84,3.54-7.02,4.66-9.57,1.93-4.39,3.21-7.29,6.6-10.14,6.08-5.11,13.83-5.8,20.6-5.8.98,0,1.92.01,2.8.03h.29c5.76.09,15.4.22,23.2,6.26,1.67,1.29,2.57,2.33,4.05,4.04,1.48,1.71,3.51,4.05,7.32,7.83,3.56,3.53,6.6,6.19,8.42,7.78.77.67,1.5,1.31,1.68,1.51,10.96,11.97,17.31,35.3,15.79,58.06-1.33,19.87-8.32,36.05-19.7,45.56-5.31,4.44-11.74,7.71-19.63,10.01-6.8,1.98-13.47,2.86-18.82,3.57-8.12,1.07-13.48,1.78-13.88,5.8-.45,4.52,6.23,6.18,17.29,8.93,15.79,3.93,39.66,9.86,49.64,26.51,12.08,20.15,4.85,56.26-22.91,74.43-10.62,6.95-23.21,10.63-36.4,10.63-17.97,0-34.91-6.68-47.72-18.8l-1.38-1.31-1.38,1.31-7.84,7.46-.49.47-.1.67c-5.29,33.97-36.47,59.58-72.52,59.58h-.32c-17.44-.07-34.36-6.16-47.65-17.13-13.24-10.93-21.95-25.95-24.53-42.32-.42-25.71-1.99-27.68-4.52-27.86h-.17c-2.21,0-3.79,1.33-6.98,19.41-9.69,6.73-25.04,14.51-44.22,14.51-1.27,0-2.56-.04-3.83-.11-4.48-.25-12.83-.7-21.46-4.78-15.19-7.18-28.25-24.36-33.28-43.76-3.3-12.75-2.33-24.06,2.66-31.02,6.98-9.74,21.18-10.54,33.7-11.25,10.92-.61,20.36-1.14,22.75-7.91,2.38-6.71-4.39-12.23-13.76-19.86-10.49-8.54-24.86-20.25-32-38.76-3.94-10.2-5.74-22.17-4.93-32.85.99-13.22,5.9-24.11,14.2-31.49,8.62-7.67,21.11-11.89,35.18-11.89,15.23,0,31.31,4.96,45.3,13.98.61.55,1.48.86,2.51.86s2.06-.29,2.88-.8c1.33-.83,1.84-2.04,2.21-2.93l.13-.31c.25-.58.34-.69.82-1.34.42-.56,1.05-1.41,2.13-3.02.67-1,1.61-2.7,2.93-5.05,6.03-10.81,20.15-36.12,40.34-50.31,4.74-3.33,10.42-6.48,14.57-8.78,6.49-3.6,15.49-8.17,20.15-9.94,5.25-2,12.26-3.15,19.23-3.15m0-2c-7.47,0-14.59,1.24-19.94,3.28-4.59,1.75-13.46,6.21-20.41,10.06-4.21,2.34-9.93,5.51-14.75,8.9-24.71,17.37-40.07,50.33-43.78,55.88-2.36,3.53-2.51,3.25-3.13,4.68-.39.9-.66,1.78-1.56,2.34-.55.34-1.23.5-1.83.5-.55,0-1.03-.14-1.24-.41-15.05-9.75-31.54-14.42-46.57-14.42s-27.36,4.25-36.51,12.4c-19.44,17.29-16.94,48.08-9.8,66.56,13.29,34.41,50,45.2,45.74,57.23-4.36,12.3-42.53-.4-56.2,18.66-13.77,19.21,2.53,64.11,31.38,77.76,8.8,4.16,17.25,4.7,22.2,4.97,1.33.07,2.65.11,3.94.11,22.45,0,39.23-10.52,46.05-15.35,2.16-12.38,3.87-18.58,5.15-18.57h.03c1.5.11,2.38,8.78,2.66,26.04,5.45,34.95,37.18,61.12,74.17,61.27h.33c37.09,0,69.03-26.19,74.5-61.27,2.61-2.49,5.23-4.98,7.84-7.46,13.53,12.82,31.38,19.35,49.09,19.35,13.18,0,26.28-3.62,37.49-10.95,28.78-18.84,36.01-56.31,23.53-77.13-16.44-27.41-67.41-26.58-66.65-34.21.62-6.2,30.98-.79,51.62-18.04,28.98-24.21,24.69-84.03,4.1-106.51-.76-.83-4.85-4.08-10.16-9.35-7.69-7.63-7.98-9.26-11.56-12.03-8.33-6.45-18.37-6.59-24.39-6.68-.98-.01-2.03-.03-3.12-.03-6.67,0-15.17.62-21.89,6.27-5.89,4.95-5.96,9.91-11.72,20.27-3.92,7.04-9.18,14.27-16.34,21.29-.52.08-1.1.14-1.71.14-1.29,0-2.7-.26-3.83-1.16-2.32-1.84-2.29-5.41-2.3-6.44-.05-4.35-1.82-48.66-16.75-65.57-7.87-8.91-21.27-12.34-33.7-12.34h0l.02-.04Zm-106.19,83.67c-.16,0-.77.93-.49,1.46.02.03.04.06.06.09.08.05.16.1.24.15.18-.86.33-1.67.21-1.7h-.02Z"/><g id="c"><rect class="bc" x="345.5" y="621.5" width="83" height="394" rx="10.5" ry="10.5"/><path class="ao" d="m418,623c4.96,0,9,4.04,9,9v373c0,4.96-4.04,9-9,9h-62c-4.96,0-9-4.04-9-9v-373c0-4.96,4.04-9,9-9h62m0-3h-62c-6.6,0-12,5.4-12,12v373c0,6.6,5.4,12,12,12h62c6.6,0,12-5.4,12-12v-373c0-6.6-5.4-12-12-12h0Z"/><path class="ay" d="m388.46,743c-36.34-.15-67.76-26.17-73.14-60.53-.44-26.8-2.19-26.92-3.59-27.02h-.05c-1.31,0-2.83.25-6.11,19.05-9.78,6.89-25.45,14.97-45.11,14.97-1.29,0-2.6-.04-3.88-.11-4.55-.25-13.02-.72-21.82-4.89-15.41-7.31-28.67-24.77-33.78-44.48-3.4-13.1-2.38-24.77,2.8-32.01,7.26-10.16,21.7-10.97,34.44-11.69,10.56-.6,19.68-1.11,21.86-7.27,2.14-6.06-4.4-11.4-13.44-18.8-10.57-8.64-25.05-20.47-32.29-39.28-7.88-20.48-8.26-49.76,9.53-65.64,8.8-7.85,21.52-12.18,35.83-12.18,15.44,0,31.74,5.05,45.89,14.23.42.42,1.08.65,1.89.65s1.69-.24,2.36-.66c1.06-.66,1.46-1.62,1.81-2.47l.14-.33c.3-.69.45-.89.94-1.55.41-.55,1.04-1.39,2.1-2.98.64-.97,1.58-2.65,2.88-4.99,6.06-10.9,20.25-36.42,40.61-50.78,4.78-3.37,10.49-6.55,14.65-8.86,6.52-3.63,15.57-8.24,20.27-10.03,5.36-2.05,12.49-3.22,19.57-3.22,14.19,0,26.2,4.39,32.93,12.04,15.3,17.39,16.48,64.63,16.49,65.1.01,1.34.04,5.14,2.68,7.23,1.15.91,2.65,1.38,4.45,1.38.58,0,1.21-.05,1.86-.15l.32-.05.23-.23c6.63-6.52,12.18-13.78,16.51-21.58,2.11-3.81,3.44-6.84,4.62-9.51,1.99-4.53,3.3-7.52,6.87-10.53,6.32-5.33,14.28-6.05,21.23-6.05.99,0,1.93.01,2.83.03h.28c5.88.09,15.72.23,23.78,6.49,1.75,1.36,2.67,2.42,4.19,4.19,1.47,1.7,3.48,4.03,7.27,7.8,3.53,3.52,6.55,6.17,8.36,7.75.86.75,1.54,1.35,1.76,1.59,11.14,12.2,17.58,35.9,16.04,58.99-1.35,20.2-8.47,36.66-20.05,46.37-12.29,10.3-28.33,12.43-38.94,13.84-7.91,1.05-12.69,1.68-13.01,4.92-.36,3.67,5.99,5.25,16.52,7.88,15.94,3.98,40.04,9.99,50.23,27.04,12.31,20.59,5,57.47-23.2,76-10.78,7.08-23.54,10.82-36.92,10.82-18.21,0-35.39-6.79-48.38-19.13l-.69-.66-8.77,8.38-.05.34c-5.36,34.54-36.95,60.6-73.47,60.6h-.32v-.02Z"/><path class="an" d="m412.82,383.13c13.91,0,25.64,4.26,32.18,11.7,15.07,17.12,16.23,63.98,16.24,64.45v.09c.01,1.37.05,5.52,3.05,7.92,1.33,1.06,3.04,1.6,5.07,1.6.63,0,1.31-.05,2.01-.16l.64-.1.46-.46c6.7-6.59,12.31-13.92,16.68-21.81,2.14-3.85,3.53-7.04,4.66-9.6,1.93-4.4,3.21-7.31,6.6-10.17,6.08-5.12,13.82-5.81,20.59-5.81.98,0,1.92.01,2.81.03h.28c5.75.09,15.39.22,23.18,6.28,1.67,1.3,2.57,2.33,4.05,4.05,1.48,1.71,3.51,4.06,7.32,7.86,3.55,3.54,6.59,6.21,8.41,7.8.77.68,1.5,1.31,1.68,1.51,10.96,12.01,17.31,35.42,15.78,58.25-1.33,19.92-8.32,36.14-19.69,45.67-5.31,4.45-11.73,7.74-19.62,10.04-6.8,1.98-13.46,2.87-18.81,3.58-8.11,1.08-13.47,1.79-13.87,5.81-.45,4.52,6.22,6.19,17.28,8.95,15.78,3.94,39.64,9.89,49.62,26.58,12.08,20.21,4.85,56.42-22.89,74.65-10.61,6.97-23.19,10.66-36.37,10.66-17.96,0-34.89-6.7-47.69-18.86l-1.38-1.31-1.38,1.32-3.82,3.65-4.01,3.83-.49.47-.1.67c-5.29,34.06-36.45,59.75-72.48,59.75h-.32c-17.43-.07-34.34-6.17-47.62-17.18-13.23-10.96-21.94-26.03-24.52-42.44-.42-25.78-1.99-27.75-4.51-27.93h-.17c-2.21,0-3.79,1.33-6.97,19.47-9.68,6.75-25.02,14.55-44.2,14.55-1.27,0-2.56-.04-3.83-.11-4.48-.25-12.82-.71-21.44-4.79-15.16-7.19-28.21-24.39-33.24-43.83-3.32-12.81-2.36-24.18,2.65-31.18,6.98-9.77,21.17-10.57,33.69-11.28,10.92-.62,20.35-1.15,22.74-7.93,2.37-6.73-4.39-12.25-13.75-19.9-10.48-8.57-24.84-20.3-31.99-38.87-3.94-10.23-5.73-22.24-4.93-32.95.99-13.26,5.9-24.18,14.2-31.58,8.61-7.69,21.1-11.93,35.16-11.93,15.22,0,31.29,4.98,45.27,14.02.61.56,1.48.86,2.52.86s2.06-.29,2.89-.81c1.33-.83,1.84-2.05,2.21-2.94l.13-.31c.25-.58.34-.7.82-1.35.42-.56,1.05-1.41,2.13-3.03.67-1,1.61-2.7,2.92-5.06,6.03-10.84,20.14-36.22,40.32-50.45,4.73-3.34,10.42-6.5,14.56-8.81,6.49-3.61,15.48-8.19,20.14-9.97,5.25-2,12.25-3.15,19.21-3.15m0-2c-7.47,0-14.58,1.24-19.93,3.29-4.59,1.75-13.45,6.23-20.39,10.09-4.21,2.34-9.92,5.52-14.74,8.92-24.7,17.42-40.05,50.47-43.75,56.03-2.36,3.54-2.51,3.26-3.12,4.69-.39.9-.66,1.79-1.56,2.35-.55.34-1.23.5-1.83.5-.55,0-1.03-.14-1.24-.41-15.04-9.78-31.53-14.46-46.55-14.46s-27.34,4.27-36.49,12.43c-19.43,17.34-16.93,48.21-9.8,66.74,13.28,34.5,49.98,45.33,45.72,57.39-4.36,12.34-42.51-.4-56.17,18.71-13.76,19.26,2.53,64.29,31.37,77.98,8.79,4.17,17.24,4.71,22.19,4.98,1.33.07,2.64.11,3.94.11,22.44,0,39.21-10.55,46.03-15.39,2.15-12.42,3.87-18.63,5.15-18.63h.03c1.5.11,2.38,8.81,2.66,26.11,5.44,35.05,37.16,61.29,74.13,61.44h.32c37.07,0,69-26.27,74.46-61.44,2.61-2.5,5.23-4.99,7.84-7.49,13.53,12.85,31.36,19.41,49.07,19.41,13.17,0,26.27-3.63,37.47-10.98,28.77-18.89,35.99-56.47,23.51-77.35-16.43-27.49-67.38-26.66-66.62-34.31.62-6.22,30.96-.79,51.6-18.09,28.97-24.28,24.68-84.26,4.1-106.8-.76-.83-4.84-4.09-10.15-9.38-7.69-7.65-7.98-9.29-11.55-12.07-8.32-6.46-18.36-6.61-24.38-6.69-.98-.01-2.03-.03-3.12-.03-6.67,0-15.16.62-21.87,6.28-5.89,4.96-5.95,9.94-11.72,20.32-3.91,7.06-9.18,14.31-16.33,21.35-.52.08-1.1.14-1.71.14-1.29,0-2.7-.26-3.82-1.16-2.32-1.85-2.29-5.42-2.3-6.46-.05-4.36-1.82-48.8-16.74-65.75-7.86-8.93-21.26-12.37-33.68-12.37h-.03Zm-106.14,83.9c-.16,0-.77.94-.49,1.47.02.03.04.06.06.09.08.05.16.1.24.15.18-.86.33-1.67.21-1.71h-.02Z"/></g><g id="d"><rect class="bc" x="1681.5" y="621.5" width="83" height="394" rx="10.5" ry="10.5"/><path class="ao" d="m1754,623c4.96,0,9,4.04,9,9v373c0,4.96-4.04,9-9,9h-62c-4.96,0-9-4.04-9-9v-373c0-4.96,4.04-9,9-9h62m0-3h-62c-6.6,0-12,5.4-12,12v373c0,6.6,5.4,12,12,12h62c6.6,0,12-5.4,12-12v-373c0-6.6-5.4-12-12-12h0Z"/><path class="ay" d="m1724.46,743c-36.33-.15-67.76-26.17-73.14-60.53-.44-26.8-2.19-26.92-3.59-27.02h-.05c-1.3,0-2.83.25-6.11,19.05-9.78,6.89-25.45,14.97-45.11,14.97-1.29,0-2.59-.04-3.88-.11-4.55-.25-13.02-.72-21.82-4.89-15.41-7.31-28.67-24.77-33.78-44.48-3.4-13.1-2.38-24.77,2.8-32.01,7.26-10.16,21.7-10.97,34.44-11.69,10.56-.6,19.68-1.11,21.86-7.27,2.14-6.06-4.4-11.4-13.44-18.8-10.57-8.64-25.05-20.47-32.29-39.28-7.88-20.48-8.26-49.76,9.53-65.64,8.8-7.85,21.52-12.18,35.83-12.18,15.44,0,31.74,5.05,45.89,14.23.42.42,1.08.65,1.89.65s1.69-.24,2.36-.66c1.06-.66,1.46-1.62,1.82-2.48l.14-.32c.3-.69.45-.89.94-1.55.41-.55,1.04-1.39,2.1-2.98.64-.97,1.58-2.65,2.88-4.99,6.06-10.9,20.25-36.42,40.61-50.78,4.78-3.37,10.49-6.55,14.65-8.86,6.52-3.63,15.57-8.23,20.26-10.03,5.36-2.05,12.49-3.22,19.57-3.22,14.19,0,26.2,4.39,32.93,12.04,15.31,17.39,16.48,64.63,16.49,65.1.01,1.34.05,5.14,2.68,7.23,1.15.91,2.64,1.38,4.45,1.38.58,0,1.21-.05,1.86-.15l.32-.05.23-.23c6.63-6.52,12.18-13.78,16.51-21.58,2.11-3.81,3.44-6.84,4.62-9.51,1.99-4.53,3.3-7.52,6.87-10.53,6.32-5.33,14.28-6.05,21.23-6.05.99,0,1.93.01,2.83.03h.28c5.88.09,15.72.23,23.78,6.49,1.75,1.36,2.67,2.42,4.19,4.19,1.47,1.7,3.48,4.03,7.27,7.8,3.53,3.52,6.55,6.17,8.36,7.75.86.75,1.54,1.35,1.76,1.59,11.14,12.2,17.58,35.9,16.04,58.99-1.35,20.2-8.47,36.66-20.05,46.37-12.29,10.3-28.33,12.43-38.94,13.84-7.91,1.05-12.69,1.68-13.01,4.92-.36,3.67,5.99,5.25,16.52,7.88,15.94,3.98,40.04,9.99,50.23,27.04,12.31,20.59,5,57.47-23.2,76-10.78,7.08-23.54,10.82-36.92,10.82-18.21,0-35.4-6.79-48.38-19.13l-.69-.66-8.77,8.38-.05.34c-5.36,34.54-36.95,60.6-73.47,60.6h-.32v-.02Z"/><path class="an" d="m1748.82,383.13c13.91,0,25.64,4.26,32.18,11.7,15.07,17.12,16.23,63.98,16.24,64.45v.09c.01,1.37.05,5.52,3.05,7.92,1.33,1.06,3.04,1.6,5.07,1.6.63,0,1.31-.05,2.01-.16l.64-.1.46-.46c6.7-6.59,12.31-13.92,16.68-21.81,2.14-3.85,3.53-7.04,4.66-9.6,1.93-4.4,3.21-7.31,6.6-10.17,6.08-5.12,13.82-5.81,20.59-5.81.98,0,1.92.01,2.81.03h.28c5.75.09,15.39.22,23.18,6.28,1.67,1.3,2.57,2.33,4.05,4.05,1.48,1.71,3.51,4.06,7.32,7.86,3.55,3.54,6.59,6.21,8.41,7.8.77.68,1.5,1.31,1.68,1.51,10.96,12.01,17.31,35.42,15.78,58.25-1.33,19.92-8.32,36.14-19.69,45.67-5.31,4.45-11.73,7.74-19.62,10.04-6.8,1.98-13.46,2.87-18.81,3.58-8.11,1.08-13.47,1.79-13.87,5.81-.45,4.52,6.22,6.19,17.28,8.95,15.78,3.94,39.64,9.89,49.62,26.58,12.08,20.21,4.85,56.42-22.89,74.65-10.61,6.97-23.19,10.66-36.37,10.66-17.96,0-34.89-6.7-47.69-18.86l-1.38-1.31-1.38,1.32-7.84,7.49-.49.47-.1.67c-5.29,34.06-36.45,59.75-72.48,59.75h-.32c-17.43-.07-34.34-6.17-47.62-17.18-13.23-10.96-21.94-26.03-24.52-42.44-.42-25.78-1.99-27.75-4.52-27.93h-.17c-2.21,0-3.79,1.33-6.97,19.47-9.68,6.75-25.02,14.55-44.2,14.55-1.27,0-2.56-.04-3.83-.11-4.48-.25-12.82-.71-21.44-4.79-15.16-7.19-28.21-24.39-33.24-43.83-3.32-12.81-2.36-24.18,2.65-31.18,6.98-9.77,21.17-10.57,33.69-11.28,10.92-.62,20.35-1.15,22.74-7.93,2.37-6.73-4.39-12.25-13.75-19.9-10.48-8.57-24.84-20.3-31.99-38.87-3.94-10.23-5.73-22.24-4.93-32.95.99-13.26,5.9-24.18,14.2-31.58,8.61-7.69,21.1-11.93,35.16-11.93,15.22,0,31.29,4.98,45.27,14.02.61.56,1.48.86,2.52.86s2.06-.29,2.89-.81c1.33-.83,1.84-2.05,2.21-2.94l.13-.31c.25-.58.34-.7.83-1.35.42-.56,1.05-1.41,2.13-3.03.67-1,1.61-2.7,2.92-5.06,6.03-10.84,20.14-36.22,40.32-50.45,4.73-3.34,10.42-6.5,14.56-8.81,6.49-3.61,15.48-8.19,20.14-9.97,5.25-2,12.25-3.15,19.21-3.15m0-2c-7.47,0-14.58,1.24-19.93,3.29-4.59,1.75-13.45,6.23-20.39,10.09-4.21,2.34-9.92,5.52-14.74,8.92-24.7,17.42-40.05,50.47-43.75,56.03-2.36,3.54-2.51,3.26-3.12,4.69-.39.9-.66,1.79-1.56,2.35-.55.34-1.23.5-1.83.5-.55,0-1.03-.14-1.24-.42-15.04-9.78-31.53-14.46-46.55-14.46s-27.34,4.27-36.49,12.43c-19.43,17.34-16.93,48.21-9.8,66.74,13.28,34.5,49.98,45.33,45.72,57.39-4.36,12.34-42.51-.4-56.17,18.71-13.76,19.26,2.53,64.29,31.37,77.98,8.79,4.17,17.24,4.71,22.19,4.98,1.33.07,2.64.11,3.94.11,22.44,0,39.21-10.55,46.03-15.39,2.15-12.42,3.87-18.63,5.15-18.63h.03c1.5.11,2.38,8.81,2.66,26.11,5.44,35.05,37.16,61.29,74.13,61.44h.32c37.07,0,69-26.27,74.46-61.44,2.61-2.5,5.23-4.99,7.84-7.49,13.53,12.85,31.36,19.41,49.07,19.41,13.17,0,26.27-3.63,37.47-10.98,28.77-18.89,35.99-56.47,23.51-77.35-16.43-27.49-67.38-26.66-66.62-34.31.62-6.22,30.96-.79,51.6-18.09,28.97-24.28,24.68-84.26,4.1-106.8-.76-.83-4.84-4.09-10.15-9.38-7.69-7.65-7.98-9.29-11.55-12.07-8.32-6.46-18.36-6.61-24.38-6.69-.98-.01-2.03-.03-3.12-.03-6.67,0-15.16.62-21.87,6.28-5.89,4.96-5.95,9.94-11.72,20.32-3.91,7.06-9.18,14.31-16.33,21.35-.52.08-1.1.14-1.71.14-1.29,0-2.7-.26-3.82-1.16-2.32-1.85-2.29-5.42-2.3-6.46-.05-4.36-1.82-48.8-16.74-65.75-7.86-8.93-21.26-12.37-33.68-12.37h-.03Zm-106.14,83.9c-.16,0-.77.94-.49,1.47l.06.09c.08.05.16.1.24.15.18-.86.33-1.67.21-1.71h-.02Z"/></g><g id="e"><path class="ar" d="m1593.27,1064.84c-48.45-.22-99.9-13.56-145.29-25.32-37.64-9.76-70.15-18.18-95.43-18.18-14.66,0-25.69,2.9-33.73,8.86l-.67.5c-3.44,2.6-12.56,9.49-21.23,9.49-1.62,0-3.15-.25-4.55-.75-11.75-4.17-14.75-25.65-15.38-32.13-1.27-12.94,7.86-31.22,25.71-51.48,27.48-31.19,71.46-62.58,120.65-86.14,58.92-28.22,122.19-44.03,182.97-45.73,3.95-.11,7.95-.17,11.9-.17,138.86,0,241.6,66.96,280.41,106.52,12.75,12.99,20.28,24.59,20.16,31.03,0,.29-.03.96-.07,1.97-.18,4.62-.6,15.42-.73,30.17-.09,10.04-.05,22.5-.02,28.49-5.64-1.98-16.47-5.76-16.65-5.83-1.97-.69-4.64-1.03-8.16-1.03-16.91,0-51.5,7.67-95.3,17.39-64.95,14.41-145.77,32.34-203.36,32.34h-1.23,0Z"/><path class="ar" d="m1618.23,826.29c31.44,0,63.03,3.54,93.91,10.52,27.31,6.18,54.15,15.05,79.76,26.38,59.6,26.36,93.25,56.94,104.95,68.87,14.48,14.76,19.53,24.97,19.45,29.23,0,.28-.03.95-.07,1.95-.18,4.63-.6,15.46-.73,30.21-.08,8.36-.06,18.39-.03,24.99-5.78-2.02-13.23-4.63-13.31-4.66-2.24-.78-5.17-1.16-8.98-1.16-17.18,0-51.89,7.7-95.84,17.45-64.83,14.38-145.5,32.28-202.82,32.28h-1.23c-48.14-.22-99.43-13.51-144.67-25.24-37.8-9.8-70.45-18.26-96.06-18.26-15.21,0-26.73,3.06-35.22,9.35-.19.14-.42.32-.69.52-2.94,2.22-11.9,8.99-19.72,8.99-1.33,0-2.58-.2-3.71-.61-6.99-2.48-12.13-13.71-13.73-30.03-1.19-12.06,7.96-30.14,25.1-49.58,27.27-30.94,70.95-62.12,119.85-85.54,58.61-28.07,121.53-43.8,181.96-45.49,3.93-.11,7.91-.17,11.84-.17m0-5c-3.97,0-7.95.05-11.97.17-182.23,5.1-336.96,133.13-331.75,186.1.4,4.08,2.87,29.22,17.03,34.25,1.76.62,3.57.89,5.39.89,10.18,0,20.62-8.44,23.38-10.49,8.03-5.96,19-8.37,32.24-8.37,55.99,0,152.7,43.1,240.71,43.5h1.25c96.05,0,256.82-49.72,298.66-49.72,3.14,0,5.61.28,7.33.88.09.03,20,7,20,7,0,0-.12-18.18,0-32,.16-18.16.77-30.57.8-32.12.55-28.75-124.82-140.09-303.07-140.09h0Z"/></g><g id="f"><path class="ar" d="m369.72,1072.25c-23.24,0-45.63-2.31-66.55-6.87-11.83-2.58-27.9-6.89-46.52-11.88-51.63-13.85-122.35-32.82-170.84-32.82-21.29,0-36.26,3.55-45.75,10.84l-.64.5c-2.97,2.33-12.02,9.42-20.25,9.42-1.52,0-2.95-.24-4.26-.72-11.18-4.1-14.01-25.37-14.6-31.79-1.26-13.52,8.41-32.7,27.22-54,27.01-30.58,69.15-61.16,115.6-83.92,55.65-27.25,115.29-42.59,172.47-44.35,3.84-.12,7.76-.18,11.66-.18,51.41,0,108,10.6,159.35,29.85,47.25,17.71,87,41.62,109.05,65.59,13.11,14.25,19.51,28.12,18.51,40.11-1.91,22.85-31.71,50.72-77.77,72.73-49.85,23.82-110.6,37.49-166.66,37.49h-.02Z"/><path class="ar" d="m327.21,823.99l.03,5c51.12,0,107.4,10.55,158.48,29.69,46.9,17.58,86.3,41.25,108.09,64.94,12.62,13.72,18.8,26.93,17.85,38.21-1.84,21.97-31.09,49.06-76.35,70.69-49.53,23.67-109.88,37.24-165.59,37.24-23.06,0-45.27-2.29-66.02-6.81-11.77-2.56-27.82-6.87-46.4-11.86-51.76-13.89-122.66-32.9-171.49-32.9-21.87,0-37.33,3.72-47.27,11.36-.19.14-.41.32-.66.52-2.81,2.2-11.34,8.89-18.71,8.89-1.22,0-2.37-.19-3.4-.57-7.79-2.85-11.81-17.2-12.98-29.67-1.18-12.64,8.52-31.64,26.6-52.11,26.8-30.34,68.65-60.71,114.83-83.33,55.33-27.1,114.61-42.35,171.44-44.1,3.81-.12,7.7-.18,11.55-.18v-5m.03,0c-3.92,0-7.82.06-11.73.18C141.16,829.55-7.09,956.69-2.2,1009.16c.38,4.04,2.7,28.94,16.23,33.9,1.67.61,3.39.88,5.12.88,9.75,0,19.77-8.4,22.42-10.44,9.59-7.37,25.18-10.33,44.23-10.33,65.46,0,171.86,34.85,216.83,44.65,21.93,4.78,44.55,6.93,67.08,6.93,122.21,0,242.79-63.11,246.92-112.51,4.81-57.52-144.83-138.25-289.4-138.26h0v.02Z"/></g><g id="g"><path class="av" d="m-1.13,1088.83c-6.39,0-11.59-5.52-11.59-12.3v-55.68c0-6.78,5.2-12.3,11.59-12.3h1912.04c6.39,0,11.59,5.52,11.59,12.3v55.68c-.19,4.67-.41,10.11-.48,11.79-2.15.1-10.75.5-11.12.51h.01H-1.13Z"/><path class="az" d="m1910.9,1009.09c6.12,0,11.09,5.27,11.09,11.76v55.63c-.28,6.97-.41,9.99-.46,11.32-1.24.05-4.08.18-10.62.49H-1.13c-6.12,0-11.09-5.27-11.09-11.76v-55.68c0-6.49,4.97-11.76,11.09-11.76h1912.04m0-1.08H-1.13c-6.65,0-12.1,5.78-12.1,12.85v55.68c0,7.06,5.44,12.85,12.1,12.85h1912.04c7.06-.33,11.59-.53,11.59-.53,0,0,.2-4.82.5-12.31v-55.68c0-7.06-5.44-12.85-12.1-12.85h0Z"/></g><g id="h"><path class="aq" d="m882,465c-4.96,0-9-4.04-9-9v-38c0-4.96,4.04-9,9-9s9,4.04,9,9v38c0,4.96-4.04,9-9,9Z"/><path class="bb" d="m882,411c3.86,0,7,3.14,7,7v38c0,3.86-3.14,7-7,7s-7-3.14-7-7v-38c0-3.86,3.14-7,7-7m0-4c-6.05,0-11,4.95-11,11v38c0,6.05,4.95,11,11,11s11-4.95,11-11v-38c0-6.05-4.95-11-11-11h0Z"/><path class="aq" d="m1038,465c-4.96,0-9-4.04-9-9v-38c0-4.96,4.04-9,9-9s9,4.04,9,9v38c0,4.96-4.04,9-9,9Z"/><path class="bb" d="m1038,411c3.86,0,7,3.14,7,7v38c0,3.86-3.14,7-7,7s-7-3.14-7-7v-38c0-3.86,3.14-7,7-7m0-4c-6.05,0-11,4.95-11,11v38c0,6.05,4.95,11,11,11s11-4.95,11-11v-38c0-6.05-4.95-11-11-11h0Z"/><rect class="bf" x="723" y="326" width="451" height="94" rx="10" ry="10"/><path class="au" d="m1164,328c4.41,0,8,3.59,8,8v74c0,4.41-3.59,8-8,8h-431c-4.41,0-8-3.59-8-8v-74c0-4.41,3.59-8,8-8h431m0-4h-431c-6.6,0-12,5.4-12,12v74c0,6.6,5.4,12,12,12h431c6.6,0,12-5.4,12-12v-74c0-6.6-5.4-12-12-12h0Z"/><path class="aa" d="m804.26,359.63c0-.77.52-1.53,1.56-2.27,1.04-.74,2.44-1.41,4.2-2s3.78-1.08,6.06-1.44c2.29-.36,4.68-.54,7.19-.54,3.47,0,6.59.45,9.37,1.35,2.78.9,5.14,2.17,7.08,3.81,1.95,1.64,3.45,3.62,4.5,5.94s1.58,4.89,1.58,7.7c0,3-.48,5.64-1.44,7.91-.96,2.27-2.33,4.17-4.1,5.7-1.77,1.52-3.9,2.67-6.4,3.43-2.5.76-5.27,1.14-8.31,1.14-.77,0-1.57-.05-2.39-.16-.82-.11-1.59-.23-2.32-.39-.73-.15-1.37-.3-1.93-.46-.56-.15-.97-.29-1.23-.4-.07.07-.14.16-.19.28-.06.12-.09.28-.09.49,0,.26.11.5.33.74.22.23.62.45,1.18.63.56.19,1.32.36,2.27.51.95.15,2.15.28,3.6.37v5.38c-.56.47-1.24.88-2.02,1.25-.79.36-1.62.67-2.51.93-.89.26-1.82.45-2.79.58-.97.13-1.94.19-2.9.19-1.34,0-2.62-.14-3.87-.4-1.24-.27-2.34-.7-3.29-1.28-.95-.59-1.71-1.34-2.29-2.27-.57-.93-.86-2.03-.86-3.32v-33.4Zm19.65,16.45c.07.05.18.08.33.09.15.01.25.02.3.02.56,0,.96-.18,1.2-.53.23-.35.35-.93.35-1.72v-2.67c0-.82-.1-1.42-.3-1.79-.2-.37-.57-.56-1.11-.56-.12,0-.26.01-.42.04-.16.02-.29.06-.39.11.02.19.04.39.04.6v6.43Z"/><path class="aa" d="m863.73,399.29c-1.77.68-3.9,1.02-6.38,1.02-1.31,0-2.58-.14-3.8-.42-1.22-.28-2.29-.71-3.22-1.28-.93-.57-1.66-1.3-2.21-2.18-.55-.88-.83-1.92-.83-3.11v-36.32c.96-.84,2.33-1.6,4.1-2.29,1.77-.68,3.9-1.02,6.38-1.02,1.31,0,2.58.14,3.8.42,1.22.28,2.29.71,3.22,1.28.93.57,1.66,1.3,2.21,2.18.55.88.83,1.92.83,3.11v36.32c-.96.84-2.33,1.61-4.1,2.29Z"/><path class="aa" d="m905.2,354.32c.35.38.72.87,1.11,1.48.39.61.74,1.35,1.07,2.21.33.87.6,1.86.81,2.99s.32,2.39.32,3.8c0,.82-.04,1.51-.11,2.07s-.16,1.06-.26,1.49c-.11.43-.23.84-.39,1.21-.15.38-.3.77-.44,1.2-1.41,1.99-2.92,3.88-4.54,5.66-1.62,1.78-3.23,3.43-4.85,4.96-3.38.12-5.89.4-7.56.86-1.66.46-2.5,1.01-2.5,1.67,0,.26.12.53.35.81.49-.21,1.12-.42,1.88-.63.76-.21,1.61-.4,2.55-.56.94-.16,1.93-.3,2.97-.4,1.04-.11,2.09-.16,3.15-.16h7.91c.68,1.22,1.24,2.53,1.69,3.94.44,1.41.67,2.71.67,3.9,0,1.36-.16,2.52-.47,3.48-.32.96-.74,1.77-1.28,2.43-.54.66-1.15,1.18-1.85,1.58-.69.4-1.42.7-2.18.9-.76.2-1.52.33-2.29.39-.76.06-1.48.09-2.16.09h-25.77c-1.27-1.31-2.19-2.96-2.78-4.96-.59-1.99-.88-4.3-.88-6.93,0-.4.03-.92.09-1.56.06-.64.15-1.24.26-1.78,1.12-1.34,2.33-2.71,3.6-4.13,1.28-1.42,2.57-2.83,3.88-4.24,1.31-1.41,2.62-2.77,3.94-4.1,1.31-1.32,2.57-2.56,3.76-3.71-.12-.52-.43-.77-.95-.77-.19,0-.37.04-.54.12-.18.08-.4.23-.69.46-.28.22-.64.54-1.07.97-.43.42-.98.98-1.63,1.69h-7.56c-.96-1.52-1.63-2.93-2-4.22-.38-1.29-.56-2.64-.56-4.04,0-1.03.09-1.97.26-2.81s.42-1.6.72-2.27c.3-.67.64-1.26,1-1.78.36-.52.74-.95,1.14-1.3h32.17Z"/><path class="aa" d="m946.22,354.32c.35.38.72.87,1.11,1.48.39.61.74,1.35,1.07,2.21.33.87.6,1.86.81,2.99s.32,2.39.32,3.8c0,.82-.04,1.51-.11,2.07s-.16,1.06-.26,1.49c-.11.43-.23.84-.39,1.21-.15.38-.3.77-.44,1.2-1.41,1.99-2.92,3.88-4.54,5.66-1.62,1.78-3.23,3.43-4.85,4.96-3.38.12-5.89.4-7.56.86-1.66.46-2.5,1.01-2.5,1.67,0,.26.12.53.35.81.49-.21,1.12-.42,1.88-.63.76-.21,1.61-.4,2.55-.56.94-.16,1.93-.3,2.97-.4,1.04-.11,2.09-.16,3.15-.16h7.91c.68,1.22,1.24,2.53,1.69,3.94.44,1.41.67,2.71.67,3.9,0,1.36-.16,2.52-.47,3.48-.32.96-.74,1.77-1.28,2.43-.54.66-1.15,1.18-1.85,1.58-.69.4-1.42.7-2.18.9-.76.2-1.52.33-2.29.39-.76.06-1.48.09-2.16.09h-25.77c-1.27-1.31-2.19-2.96-2.78-4.96-.59-1.99-.88-4.3-.88-6.93,0-.4.03-.92.09-1.56.06-.64.15-1.24.26-1.78,1.12-1.34,2.33-2.71,3.6-4.13,1.28-1.42,2.57-2.83,3.88-4.24,1.31-1.41,2.62-2.77,3.94-4.1,1.31-1.32,2.57-2.56,3.76-3.71-.12-.52-.43-.77-.95-.77-.19,0-.37.04-.54.12-.18.08-.4.23-.69.46-.28.22-.64.54-1.07.97-.43.42-.98.98-1.63,1.69h-7.56c-.96-1.52-1.63-2.93-2-4.22-.38-1.29-.56-2.64-.56-4.04,0-1.03.09-1.97.26-2.81s.42-1.6.72-2.27c.3-.67.64-1.26,1-1.78.36-.52.74-.95,1.14-1.3h32.17Z"/><path class="aa" d="m987.71,354.32c.3.49.59,1.04.84,1.63s.47,1.22.63,1.86c.16.65.29,1.29.39,1.93.09.65.14,1.25.14,1.81,0,2.41-.47,4.21-1.41,5.38-.94,1.17-2.23,1.76-3.87,1.76h-14.17c-.87,0-1.3.34-1.3,1.02v.28c0,.14.02.23.07.28h16.8c.21.35.41.77.6,1.25.19.48.35.98.47,1.51s.23,1.07.32,1.62c.08.55.12,1.07.12,1.56,0,1.41-.14,2.67-.42,3.78-.28,1.11-.66,2.03-1.12,2.76h-7.63c-1.99,0-3.64.05-4.94.16s-2.33.24-3.08.4c-.75.16-1.28.35-1.58.54-.3.2-.46.4-.46.62,0,.19.03.36.09.53.06.16.19.3.4.42.59-.19,1.18-.35,1.79-.49s1.29-.25,2.04-.33c.75-.08,1.59-.15,2.51-.19.93-.05,2-.07,3.22-.07h9.88c.26.38.52.79.77,1.25s.49.98.69,1.58.36,1.28.49,2.06.19,1.66.19,2.67c0,.63-.05,1.31-.14,2.02-.09.72-.23,1.42-.42,2.13s-.43,1.37-.74,2-.67,1.18-1.09,1.65h-26.33c-1.38,0-2.67-.17-3.87-.51-1.2-.34-2.24-.87-3.13-1.58-.89-.71-1.59-1.62-2.11-2.71-.52-1.09-.77-2.4-.77-3.92v-33.43c0-1.12,1.3-1.95,3.9-2.46,2.6-.52,6.57-.77,11.92-.77h20.29Z"/><path class="aa" d="m1035.8,388.91c-.4,3.59-1.53,6.38-3.39,8.38s-4.49,3.01-7.89,3.01c-1.1,0-2.21-.13-3.32-.39s-2.19-.72-3.23-1.39-2.02-1.58-2.94-2.74-1.7-2.64-2.36-4.45l-1.27-3.45c-.91-.02-1.65-.08-2.21-.16-.56-.08-1.07-.16-1.51-.23-.07.07-.13.16-.19.28-.06.12-.09.28-.09.49,0,.28.19.52.56.72.38.2,1.14.33,2.29.4l2,5.06v2.99c-1.31.94-2.87,1.65-4.68,2.13s-3.7.72-5.7.72c-1.45,0-2.78-.15-3.99-.44s-2.26-.74-3.15-1.35c-.89-.61-1.58-1.37-2.07-2.27-.49-.9-.74-1.97-.74-3.22v-33.4c0-.54.27-1.07.81-1.6s1.28-1.02,2.21-1.49c.94-.47,2.04-.9,3.3-1.28s2.62-.72,4.06-1,2.94-.5,4.5-.65c1.56-.15,3.1-.23,4.62-.23,3.4,0,6.5.36,9.3,1.09,2.8.73,5.2,1.81,7.19,3.25s3.53,3.22,4.62,5.34c1.09,2.12,1.63,4.59,1.63,7.4,0,1.64-.25,3.15-.76,4.54-.5,1.38-1.18,2.61-2.02,3.69-.84,1.08-1.83,2-2.97,2.76-1.14.76-2.34,1.34-3.6,1.74,0,.42.12.72.35.88.23.16.52.25.84.25s.82-.12,1.48-.35c.66-.23,1.39-.66,2.21-1.27l6.08,6.22Zm-24.22-14.24c.07.05.18.08.33.09.15.01.25.02.3.02.56,0,.96-.18,1.2-.53s.35-.93.35-1.72v-1.27c0-.82-.1-1.42-.3-1.79-.2-.37-.57-.56-1.11-.56-.12,0-.26.01-.42.04-.16.02-.29.06-.39.11.02.19.04.39.04.6v5.03Z"/><path class="aa" d="m1053.54,399.29c-1.77.68-3.9,1.02-6.38,1.02-1.31,0-2.58-.14-3.8-.42s-2.29-.71-3.22-1.28c-.93-.57-1.66-1.3-2.21-2.18s-.83-1.92-.83-3.11v-36.32c.96-.84,2.33-1.6,4.1-2.29,1.77-.68,3.9-1.02,6.38-1.02,1.31,0,2.58.14,3.8.42s2.29.71,3.22,1.28c.93.57,1.66,1.3,2.21,2.18s.83,1.92.83,3.11v36.32c-.96.84-2.33,1.61-4.1,2.29Z"/><path class="aa" d="m1066.91,357.48c.91-.59,1.95-1.12,3.09-1.6,1.15-.48,2.36-.88,3.64-1.21,1.28-.33,2.6-.58,3.97-.76s2.75-.26,4.13-.26c1.83,0,3.64.16,5.43.49,1.79.33,3.43.84,4.9,1.55s2.74,1.61,3.8,2.72c1.05,1.11,1.77,2.44,2.14,3.99l8.02,33.15c-1.08,1.38-2.59,2.52-4.54,3.41s-4.41,1.34-7.38,1.34c-1.31,0-2.54-.12-3.69-.35-1.15-.23-2.16-.58-3.04-1.04s-1.61-1.03-2.18-1.72c-.57-.69-.94-1.51-1.11-2.44l-.77-4.29c.73-.02,1.45-.11,2.16-.26.71-.15,1.36-.34,1.93-.56.57-.22,1.04-.47,1.41-.76s.54-.56.54-.84c0-.37-.15-.68-.46-.91-.42.3-.91.58-1.48.83s-1.15.45-1.78.62c-.62.16-1.24.29-1.86.37-.62.08-1.2.12-1.74.12-1.01,0-1.9-.06-2.69-.19-.79-.13-1.47-.29-2.06-.47-.59-.19-1.09-.39-1.51-.62-.42-.22-.77-.44-1.05-.65-.09.12-.18.25-.25.4-.07.15-.11.32-.11.51,0,.35.18.67.54.97.36.29.85.55,1.46.77.61.22,1.31.4,2.09.54s1.61.23,2.48.28c.14,1.64.3,2.95.47,3.92.18.97.35,1.59.51,1.85-.21.4-.63.83-1.25,1.28s-1.39.88-2.32,1.28c-.93.4-1.98.73-3.16.98s-2.44.39-3.78.39c-1.66,0-3.23-.19-4.71-.56s-2.77-.9-3.87-1.56-1.98-1.48-2.64-2.43-.98-2.01-.98-3.18c0-.26.01-.52.04-.79.02-.27.07-.54.14-.83l7.49-33.47Zm16.52,18.11c-.26-1.41-.46-2.53-.62-3.38s-.3-1.48-.46-1.92c-.15-.43-.32-.71-.49-.84-.18-.13-.39-.19-.65-.19-.16,0-.32.02-.46.07-.14.05-.27.09-.39.14l1.34,7.1c.09.09.23.16.4.21.18.05.33.07.47.07.21,0,.41-.03.6-.09.19-.06.33-.11.42-.16l-.18-1.02Z"/></g><g id="i"><g id="j"><rect class="bd" x="561.1" y="577.84" width="750.75" height="389.58" rx="10.5" ry="10.5"/><path class="be" d="m1301.35,579.34c4.96,0,9,4.04,9,9v368.58c0,4.96-4.04,9-9,9h-729.75c-4.96,0-9-4.04-9-9v-368.58c0-4.96,4.04-9,9-9h729.75m0-3h-729.75c-6.6,0-12,5.4-12,12v368.58c0,6.6,5.4,12,12,12h729.75c6.6,0,12-5.4,12-12v-368.58c0-6.6-5.4-12-12-12h0Z"/></g><g id="k"><path class="aw" d="m1347.5,668c-173.31-.02-296.05-.68-414.75-1.32-112.52-.6-218.8-1.17-360.85-1.18h-12.95l-.16.03c-2.96.65-5.95.97-8.9.97-11.97,0-22.35-5.42-25.81-13.48-3.09-7.2.3-14.57,1.9-17.41l.09-.17.05-.19c6.51-24.55,16.71-47.82,30.32-69.17,3.65-5.72,7.6-11.39,11.74-16.85l.32-.42c10.22-.22,27.4-.37,55.62-.37,61.4,0,156.19.69,256.55,1.42,113.61.83,231.09,1.69,317.17,1.69,78.78,0,118.15-.71,123.88-2.22.06-.02.16-.04.29-.08.73-.22,2.66-.82,4.94-.82,1.86,0,3.48.4,4.83,1.19.85.5,1.62,1.17,2.3,2.01,1.8,11.34,4.5,21.57,8.03,30.42.94,2.35,2.95,9.21,6.95,22.87.2.69.82,2.8.94,5.64.03.63.03,1.26,0,1.87l-.02.57.36.44c.36.44.59.9.69,1.37.04.21.04.27,0,.84-.01.21-.03.45-.04.76-.14,2.95-.06,4.08.11,4.61l-.03-.04c.26.75.61,1.76.99,2.96.73,2.28,1.37,4.54,1.98,6.92.78,3.08,1,4.39,1.17,5.45.17,1.03.3,1.84.85,3.62.82,2.83,1.86,5.6,3.08,8.2.69,1.48,2.67,5.53,6.08,11.14.33.54.62,1.03.9,1.47,1.68,2.72,2.15,3.55,1.93,4.37-.29,1.11-1.64,2.13-3.8,2.88h-16.75,0Z"/><path class="ba" d="m1326.95,549.94c1.59,0,2.96.33,4.07.98.6.35,1.14.8,1.64,1.36,1.82,11.29,4.53,21.48,8.05,30.33.91,2.29,3.04,9.55,6.91,22.73.19.65.77,2.63.88,5.28.02.58.02,1.17,0,1.75l-.05,1.14.73.88c.21.25.33.49.39.72,0,.12-.01.26-.02.45-.01.21-.03.47-.04.79-.16,3.45-.03,4.76.28,5.46.29.85.58,1.73.86,2.59.71,2.24,1.35,4.47,1.95,6.83.77,3.02.98,4.3,1.15,5.33.17,1.04.32,1.94.88,3.77.85,2.93,1.91,5.77,3.16,8.44.7,1.5,2.71,5.61,6.15,11.28.33.54.63,1.03.91,1.48.84,1.37,1.72,2.79,1.76,3.2-.09.34-.75,1.08-2.61,1.77h-16.49c-173.31-.02-296.05-.68-414.74-1.32-112.52-.6-218.81-1.17-360.86-1.18h-13.11l-.32.07c-2.85.62-5.74.94-8.58.94-11.38,0-21.2-5.05-24.43-12.58-2.83-6.58.33-13.44,1.82-16.08l.19-.33.1-.37c6.47-24.4,16.61-47.53,30.13-68.75,3.59-5.64,7.48-11.22,11.55-16.6,10.22-.2,27.2-.35,54.87-.35,61.39,0,156.18.69,256.54,1.42,113.61.83,231.09,1.69,317.18,1.69,103.68,0,120.57-1.3,124.26-2.27.07-.02.19-.05.34-.1.67-.2,2.45-.75,4.5-.75m0-3c-2.85,0-5.21.84-5.61.95-6.08,1.61-54.12,2.17-123.49,2.17-162.99,0-443.6-3.11-573.72-3.11-43.51,0-70.23.35-70.06,1.28,0,0,.04.04.12.11,0,0,.95.8,4.74.8,1.9,0,4.5-.2,8.05-.8-4,5.28-7.97,10.92-11.81,16.95-15.81,24.8-25.02,48.91-30.5,69.59-1.19,2.1-5.54,10.42-1.97,18.74,3.63,8.46,14.38,14.39,27.19,14.39,2.98,0,6.08-.32,9.22-1.01h12.79c293.5.03,439.75,2.45,775.6,2.5h17c1.72-.57,4.4-1.76,5-4,.45-1.71-.57-3-3-7-3.32-5.48-5.27-9.44-6-11-.83-1.76-1.98-4.47-3-8-1.06-3.46-.45-2.89-2-9-.73-2.87-1.43-5.2-2-7-.39-1.21-.73-2.24-1-3,0,0-.1-1.88,0-4,.06-1.19.13-1.43,0-2-.2-.9-.65-1.57-1-2,.02-.44.04-1.14,0-2-.12-2.95-.76-5.17-1-6-4.02-13.72-6.04-20.58-7-23-2.62-6.56-5.79-16.41-8-30.47-.74-.99-1.7-1.95-2.96-2.69-1.81-1.06-3.8-1.39-5.59-1.39h0Zm25.55,73.55h0s0,0,0,0h0Z"/></g><g id="l"><path class="aq" d="m541.1,550.75c-5.79,0-10.5-4.71-10.5-10.5s4.71-10.59,10.5-10.59h801.58c5.79,0,10.5,4.71,10.5,10.5s-4.71,10.59-10.5,10.59h-801.58,0Z"/><path class="bb" d="m1342.68,531.16c4.96,0,9,4.04,9,9v.09c0,4.96-4.04,9-9,9h-801.58c-4.96,0-9-4.04-9-9v-.09c0-4.96,4.04-9,9-9h801.58m0-3h-801.58c-6.6,0-12,5.4-12,12v.09c0,6.6,5.4,12,12,12h801.58c6.6,0,12-5.4,12-12v-.09c0-6.6-5.4-12-12-12h0Z"/></g><g id="m"><rect class="bd" x="543.39" y="477.91" width="796.01" height="48.75" rx="10.5" ry="10.5"/><path class="be" d="m1328.9,479.41c4.96,0,9,4.04,9,9v27.75c0,4.96-4.04,9-9,9h-775.01c-4.96,0-9-4.04-9-9v-27.75c0-4.96,4.04-9,9-9h775.01m0-3h-775.01c-6.6,0-12,5.4-12,12v27.75c0,6.6,5.4,12,12,12h775.01c6.6,0,12-5.4,12-12v-27.75c0-6.6-5.4-12-12-12h0Z"/></g><g id="n"><path class="aq" d="m538.82,474.91c-5.08,0-9.21-4.13-9.21-9.21s4.13-9.21,9.21-9.21h804.17c5.08,0,9.21,4.13,9.21,9.21s-4.13,9.21-9.21,9.21h-804.17Z"/><path class="bb" d="m1342.99,458c4.25,0,7.71,3.46,7.71,7.71s-3.46,7.71-7.71,7.71h-804.17c-4.25,0-7.71-3.46-7.71-7.71s3.46-7.71,7.71-7.71h804.17m0-3h-804.17c-5.89,0-10.71,4.82-10.71,10.71s4.82,10.71,10.71,10.71h804.17c5.89,0,10.71-4.82,10.71-10.71s-4.82-10.71-10.71-10.71h0Z"/></g><g id="o"><rect class="bf" x="639.82" y="724.17" width="142.63" height="175.45" rx="10.5" ry="10.5"/><path class="au" d="m771.95,725.67c4.96,0,9,4.04,9,9v154.45c0,4.96-4.04,9-9,9h-121.63c-4.96,0-9-4.04-9-9v-154.45c0-4.96,4.04-9,9-9h121.63m0-3h-121.63c-6.6,0-12,5.4-12,12v154.45c0,6.6,5.4,12,12,12h121.63c6.6,0,12-5.4,12-12v-154.45c0-6.6-5.4-12-12-12h0Z"/></g><g id="p"><rect class="bf" x="857.29" y="709.5" width="183.21" height="262.39" rx="10.5" ry="10.5"/><path class="au" d="m1030,711c4.96,0,9,4.04,9,9v241.39c0,4.96-4.04,9-9,9h-162.21c-4.96,0-9-4.04-9-9v-241.39c0-4.96,4.04-9,9-9h162.21m0-3h-162.21c-6.6,0-12,5.4-12,12v241.39c0,6.6,5.4,12,12,12h162.21c6.6,0,12-5.4,12-12v-241.39c0-6.6-5.4-12-12-12h0Z"/></g><g id="q"><rect class="aw" x="868.11" y="729.5" width="157.39" height="242.39" rx="10.5" ry="10.5"/><path class="ba" d="m1015,731c4.96,0,9,4.04,9,9v221.39c0,4.96-4.04,9-9,9h-136.39c-4.96,0-9-4.04-9-9v-221.39c0-4.96,4.04-9,9-9h136.39m0-3h-136.39c-6.6,0-12,5.4-12,12v221.39c0,6.6,5.4,12,12,12h136.39c6.6,0,12-5.4,12-12v-221.39c0-6.6-5.4-12-12-12h0Z"/></g><g id="r"><rect class="ax" x="413.5" y="969.54" width="1043" height="46.96" rx="10.5" ry="10.5"/><path class="ap" d="m1446,971.03c4.96,0,9,4.04,9,9v25.97c0,4.96-4.04,9-9,9H424c-4.96,0-9-4.04-9-9v-25.97c0-4.96,4.04-9,9-9h1022m0-3H424c-6.6,0-12,5.4-12,12v25.97c0,6.6,5.4,12,12,12h1022c6.6,0,12-5.4,12-12v-25.97c0-6.6-5.4-12-12-12h0Z"/></g><g id="s"><rect class="bf" x="1081.64" y="724.17" width="142.63" height="175.45" rx="10.5" ry="10.5"/><path class="au" d="m1213.77,725.67c4.96,0,9,4.04,9,9v154.45c0,4.96-4.04,9-9,9h-121.63c-4.96,0-9-4.04-9-9v-154.45c0-4.96,4.04-9,9-9h121.63m0-3h-121.63c-6.6,0-12,5.4-12,12v154.45c0,6.6,5.4,12,12,12h121.63c6.6,0,12-5.4,12-12v-154.45c0-6.6-5.4-12-12-12h0Z"/></g><g id="t"><rect class="as" x="1094.43" y="734.88" width="115.08" height="162.06" rx="10.5" ry="10.5"/><path class="au" d="m1199.01,736.38c4.96,0,9,4.04,9,9v141.06c0,4.96-4.04,9-9,9h-94.08c-4.96,0-9-4.04-9-9v-141.06c0-4.96,4.04-9,9-9h94.08m0-3h-94.08c-6.6,0-12,5.4-12,12v141.06c0,6.6,5.4,12,12,12h94.08c6.6,0,12-5.4,12-12v-141.06c0-6.6-5.4-12-12-12h0Z"/></g><g id="u"><path class="aw" d="m1080.02,907.65c-5.08,0-9.21-4.13-9.21-9.21s4.13-9.21,9.21-9.21h145.87c5.08,0,9.21,4.13,9.21,9.21s-4.13,9.21-9.21,9.21h-145.87Z"/><path class="ba" d="m1225.89,890.73c4.25,0,7.71,3.46,7.71,7.71s-3.46,7.71-7.71,7.71h-145.87c-4.25,0-7.71-3.46-7.71-7.71s3.46-7.71,7.71-7.71h145.87m0-3h-145.87c-5.89,0-10.71,4.82-10.71,10.71h0c0,5.89,4.82,10.71,10.71,10.71h145.87c5.89,0,10.71-4.82,10.71-10.71h0c0-5.89-4.82-10.71-10.71-10.71h0Z"/></g><g id="v"><rect class="as" x="651.63" y="734.88" width="119.02" height="164.74" rx="10.5" ry="10.5"/><path class="au" d="m760.15,736.38c4.96,0,9,4.04,9,9v143.74c0,4.96-4.04,9-9,9h-98.02c-4.96,0-9-4.04-9-9v-143.74c0-4.96,4.04-9,9-9h98.02m0-3h-98.02c-6.6,0-12,5.4-12,12v143.74c0,6.6,5.4,12,12,12h98.02c6.6,0,12-5.4,12-12v-143.74c0-6.6-5.4-12-12-12h0Z"/></g><g id="w"><path class="aw" d="m638.2,907.65c-5.08,0-9.21-4.13-9.21-9.21s4.13-9.21,9.21-9.21h145.87c5.08,0,9.21,4.13,9.21,9.21s-4.13,9.21-9.21,9.21h-145.87Z"/><path class="ba" d="m784.07,890.73c4.25,0,7.71,3.46,7.71,7.71s-3.46,7.71-7.71,7.71h-145.87c-4.25,0-7.71-3.46-7.71-7.71s3.46-7.71,7.71-7.71h145.87m0-3h-145.87c-5.89,0-10.71,4.82-10.71,10.71h0c0,5.89,4.82,10.71,10.71,10.71h145.87c5.89,0,10.71-4.82,10.71-10.71h0c0-5.89-4.82-10.71-10.71-10.71h0Z"/></g></g><ellipse class="z" cx="325.5" cy="114" rx="74" ry="60.5"/><path class="ag" d="m262.4,238.5H113.32l-3.47-1.67,3.47,1.67c-36.44-5.25-61.13-24.82-61.84-44.04-.37-10.15,6-18.6,7.72-20.87,16.16-21.41,47.18-18.65,49.21-18.44.04-.15.08-.29.12-.44.14-.46.31-1.02.53-1.63,0,0,.35-.98.79-1.94.27-.59,17.67-27.17,49.75-28.19,20.28-.65,22.09,9.69,40.39,7.82,16.61-1.7,17.98-10.51,36.42-16.72,23.11-7.79,57.6-6.3,69.35,10.03,7.66,10.65,2.49,23.19,14.39,33.91,2.53,2.28,12.23,10.24,12.23,10.24h0c25.1,5.03,29.42,8.7,29.42,8.7,7.59,6.43,10.85,17.86,8.41,27.43-1.94,7.6-7.04,12.25-11.21,16.06-4.26,3.89-11.15,8.88-23.12,12.71-27.83,8.91-65.82,6.02-73.48,5.38h0Z"/><path class="ah" d="m433.43,238.5h-149.08l-3.47-1.67,3.47,1.67c-36.44-5.25-61.13-24.82-61.84-44.04-.37-10.15,6-18.6,7.72-20.87,16.16-21.41,47.18-18.65,49.21-18.44.04-.15.08-.29.12-.44.14-.46.31-1.02.53-1.63,0,0,.35-.98.79-1.94.27-.59,17.67-27.17,49.75-28.19,20.28-.65,22.09,9.69,40.39,7.82,16.61-1.7,17.98-10.51,36.42-16.72,23.11-7.79,57.6-6.3,69.35,10.03,7.66,10.65,2.49,23.19,14.39,33.91,2.53,2.28,12.23,10.24,12.23,10.24h0c25.1,5.03,29.42,8.7,29.42,8.7,7.59,6.43,10.85,17.86,8.41,27.43-1.94,7.6-7.04,12.25-11.21,16.06-4.26,3.89-11.15,8.88-23.12,12.71-27.83,8.91-65.82,6.02-73.48,5.38h0Z"/><g id="x"><path class="ad" d="m783.93,434.43c-68.5-1.04-137-2.09-205.5-3.13,8.55-4.52,14.71-9.04,18.39-11.94,9.34-7.38,17.07-15.8,43.28-52.82,5.13-7.25,7.7-10.88,10.08-14.36,12.51-18.33,34.91-48.08,78.11-98.9-.36,1.24-.62,2.29-.8,3.04-.73,3.07-1.09,5.53-1.32,7.21,0,0-.2,1.38-.34,2.7-6.85,61.08,12.79,106.4,12.79,106.4,11.94,27.55,29.47,47.78,45.32,61.81h0Z"/><path class="ae" d="m774.62,448.04c-62.94-.96-125.88-1.92-188.81-2.88-1-.57-2.43-1.54-3.74-3.11-1.99-2.38-2.68-4.86-2.94-6.16h0c.08-5.04,4.23-9.1,9.24-9.03,2.31-.48,5.74-.95,9.87-.61,2.41.2,3.89.58,5.3.84,5.01.94,15.18-.53,15.18-.53,4.33-.72,10.79-1.16,19.72.3.63.47,1.64,1.12,3.01,1.57,2.74.9,4.69.25,10.63-.6,3.27-.47,4.9-.7,6.08-.67,3.12.09,2.81.66,8.32,1.65,3.32.6,7.06.82,8.33.89.3.02,1.41.08,1.41.08,0,0-1.41-.05-1.41-.08,0-.06,6.16-1.07,11.37.17.66.16,2.28.58,4.31.21,1.25-.23,2.03-.65,2.53-.87,3.61-1.55,6.54,1.83,11.35,1.7,4.12-.11,4.09-2.64,8.39-2.93,4.22-.28,5.34,2.09,9.81,3.21,6.73,1.68,7.96-2.76,17.49-2.79,7.26-.02,15.13,2.52,15.13,2.52,0,0,5.37-2.26,10.65-2.13,5.94.14,9.06,3.24,13.6,3.26.34,0,1.1-.01,1.87.43,1.67.95,2.12,3.31,2.36,4.41.15.68.22,1.38.21,2.1h0c-.08,5.04-4.23,9.1-9.24,9.03l-.02.02Z"/><path class="ai" d="m581.2,431.31l200.02,3.04c6.54.1,11.76,5.48,11.66,12.02h0c-.1,6.54-5.48,11.76-12.02,11.66l-200.02-3.04c-6.54-.1-11.76-5.48-11.66-12.02h0c.1-6.54,5.48-11.76,12.02-11.66Z"/></g><ellipse class="ak" cx="652.56" cy="391.91" rx="12.99" ry="14.41" transform="translate(250.79 1038.44) rotate(-89.13)"/><ellipse class="ak" cx="718.54" cy="392.92" rx="12.99" ry="14.41" transform="translate(314.76 1105.41) rotate(-89.13)"/><path class="ac" d="m697.83,410.29c1.02,2.41-6.66,10.84-15.33,10.36-8.06-.45-14.61-8.47-13.49-10.8.69-1.44,4.01-.06,14.41.12,10.47.19,13.81-1.09,14.41.32h0Z"/><ellipse class="al" cx="718.27" cy="410.69" rx="4.97" ry="5.88" transform="translate(296.73 1122.64) rotate(-89.13)"/><ellipse class="al" cx="649.4" cy="409.66" rx="4.97" ry="5.88" transform="translate(229.93 1052.76) rotate(-89.13)"/><ellipse class="aj" cx="659.52" cy="392.28" rx="3.55" ry="4.41" transform="translate(257.27 1045.77) rotate(-89.13)"/><ellipse class="aj" cx="712.73" cy="392.32" rx="3.55" ry="4.41" transform="translate(309.64 1099.01) rotate(-89.13)"/><path class="ab" d="m725.69,390.5c-1.57-.02-2.83-1.18-2.81-2.59s1.31-2.52,2.89-2.5,2.83,1.18,2.81,2.59-1.31,2.52-2.89,2.5"/><path class="ab" d="m644.72,390.47c-1.56-.16-2.72-1.43-2.57-2.82s1.53-2.4,3.09-2.24,2.72,1.43,2.57,2.82-1.53,2.4-3.09,2.24"/><path class="am" d="m656.68,457.89c-6.3,15.84-8.24,33.21-5.66,50.05.15.95,1.59.55,1.45-.4-2.54-16.57-.54-33.68,5.66-49.25.36-.9-1.09-1.29-1.45-.4h0Z"/><path class="am" d="m728.25,458.17c2.83,2.16,1.67,7.4,1.43,10.38-.36,4.4-.85,8.8-1.48,13.17-1.23,8.57-2.99,17.05-5.22,25.41-.25.93,1.2,1.33,1.45.4,2.42-9.04,4.27-18.23,5.51-27.51.62-4.6,1.1-9.23,1.42-13.86.23-3.25.54-7.08-2.35-9.28-.77-.59-1.52.72-.76,1.3h0Z"/><path class="am" d="m626.86,382.49c-7.12-1.28-14.08-5.51-18.02-11.62-6.24-9.66-4.43-22.8,2.65-31.51,2.49-3.07,5.59-5.66,9.06-7.55.85-.46.09-1.76-.76-1.3-7.78,4.23-13.45,11.69-15.48,20.3-1.47,6.25-.96,12.88,1.98,18.64,2.4,4.7,6.29,8.47,10.87,11.03,2.87,1.6,6.05,2.86,9.29,3.44.94.17,1.35-1.28.4-1.45h0v.02Z"/><path class="am" d="m765.84,437.6c7.54-5.73,12.26-14.76,11.95-24.31s-5.78-18.01-14.19-22.39c-5-2.61-10.68-3.66-16.29-3.18-.95.08-.96,1.58,0,1.5,9.25-.79,18.82,2.85,24.36,10.49,5.14,7.08,5.87,16.42,2.69,24.48-1.9,4.8-5.18,9-9.28,12.12-.76.58-.01,1.88.76,1.3h0Z"/><rect class="bf" x="903.5" y="763.5" width="86" height="28" rx="10.5" ry="10.5"/><path class="au" d="m979,765c4.96,0,9,4.04,9,9v7c0,4.96-4.04,9-9,9h-65c-4.96,0-9-4.04-9-9v-7c0-4.96,4.04-9,9-9h65m0-3h-65c-6.6,0-12,5.4-12,12v7c0,6.6,5.4,12,12,12h65c6.6,0,12-5.4,12-12v-7c0-6.6-5.4-12-12-12h0Z"/><circle class="bf" cx="892.5" cy="858.5" r="6"/><path class="au" d="m892.5,854c2.48,0,4.5,2.02,4.5,4.5s-2.02,4.5-4.5,4.5-4.5-2.02-4.5-4.5,2.02-4.5,4.5-4.5m0-3c-4.14,0-7.5,3.36-7.5,7.5s3.36,7.5,7.5,7.5,7.5-3.36,7.5-7.5-3.36-7.5-7.5-7.5h0Z"/><path class="am" d="m930.08,762.47c7.42-10.81,15.21-21.36,23.36-31.64,1.19-1.5-.92-3.63-2.12-2.12-8.31,10.47-16.26,21.23-23.82,32.24-1.1,1.6,1.5,3.1,2.59,1.51h-.01Z"/><path class="am" d="m975.26,761.26c-6.78-10.63-13.6-21.24-20.45-31.82-1.05-1.61-3.64-.11-2.59,1.51,6.86,10.58,13.67,21.19,20.45,31.82,1.04,1.62,3.63.12,2.59-1.51h0Z"/><path class="am" d="m933.68,782.94c-.38,0-.76-.04-1.13-.12s-.73-.2-1.06-.37-.64-.37-.92-.62-.52-.55-.73-.89-.36-.73-.48-1.17-.17-.92-.17-1.46c0-.8.12-1.49.37-2.07s.57-1.06.98-1.44.88-.66,1.42-.84,1.09-.27,1.68-.27c.69,0,1.31.11,1.87.34.55.23,1.02.54,1.4.95s.68.89.88,1.46.31,1.2.31,1.88c0,.81-.12,1.51-.35,2.09s-.54,1.06-.94,1.44-.87.65-1.4.83-1.11.27-1.73.27h0Zm.27-4.94c0-.22,0-.41-.01-.56,0-.16-.02-.29-.05-.39-.02-.1-.05-.16-.09-.19s-.08-.05-.13-.05-.09,0-.12.02c-.03.02-.05.03-.07.04,0,.08.01.16.02.23,0,.07.02.15.02.24s.01.19.02.31v1.3c0,.12-.01.22-.02.31,0,.09-.01.17-.02.24,0,.07-.02.15-.02.23.02.01.04.03.07.04.03.02.07.02.12.02s.09-.02.13-.05.07-.1.09-.19c.02-.1.04-.24.05-.39,0-.16.01-.34.01-.56v-.59h0Z"/><path class="am" d="m939.67,775.25c.19,0,.36.01.52.04s.28.07.39.12c-.26.19-.43.35-.51.5-.03.05-.05.11-.05.17,0,.05.02.1.05.14s.1.06.19.06c.13-.21.28-.39.43-.55.15-.16.33-.29.52-.4.19-.11.4-.19.64-.24.23-.05.5-.08.78-.08.18,0,.38.02.62.05.23.04.48.1.73.2.25.1.5.24.74.42s.46.42.65.71c.19.29.35.64.46,1.06s.18.92.18,1.5-.08,1.13-.25,1.6c-.16.47-.4.86-.71,1.18s-.69.57-1.13.73c-.44.17-.95.25-1.51.25-.24,0-.45,0-.62-.03s-.31-.04-.42-.07c-.11-.02-.21-.05-.27-.07-.07-.03-.12-.05-.16-.07-.03.02-.05.06-.05.12,0,.07.02.13.08.17.05.05.13.09.24.12s.26.06.44.08.4.04.66.05v1.82c-.09.04-.2.08-.32.12s-.25.07-.39.1c-.14.03-.28.05-.42.07-.14.02-.28.02-.42.02-.31,0-.59-.03-.85-.09-.26-.06-.47-.15-.65-.27-.18-.12-.32-.29-.42-.48s-.15-.44-.15-.72v-5.5c-.14-.19-.24-.41-.3-.65s-.1-.49-.1-.76c0-.11,0-.23.02-.35s.04-.25.08-.38.08-.25.13-.37.11-.23.18-.34h.97v.02Zm2.53,4.7s.08.05.14.05c.09,0,.14-.03.17-.08.03-.05.04-.14.04-.26v-.7c0-.21,0-.38-.01-.52s-.02-.26-.04-.35-.05-.15-.09-.18-.07-.04-.12-.04c-.04,0-.07,0-.1.02s-.05.03-.06.05c0,.07.01.14.02.21s.02.14.02.22,0,.17.01.28v1.31h.02Z"/><path class="am" d="m950.4,782.93c-.62,0-1.19-.09-1.7-.27s-.94-.44-1.3-.78-.63-.75-.83-1.24-.29-1.04-.29-1.65c0-.64.1-1.21.31-1.7s.49-.9.84-1.24.76-.58,1.23-.75.96-.25,1.48-.25c.55,0,1.05.08,1.49.24s.82.38,1.13.67.55.61.72.99.25.78.25,1.21-.07.75-.22,1.05-.34.53-.6.72c-.26.19-.56.33-.91.42s-.73.14-1.14.14c-.31,0-.61-.04-.9-.11s-.54-.17-.74-.29c-.02.02-.04.04-.04.07s-.01.06-.01.08c0,.07.05.14.15.2.1.07.23.13.39.18.16.05.34.1.55.13.21.03.41.05.62.05.28,0,.54-.02.77-.06.23-.04.44-.09.63-.14.18-.06.35-.12.48-.19s.25-.13.34-.2c.06.05.11.12.15.22.04.1.08.21.11.32s.06.24.07.37c.02.13.02.24.02.35s0,.2-.02.3c-.01.09-.03.17-.04.24-.15.12-.31.24-.48.35s-.38.21-.62.29c-.24.08-.51.15-.82.21-.31.05-.68.08-1.1.08h.03Zm-.09-4.63c.11,0,.2-.02.26-.07s.09-.11.09-.19c0-.09-.03-.16-.1-.19s-.14-.05-.24-.05c-.13,0-.23.04-.3.11-.08.07-.12.17-.14.28.05.03.1.05.18.08.07.02.16.04.26.04h-.01Z"/><path class="am" d="m955.49,775.25c.19,0,.35.03.48.1s.25.16.35.26c-.2.19-.3.34-.3.46,0,.05.02.1.05.15.04.04.1.07.18.07.09-.16.21-.31.36-.46s.32-.27.52-.38.42-.2.66-.26c.24-.07.5-.1.78-.1.33,0,.66.04,1,.13s.65.24.92.45.5.51.67.88.26.83.26,1.39c0,.21,0,.44-.01.69s-.01.49-.01.71c0,.31.03.57.1.78s.2.37.39.49v.25c0,.32-.05.61-.15.86-.1.25-.24.46-.41.62s-.38.29-.6.38c-.23.08-.48.13-.73.13-.27,0-.53-.04-.78-.11s-.47-.2-.66-.37-.34-.39-.45-.67c-.11-.28-.17-.61-.17-1.01,0-.21,0-.42.02-.61s.03-.37.05-.54c.02-.17.04-.32.06-.46s.03-.27.03-.39c0-.22-.02-.37-.07-.45s-.12-.12-.23-.12c-.07,0-.13.02-.19.05l.09,1.11c-.02.14-.04.27-.06.41-.02.14-.03.27-.04.39s-.02.23-.02.33v.25c0,.36.04.65.11.88s.15.43.24.6c-.2.21-.46.38-.78.5s-.69.19-1.1.19c-.21,0-.41-.03-.63-.09s-.4-.15-.57-.27-.31-.27-.42-.45-.16-.39-.16-.64v-3.31c-.14-.19-.24-.41-.3-.65s-.1-.49-.1-.76c0-.22.03-.46.1-.72s.17-.5.3-.7h1.22Z"/><path class="af" d="m560.13,106.7c1.93-3.1,4.53-5.49,7.81-7.16,3.28-1.67,7.08-2.5,11.41-2.5,3.39,0,6.29.41,8.71,1.22,2.42.81,4.47,1.88,6.14,3.2s3.01,2.85,4.02,4.59,1.79,3.54,2.35,5.39l-2.06,44.16c.51.14.96.21,1.35.21.69,0,1.23-.24,1.64-.73.41-.49.65-1.4.74-2.75l2.83-50.62c.73-.7,1.75-1.32,3.05-1.88,1.31-.56,2.73-1.03,4.28-1.43,1.54-.39,3.12-.71,4.73-.94s3.1-.35,4.47-.35c3.39,0,6.3.45,8.75,1.36,2.44.9,4.46,2.14,6.04,3.72,1.59,1.58,2.74,3.4,3.47,5.46s1.09,4.28,1.09,6.64c0,2.83-1.04,9.1-3.12,18.81-2.08,9.71-5.16,23.1-9.23,40.16-.77,3.15-2,5.76-3.7,7.82-1.69,2.06-3.75,3.7-6.17,4.9-2.42,1.21-5.13,2.06-8.13,2.57-3,.51-6.17.76-9.52.76-2.27,0-4.5-.14-6.69-.42s-4.28-.68-6.27-1.22c-1.99-.53-3.85-1.21-5.56-2.02s-3.21-1.75-4.5-2.82c-1.59-3.75-3.24-8.35-4.95-13.8s-3.38-11.47-4.98-18.08c-1.61-6.61-3.11-13.65-4.5-21.14-1.39-7.49-2.56-15.19-3.5-23.12h0Z"/><path class="af" d="m678.13,190.21c-5.87,0-11.19-.92-15.95-2.75s-8.82-4.47-12.19-7.93c-3.37-3.45-5.96-7.66-7.78-12.62-1.82-4.96-2.73-10.55-2.73-16.76,0-6.54.97-12.31,2.93-17.31,1.95-5.01,4.59-9.2,7.91-12.59,3.32-3.38,7.19-5.93,11.61-7.65,4.42-1.71,9.07-2.57,13.95-2.57,5.19,0,9.86.82,14.02,2.47,4.16,1.65,7.71,3.91,10.64,6.78,2.94,2.87,5.2,6.24,6.78,10.08,1.59,3.85,2.38,7.95,2.38,12.31,0,4.13-.67,7.67-2.03,10.64-1.35,2.97-3.23,5.41-5.63,7.34-2.4,1.92-5.25,3.35-8.55,4.28s-6.88,1.39-10.74,1.39c-2.92,0-5.73-.37-8.46-1.11-2.72-.74-5.05-1.74-6.98-2.99-.21.19-.35.43-.42.73-.06.3-.1.57-.1.8,0,.7.47,1.38,1.41,2.05s2.16,1.28,3.67,1.81c1.5.53,3.22.97,5.14,1.32s3.86.52,5.79.52c2.66,0,5.08-.2,7.27-.59s4.15-.88,5.88-1.46c1.74-.58,3.25-1.22,4.53-1.91s2.36-1.37,3.22-2.02c.56.51,1.04,1.26,1.45,2.26.41,1,.76,2.1,1.06,3.3.3,1.21.52,2.45.68,3.72.15,1.28.23,2.45.23,3.51s-.05,2.08-.16,3.02c-.11.95-.25,1.77-.42,2.47-1.37,1.25-2.87,2.45-4.5,3.58-1.63,1.14-3.56,2.13-5.79,2.99s-4.81,1.55-7.75,2.09c-2.94.53-6.4.8-10.38.8h0Zm-.84-47.08c1.07,0,1.87-.24,2.41-.73.54-.49.8-1.12.8-1.91,0-.93-.31-1.58-.93-1.95s-1.36-.56-2.22-.56c-1.2,0-2.15.36-2.86,1.08-.71.72-1.15,1.68-1.32,2.89.43.28.99.55,1.67.8.69.26,1.5.38,2.44.38h.01Z"/><path class="af" d="m744.74,165.74c-.04.09-.09.26-.13.49-.04.23-.06.46-.06.7,0,.97.65,1.65,1.96,2.02,1.31.37,3.05.56,5.24.56,3.17,0,6.28-.29,9.32-.87s5.64-1.36,7.78-2.33c2.57.74,4.74,1.87,6.49,3.37,1.76,1.51,3.19,3.21,4.31,5.11,1.11,1.9,1.92,3.94,2.41,6.12s.74,4.33.74,6.47c0,4.4-.9,8.3-2.7,11.68-1.8,3.38-4.32,6.22-7.56,8.52-3.24,2.29-7.11,4.03-11.61,5.22-4.5,1.18-9.43,1.77-14.79,1.77s-10.04-.55-14.05-1.63c-4.01-1.09-7.35-2.57-10.03-4.45-2.68-1.88-4.68-4.06-6.01-6.54s-1.99-5.13-1.99-7.96c0-1.25.14-2.45.42-3.58.28-1.14.64-2.19,1.09-3.16s.96-1.82,1.54-2.54c.58-.72,1.19-1.26,1.83-1.63,2.01,1.85,5.08,3.41,9.2,4.66s9.11,1.88,14.98,1.88c3.26,0,5.51-.17,6.75-.52s1.86-1.01,1.86-1.98c0-.32-.04-.59-.13-.8s-.17-.41-.26-.59c-1.03.23-2.31.42-3.86.56s-2.94.21-4.18.21c-3.64,0-7.16-.29-10.55-.87s-6.38-1.56-8.97-2.96c-2.59-1.39-4.67-3.21-6.24-5.46s-2.35-5.04-2.35-8.38c0-2.27.43-4.46,1.29-6.57s2.21-3.7,4.05-4.76c-.99-.65-1.98-1.52-2.99-2.61s-1.92-2.42-2.73-4-1.48-3.38-1.99-5.42-.77-4.36-.77-6.95c0-4.54.84-8.6,2.51-12.17,1.67-3.57,3.99-6.58,6.94-9.04,2.96-2.46,6.47-4.33,10.55-5.63,4.07-1.3,8.51-1.95,13.31-1.95,2.74,0,5.29.27,7.65.8,2.36.53,4.39,1.12,6.11,1.77v-4.87c.99-.42,2.32-.79,4.02-1.11,1.69-.32,3.55-.49,5.56-.49s3.88.16,5.59.49c1.71.32,3.19.93,4.44,1.81,1.24.88,2.22,2.11,2.93,3.69s1.06,3.62,1.06,6.12c0,1.16-.06,2.28-.19,3.37-.13,1.09-.36,2.17-.71,3.23-.47,1.53-1.14,3.06-1.99,4.59.56,1.48.97,3.11,1.25,4.87s.42,3.94.42,6.54c0,4.22-.73,7.94-2.19,11.16s-3.49,5.92-6.11,8.1c-2.62,2.18-5.75,3.82-9.39,4.94-3.64,1.11-7.67,1.67-12.09,1.67-1.37,0-2.72-.07-4.05-.21s-2.31-.28-2.96-.42l.03-.04Zm4.63-27.54c0-.79-.14-1.4-.42-1.84-.28-.44-.72-.66-1.32-.66-.43,0-.8.15-1.12.45s-.48.85-.48,1.63v7.16c.39.33.81.49,1.29.49.94,0,1.52-.31,1.74-.94.21-.63.32-1.61.32-2.96v-3.34h-.01Z"/><path class="af" d="m818.63,165.74c-.04.09-.09.26-.13.49-.04.23-.06.46-.06.7,0,.97.65,1.65,1.96,2.02,1.31.37,3.05.56,5.24.56,3.17,0,6.28-.29,9.32-.87s5.64-1.36,7.78-2.33c2.57.74,4.74,1.87,6.49,3.37,1.76,1.51,3.19,3.21,4.31,5.11,1.11,1.9,1.92,3.94,2.41,6.12s.74,4.33.74,6.47c0,4.4-.9,8.3-2.7,11.68-1.8,3.38-4.32,6.22-7.56,8.52-3.24,2.29-7.11,4.03-11.61,5.22-4.5,1.18-9.43,1.77-14.79,1.77s-10.04-.55-14.05-1.63c-4.01-1.09-7.35-2.57-10.03-4.45-2.68-1.88-4.68-4.06-6.01-6.54s-1.99-5.13-1.99-7.96c0-1.25.14-2.45.42-3.58.28-1.14.64-2.19,1.09-3.16s.96-1.82,1.54-2.54c.58-.72,1.19-1.26,1.83-1.63,2.01,1.85,5.08,3.41,9.2,4.66s9.11,1.88,14.98,1.88c3.26,0,5.51-.17,6.75-.52s1.86-1.01,1.86-1.98c0-.32-.04-.59-.13-.8s-.17-.41-.26-.59c-1.03.23-2.31.42-3.86.56s-2.94.21-4.18.21c-3.64,0-7.16-.29-10.55-.87s-6.38-1.56-8.97-2.96c-2.59-1.39-4.67-3.21-6.24-5.46s-2.35-5.04-2.35-8.38c0-2.27.43-4.46,1.29-6.57s2.21-3.7,4.05-4.76c-.99-.65-1.98-1.52-2.99-2.61s-1.92-2.42-2.73-4-1.48-3.38-1.99-5.42-.77-4.36-.77-6.95c0-4.54.84-8.6,2.51-12.17,1.67-3.57,3.99-6.58,6.94-9.04,2.96-2.46,6.47-4.33,10.55-5.63,4.07-1.3,8.51-1.95,13.31-1.95,2.74,0,5.29.27,7.65.8,2.36.53,4.39,1.12,6.11,1.77v-4.87c.99-.42,2.32-.79,4.02-1.11,1.69-.32,3.55-.49,5.56-.49s3.88.16,5.59.49c1.71.32,3.19.93,4.44,1.81,1.24.88,2.22,2.11,2.93,3.69s1.06,3.62,1.06,6.12c0,1.16-.06,2.28-.19,3.37-.13,1.09-.36,2.17-.71,3.23-.47,1.53-1.14,3.06-1.99,4.59.56,1.48.97,3.11,1.25,4.87s.42,3.94.42,6.54c0,4.22-.73,7.94-2.19,11.16s-3.49,5.92-6.11,8.1c-2.62,2.18-5.75,3.82-9.39,4.94-3.64,1.11-7.67,1.67-12.09,1.67-1.37,0-2.72-.07-4.05-.21s-2.31-.28-2.96-.42l.03-.04Zm4.63-27.54c0-.79-.14-1.4-.42-1.84-.28-.44-.72-.66-1.32-.66-.43,0-.8.15-1.12.45s-.48.85-.48,1.63v7.16c.39.33.81.49,1.29.49.94,0,1.52-.31,1.74-.94.21-.63.32-1.61.32-2.96v-3.34h-.01Z"/><path class="af" d="m860.17,121.16c.86-.6,1.71-1.09,2.57-1.46s1.78-.83,2.77-1.39c-.81-.46-1.65-1.11-2.51-1.95-.86-.83-1.64-1.84-2.35-3.02-.71-1.18-1.29-2.54-1.74-4.07s-.68-3.24-.68-5.15c0-2.97.48-5.67,1.45-8.1.96-2.43,2.28-4.52,3.95-6.26s3.62-3.09,5.85-4.07c2.23-.97,4.63-1.46,7.2-1.46s5.03.51,7.23,1.53c2.21,1.02,4.13,2.41,5.76,4.17,1.63,1.76,2.9,3.86,3.83,6.29.92,2.43,1.38,5.07,1.38,7.89,0,2.41-.38,4.65-1.12,6.71-.75,2.06-1.75,3.91-2.99,5.53-1.24,1.62-2.7,2.98-4.37,4.07s-3.41,1.84-5.21,2.26c0,.7.14,1.31.42,1.84.28.53.76.8,1.45.8,2.14,0,4.37-.93,6.69-2.78.13.09.34.26.64.49.3.23.62.51.96.83s.66.64.96.94c.3.3.49.52.58.66v27.54c0,3.2.32,5.95.96,8.24.64,2.29,1.86,4.04,3.67,5.25.04.37.06.82.06,1.36v1.22c0,3.52-.45,6.56-1.35,9.11-.9,2.55-2.17,4.65-3.79,6.29-1.63,1.65-3.57,2.86-5.82,3.65s-4.71,1.18-7.36,1.18c-2.06,0-4.21-.37-6.46-1.11s-4.31-1.99-6.17-3.75-3.41-4.11-4.63-7.06c-1.22-2.94-1.83-6.62-1.83-11.02v-45.2h0Z"/><path class="af" d="m937.01,190.21c-5.87,0-11.19-.92-15.95-2.75s-8.82-4.47-12.19-7.93c-3.37-3.45-5.96-7.66-7.78-12.62-1.82-4.96-2.73-10.55-2.73-16.76,0-6.54.97-12.31,2.93-17.31,1.95-5.01,4.59-9.2,7.91-12.59,3.32-3.38,7.19-5.93,11.61-7.65,4.42-1.71,9.07-2.57,13.95-2.57,5.19,0,9.86.82,14.02,2.47,4.16,1.65,7.71,3.91,10.64,6.78,2.94,2.87,5.2,6.24,6.78,10.08,1.59,3.85,2.38,7.95,2.38,12.31,0,4.13-.68,7.67-2.03,10.64-1.35,2.97-3.23,5.41-5.63,7.34-2.4,1.92-5.25,3.35-8.55,4.28s-6.88,1.39-10.74,1.39c-2.92,0-5.73-.37-8.46-1.11-2.72-.74-5.05-1.74-6.98-2.99-.22.19-.35.43-.42.73-.06.3-.1.57-.1.8,0,.7.47,1.38,1.41,2.05s2.17,1.28,3.67,1.81,3.21.97,5.14,1.32,3.86.52,5.79.52c2.66,0,5.08-.2,7.27-.59s4.15-.88,5.88-1.46c1.74-.58,3.25-1.22,4.53-1.91,1.29-.7,2.36-1.37,3.21-2.02.56.51,1.04,1.26,1.45,2.26.41,1,.76,2.1,1.06,3.3.3,1.21.52,2.45.67,3.72.15,1.28.23,2.45.23,3.51s-.05,2.08-.16,3.02c-.11.95-.25,1.77-.42,2.47-1.37,1.25-2.87,2.45-4.5,3.58-1.63,1.14-3.56,2.13-5.79,2.99s-4.81,1.55-7.75,2.09c-2.94.53-6.4.8-10.38.8h.03Zm-.84-47.08c1.07,0,1.88-.24,2.41-.73.54-.49.8-1.12.8-1.91,0-.93-.31-1.58-.93-1.95s-1.36-.56-2.22-.56c-1.2,0-2.15.36-2.86,1.08-.71.72-1.15,1.68-1.32,2.89.43.28.99.55,1.67.8.68.26,1.5.38,2.44.38h.01Z"/><path class="af" d="m1002.79,108.85c0-1.53.95-3.02,2.86-4.49,1.91-1.46,4.47-2.78,7.68-3.96s6.91-2.13,11.09-2.85c4.18-.72,8.56-1.08,13.15-1.08,6.34,0,12.06.89,17.14,2.68s9.4,4.3,12.96,7.54c3.56,3.25,6.3,7.16,8.23,11.75s2.89,9.67,2.89,15.23c0,5.93-.88,11.15-2.64,15.65s-4.25,8.25-7.49,11.27c-3.24,3.01-7.14,5.27-11.7,6.78-4.57,1.51-9.64,2.26-15.21,2.26-1.41,0-2.87-.1-4.37-.31-1.5-.21-2.92-.46-4.24-.76-1.33-.3-2.51-.6-3.54-.9-1.03-.3-1.78-.57-2.25-.8-.13.14-.25.32-.35.56-.11.23-.16.56-.16.97,0,.51.2,1,.61,1.46s1.13.88,2.15,1.25c1.03.37,2.41.71,4.15,1.01,1.74.3,3.93.55,6.59.73v10.64c-1.03.93-2.26,1.75-3.7,2.47s-2.97,1.33-4.6,1.84-3.33.89-5.11,1.15c-1.78.25-3.55.38-5.31.38-2.44,0-4.8-.27-7.07-.8s-4.28-1.38-6.01-2.54c-1.74-1.16-3.13-2.65-4.18-4.49-1.05-1.83-1.58-4.02-1.58-6.57v-66.06h0Zm35.95,32.54c.13.09.33.15.61.17s.46.04.55.04c1.03,0,1.76-.35,2.19-1.04.43-.7.64-1.83.64-3.41v-5.28c0-1.62-.18-2.8-.55-3.55-.36-.74-1.04-1.11-2.03-1.11-.21,0-.47.02-.77.07s-.54.12-.71.21c.04.37.06.77.06,1.18v12.73h.01Z"/><path class="af" d="m1082.14,121.16c.86-.6,1.71-1.09,2.57-1.46s1.78-.83,2.77-1.39c-.82-.46-1.65-1.11-2.51-1.95-.86-.83-1.64-1.84-2.35-3.02s-1.29-2.54-1.74-4.07-.67-3.24-.67-5.15c0-2.97.48-5.67,1.45-8.1.96-2.43,2.28-4.52,3.96-6.26s3.62-3.09,5.85-4.07c2.23-.97,4.63-1.46,7.2-1.46s5.03.51,7.23,1.53c2.21,1.02,4.12,2.41,5.75,4.17,1.63,1.76,2.9,3.86,3.83,6.29.92,2.43,1.38,5.07,1.38,7.89,0,2.41-.38,4.65-1.13,6.71s-1.75,3.91-2.99,5.53c-1.24,1.62-2.7,2.98-4.37,4.07s-3.41,1.84-5.21,2.26c0,.7.14,1.31.42,1.84s.76.8,1.45.8c2.14,0,4.37-.93,6.69-2.78.13.09.34.26.64.49.3.23.62.51.96.83s.66.64.96.94c.3.3.49.52.58.66v27.54c0,3.2.32,5.95.96,8.24.64,2.29,1.87,4.04,3.67,5.25.04.37.06.82.06,1.36v1.22c0,3.52-.45,6.56-1.35,9.11s-2.17,4.65-3.79,6.29c-1.63,1.65-3.57,2.86-5.82,3.65s-4.71,1.18-7.36,1.18c-2.06,0-4.21-.37-6.46-1.11s-4.31-1.99-6.17-3.75c-1.87-1.76-3.41-4.11-4.63-7.06-1.22-2.94-1.83-6.62-1.83-11.02v-45.2h0Z"/><path class="af" d="m1180.34,112.05c.43.65.89,1.48,1.38,2.5s.94,2.26,1.35,3.72.75,3.15,1.03,5.08c.28,1.92.42,4.09.42,6.5,0,.83-.05,1.76-.16,2.78s-.24,2.03-.39,3.02c-.15,1-.33,1.97-.55,2.92-.21.95-.43,1.77-.64,2.47-1.97,2.92-4.16,5.64-6.56,8.17s-4.99,4.81-7.78,6.85c-5.53.28-9.56.88-12.09,1.81-2.53.93-3.79,1.97-3.79,3.13,0,.42.06.75.19,1.01.13.26.3.48.51.66.77-.46,1.76-.92,2.96-1.36s2.54-.81,4.02-1.11,3.03-.54,4.66-.73c1.63-.18,3.28-.28,4.95-.28h12.41c.56,1.02,1.06,2.13,1.51,3.34.45,1.21.84,2.41,1.16,3.62.32,1.21.58,2.4.77,3.58.19,1.18.29,2.26.29,3.23,0,2.92-.38,5.35-1.12,7.3-.75,1.95-1.73,3.5-2.93,4.66-1.2,1.16-2.57,1.97-4.12,2.43-1.54.46-3.11.7-4.69.7h-45.85c-1.97-2.23-3.42-5.02-4.34-8.38-.92-3.36-1.38-7.29-1.38-11.79,0-1.11.06-2.26.19-3.44.13-1.18.28-2.32.45-3.41.17-1.09.35-2.07.55-2.96.19-.88.35-1.58.48-2.09,1.71-2.04,3.49-3.96,5.34-5.77,1.84-1.81,3.68-3.53,5.5-5.18s3.62-3.22,5.4-4.73,3.48-3,5.11-4.49c-.09-.37-.28-.73-.58-1.08s-.69-.52-1.16-.52c-.26,0-.57.06-.93.17-.36.12-.87.41-1.51.87-.64.46-1.46,1.14-2.44,2.02-.99.88-2.25,2.11-3.79,3.69h-7.97c-1.37-2.46-2.35-4.89-2.93-7.3-.58-2.41-.87-4.8-.87-7.16,0-3.52.51-6.51,1.54-8.97s2.14-4.29,3.34-5.49h53.06Z"/><path class="af" d="m1247.41,112.05c.43.65.89,1.48,1.38,2.5s.94,2.26,1.35,3.72.75,3.15,1.03,5.08c.28,1.92.42,4.09.42,6.5,0,.83-.05,1.76-.16,2.78s-.24,2.03-.39,3.02c-.15,1-.33,1.97-.55,2.92-.21.95-.43,1.77-.64,2.47-1.97,2.92-4.16,5.64-6.56,8.17s-4.99,4.81-7.78,6.85c-5.53.28-9.56.88-12.09,1.81-2.53.93-3.79,1.97-3.79,3.13,0,.42.06.75.19,1.01.13.26.3.48.51.66.77-.46,1.76-.92,2.96-1.36s2.54-.81,4.02-1.11,3.03-.54,4.66-.73c1.63-.18,3.28-.28,4.95-.28h12.41c.56,1.02,1.06,2.13,1.51,3.34.45,1.21.84,2.41,1.16,3.62.32,1.21.58,2.4.77,3.58.19,1.18.29,2.26.29,3.23,0,2.92-.38,5.35-1.12,7.3-.75,1.95-1.73,3.5-2.93,4.66-1.2,1.16-2.57,1.97-4.12,2.43-1.54.46-3.11.7-4.69.7h-45.85c-1.97-2.23-3.42-5.02-4.34-8.38-.92-3.36-1.38-7.29-1.38-11.79,0-1.11.06-2.26.19-3.44.13-1.18.28-2.32.45-3.41.17-1.09.35-2.07.55-2.96.19-.88.35-1.58.48-2.09,1.71-2.04,3.49-3.96,5.34-5.77,1.84-1.81,3.68-3.53,5.5-5.18s3.62-3.22,5.4-4.73,3.48-3,5.11-4.49c-.09-.37-.28-.73-.58-1.08s-.69-.52-1.16-.52c-.26,0-.57.06-.93.17-.36.12-.87.41-1.51.87-.64.46-1.46,1.14-2.44,2.02-.99.88-2.25,2.11-3.79,3.69h-7.97c-1.37-2.46-2.35-4.89-2.93-7.3-.58-2.41-.87-4.8-.87-7.16,0-3.52.51-6.51,1.54-8.97s2.14-4.29,3.34-5.49h53.06Z"/><path class="af" d="m1291.2,190.21c-5.87,0-11.19-.92-15.95-2.75s-8.82-4.47-12.19-7.93c-3.37-3.45-5.96-7.66-7.78-12.62-1.82-4.96-2.73-10.55-2.73-16.76,0-6.54.97-12.31,2.93-17.31,1.95-5.01,4.59-9.2,7.91-12.59,3.32-3.38,7.19-5.93,11.61-7.65,4.42-1.71,9.07-2.57,13.95-2.57,5.19,0,9.86.82,14.02,2.47s7.71,3.91,10.64,6.78c2.94,2.87,5.2,6.24,6.78,10.08,1.59,3.85,2.38,7.95,2.38,12.31,0,4.13-.68,7.67-2.03,10.64s-3.23,5.41-5.63,7.34c-2.4,1.92-5.25,3.35-8.55,4.28s-6.88,1.39-10.74,1.39c-2.92,0-5.73-.37-8.46-1.11-2.72-.74-5.05-1.74-6.98-2.99-.22.19-.35.43-.42.73-.06.3-.1.57-.1.8,0,.7.47,1.38,1.41,2.05.94.67,2.17,1.28,3.67,1.81s3.21.97,5.14,1.32,3.86.52,5.79.52c2.66,0,5.08-.2,7.27-.59,2.19-.39,4.15-.88,5.88-1.46,1.74-.58,3.25-1.22,4.53-1.91,1.29-.7,2.36-1.37,3.21-2.02.56.51,1.04,1.26,1.45,2.26.41,1,.76,2.1,1.06,3.3.3,1.21.52,2.45.67,3.72.15,1.28.23,2.45.23,3.51s-.05,2.08-.16,3.02c-.11.95-.25,1.77-.42,2.47-1.37,1.25-2.87,2.45-4.5,3.58-1.63,1.14-3.56,2.13-5.79,2.99s-4.81,1.55-7.75,2.09c-2.94.53-6.4.8-10.38.8h.03Zm-.84-47.08c1.07,0,1.88-.24,2.41-.73.54-.49.8-1.12.8-1.91,0-.93-.31-1.58-.93-1.95s-1.36-.56-2.22-.56c-1.2,0-2.15.36-2.86,1.08s-1.15,1.68-1.32,2.89c.43.28.99.55,1.67.8.68.26,1.5.38,2.44.38h0Z"/><path class="af" d="m1337.49,112.05c2.66,0,4.88.46,6.66,1.39s3.18,2.23,4.21,3.89c-.56.65-1.08,1.44-1.58,2.36-.49.93-.92,1.84-1.29,2.75-.36.9-.65,1.76-.87,2.57s-.32,1.45-.32,1.91c0,.56.19,1.05.58,1.5.39.44.99.66,1.8.66.81-3.43,1.96-6.3,3.44-8.62s3.17-4.17,5.08-5.56,3.96-2.38,6.17-2.96c2.21-.58,4.45-.87,6.72-.87,1.84,0,3.54.13,5.08.38,1.54.26,2.94.59,4.18,1.01,1.24.42,2.34.89,3.28,1.43.94.53,1.74,1.05,2.38,1.56.69,1.95,1.18,4.01,1.48,6.19.3,2.18.45,4.31.45,6.4,0,3.76-.31,6.88-.93,9.39-.62,2.5-1.3,4.57-2.03,6.19-.69.37-1.54.74-2.57,1.11-1.03.37-2.15.7-3.38.97-1.22.28-2.52.5-3.89.66s-2.72.24-4.05.24c-1.42,0-2.67-.05-3.76-.14s-2.09-.22-2.99-.38-1.73-.35-2.48-.56c-.75-.21-1.51-.41-2.28-.59-.34.37-.51.9-.51,1.6,0,.65.4,1.16,1.19,1.53.79.37,2.22.76,4.28,1.18v34.91c-1.46,1.02-2.94,1.84-4.44,2.47s-2.97,1.11-4.41,1.46-2.81.58-4.12.7c-1.31.12-2.52.17-3.63.17-2.4,0-4.65-.24-6.75-.73-2.1-.49-3.93-1.23-5.5-2.23s-2.8-2.26-3.7-3.79c-.9-1.53-1.35-3.36-1.35-5.49v-35.81c-1.29-1.95-2.24-4.15-2.86-6.61s-.93-5.03-.93-7.72c0-2.23.31-4.68.93-7.37s1.58-5.08,2.86-7.16h9.85Z"/><path class="af" d="m1388.1,121.16c.86-.6,1.71-1.09,2.57-1.46s1.78-.83,2.77-1.39c-.82-.46-1.65-1.11-2.51-1.95-.86-.83-1.64-1.84-2.35-3.02s-1.29-2.54-1.74-4.07-.67-3.24-.67-5.15c0-2.97.48-5.67,1.45-8.1.96-2.43,2.28-4.52,3.96-6.26s3.62-3.09,5.85-4.07c2.23-.97,4.63-1.46,7.2-1.46s5.03.51,7.23,1.53c2.21,1.02,4.12,2.41,5.75,4.17,1.63,1.76,2.9,3.86,3.83,6.29.92,2.43,1.38,5.07,1.38,7.89,0,2.41-.38,4.65-1.13,6.71s-1.75,3.91-2.99,5.53c-1.24,1.62-2.7,2.98-4.37,4.07s-3.41,1.84-5.21,2.26c0,.7.14,1.31.42,1.84s.76.8,1.45.8c2.14,0,4.37-.93,6.69-2.78.13.09.34.26.64.49.3.23.62.51.96.83s.66.64.96.94c.3.3.49.52.58.66v27.54c0,3.2.32,5.95.96,8.24.64,2.29,1.87,4.04,3.67,5.25.04.37.06.82.06,1.36v1.22c0,3.52-.45,6.56-1.35,9.11s-2.17,4.65-3.79,6.29c-1.63,1.65-3.57,2.86-5.82,3.65s-4.71,1.18-7.36,1.18c-2.06,0-4.21-.37-6.46-1.11s-4.31-1.99-6.17-3.75c-1.87-1.76-3.41-4.11-4.63-7.06-1.22-2.94-1.83-6.62-1.83-11.02v-45.2h0Z"/><path class="af" d="m1493.37,153.64c0,3.2.32,5.84.96,7.93s1.86,3.73,3.67,4.94c.04.37.06.82.06,1.36v1.22c0,3.52-.51,6.56-1.54,9.11s-2.37,4.65-4.02,6.29c-1.65,1.65-3.53,2.86-5.63,3.65s-4.24,1.18-6.43,1.18c-1.54,0-3.05-.2-4.53-.59s-2.87-.98-4.18-1.77c-1.31-.79-2.49-1.8-3.54-3.02-1.05-1.23-1.88-2.68-2.48-4.35-.73,0-1.28.21-1.64.63s-.55.97-.55,1.67c0,.65.19,1.35.58,2.09.39.74.94,1.51,1.67,2.29-1.37,1.02-3.21,1.79-5.53,2.29-2.31.51-4.67.76-7.07.76-3.9,0-7.45-.58-10.64-1.74s-5.94-2.87-8.23-5.15c-2.29-2.27-4.07-5.04-5.34-8.31s-1.9-7.03-1.9-11.3.68-8.22,2.03-11.44,3.18-5.89,5.5-8,5-3.67,8.07-4.69c3.06-1.02,6.31-1.53,9.74-1.53,1.54,0,2.92.06,4.12.17,1.2.12,2.23.24,3.09.38.99.19,1.82.37,2.51.56.13-.46.19-.86.19-1.18,0-.6-.29-1.11-.87-1.53s-1.34-.73-2.28-.94c-.94-.21-2.04-.36-3.28-.45s-2.51-.14-3.79-.14c-2.92,0-5.83.35-8.75,1.04s-5.53,1.76-7.84,3.2c-.94-1.71-1.7-3.89-2.28-6.54-.58-2.64-.87-5.33-.87-8.07,0-1.3.07-2.61.22-3.93s.46-2.49.93-3.51c1.11-.56,2.54-1.17,4.28-1.84s3.75-1.3,6.04-1.88c2.29-.58,4.82-1.08,7.59-1.5s5.73-.63,8.91-.63c5.53,0,10.36.67,14.5,2.02s7.58,3.28,10.32,5.81,4.8,5.63,6.17,9.32c1.37,3.69,2.06,7.85,2.06,12.48v13.63h0Zm-33.37,3.41c-.99,0-1.68.27-2.09.8-.41.53-.61,1.15-.61,1.84,0,.93.31,1.58.93,1.95s1.36.56,2.22.56c1.37,0,2.42-.37,3.15-1.11s1.09-2.09,1.09-4.03h-4.69Z"/><g id="y"><path class="aq" d="m1621.83,1015.93c-4.18,0-7.59-3.93-7.59-8.75v-36.94c0-4.82,3.41-8.75,7.59-8.75s7.59,3.93,7.59,8.75v36.94c0,4.82-3.41,8.75-7.59,8.75Z"/><path class="bb" d="m1621.83,963.44c3.25,0,5.9,3.05,5.9,6.8v36.94c0,3.75-2.65,6.8-5.9,6.8s-5.9-3.05-5.9-6.8v-36.94c0-3.75,2.65-6.8,5.9-6.8m0-3.89c-5.1,0-9.27,4.81-9.27,10.69v36.94c0,5.88,4.17,10.69,9.27,10.69s9.27-4.81,9.27-10.69v-36.94c0-5.88-4.17-10.69-9.27-10.69h0Z"/><path class="aq" d="m1753.35,1015.93c-4.18,0-7.59-3.93-7.59-8.75v-36.94c0-4.82,3.41-8.75,7.59-8.75s7.59,3.93,7.59,8.75v36.94c0,4.82-3.41,8.75-7.59,8.75Z"/><path class="bb" d="m1753.35,963.44c3.25,0,5.9,3.05,5.9,6.8v36.94c0,3.75-2.65,6.8-5.9,6.8s-5.9-3.05-5.9-6.8v-36.94c0-3.75,2.65-6.8,5.9-6.8m0-3.89c-5.1,0-9.27,4.81-9.27,10.69v36.94c0,5.88,4.17,10.69,9.27,10.69s9.27-4.81,9.27-10.69v-36.94c0-5.88-4.17-10.69-9.27-10.69h0Z"/><path class="bf" d="m1496.21,880.81h363.37c4.66,0,8.43,4.35,8.43,9.72v71.93c0,5.37-3.77,9.72-8.43,9.72h-363.37c-4.66,0-8.43-4.35-8.43-9.72v-71.93c0-5.37,3.77-9.72,8.43-9.72Z"/><path class="au" d="m1859.57,882.76c3.72,0,6.74,3.49,6.74,7.78v71.93c0,4.29-3.03,7.78-6.74,7.78h-363.37c-3.72,0-6.74-3.49-6.74-7.78v-71.93c0-4.29,3.03-7.78,6.74-7.78h363.37m0-3.89h-363.37c-5.56,0-10.12,5.25-10.12,11.66v71.93c0,6.42,4.55,11.66,10.12,11.66h363.37c5.56,0,10.12-5.25,10.12-11.66v-71.93c0-6.42-4.55-11.66-10.12-11.66h0Z"/><path class="aa" d="m1521.59,913.5c0-.75.44-1.49,1.32-2.2.88-.72,2.06-1.37,3.54-1.95,1.48-.58,3.19-1.05,5.11-1.4s3.95-.53,6.06-.53c2.92,0,5.56.44,7.9,1.32,2.34.88,4.33,2.11,5.97,3.71,1.64,1.59,2.9,3.52,3.79,5.78s1.33,4.75,1.33,7.48c0,2.92-.41,5.48-1.22,7.69-.81,2.21-1.96,4.06-3.45,5.54-1.49,1.48-3.29,2.59-5.39,3.33s-4.44,1.11-7.01,1.11c-.65,0-1.32-.05-2.02-.15-.69-.1-1.34-.23-1.96-.38-.61-.15-1.16-.29-1.63-.44-.47-.15-.82-.28-1.04-.39-.06.07-.11.16-.16.27-.05.11-.07.27-.07.48,0,.25.09.49.28.72.19.23.52.43.99.62.47.18,1.11.35,1.91.5.8.15,1.81.27,3.04.36v5.23c-.47.46-1.04.86-1.7,1.21s-1.37.66-2.12.91-1.54.44-2.36.56c-.82.12-1.64.19-2.45.19-1.13,0-2.21-.13-3.26-.39-1.05-.26-1.97-.68-2.77-1.25-.8-.57-1.44-1.3-1.93-2.2-.48-.9-.73-1.98-.73-3.23v-32.46Zm16.57,15.99c.06.05.15.07.28.08.13.01.21.02.25.02.47,0,.81-.17,1.01-.51.2-.34.3-.9.3-1.67v-2.6c0-.8-.08-1.38-.25-1.74s-.48-.55-.93-.55c-.1,0-.22.01-.36.03-.14.02-.25.06-.33.1.02.18.03.38.03.58v6.25Z"/><path class="aa" d="m1564.75,952.46c-2.13,0-3.81-.65-5.04-1.96-1.23-1.31-1.84-3.35-1.84-6.13v-33.42c1.05-1.02,2.33-1.82,3.85-2.38,1.52-.56,3.08-.84,4.68-.84,1.11,0,2.19.17,3.25.51,1.06.34,2,.86,2.82,1.55.82.7,1.48,1.58,1.97,2.65.49,1.07.74,2.32.74,3.76v18.69c-.49.05-1.02.16-1.59.34-.56.18-1.09.41-1.57.68-.48.27-.89.58-1.22.91s-.49.67-.49,1.01c0,.25.05.45.16.6.11.15.24.28.4.39,1.11-1.07,2.37-1.81,3.79-2.22s3.06-.62,4.92-.62h7.02c.3.59.56,1.21.8,1.86.24.65.44,1.31.61,1.98s.3,1.34.4,2c.1.66.15,1.28.15,1.85,0,.82-.05,1.66-.16,2.51-.11.85-.26,1.67-.46,2.44s-.43,1.49-.71,2.15c-.28.66-.59,1.22-.95,1.67h-21.55Z"/><path class="aa" d="m1596.04,911.42c.77-.57,1.64-1.09,2.61-1.55.97-.47,1.99-.86,3.07-1.18,1.08-.32,2.19-.56,3.35-.73s2.32-.26,3.48-.26c1.54,0,3.07.16,4.58.48,1.51.32,2.89.82,4.13,1.5,1.24.68,2.31,1.57,3.2,2.65.89,1.08,1.49,2.38,1.81,3.88l6.76,32.23c-.91,1.34-2.18,2.45-3.82,3.31-1.64.87-3.72,1.3-6.22,1.3-1.11,0-2.14-.11-3.11-.34-.97-.23-1.82-.56-2.56-1.01-.74-.44-1.35-1-1.84-1.67s-.8-1.46-.93-2.38l-.65-4.17c.61-.02,1.22-.11,1.82-.26.6-.15,1.15-.33,1.63-.55.48-.22.88-.46,1.19-.73s.46-.55.46-.82c0-.36-.13-.66-.38-.89-.36.3-.77.56-1.25.8-.47.24-.97.44-1.5.6-.52.16-1.05.28-1.57.36s-1.01.12-1.47.12c-.85,0-1.61-.06-2.27-.19-.66-.12-1.24-.28-1.73-.46-.49-.18-.92-.38-1.27-.6s-.65-.43-.89-.63c-.08.12-.15.25-.21.39s-.09.31-.09.5c0,.34.15.66.46.94.31.29.72.54,1.23.75.51.22,1.1.39,1.76.53s1.36.23,2.09.27c.12,1.59.25,2.87.4,3.81.15.95.29,1.54.43,1.79-.18.39-.53.8-1.05,1.25s-1.18.86-1.96,1.25c-.78.39-1.67.71-2.67.96s-2.06.38-3.19.38c-1.4,0-2.73-.18-3.97-.55-1.25-.36-2.33-.87-3.26-1.52s-1.67-1.44-2.22-2.36c-.55-.92-.83-1.95-.83-3.09,0-.25,0-.51.03-.77.02-.26.06-.53.12-.8l6.31-32.53Zm13.93,17.6c-.22-1.37-.39-2.46-.52-3.28-.13-.82-.26-1.44-.38-1.86-.13-.42-.27-.69-.42-.82-.15-.12-.33-.19-.55-.19-.14,0-.27.02-.38.07-.12.05-.23.09-.33.14l1.13,6.9c.08.09.19.16.34.21s.28.07.4.07c.18,0,.35-.03.5-.09.16-.06.28-.11.36-.15l-.15-.99Z"/><path class="aa" d="m1638.34,940.98c-2.23-1.71-4.18-3.61-5.85-5.71-1.67-2.1-3.07-4.35-4.21-6.75-1.14-2.4-2.02-4.95-2.65-7.64-.63-2.69-1.02-5.48-1.16-8.37.49-.84,1.11-1.56,1.84-2.15.73-.59,1.52-1.08,2.37-1.47.85-.39,1.73-.67,2.64-.85.91-.18,1.78-.27,2.61-.27,1.36,0,2.55.15,3.57.44,1.02.3,1.95.71,2.8,1.23.14.41.34,1.04.59,1.9s.52,1.77.79,2.73c.27.97.52,1.93.77,2.87s.44,1.73.58,2.34l-1.3,6.63c-.04.25-.09.54-.16.85-.07.32-.1.6-.1.85,0,.34.08.62.24.84.16.22.43.33.83.33.12-.43.28-1.13.49-2.1.21-.97.43-2.07.68-3.32.25-1.24.5-2.56.77-3.96.27-1.4.52-2.75.77-4.05.25-1.3.48-2.49.7-3.57.22-1.08.39-1.94.53-2.58.77-.43,1.69-.79,2.76-1.08,1.07-.29,2.22-.43,3.47-.43,1.38,0,2.65.2,3.79.6,1.15.4,2.12.99,2.93,1.76s1.44,1.74,1.88,2.89c.44,1.15.67,2.48.67,3.98,0,2.39-.3,4.66-.89,6.8s-1.36,4.13-2.31,5.98c-.95,1.84-2.01,3.54-3.19,5.09-1.18,1.55-2.34,2.92-3.48,4.1v11.28c-.87.62-1.68,1.11-2.43,1.49s-1.48.67-2.18.87-1.37.34-2.02.41c-.64.07-1.28.1-1.91.1-1.3,0-2.5-.14-3.57-.41s-2-.7-2.77-1.28c-.77-.58-1.37-1.32-1.79-2.2-.42-.89-.64-1.95-.64-3.18v-6.01c.12.14.3.32.53.56s.48.47.74.7c.26.23.52.42.79.58.27.16.49.24.67.24.24,0,.43-.08.59-.26s.24-.44.24-.8Z"/><path class="aa" d="m1699.46,937.39c-.63,0-1.22-.14-1.76-.43-.54-.29-1.02-.71-1.44-1.28-.42-.57-.74-1.28-.98-2.14-.24-.85-.36-1.84-.36-2.96,0-.87.07-1.66.21-2.38.14-.72.31-1.35.5-1.91.2-.56.42-1.03.65-1.42.24-.39.45-.7.62-.92h17.58c.61,1.03,1.05,2.15,1.3,3.37s.39,2.42.39,3.6c0,1.37-.14,2.61-.43,3.74-.29,1.13-.63,2.04-1.02,2.75h-1.22v10.25c-.77.77-1.65,1.52-2.64,2.22-.99.71-2.11,1.33-3.36,1.86s-2.66.96-4.22,1.28c-1.56.32-3.29.48-5.19.48s-3.64-.19-5.39-.58c-1.76-.39-3.42-.99-4.98-1.79-1.56-.81-2.99-1.83-4.3-3.08-1.3-1.24-2.43-2.72-3.38-4.42-.95-1.71-1.68-3.66-2.21-5.86-.52-2.2-.79-4.66-.79-7.4,0-3.83.51-7.18,1.53-10.06,1.02-2.88,2.44-5.29,4.27-7.23s4.01-3.39,6.55-4.37,5.34-1.47,8.4-1.47c1.6,0,3.16.15,4.68.46,1.52.31,2.94.72,4.27,1.23,1.32.51,2.53,1.11,3.62,1.78,1.09.67,2,1.38,2.76,2.14,0,.75-.04,1.57-.12,2.46-.08.89-.18,1.77-.31,2.65-.13.88-.29,1.71-.47,2.49-.19.79-.39,1.44-.61,1.96h-15.62c-.24.3-.51.7-.82,1.2s-.59,1.1-.86,1.79c-.27.7-.49,1.49-.68,2.39-.19.9-.28,1.9-.28,2.99,0,1.39.15,2.59.46,3.61s.71,1.86,1.21,2.53,1.09,1.17,1.75,1.5c.66.33,1.35.5,2.06.5.36,0,.6-.07.74-.22.14-.15.21-.32.21-.53v-.79h-.33Z"/><path class="aa" d="m1722.22,911.42c.77-.57,1.64-1.09,2.61-1.55.97-.47,1.99-.86,3.07-1.18,1.08-.32,2.19-.56,3.35-.73s2.32-.26,3.48-.26c1.54,0,3.07.16,4.58.48,1.51.32,2.89.82,4.13,1.5,1.24.68,2.31,1.57,3.2,2.65.89,1.08,1.49,2.38,1.81,3.88l6.76,32.23c-.91,1.34-2.18,2.45-3.82,3.31-1.64.87-3.72,1.3-6.22,1.3-1.11,0-2.14-.11-3.11-.34-.97-.23-1.82-.56-2.56-1.01-.74-.44-1.35-1-1.84-1.67s-.8-1.46-.93-2.38l-.65-4.17c.61-.02,1.22-.11,1.82-.26.6-.15,1.15-.33,1.63-.55.48-.22.88-.46,1.19-.73s.46-.55.46-.82c0-.36-.13-.66-.38-.89-.36.3-.77.56-1.25.8-.47.24-.97.44-1.5.6-.52.16-1.05.28-1.57.36s-1.01.12-1.47.12c-.85,0-1.61-.06-2.27-.19-.66-.12-1.24-.28-1.73-.46-.49-.18-.92-.38-1.27-.6s-.65-.43-.89-.63c-.08.12-.15.25-.21.39s-.09.31-.09.5c0,.34.15.66.46.94.31.29.72.54,1.23.75.51.22,1.1.39,1.76.53s1.36.23,2.09.27c.12,1.59.25,2.87.4,3.81.15.95.29,1.54.43,1.79-.18.39-.53.8-1.05,1.25s-1.18.86-1.96,1.25c-.78.39-1.67.71-2.67.96s-2.06.38-3.19.38c-1.4,0-2.73-.18-3.97-.55-1.25-.36-2.33-.87-3.26-1.52s-1.67-1.44-2.22-2.36c-.55-.92-.83-1.95-.83-3.09,0-.25,0-.51.03-.77.02-.26.06-.53.12-.8l6.31-32.53Zm13.93,17.6c-.22-1.37-.39-2.46-.52-3.28-.13-.82-.26-1.44-.38-1.86-.13-.42-.27-.69-.42-.82-.15-.12-.33-.19-.55-.19-.14,0-.27.02-.38.07-.12.05-.23.09-.33.14l1.13,6.9c.08.09.19.16.34.21s.28.07.4.07c.18,0,.35-.03.5-.09.16-.06.28-.11.36-.15l-.15-.99Z"/><path class="aa" d="m1780.13,943.75c.69-.18,1.44-.56,2.25-1.13s1.59-1.49,2.34-2.77c.34-.59.5-1.11.5-1.54,0-.59-.26-.89-.77-.89-.04,0-.07,0-.1.02-.03.01-.06.02-.1.02-1.4,3.35-3.65,5.02-6.73,5.02-.77,0-1.49-.09-2.15-.27-.66-.18-1.28-.48-1.85-.89s-1.12-.96-1.63-1.64c-.51-.68-1.01-1.53-1.48-2.53h-.18c-.22,0-.41.06-.56.17-.16.11-.24.32-.24.62,0,.39.12.8.36,1.23.43.82.9,1.53,1.41,2.12.5.59,1.02,1.09,1.54,1.49.52.4,1.04.7,1.56.91s.98.33,1.39.38l-.24,6.46c-.51.39-1.05.74-1.62,1.06-.56.32-1.2.59-1.91.8-.71.22-1.52.38-2.42.5-.9.11-1.93.17-3.1.17s-2.26-.13-3.47-.38-2.31-.67-3.32-1.25-1.84-1.33-2.5-2.24-.99-2.04-.99-3.38c0-.71.03-1.67.09-2.89.06-1.22.14-2.6.25-4.15.11-1.55.23-3.22.37-5.02.14-1.8.29-3.62.44-5.45.16-1.83.32-3.65.47-5.45.16-1.8.32-3.47.47-5.02.16-1.55.3-2.93.43-4.13.13-1.21.24-2.15.34-2.84.57-.59,1.23-1.09,1.96-1.5.73-.41,1.5-.74,2.3-.97.8-.24,1.6-.41,2.42-.51s1.59-.15,2.34-.15c1.34,0,2.66.17,3.96.51,1.29.34,2.37.79,3.22,1.33l1.63,6.29-1.04,5.02c-.04.18-.07.35-.09.51-.02.16-.03.32-.03.48,0,.78.39,1.19,1.19,1.23l2.82-13.5c.34-.21.77-.42,1.29-.65s1.11-.43,1.75-.62c.64-.18,1.34-.33,2.09-.44.75-.11,1.52-.17,2.31-.17,1.4,0,2.63.13,3.69.39,1.06.26,1.95.68,2.67,1.26s1.29,1.34,1.7,2.27c.42.93.69,2.08.83,3.45.14,1.43.31,3.17.52,5.19.21,2.03.42,4.17.64,6.44.22,2.27.43,4.56.65,6.89.22,2.32.41,4.5.58,6.54s.31,3.84.42,5.42c.11,1.57.16,2.73.16,3.49-2.19,2.67-5.35,4-9.48,4-1.3,0-2.5-.13-3.59-.38-1.09-.25-2.02-.63-2.8-1.14-.78-.51-1.4-1.15-1.87-1.9-.46-.75-.74-1.64-.81-2.67l-.27-3.21Z"/><path class="aa" d="m1830.85,908.34c.26.48.49,1.01.71,1.59.22.58.39,1.18.53,1.81.14.63.25,1.25.33,1.88.08.63.12,1.21.12,1.76,0,2.35-.4,4.09-1.19,5.23-.79,1.14-1.88,1.71-3.26,1.71h-11.95c-.73,0-1.1.33-1.1.99v.27c0,.14.02.23.06.27h14.17c.18.34.35.75.5,1.21.16.47.29.96.4,1.47.11.51.2,1.04.27,1.57.07.54.1,1.04.1,1.52,0,1.37-.12,2.59-.36,3.67-.24,1.08-.55,1.98-.95,2.68h-6.43c-1.68,0-3.07.05-4.16.15s-1.96.23-2.59.39c-.63.16-1.08.34-1.33.53-.26.19-.39.39-.39.6,0,.18.02.35.07.51.05.16.16.3.34.41.49-.18,1-.34,1.51-.48.51-.14,1.09-.24,1.72-.33.63-.08,1.34-.14,2.12-.19.78-.04,1.68-.07,2.71-.07h8.33c.22.36.43.77.65,1.21.22.44.41.96.58,1.54s.31,1.25.42,2,.16,1.62.16,2.6c0,.61-.04,1.27-.12,1.96s-.2,1.38-.36,2.07c-.16.68-.37,1.33-.62,1.95s-.56,1.15-.92,1.61h-22.2c-1.17,0-2.25-.17-3.26-.5s-1.89-.84-2.64-1.54c-.75-.69-1.34-1.57-1.78-2.63-.43-1.06-.65-2.33-.65-3.81v-32.5c0-1.09,1.1-1.89,3.29-2.39s5.54-.75,10.05-.75h17.1Z"/></g></svg>