<?xml version="1.0" encoding="utf-8"?>
<!-- Generator: Adobe Illustrator 28.0.0, SVG Export Plug-In . SVG Version: 6.00 Build 0)  -->
<svg version="1.1" id="a" xmlns="http://www.w3.org/2000/svg" xmlns:xlink="http://www.w3.org/1999/xlink" x="0px" y="0px"
	 viewBox="0 0 1920 1080" style="enable-background:new 0 0 1920 1080;" xml:space="preserve">
<style type="text/css">
	.st0{fill:#56C2F0;}
	.st1{fill:#654B3D;}
	.st2{fill:#473A33;}
	.st3{fill:#7EBB4B;}
	.st4{fill:#619438;}
	.st5{fill:#89B342;}
	.st6{fill:#A59F9B;}
	.st7{fill:#7C7C7B;}
	.st8{fill:#9B6F59;}
	.st9{fill:#825D4A;}
	.st10{fill:#F4F6F5;}
	.st11{fill:#DDE3E0;}
	.st12{fill:#C10000;stroke:#710000;stroke-width:4;stroke-miterlimit:10;}
	.st13{font-family:'Modak';}
	.st14{font-size:72px;}
	.st15{fill:#EECE95;}
	.st16{fill:#E5B561;}
	.st17{fill:#B82214;}
	.st18{fill:#941B10;}
	.st19{fill:#8E6652;}
	.st20{fill:#755443;}
	.st21{fill:#6DCAF2;}
	.st22{fill:#EDB25A;stroke:#E9A135;stroke-width:4;stroke-miterlimit:10;}
	.st23{fill:#EAEDEC;stroke:#E0E0E0;stroke-width:6;stroke-miterlimit:10;}
	.st24{opacity:0.95;fill:#EAEDEC;stroke:#E0E0E0;stroke-width:6;stroke-miterlimit:10;enable-background:new    ;}
	.st25{fill:#FED266;stroke:#7F5D2A;stroke-miterlimit:10;}
	.st26{fill:#CD5522;stroke:#F17083;stroke-miterlimit:10;}
	.st27{fill:#FBBB71;stroke:#7F5D3F;stroke-miterlimit:10;}
	.st28{stroke:#000000;stroke-width:0.5;stroke-miterlimit:10;}
	.st29{fill:#FF9492;stroke:#7F5D2A;stroke-width:0.5;stroke-miterlimit:10;}
	.st30{fill:#FF9497;stroke:#7F5D2A;stroke-width:0.5;stroke-miterlimit:10;}
	.st31{fill:#FFFFFF;stroke:#000000;stroke-width:0.5;stroke-miterlimit:10;}
	.st32{fill:#C10000;stroke:#710000;stroke-width:7;stroke-miterlimit:10;}
	.st33{font-size:69.986px;}
</style>
<g id="b">
	<rect x="-1" class="st0" width="1921" height="1080"/>
</g>
<path class="st1" d="M1446.8,624.4h62c5.8,0,10.5,4.7,10.5,10.5v374.8c0,5.8-4.7,10.5-10.5,10.5h-62c-5.8,0-10.5-4.7-10.5-10.5
	V634.9C1436.2,629.1,1441,624.4,1446.8,624.4z"/>
<path class="st2" d="M1508.8,625.9c5,0,9,4,9,9v374.8c0,5-4,9-9,9h-62c-5,0-9-4-9-9V634.9c0-5,4-9,9-9H1508.8 M1508.8,622.9h-62
	c-6.6,0-12,5.4-12,12v374.8c0,6.6,5.4,12,12,12h62c6.6,0,12-5.4,12-12V634.9C1520.8,628.3,1515.4,622.9,1508.8,622.9L1508.8,622.9z"
	/>
<path class="st3" d="M1479.2,746.5c-36.3-0.2-67.8-26.3-73.2-60.8c-0.4-26.9-2.2-27-3.6-27.1c0,0,0,0-0.1,0c-1.3,0-2.8,0.2-6.1,19.1
	c-9.8,6.9-25.5,15-45.1,15c-1.3,0-2.6,0-3.9-0.1c-4.6-0.2-13-0.7-21.8-4.9c-15.4-7.3-28.7-24.8-33.8-44.6c-3.4-13.2-2.4-25,2.8-32.2
	c7.3-10.2,21.7-11,34.5-11.8c10.6-0.6,19.7-1.1,21.9-7.3c2.1-6.1-4.4-11.5-13.4-18.9c-10.6-8.7-25.1-20.6-32.3-39.5
	c-7.9-20.6-8.3-50,9.5-66c8.8-7.9,21.5-12.2,35.8-12.2c15.4,0,31.8,5.1,45.9,14.3c0.4,0.4,1.1,0.6,1.9,0.6s1.7-0.2,2.4-0.7
	c1.1-0.7,1.5-1.6,1.8-2.5l0.1-0.3c0.3-0.7,0.4-0.9,0.9-1.6c0.4-0.6,1-1.4,2.1-3c0.6-1,1.6-2.7,2.9-5c6.1-11,20.3-36.6,40.6-51
	c4.8-3.4,10.5-6.6,14.7-8.9c6.5-3.6,15.6-8.3,20.3-10.1c5.4-2.1,12.5-3.2,19.6-3.2c14.2,0,26.2,4.4,32.9,12.1
	c15.3,17.5,16.5,64.9,16.5,65.4c0,1.3,0,5.2,2.7,7.3c1.2,0.9,2.7,1.4,4.4,1.4c0.6,0,1.2,0,1.9-0.1l0.3,0l0.2-0.2
	c6.6-6.5,12.2-13.8,16.5-21.7c2.1-3.8,3.4-6.9,4.6-9.6c2-4.5,3.3-7.6,6.9-10.6c6.3-5.4,14.3-6.1,21.2-6.1c1,0,1.9,0,2.8,0h0.3
	c5.9,0.1,15.7,0.2,23.8,6.5c1.8,1.4,2.7,2.4,4.2,4.2c1.5,1.7,3.5,4,7.3,7.8c3.5,3.5,6.6,6.2,8.4,7.8c0.9,0.8,1.5,1.4,1.8,1.6
	c11.2,12.3,17.6,36.1,16.1,59.3c-1.3,20.3-8.5,36.8-20.1,46.6c-12.3,10.3-28.3,12.5-39,13.9c-7.9,1-12.7,1.7-13,4.9
	c-0.4,3.7,6,5.3,16.5,7.9c15.9,4,40.1,10,50.3,27.2c12.3,20.7,5,57.8-23.2,76.4c-10.8,7.1-23.6,10.9-36.9,10.9
	c-18.2,0-35.4-6.8-48.4-19.2l-0.7-0.7l-8.8,8.4l-0.1,0.3c-5.4,34.7-37,60.9-73.5,60.9L1479.2,746.5L1479.2,746.5z"/>
<path class="st4" d="M1503.6,384.9c13.9,0,25.7,4.3,32.2,11.8c15.1,17.2,16.2,64.3,16.2,64.8v0.1c0,1.4,0.1,5.5,3.1,7.9
	c1.3,1.1,3,1.6,5.1,1.6c0.6,0,1.3,0,2-0.2l0.6-0.1l0.5-0.5c6.7-6.6,12.3-14,16.7-21.9c2.1-3.9,3.5-7.1,4.7-9.6
	c1.9-4.4,3.2-7.3,6.6-10.2c6.1-5.1,13.8-5.8,20.6-5.8c1,0,1.9,0,2.8,0h0.3c5.8,0.1,15.4,0.2,23.2,6.3c1.7,1.3,2.6,2.4,4.1,4.1
	c1.5,1.7,3.5,4.1,7.3,7.9c3.6,3.6,6.6,6.2,8.4,7.8c0.8,0.7,1.5,1.3,1.7,1.5c11,12.1,17.3,35.6,15.8,58.6c-1.3,20-8.3,36.3-19.7,45.9
	c-5.3,4.5-11.7,7.8-19.6,10.1c-6.8,2-13.5,2.9-18.8,3.6c-8.1,1.1-13.5,1.8-13.9,5.8c-0.4,4.5,6.2,6.2,17.3,9
	c15.8,4,39.7,9.9,49.6,26.7c12.1,20.3,4.9,56.7-22.9,75c-10.6,7-23.2,10.7-36.4,10.7c-18,0-34.9-6.7-47.7-18.9l-1.4-1.3l-1.4,1.3
	l-7.8,7.5l-0.5,0.5l-0.1,0.7c-5.3,34.2-36.5,60-72.5,60h-0.3c-17.4-0.1-34.3-6.2-47.6-17.2c-13.2-11-21.9-26.2-24.5-42.6
	c-0.4-25.9-2-27.9-4.5-28.1h-0.1h-0.1l0,0c-2.2,0-3.8,1.3-7,19.6c-9.7,6.8-25,14.6-44.2,14.6c-1.3,0-2.6,0-3.8-0.1
	c-4.5-0.2-12.8-0.7-21.4-4.8c-15.1-7.2-28.2-24.5-33.2-44c-3.3-12.9-2.4-24.4,2.6-31.4c7-9.8,21.2-10.6,33.7-11.3
	c10.9-0.6,20.4-1.2,22.8-8c2.4-6.8-4.4-12.3-13.8-20c-10.5-8.6-24.9-20.4-32-39c-3.9-10.3-5.7-22.4-4.9-33.1
	c1-13.3,5.9-24.3,14.2-31.7c8.6-7.7,21.1-12,35.2-12c15.2,0,31.3,5,45.3,14.1c0.6,0.6,1.5,0.9,2.5,0.9s2.1-0.3,2.9-0.8
	c1.3-0.8,1.8-2,2.2-3l0.1-0.3c0.2-0.6,0.3-0.7,0.8-1.4c0.4-0.6,1.1-1.4,2.1-3c0.7-1,1.6-2.7,2.9-5.1c6-10.9,20.2-36.4,40.3-50.7
	c4.7-3.4,10.4-6.5,14.6-8.9c6.5-3.6,15.5-8.2,20.2-10C1489.6,386,1496.6,384.9,1503.6,384.9 M1503.6,382.9c-7.5,0-14.6,1.2-19.9,3.3
	c-4.6,1.8-13.5,6.3-20.4,10.1c-4.2,2.4-9.9,5.5-14.8,9c-24.7,17.5-40.1,50.7-43.8,56.3c-2.4,3.6-2.5,3.3-3.1,4.7
	c-0.4,0.9-0.7,1.8-1.6,2.4c-0.6,0.3-1.2,0.5-1.8,0.5c-0.6,0-1-0.1-1.2-0.4c-15.1-9.8-31.5-14.5-46.6-14.5s-27.4,4.3-36.5,12.5
	c-19.4,17.4-16.9,48.4-9.8,67.1c13.3,34.7,50,45.5,45.7,57.7c-4.4,12.4-42.5-0.4-56.2,18.8c-13.8,19.3,2.5,64.6,31.4,78.3
	c8.8,4.2,17.2,4.7,22.2,5c1.3,0.1,2.7,0.1,3.9,0.1c22.4,0,39.2-10.6,46.1-15.5c2.2-12.5,3.9-18.7,5.2-18.7c0,0,0,0,0,0
	c1.5,0.1,2.4,8.8,2.7,26.2c5.4,35.2,37.2,61.6,74.2,61.7c0.1,0,0.2,0,0.3,0c37.1,0,69-26.4,74.5-61.7c2.6-2.5,5.2-5,7.8-7.5
	c13.5,12.9,31.4,19.5,49.1,19.5c13.2,0,26.3-3.6,37.5-11c28.8-19,36-56.7,23.5-77.7c-16.4-27.6-67.4-26.8-66.7-34.5
	c0.6-6.2,31-0.8,51.6-18.2c29-24.4,24.7-84.6,4.1-107.3c-0.8-0.8-4.8-4.1-10.2-9.4c-7.7-7.7-8-9.3-11.6-12.1
	c-8.3-6.5-18.4-6.6-24.4-6.7c-1,0-2,0-3.1,0c-6.7,0-15.2,0.6-21.9,6.3c-5.9,5-6,10-11.7,20.4c-3.9,7.1-9.2,14.4-16.3,21.5
	c-0.5,0.1-1.1,0.1-1.7,0.1c-1.3,0-2.7-0.3-3.8-1.2c-2.3-1.9-2.3-5.5-2.3-6.5c-0.1-4.4-1.8-49-16.8-66.1
	C1529.4,386.3,1516,382.9,1503.6,382.9L1503.6,382.9L1503.6,382.9z M1397.4,467.2c-0.2,0-0.8,0.9-0.5,1.5c0,0,0,0.1,0.1,0.1
	c0.1,0,0.2,0.1,0.2,0.1C1397.4,468,1397.5,467.2,1397.4,467.2L1397.4,467.2L1397.4,467.2L1397.4,467.2z"/>
<path class="st1" d="M153.1,618.8h62c5.8,0,10.5,4.7,10.5,10.5v371.9c0,5.8-4.7,10.5-10.5,10.5h-62c-5.8,0-10.5-4.7-10.5-10.5V629.3
	C142.6,623.5,147.3,618.8,153.1,618.8z"/>
<path class="st2" d="M215.1,620.3c5,0,9,4,9,9v371.9c0,5-4,9-9,9h-62c-5,0-9-4-9-9V629.3c0-5,4-9,9-9L215.1,620.3 M215.1,617.3h-62
	c-6.6,0-12,5.4-12,12v371.9c0,6.6,5.4,12,12,12h62c6.6,0,12-5.4,12-12V629.3C227.1,622.7,221.7,617.3,215.1,617.3L215.1,617.3z"/>
<path class="st3" d="M185.6,739.9c-36.4-0.2-67.8-26.1-73.2-60.4c-0.4-26.7-2.2-26.8-3.6-27c0,0,0,0-0.1,0c-1.3,0-2.8,0.2-6.1,19
	c-9.8,6.9-25.5,14.9-45.1,14.9c-1.3,0-2.6,0-3.9-0.1c-4.5-0.2-13-0.7-21.8-4.9C16.3,674.3,3.1,656.8-2,637.1
	c-3.4-13-2.3-24.7,2.8-31.9c7.3-10.1,21.7-10.9,34.5-11.7c10.6-0.6,19.7-1.1,21.9-7.2c2.1-6-4.4-11.4-13.5-18.8
	c-10.6-8.6-25.1-20.4-32.3-39.2C3.5,508,3.1,478.8,20.9,463c8.8-7.8,21.5-12.1,35.8-12.1c15.4,0,31.8,5,45.9,14.2
	c0.4,0.4,1.1,0.6,1.9,0.6s1.7-0.2,2.4-0.6c1.1-0.7,1.5-1.6,1.8-2.5l0.1-0.3c0.3-0.7,0.4-0.9,0.9-1.5c0.4-0.5,1-1.4,2.1-3
	c0.6-1,1.6-2.6,2.9-5c6.1-10.9,20.3-36.3,40.6-50.6c4.8-3.4,10.5-6.5,14.7-8.8c6.5-3.6,15.6-8.2,20.3-10c5.4-2,12.5-3.2,19.6-3.2
	c14.2,0,26.2,4.4,32.9,12c15.3,17.3,16.5,64.5,16.5,64.9c0,1.3,0,5.1,2.7,7.2c1.1,0.9,2.6,1.4,4.5,1.4c0.6,0,1.2,0,1.9-0.1l0.3,0
	l0.2-0.2c6.6-6.5,12.2-13.7,16.5-21.5c2.1-3.8,3.5-6.8,4.6-9.5c2-4.5,3.3-7.5,6.9-10.5c6.3-5.3,14.3-6,21.2-6c1,0,1.9,0,2.8,0h0.3
	c5.9,0.1,15.7,0.2,23.8,6.5c1.8,1.4,2.7,2.4,4.2,4.2c1.5,1.7,3.5,4,7.3,7.8c3.5,3.5,6.6,6.1,8.4,7.7c0.9,0.8,1.5,1.4,1.8,1.6
	c11.1,12.2,17.6,35.8,16,58.8c-1.3,20.1-8.5,36.6-20.1,46.3c-12.3,10.3-28.4,12.4-39,13.8c-7.9,1-12.7,1.7-13,4.9
	c-0.4,3.7,6,5.2,16.5,7.9c16,4,40.1,10,50.3,27c12.3,20.5,5,57.3-23.2,75.8c-10.8,7.1-23.6,10.8-36.9,10.8
	c-18.2,0-35.4-6.8-48.4-19.1l-0.7-0.7l-8.8,8.3l0,0.3c-5.4,34.5-37,60.4-73.5,60.4L185.6,739.9L185.6,739.9z"/>
<path class="st4" d="M209.9,381.1c13.9,0,25.6,4.2,32.2,11.7c15.1,17.1,16.2,63.8,16.3,64.3v0.1c0,1.4,0,5.5,3.1,7.9
	c1.3,1.1,3,1.6,5.1,1.6c0.6,0,1.3,0,2-0.2l0.6-0.1l0.5-0.5c6.7-6.6,12.3-13.9,16.7-21.8c2.1-3.8,3.5-7,4.7-9.6
	c1.9-4.4,3.2-7.3,6.6-10.1c6.1-5.1,13.8-5.8,20.6-5.8c1,0,1.9,0,2.8,0h0.3c5.8,0.1,15.4,0.2,23.2,6.3c1.7,1.3,2.6,2.3,4,4
	c1.5,1.7,3.5,4,7.3,7.8c3.6,3.5,6.6,6.2,8.4,7.8c0.8,0.7,1.5,1.3,1.7,1.5c11,12,17.3,35.3,15.8,58.1c-1.3,19.9-8.3,36-19.7,45.6
	c-5.3,4.4-11.7,7.7-19.6,10c-6.8,2-13.5,2.9-18.8,3.6c-8.1,1.1-13.5,1.8-13.9,5.8c-0.5,4.5,6.2,6.2,17.3,8.9
	c15.8,3.9,39.7,9.9,49.6,26.5c12.1,20.2,4.9,56.3-22.9,74.4c-10.6,7-23.2,10.6-36.4,10.6c-18,0-34.9-6.7-47.7-18.8l-1.4-1.3
	l-1.4,1.3l-7.8,7.5l-0.5,0.5l-0.1,0.7c-5.3,34-36.5,59.6-72.5,59.6h-0.3c-17.4-0.1-34.4-6.2-47.6-17.1c-13.2-10.9-21.9-26-24.5-42.3
	c-0.4-25.7-2-27.7-4.5-27.9h-0.1h-0.1l0,0c-2.2,0-3.8,1.3-7,19.4c-9.7,6.7-25,14.5-44.2,14.5c-1.3,0-2.6,0-3.8-0.1
	c-4.5-0.2-12.8-0.7-21.5-4.8C17,673.5,4,656.3-1.1,636.9c-3.3-12.8-2.3-24.1,2.7-31c7-9.7,21.2-10.5,33.7-11.2
	c10.9-0.6,20.4-1.1,22.8-7.9c2.4-6.7-4.4-12.2-13.8-19.9c-10.5-8.5-24.9-20.2-32-38.8c-3.9-10.2-5.7-22.2-4.9-32.9
	c1-13.2,5.9-24.1,14.2-31.5c8.6-7.7,21.1-11.9,35.2-11.9c15.2,0,31.3,5,45.3,14c0.6,0.5,1.5,0.9,2.5,0.9s2.1-0.3,2.9-0.8
	c1.3-0.8,1.8-2,2.2-2.9l0.1-0.3c0.2-0.6,0.3-0.7,0.8-1.3c0.4-0.6,1.1-1.4,2.1-3c0.7-1,1.6-2.7,2.9-5c6-10.8,20.2-36.1,40.3-50.3
	c4.7-3.3,10.4-6.5,14.6-8.8c6.5-3.6,15.5-8.2,20.1-9.9C195.9,382.2,203,381.1,209.9,381.1 M209.9,379.1c-7.5,0-14.6,1.2-19.9,3.3
	c-4.6,1.8-13.5,6.2-20.4,10.1c-4.2,2.3-9.9,5.5-14.8,8.9c-24.7,17.4-40.1,50.3-43.8,55.9c-2.4,3.5-2.5,3.2-3.1,4.7
	c-0.4,0.9-0.7,1.8-1.6,2.3c-0.6,0.3-1.2,0.5-1.8,0.5c-0.6,0-1-0.1-1.2-0.4c-15.1-9.8-31.5-14.4-46.6-14.4s-27.4,4.2-36.5,12.4
	c-19.4,17.3-16.9,48.1-9.8,66.6c13.3,34.4,50,45.2,45.7,57.2c-4.4,12.3-42.5-0.4-56.2,18.7c-13.8,19.2,2.5,64.1,31.4,77.8
	c8.8,4.2,17.2,4.7,22.2,5c1.3,0.1,2.7,0.1,3.9,0.1c22.5,0,39.2-10.5,46-15.3c2.2-12.4,3.9-18.6,5.2-18.6c0,0,0,0,0,0
	c1.5,0.1,2.4,8.8,2.7,26c5.4,35,37.2,61.1,74.2,61.3c0.1,0,0.2,0,0.3,0c37.1,0,69-26.2,74.5-61.3c2.6-2.5,5.2-5,7.8-7.5
	c13.5,12.8,31.4,19.3,49.1,19.3c13.2,0,26.3-3.6,37.5-11c28.8-18.8,36-56.3,23.5-77.1c-16.4-27.4-67.4-26.6-66.6-34.2
	c0.6-6.2,31-0.8,51.6-18c29-24.2,24.7-84,4.1-106.5c-0.8-0.8-4.9-4.1-10.2-9.4c-7.7-7.6-8-9.3-11.6-12c-8.3-6.5-18.4-6.6-24.4-6.7
	c-1,0-2,0-3.1,0c-6.7,0-15.2,0.6-21.9,6.3c-5.9,5-6,9.9-11.7,20.3c-3.9,7-9.2,14.3-16.3,21.3c-0.5,0.1-1.1,0.1-1.7,0.1
	c-1.3,0-2.7-0.3-3.8-1.2c-2.3-1.8-2.3-5.4-2.3-6.4c0-4.4-1.8-48.7-16.8-65.6C235.7,382.5,222.3,379.1,209.9,379.1L209.9,379.1
	L209.9,379.1z M103.7,462.7c-0.2,0-0.8,0.9-0.5,1.5c0,0,0,0.1,0.1,0.1c0.1,0,0.2,0.1,0.2,0.1C103.7,463.6,103.9,462.8,103.7,462.7
	L103.7,462.7L103.7,462.7L103.7,462.7z"/>
<g id="c">
	<path class="st1" d="M355,621.5h62c5.8,0,10.5,4.7,10.5,10.5v373c0,5.8-4.7,10.5-10.5,10.5h-62c-5.8,0-10.5-4.7-10.5-10.5V632
		C344.5,626.2,349.2,621.5,355,621.5z"/>
	<path class="st2" d="M417,623c5,0,9,4,9,9v373c0,5-4,9-9,9h-62c-5,0-9-4-9-9V632c0-5,4-9,9-9H417 M417,620h-62c-6.6,0-12,5.4-12,12
		v373c0,6.6,5.4,12,12,12h62c6.6,0,12-5.4,12-12V632C429,625.4,423.6,620,417,620L417,620z"/>
	<path class="st3" d="M387.5,743c-36.3-0.2-67.8-26.2-73.1-60.5c-0.4-26.8-2.2-26.9-3.6-27c0,0,0,0,0,0c-1.3,0-2.8,0.2-6.1,19
		c-9.8,6.9-25.5,15-45.1,15c-1.3,0-2.6,0-3.9-0.1c-4.6-0.2-13-0.7-21.8-4.9c-15.4-7.3-28.7-24.8-33.8-44.5
		c-3.4-13.1-2.4-24.8,2.8-32c7.3-10.2,21.7-11,34.4-11.7c10.6-0.6,19.7-1.1,21.9-7.3c2.1-6.1-4.4-11.4-13.4-18.8
		c-10.6-8.6-25.1-20.5-32.3-39.3c-7.9-20.5-8.3-49.8,9.5-65.6c8.8-7.9,21.5-12.2,35.8-12.2c15.4,0,31.7,5,45.9,14.2
		c0.4,0.4,1.1,0.6,1.9,0.6s1.7-0.2,2.4-0.7c1.1-0.7,1.5-1.6,1.8-2.5l0.1-0.3c0.3-0.7,0.5-0.9,0.9-1.5c0.4-0.5,1-1.4,2.1-3
		c0.6-1,1.6-2.6,2.9-5c6.1-10.9,20.2-36.4,40.6-50.8c4.8-3.4,10.5-6.5,14.6-8.9c6.5-3.6,15.6-8.2,20.3-10c5.4-2,12.5-3.2,19.6-3.2
		c14.2,0,26.2,4.4,32.9,12c15.3,17.4,16.5,64.6,16.5,65.1c0,1.3,0,5.1,2.7,7.2c1.1,0.9,2.6,1.4,4.5,1.4c0.6,0,1.2,0,1.9-0.1l0.3,0
		l0.2-0.2c6.6-6.5,12.2-13.8,16.5-21.6c2.1-3.8,3.4-6.8,4.6-9.5c2-4.5,3.3-7.5,6.9-10.5c6.3-5.3,14.3-6,21.2-6c1,0,1.9,0,2.8,0h0.3
		c5.9,0.1,15.7,0.2,23.8,6.5c1.8,1.4,2.7,2.4,4.2,4.2c1.5,1.7,3.5,4,7.3,7.8c3.5,3.5,6.5,6.2,8.4,7.8c0.9,0.8,1.5,1.4,1.8,1.6
		c11.1,12.2,17.6,35.9,16,59c-1.3,20.2-8.5,36.7-20,46.4c-12.3,10.3-28.3,12.4-38.9,13.8c-7.9,1-12.7,1.7-13,4.9
		c-0.4,3.7,6,5.2,16.5,7.9c15.9,4,40,10,50.2,27c12.3,20.6,5,57.5-23.2,76c-10.8,7.1-23.5,10.8-36.9,10.8
		c-18.2,0-35.4-6.8-48.4-19.1l-0.7-0.7l-8.8,8.4l0,0.3c-5.4,34.5-37,60.6-73.5,60.6L387.5,743L387.5,743z"/>
	<path class="st4" d="M411.8,383.1c13.9,0,25.6,4.3,32.2,11.7c15.1,17.1,16.2,64,16.2,64.5v0.1c0,1.4,0,5.5,3,7.9
		c1.3,1.1,3,1.6,5.1,1.6c0.6,0,1.3,0,2-0.2l0.6-0.1l0.5-0.5c6.7-6.6,12.3-13.9,16.7-21.8c2.1-3.9,3.5-7,4.7-9.6
		c1.9-4.4,3.2-7.3,6.6-10.2c6.1-5.1,13.8-5.8,20.6-5.8c1,0,1.9,0,2.8,0h0.3c5.8,0.1,15.4,0.2,23.2,6.3c1.7,1.3,2.6,2.3,4,4
		c1.5,1.7,3.5,4.1,7.3,7.9c3.5,3.5,6.6,6.2,8.4,7.8c0.8,0.7,1.5,1.3,1.7,1.5c11,12,17.3,35.4,15.8,58.2
		c-1.3,19.9-8.3,36.1-19.7,45.7c-5.3,4.5-11.7,7.7-19.6,10c-6.8,2-13.5,2.9-18.8,3.6c-8.1,1.1-13.5,1.8-13.9,5.8
		c-0.5,4.5,6.2,6.2,17.3,9c15.8,3.9,39.6,9.9,49.6,26.6c12.1,20.2,4.8,56.4-22.9,74.7c-10.6,7-23.2,10.7-36.4,10.7
		c-18,0-34.9-6.7-47.7-18.9l-1.4-1.3l-1.4,1.3l-3.8,3.7l-4,3.8l-0.5,0.5l-0.1,0.7c-5.3,34.1-36.5,59.8-72.5,59.8h-0.3
		c-17.4-0.1-34.3-6.2-47.6-17.2c-13.2-11-21.9-26-24.5-42.4c-0.4-25.8-2-27.8-4.5-27.9h-0.1h-0.1l0,0c-2.2,0-3.8,1.3-7,19.5
		c-9.7,6.8-25,14.5-44.2,14.5c-1.3,0-2.6,0-3.8-0.1c-4.5-0.2-12.8-0.7-21.4-4.8c-15.2-7.2-28.2-24.4-33.2-43.8
		c-3.3-12.8-2.4-24.2,2.6-31.2c7-9.8,21.2-10.6,33.7-11.3c10.9-0.6,20.4-1.2,22.7-7.9c2.4-6.7-4.4-12.2-13.8-19.9
		c-10.5-8.6-24.8-20.3-32-38.9c-3.9-10.2-5.7-22.2-4.9-33c1-13.3,5.9-24.2,14.2-31.6c8.6-7.7,21.1-11.9,35.2-11.9
		c15.2,0,31.3,5,45.3,14c0.6,0.6,1.5,0.9,2.5,0.9s2.1-0.3,2.9-0.8c1.3-0.8,1.8-2,2.2-2.9l0.1-0.3c0.2-0.6,0.3-0.7,0.8-1.4
		c0.4-0.6,1-1.4,2.1-3c0.7-1,1.6-2.7,2.9-5.1c6-10.8,20.1-36.2,40.3-50.5c4.7-3.3,10.4-6.5,14.6-8.8c6.5-3.6,15.5-8.2,20.1-10
		C397.9,384.3,404.9,383.1,411.8,383.1 M411.9,381.1c-7.5,0-14.6,1.2-19.9,3.3c-4.6,1.8-13.5,6.2-20.4,10.1
		c-4.2,2.3-9.9,5.5-14.7,8.9c-24.7,17.4-40,50.5-43.8,56c-2.4,3.5-2.5,3.3-3.1,4.7c-0.4,0.9-0.7,1.8-1.6,2.4
		c-0.5,0.3-1.2,0.5-1.8,0.5c-0.5,0-1-0.1-1.2-0.4c-15-9.8-31.5-14.5-46.5-14.5s-27.3,4.3-36.5,12.4c-19.4,17.3-16.9,48.2-9.8,66.7
		c13.3,34.5,50,45.3,45.7,57.4c-4.4,12.3-42.5-0.4-56.2,18.7c-13.8,19.3,2.5,64.3,31.4,78c8.8,4.2,17.2,4.7,22.2,5
		c1.3,0.1,2.6,0.1,3.9,0.1c22.4,0,39.2-10.5,46-15.4c2.1-12.4,3.9-18.6,5.1-18.6c0,0,0,0,0,0c1.5,0.1,2.4,8.8,2.7,26.1
		c5.4,35,37.2,61.3,74.1,61.4c0.1,0,0.2,0,0.3,0c37.1,0,69-26.3,74.5-61.4c2.6-2.5,5.2-5,7.8-7.5c13.5,12.8,31.4,19.4,49.1,19.4
		c13.2,0,26.3-3.6,37.5-11c28.8-18.9,36-56.5,23.5-77.3c-16.4-27.5-67.4-26.7-66.6-34.3c0.6-6.2,31-0.8,51.6-18.1
		c29-24.3,24.7-84.3,4.1-106.8c-0.8-0.8-4.8-4.1-10.2-9.4c-7.7-7.6-8-9.3-11.5-12.1c-8.3-6.5-18.4-6.6-24.4-6.7c-1,0-2,0-3.1,0
		c-6.7,0-15.2,0.6-21.9,6.3c-5.9,5-6,9.9-11.7,20.3c-3.9,7.1-9.2,14.3-16.3,21.4c-0.5,0.1-1.1,0.1-1.7,0.1c-1.3,0-2.7-0.3-3.8-1.2
		c-2.3-1.9-2.3-5.4-2.3-6.5c0-4.4-1.8-48.8-16.7-65.8C437.7,384.6,424.3,381.1,411.9,381.1L411.9,381.1L411.9,381.1z M305.7,465
		c-0.2,0-0.8,0.9-0.5,1.5c0,0,0,0.1,0.1,0.1c0.1,0,0.2,0.1,0.2,0.1C305.7,465.9,305.9,465.1,305.7,465L305.7,465L305.7,465
		L305.7,465z"/>
</g>
<g id="d">
	<path class="st1" d="M1691,621.5h62c5.8,0,10.5,4.7,10.5,10.5v373c0,5.8-4.7,10.5-10.5,10.5h-62c-5.8,0-10.5-4.7-10.5-10.5V632
		C1680.5,626.2,1685.2,621.5,1691,621.5z"/>
	<path class="st2" d="M1753,623c5,0,9,4,9,9v373c0,5-4,9-9,9h-62c-5,0-9-4-9-9V632c0-5,4-9,9-9H1753 M1753,620h-62
		c-6.6,0-12,5.4-12,12v373c0,6.6,5.4,12,12,12h62c6.6,0,12-5.4,12-12V632C1765,625.4,1759.6,620,1753,620L1753,620z"/>
	<path class="st3" d="M1723.5,743c-36.3-0.2-67.8-26.2-73.1-60.5c-0.4-26.8-2.2-26.9-3.6-27c0,0,0,0-0.1,0c-1.3,0-2.8,0.2-6.1,19
		c-9.8,6.9-25.4,15-45.1,15c-1.3,0-2.6,0-3.9-0.1c-4.6-0.2-13-0.7-21.8-4.9c-15.4-7.3-28.7-24.8-33.8-44.5
		c-3.4-13.1-2.4-24.8,2.8-32c7.3-10.2,21.7-11,34.4-11.7c10.6-0.6,19.7-1.1,21.9-7.3c2.1-6.1-4.4-11.4-13.4-18.8
		c-10.6-8.6-25.1-20.5-32.3-39.3c-7.9-20.5-8.3-49.8,9.5-65.6c8.8-7.9,21.5-12.2,35.8-12.2c15.4,0,31.7,5,45.9,14.2
		c0.4,0.4,1.1,0.6,1.9,0.6s1.7-0.2,2.4-0.7c1.1-0.7,1.5-1.6,1.8-2.5l0.1-0.3c0.3-0.7,0.4-0.9,0.9-1.5c0.4-0.5,1-1.4,2.1-3
		c0.6-1,1.6-2.6,2.9-5c6.1-10.9,20.2-36.4,40.6-50.8c4.8-3.4,10.5-6.5,14.7-8.9c6.5-3.6,15.6-8.2,20.3-10c5.4-2,12.5-3.2,19.6-3.2
		c14.2,0,26.2,4.4,32.9,12c15.3,17.4,16.5,64.6,16.5,65.1c0,1.3,0.1,5.1,2.7,7.2c1.2,0.9,2.6,1.4,4.4,1.4c0.6,0,1.2,0,1.9-0.1l0.3,0
		l0.2-0.2c6.6-6.5,12.2-13.8,16.5-21.6c2.1-3.8,3.4-6.8,4.6-9.5c2-4.5,3.3-7.5,6.9-10.5c6.3-5.3,14.3-6,21.2-6c1,0,1.9,0,2.8,0h0.3
		c5.9,0.1,15.7,0.2,23.8,6.5c1.8,1.4,2.7,2.4,4.2,4.2c1.5,1.7,3.5,4,7.3,7.8c3.5,3.5,6.6,6.2,8.4,7.8c0.9,0.8,1.5,1.4,1.8,1.6
		c11.1,12.2,17.6,35.9,16,59c-1.3,20.2-8.5,36.7-20.1,46.4c-12.3,10.3-28.3,12.4-38.9,13.8c-7.9,1-12.7,1.7-13,4.9
		c-0.4,3.7,6,5.2,16.5,7.9c15.9,4,40,10,50.2,27c12.3,20.6,5,57.5-23.2,76c-10.8,7.1-23.5,10.8-36.9,10.8
		c-18.2,0-35.4-6.8-48.4-19.1l-0.7-0.7l-8.8,8.4l-0.1,0.3c-5.4,34.5-36.9,60.6-73.5,60.6L1723.5,743L1723.5,743z"/>
	<path class="st4" d="M1747.8,383.1c13.9,0,25.6,4.3,32.2,11.7c15.1,17.1,16.2,64,16.2,64.5v0.1c0,1.4,0.1,5.5,3.1,7.9
		c1.3,1.1,3,1.6,5.1,1.6c0.6,0,1.3,0,2-0.2l0.6-0.1l0.5-0.5c6.7-6.6,12.3-13.9,16.7-21.8c2.1-3.9,3.5-7,4.7-9.6
		c1.9-4.4,3.2-7.3,6.6-10.2c6.1-5.1,13.8-5.8,20.6-5.8c1,0,1.9,0,2.8,0h0.3c5.8,0.1,15.4,0.2,23.2,6.3c1.7,1.3,2.6,2.3,4.1,4
		c1.5,1.7,3.5,4.1,7.3,7.9c3.6,3.5,6.6,6.2,8.4,7.8c0.8,0.7,1.5,1.3,1.7,1.5c11,12,17.3,35.4,15.8,58.2
		c-1.3,19.9-8.3,36.1-19.7,45.7c-5.3,4.5-11.7,7.7-19.6,10c-6.8,2-13.5,2.9-18.8,3.6c-8.1,1.1-13.5,1.8-13.9,5.8
		c-0.4,4.5,6.2,6.2,17.3,9c15.8,3.9,39.6,9.9,49.6,26.6c12.1,20.2,4.8,56.4-22.9,74.7c-10.6,7-23.2,10.7-36.4,10.7
		c-18,0-34.9-6.7-47.7-18.9l-1.4-1.3l-1.4,1.3l-7.8,7.5l-0.5,0.5l-0.1,0.7c-5.3,34.1-36.4,59.8-72.5,59.8h-0.3
		c-17.4-0.1-34.3-6.2-47.6-17.2c-13.2-11-21.9-26-24.5-42.4c-0.4-25.8-2-27.8-4.5-27.9h-0.1h-0.1l0,0c-2.2,0-3.8,1.3-7,19.5
		c-9.7,6.8-25,14.5-44.2,14.5c-1.3,0-2.6,0-3.8-0.1c-4.5-0.2-12.8-0.7-21.4-4.8c-15.2-7.2-28.2-24.4-33.2-43.8
		c-3.3-12.8-2.4-24.2,2.7-31.2c7-9.8,21.2-10.6,33.7-11.3c10.9-0.6,20.3-1.2,22.7-7.9c2.4-6.7-4.4-12.2-13.8-19.9
		c-10.5-8.6-24.8-20.3-32-38.9c-3.9-10.2-5.7-22.2-4.9-33c1-13.3,5.9-24.2,14.2-31.6c8.6-7.7,21.1-11.9,35.2-11.9
		c15.2,0,31.3,5,45.3,14c0.6,0.6,1.5,0.9,2.5,0.9s2.1-0.3,2.9-0.8c1.3-0.8,1.8-2,2.2-2.9l0.1-0.3c0.2-0.6,0.3-0.7,0.8-1.4
		c0.4-0.6,1.1-1.4,2.1-3c0.7-1,1.6-2.7,2.9-5.1c6-10.8,20.1-36.2,40.3-50.5c4.7-3.3,10.4-6.5,14.6-8.8c6.5-3.6,15.5-8.2,20.1-10
		C1733.9,384.3,1740.9,383.1,1747.8,383.1 M1747.9,381.1c-7.5,0-14.6,1.2-19.9,3.3c-4.6,1.8-13.4,6.2-20.4,10.1
		c-4.2,2.3-9.9,5.5-14.7,8.9c-24.7,17.4-40.1,50.5-43.8,56c-2.4,3.5-2.5,3.3-3.1,4.7c-0.4,0.9-0.7,1.8-1.6,2.4
		c-0.6,0.3-1.2,0.5-1.8,0.5c-0.6,0-1-0.1-1.2-0.4c-15-9.8-31.5-14.5-46.6-14.5s-27.3,4.3-36.5,12.4c-19.4,17.3-16.9,48.2-9.8,66.7
		c13.3,34.5,50,45.3,45.7,57.4c-4.4,12.3-42.5-0.4-56.2,18.7c-13.8,19.3,2.5,64.3,31.4,78c8.8,4.2,17.2,4.7,22.2,5
		c1.3,0.1,2.6,0.1,3.9,0.1c22.4,0,39.2-10.5,46-15.4c2.2-12.4,3.9-18.6,5.2-18.6c0,0,0,0,0,0c1.5,0.1,2.4,8.8,2.7,26.1
		c5.4,35,37.2,61.3,74.1,61.4c0.1,0,0.2,0,0.3,0c37.1,0,69-26.3,74.5-61.4c2.6-2.5,5.2-5,7.8-7.5c13.5,12.8,31.4,19.4,49.1,19.4
		c13.2,0,26.3-3.6,37.5-11c28.8-18.9,36-56.5,23.5-77.3c-16.4-27.5-67.4-26.7-66.6-34.3c0.6-6.2,31-0.8,51.6-18.1
		c29-24.3,24.7-84.3,4.1-106.8c-0.8-0.8-4.8-4.1-10.2-9.4c-7.7-7.6-8-9.3-11.6-12.1c-8.3-6.5-18.4-6.6-24.4-6.7c-1,0-2,0-3.1,0
		c-6.7,0-15.2,0.6-21.9,6.3c-5.9,5-5.9,9.9-11.7,20.3c-3.9,7.1-9.2,14.3-16.3,21.4c-0.5,0.1-1.1,0.1-1.7,0.1c-1.3,0-2.7-0.3-3.8-1.2
		c-2.3-1.9-2.3-5.4-2.3-6.5c-0.1-4.4-1.8-48.8-16.7-65.8C1773.7,384.6,1760.3,381.1,1747.9,381.1L1747.9,381.1L1747.9,381.1z
		 M1641.7,465c-0.2,0-0.8,0.9-0.5,1.5c0,0,0,0.1,0.1,0.1c0.1,0,0.2,0.1,0.2,0.1C1641.7,465.9,1641.9,465.1,1641.7,465L1641.7,465
		L1641.7,465L1641.7,465z"/>
</g>
<g id="e">
	<path class="st5" d="M1592.3,1064.8c-48.4-0.2-99.9-13.6-145.3-25.3c-37.6-9.8-70.2-18.2-95.4-18.2c-14.7,0-25.7,2.9-33.7,8.9
		l-0.7,0.5c-3.4,2.6-12.6,9.5-21.2,9.5c-1.6,0-3.2-0.2-4.6-0.8c-11.8-4.2-14.8-25.7-15.4-32.1c-1.3-12.9,7.9-31.2,25.7-51.5
		c27.5-31.2,71.5-62.6,120.7-86.1c58.9-28.2,122.2-44,183-45.7c3.9-0.1,7.9-0.2,11.9-0.2c138.9,0,241.6,67,280.4,106.5
		c12.8,13,20.3,24.6,20.2,31c0,0.3,0,1-0.1,2c-0.2,4.6-0.6,15.4-0.7,30.2c-0.1,10-0.1,22.5,0,28.5c-5.6-2-16.5-5.8-16.7-5.8
		c-2-0.7-4.6-1-8.2-1c-16.9,0-51.5,7.7-95.3,17.4c-64.9,14.4-145.8,32.3-203.4,32.3H1592.3L1592.3,1064.8z"/>
	<path class="st5" d="M1617.2,826.3c31.4,0,63,3.5,93.9,10.5c27.3,6.2,54.2,15,79.8,26.4c59.6,26.4,93.2,56.9,104.9,68.9
		c14.5,14.8,19.5,25,19.4,29.2c0,0.3,0,1-0.1,2c-0.2,4.6-0.6,15.5-0.7,30.2c-0.1,8.4-0.1,18.4,0,25c-5.8-2-13.2-4.6-13.3-4.7
		c-2.2-0.8-5.2-1.2-9-1.2c-17.2,0-51.9,7.7-95.8,17.5c-64.8,14.4-145.5,32.3-202.8,32.3c-0.4,0-0.8,0-1.2,0
		c-48.1-0.2-99.4-13.5-144.7-25.2c-37.8-9.8-70.4-18.3-96.1-18.3c-15.2,0-26.7,3.1-35.2,9.3c-0.2,0.1-0.4,0.3-0.7,0.5
		c-2.9,2.2-11.9,9-19.7,9c-1.3,0-2.6-0.2-3.7-0.6c-7-2.5-12.1-13.7-13.7-30c-1.2-12.1,8-30.1,25.1-49.6
		c27.3-30.9,70.9-62.1,119.8-85.5c58.6-28.1,121.5-43.8,182-45.5C1609.3,826.4,1613.3,826.3,1617.2,826.3 M1617.2,821.3
		c-4,0-7.9,0-12,0.2c-182.2,5.1-337,133.1-331.8,186.1c0.4,4.1,2.9,29.2,17,34.2c1.8,0.6,3.6,0.9,5.4,0.9c10.2,0,20.6-8.4,23.4-10.5
		c8-6,19-8.4,32.2-8.4c56,0,152.7,43.1,240.7,43.5c0.4,0,0.8,0,1.2,0c96.1,0,256.8-49.7,298.7-49.7c3.1,0,5.6,0.3,7.3,0.9
		c0.1,0,20,7,20,7s-0.1-18.2,0-32c0.2-18.2,0.8-30.6,0.8-32.1C1920.9,932.6,1795.5,821.3,1617.2,821.3L1617.2,821.3L1617.2,821.3z"
		/>
</g>
<g id="f">
	<path class="st5" d="M368.7,1072.2c-23.2,0-45.6-2.3-66.6-6.9c-11.8-2.6-27.9-6.9-46.5-11.9c-51.6-13.8-122.3-32.8-170.8-32.8
		c-21.3,0-36.3,3.5-45.8,10.8l-0.6,0.5c-3,2.3-12,9.4-20.2,9.4c-1.5,0-2.9-0.2-4.3-0.7c-11.2-4.1-14-25.4-14.6-31.8
		c-1.3-13.5,8.4-32.7,27.2-54c27-30.6,69.2-61.2,115.6-83.9c55.6-27.2,115.3-42.6,172.5-44.3c3.8-0.1,7.8-0.2,11.7-0.2
		c51.4,0,108,10.6,159.4,29.8c47.2,17.7,87,41.6,109,65.6c13.1,14.2,19.5,28.1,18.5,40.1c-1.9,22.8-31.7,50.7-77.8,72.7
		C485.5,1058.6,424.8,1072.3,368.7,1072.2L368.7,1072.2z"/>
	<path class="st5" d="M326.2,824l0,5c51.1,0,107.4,10.5,158.5,29.7c46.9,17.6,86.3,41.2,108.1,64.9c12.6,13.7,18.8,26.9,17.8,38.2
		c-1.8,22-31.1,49.1-76.3,70.7c-49.5,23.7-109.9,37.2-165.6,37.2c-23.1,0-45.3-2.3-66-6.8c-11.8-2.6-27.8-6.9-46.4-11.9
		c-51.8-13.9-122.7-32.9-171.5-32.9c-21.9,0-37.3,3.7-47.3,11.4c-0.2,0.1-0.4,0.3-0.7,0.5c-2.8,2.2-11.3,8.9-18.7,8.9
		c-1.2,0-2.4-0.2-3.4-0.6c-7.8-2.8-11.8-17.2-13-29.7c-1.2-12.6,8.5-31.6,26.6-52.1c26.8-30.3,68.7-60.7,114.8-83.3
		c55.3-27.1,114.6-42.3,171.4-44.1c3.8-0.1,7.7-0.2,11.5-0.2L326.2,824 M326.2,824c-3.9,0-7.8,0.1-11.7,0.2
		c-174.3,5.4-322.6,132.5-317.7,185c0.4,4,2.7,28.9,16.2,33.9c1.7,0.6,3.4,0.9,5.1,0.9c9.8,0,19.8-8.4,22.4-10.4
		c9.6-7.4,25.2-10.3,44.2-10.3c65.5,0,171.9,34.9,216.8,44.6c21.9,4.8,44.5,6.9,67.1,6.9c122.2,0,242.8-63.1,246.9-112.5
		C620.4,904.7,470.8,824,326.2,824L326.2,824L326.2,824z"/>
</g>
<g id="g">
	<path class="st6" d="M-2.1,1088.8c-6.4,0-11.6-5.5-11.6-12.3v-55.7c0-6.8,5.2-12.3,11.6-12.3h1912c6.4,0,11.6,5.5,11.6,12.3v55.7
		c-0.2,4.7-0.4,10.1-0.5,11.8c-2.1,0.1-10.8,0.5-11.1,0.5h0H-2.1z"/>
	<path class="st7" d="M1909.9,1009.1c6.1,0,11.1,5.3,11.1,11.8v55.6c-0.3,7-0.4,10-0.5,11.3c-1.2,0.1-4.1,0.2-10.6,0.5H-2.1
		c-6.1,0-11.1-5.3-11.1-11.8v-55.7c0-6.5,5-11.8,11.1-11.8L1909.9,1009.1 M1909.9,1008H-2.1c-6.7,0-12.1,5.8-12.1,12.8v55.7
		c0,7.1,5.4,12.8,12.1,12.8h1912c7.1-0.3,11.6-0.5,11.6-0.5s0.2-4.8,0.5-12.3v-55.7C1922,1013.8,1916.6,1008,1909.9,1008
		L1909.9,1008z"/>
</g>
<g id="h">
	<path class="st8" d="M881,465c-5,0-9-4-9-9v-38c0-5,4-9,9-9s9,4,9,9v38C890,461,886,465,881,465z"/>
	<path class="st9" d="M881,411c3.9,0,7,3.1,7,7v38c0,3.9-3.1,7-7,7s-7-3.1-7-7v-38C874,414.1,877.1,411,881,411 M881,407
		c-6,0-11,5-11,11v38c0,6,5,11,11,11s11-5,11-11v-38C892,412,887,407,881,407L881,407z"/>
	<path class="st8" d="M1037,465c-5,0-9-4-9-9v-38c0-5,4-9,9-9s9,4,9,9v38C1046,461,1042,465,1037,465z"/>
	<path class="st9" d="M1037,411c3.9,0,7,3.1,7,7v38c0,3.9-3.1,7-7,7s-7-3.1-7-7v-38C1030,414.1,1033.1,411,1037,411 M1037,407
		c-6.1,0-11,5-11,11v38c0,6,4.9,11,11,11s11-5,11-11v-38C1048,412,1043.1,407,1037,407L1037,407z"/>
	<path class="st10" d="M732,326h431c5.5,0,10,4.5,10,10v74c0,5.5-4.5,10-10,10H732c-5.5,0-10-4.5-10-10v-74
		C722,330.5,726.5,326,732,326z"/>
	<path class="st11" d="M1163,328c4.4,0,8,3.6,8,8v74c0,4.4-3.6,8-8,8H732c-4.4,0-8-3.6-8-8v-74c0-4.4,3.6-8,8-8H1163 M1163,324H732
		c-6.6,0-12,5.4-12,12v74c0,6.6,5.4,12,12,12h431c6.6,0,12-5.4,12-12v-74C1175,329.4,1169.6,324,1163,324L1163,324z"/>
	<text transform="matrix(1 0 0 1 802.1368 399.6721)" class="st12 st13 st14">PIZZERIA</text>
</g>
<g id="i">
	<g id="j">
		<path class="st15" d="M570.6,577.8h729.8c5.8,0,10.5,4.7,10.5,10.5v368.6c0,5.8-4.7,10.5-10.5,10.5H570.6
			c-5.8,0-10.5-4.7-10.5-10.5V588.3C560.1,582.5,564.8,577.8,570.6,577.8z"/>
		<path class="st16" d="M1300.3,579.3c5,0,9,4,9,9v368.6c0,5-4,9-9,9H570.6c-5,0-9-4-9-9V588.3c0-5,4-9,9-9L1300.3,579.3
			 M1300.3,576.3H570.6c-6.6,0-12,5.4-12,12v368.6c0,6.6,5.4,12,12,12h729.8c6.6,0,12-5.4,12-12V588.3
			C1312.3,581.7,1306.9,576.3,1300.3,576.3L1300.3,576.3z"/>
	</g>
	<g id="k">
		<path class="st17" d="M1346.5,668c-173.3,0-296.1-0.7-414.8-1.3c-112.5-0.6-218.8-1.2-360.8-1.2h-13l-0.2,0c-3,0.7-6,1-8.9,1
			c-12,0-22.3-5.4-25.8-13.5c-3.1-7.2,0.3-14.6,1.9-17.4l0.1-0.2l0-0.2c6.5-24.5,16.7-47.8,30.3-69.2c3.7-5.7,7.6-11.4,11.7-16.8
			l0.3-0.4c10.2-0.2,27.4-0.4,55.6-0.4c61.4,0,156.2,0.7,256.5,1.4c113.6,0.8,231.1,1.7,317.2,1.7c78.8,0,118.2-0.7,123.9-2.2
			c0.1,0,0.2,0,0.3-0.1c0.7-0.2,2.7-0.8,4.9-0.8c1.9,0,3.5,0.4,4.8,1.2c0.8,0.5,1.6,1.2,2.3,2c1.8,11.3,4.5,21.6,8,30.4
			c0.9,2.3,2.9,9.2,6.9,22.9c0.2,0.7,0.8,2.8,0.9,5.6c0,0.6,0,1.3,0,1.9l0,0.6l0.4,0.4c0.4,0.4,0.6,0.9,0.7,1.4c0,0.2,0,0.3,0,0.8
			c0,0.2,0,0.5,0,0.8c-0.1,3-0.1,4.1,0.1,4.6l0,0c0.3,0.8,0.6,1.8,1,3c0.7,2.3,1.4,4.5,2,6.9c0.8,3.1,1,4.4,1.2,5.5
			c0.2,1,0.3,1.8,0.8,3.6c0.8,2.8,1.9,5.6,3.1,8.2c0.7,1.5,2.7,5.5,6.1,11.1c0.3,0.5,0.6,1,0.9,1.5c1.7,2.7,2.2,3.5,1.9,4.4
			c-0.3,1.1-1.6,2.1-3.8,2.9L1346.5,668L1346.5,668z"/>
		<path class="st18" d="M1325.9,549.9c1.6,0,3,0.3,4.1,1c0.6,0.3,1.1,0.8,1.6,1.4c1.8,11.3,4.5,21.5,8.1,30.3
			c0.9,2.3,3,9.5,6.9,22.7c0.2,0.7,0.8,2.6,0.9,5.3c0,0.6,0,1.2,0,1.8l-0.1,1.1l0.7,0.9c0.2,0.2,0.3,0.5,0.4,0.7c0,0.1,0,0.3,0,0.5
			c0,0.2,0,0.5,0,0.8c-0.2,3.5,0,4.8,0.3,5.5c0.3,0.8,0.6,1.7,0.9,2.6c0.7,2.2,1.3,4.5,1.9,6.8c0.8,3,1,4.3,1.2,5.3
			c0.2,1,0.3,1.9,0.9,3.8c0.8,2.9,1.9,5.8,3.2,8.4c0.7,1.5,2.7,5.6,6.2,11.3c0.3,0.5,0.6,1,0.9,1.5c0.8,1.4,1.7,2.8,1.8,3.2
			c-0.1,0.3-0.8,1.1-2.6,1.8h-8h-8.5c-173.3,0-296.1-0.7-414.7-1.3C819.2,664.6,713,664,570.9,664h-6.4h-6.4h-0.3l-0.3,0.1
			c-2.8,0.6-5.7,0.9-8.6,0.9c-11.4,0-21.2-5-24.4-12.6c-2.8-6.6,0.3-13.4,1.8-16.1l0.2-0.3l0.1-0.4c6.5-24.4,16.6-47.5,30.1-68.8
			c3.6-5.6,7.5-11.2,11.5-16.6c10.2-0.2,27.2-0.3,54.9-0.3c61.4,0,156.2,0.7,256.5,1.4c113.6,0.8,231.1,1.7,317.2,1.7
			c103.7,0,120.6-1.3,124.3-2.3c0.1,0,0.2,0,0.3-0.1C1322.1,550.5,1323.9,549.9,1325.9,549.9 M1325.9,546.9c-2.8,0-5.2,0.8-5.6,1
			c-6.1,1.6-54.1,2.2-123.5,2.2c-163,0-443.6-3.1-573.7-3.1c-43.5,0-70.2,0.3-70.1,1.3c0,0,0,0,0.1,0.1c0,0,1,0.8,4.7,0.8
			c1.9,0,4.5-0.2,8-0.8c-4,5.3-8,10.9-11.8,17c-15.8,24.8-25,48.9-30.5,69.6c-1.2,2.1-5.5,10.4-2,18.7c3.6,8.5,14.4,14.4,27.2,14.4
			c3,0,6.1-0.3,9.2-1c0.6,0,3.5,0,6.4,0s5.8,0,6.4,0c293.5,0,439.8,2.5,775.6,2.5c1.1,0,4.8,0,8.5,0s7.4,0,8.5,0
			c1.7-0.6,4.4-1.8,5-4c0.4-1.7-0.6-3-3-7c-3.3-5.5-5.3-9.4-6-11c-0.8-1.8-2-4.5-3-8c-1.1-3.5-0.4-2.9-2-9c-0.7-2.9-1.4-5.2-2-7
			c-0.4-1.2-0.7-2.2-1-3c0,0-0.1-1.9,0-4c0.1-1.2,0.1-1.4,0-2c-0.2-0.9-0.7-1.6-1-2c0-0.4,0-1.1,0-2c-0.1-3-0.8-5.2-1-6
			c-4-13.7-6-20.6-7-23c-2.6-6.6-5.8-16.4-8-30.5c-0.7-1-1.7-2-3-2.7C1329.7,547.3,1327.7,547,1325.9,546.9L1325.9,546.9
			L1325.9,546.9z M1351.5,620.5C1351.5,620.5,1351.5,620.5,1351.5,620.5L1351.5,620.5L1351.5,620.5z"/>
	</g>
	<g id="l">
		<path class="st8" d="M540.1,550.8c-5.8,0-10.5-4.7-10.5-10.5s4.7-10.6,10.5-10.6h801.6c5.8,0,10.5,4.7,10.5,10.5
			s-4.7,10.6-10.5,10.6H540.1L540.1,550.8z"/>
		<path class="st9" d="M1341.7,531.2c5,0,9,4,9,9v0.1c0,5-4,9-9,9H540.1c-5,0-9-4-9-9v-0.1c0-5,4-9,9-9H1341.7 M1341.7,528.2H540.1
			c-6.6,0-12,5.4-12,12v0.1c0,6.6,5.4,12,12,12h801.6c6.6,0,12-5.4,12-12v-0.1C1353.7,533.6,1348.3,528.2,1341.7,528.2L1341.7,528.2
			z"/>
	</g>
	<g id="m">
		<path class="st15" d="M552.9,477.9h775c5.8,0,10.5,4.7,10.5,10.5v27.8c0,5.8-4.7,10.5-10.5,10.5h-775c-5.8,0-10.5-4.7-10.5-10.5
			v-27.8C542.4,482.6,547.1,477.9,552.9,477.9z"/>
		<path class="st16" d="M1327.9,479.4c5,0,9,4,9,9v27.8c0,5-4,9-9,9h-775c-5,0-9-4-9-9v-27.8c0-5,4-9,9-9L1327.9,479.4
			 M1327.9,476.4h-775c-6.6,0-12,5.4-12,12v27.8c0,6.6,5.4,12,12,12h775c6.6,0,12-5.4,12-12v-27.8
			C1339.9,481.8,1334.5,476.4,1327.9,476.4L1327.9,476.4z"/>
	</g>
	<g id="n">
		<path class="st8" d="M537.8,474.9c-5.1,0-9.2-4.1-9.2-9.2s4.1-9.2,9.2-9.2H1342c5.1,0,9.2,4.1,9.2,9.2s-4.1,9.2-9.2,9.2H537.8z"/>
		<path class="st9" d="M1342,458c4.2,0,7.7,3.5,7.7,7.7s-3.5,7.7-7.7,7.7H537.8c-4.2,0-7.7-3.5-7.7-7.7s3.5-7.7,7.7-7.7H1342
			 M1342,455H537.8c-5.9,0-10.7,4.8-10.7,10.7s4.8,10.7,10.7,10.7H1342c5.9,0,10.7-4.8,10.7-10.7S1347.9,455,1342,455L1342,455z"/>
	</g>
	<g id="o">
		<path class="st10" d="M649.3,724.2H771c5.8,0,10.5,4.7,10.5,10.5v154.5c0,5.8-4.7,10.5-10.5,10.5H649.3c-5.8,0-10.5-4.7-10.5-10.5
			V734.7C638.8,728.9,643.5,724.2,649.3,724.2z"/>
		<path class="st11" d="M771,725.7c5,0,9,4,9,9v154.5c0,5-4,9-9,9H649.3c-5,0-9-4-9-9V734.7c0-5,4-9,9-9H771 M771,722.7H649.3
			c-6.6,0-12,5.4-12,12v154.5c0,6.6,5.4,12,12,12H771c6.6,0,12-5.4,12-12V734.7C783,728.1,777.5,722.7,771,722.7L771,722.7z"/>
	</g>
	<g id="p">
		<path class="st10" d="M866.8,709.5H1029c5.8,0,10.5,4.7,10.5,10.5v241.4c0,5.8-4.7,10.5-10.5,10.5H866.8
			c-5.8,0-10.5-4.7-10.5-10.5V720C856.3,714.2,861,709.5,866.8,709.5z"/>
		<path class="st11" d="M1029,711c5,0,9,4,9,9v241.4c0,5-4,9-9,9H866.8c-5,0-9-4-9-9V720c0-5,4-9,9-9H1029 M1029,708H866.8
			c-6.6,0-12,5.4-12,12v241.4c0,6.6,5.4,12,12,12H1029c6.6,0,12-5.4,12-12V720C1041,713.4,1035.6,708,1029,708L1029,708z"/>
	</g>
	<g id="q">
		<path class="st17" d="M877.6,729.5H1014c5.8,0,10.5,4.7,10.5,10.5v221.4c0,5.8-4.7,10.5-10.5,10.5H877.6
			c-5.8,0-10.5-4.7-10.5-10.5V740C867.1,734.2,871.8,729.5,877.6,729.5z"/>
		<path class="st18" d="M1014,731c5,0,9,4,9,9v221.4c0,5-4,9-9,9H877.6c-5,0-9-4-9-9V740c0-5,4-9,9-9H1014 M1014,728H877.6
			c-6.6,0-12,5.4-12,12v221.4c0,6.6,5.4,12,12,12H1014c6.6,0,12-5.4,12-12V740C1026,733.4,1020.6,728,1014,728L1014,728z"/>
	</g>
	<g id="r">
		<path class="st19" d="M423,969.5h1022c5.8,0,10.5,4.7,10.5,10.5v26c0,5.8-4.7,10.5-10.5,10.5H423c-5.8,0-10.5-4.7-10.5-10.5v-26
			C412.5,974.2,417.2,969.5,423,969.5z"/>
		<path class="st20" d="M1445,971c5,0,9,4,9,9v26c0,5-4,9-9,9H423c-5,0-9-4-9-9v-26c0-5,4-9,9-9H1445 M1445,968H423
			c-6.6,0-12,5.4-12,12v26c0,6.6,5.4,12,12,12h1022c6.6,0,12-5.4,12-12v-26C1457,973.4,1451.6,968,1445,968L1445,968z"/>
	</g>
	<g id="s">
		<path class="st10" d="M1091.1,724.2h121.6c5.8,0,10.5,4.7,10.5,10.5v154.5c0,5.8-4.7,10.5-10.5,10.5h-121.6
			c-5.8,0-10.5-4.7-10.5-10.5V734.7C1080.6,728.9,1085.3,724.2,1091.1,724.2z"/>
		<path class="st11" d="M1212.8,725.7c5,0,9,4,9,9v154.5c0,5-4,9-9,9h-121.6c-5,0-9-4-9-9V734.7c0-5,4-9,9-9H1212.8 M1212.8,722.7
			h-121.6c-6.6,0-12,5.4-12,12v154.5c0,6.6,5.4,12,12,12h121.6c6.6,0,12-5.4,12-12V734.7C1224.8,728.1,1219.4,722.7,1212.8,722.7
			L1212.8,722.7z"/>
	</g>
	<g id="t">
		<path class="st21" d="M1103.9,734.9h94.1c5.8,0,10.5,4.7,10.5,10.5v141.1c0,5.8-4.7,10.5-10.5,10.5h-94.1
			c-5.8,0-10.5-4.7-10.5-10.5V745.4C1093.4,739.6,1098.1,734.9,1103.9,734.9z"/>
		<path class="st11" d="M1198,736.4c5,0,9,4,9,9v141.1c0,5-4,9-9,9h-94.1c-5,0-9-4-9-9V745.4c0-5,4-9,9-9H1198 M1198,733.4h-94.1
			c-6.6,0-12,5.4-12,12v141.1c0,6.6,5.4,12,12,12h94.1c6.6,0,12-5.4,12-12V745.4C1210,738.8,1204.6,733.4,1198,733.4L1198,733.4z"/>
	</g>
	<g id="u">
		<path class="st17" d="M1079,907.7c-5.1,0-9.2-4.1-9.2-9.2s4.1-9.2,9.2-9.2h145.9c5.1,0,9.2,4.1,9.2,9.2s-4.1,9.2-9.2,9.2H1079z"/>
		<path class="st18" d="M1224.9,890.7c4.2,0,7.7,3.5,7.7,7.7s-3.5,7.7-7.7,7.7H1079c-4.2,0-7.7-3.5-7.7-7.7s3.5-7.7,7.7-7.7H1224.9
			 M1224.9,887.7H1079c-5.9,0-10.7,4.8-10.7,10.7l0,0c0,5.9,4.8,10.7,10.7,10.7h145.9c5.9,0,10.7-4.8,10.7-10.7l0,0
			C1235.6,892.5,1230.8,887.7,1224.9,887.7L1224.9,887.7z"/>
	</g>
	<g id="v">
		<path class="st21" d="M661.1,734.9h98c5.8,0,10.5,4.7,10.5,10.5v143.7c0,5.8-4.7,10.5-10.5,10.5h-98c-5.8,0-10.5-4.7-10.5-10.5
			V745.4C650.6,739.6,655.3,734.9,661.1,734.9z"/>
		<path class="st11" d="M759.2,736.4c5,0,9,4,9,9v143.7c0,5-4,9-9,9h-98c-5,0-9-4-9-9V745.4c0-5,4-9,9-9H759.2 M759.2,733.4h-98
			c-6.6,0-12,5.4-12,12v143.7c0,6.6,5.4,12,12,12h98c6.6,0,12-5.4,12-12V745.4C771.2,738.8,765.8,733.4,759.2,733.4L759.2,733.4z"/>
	</g>
	<g id="w">
		<path class="st17" d="M637.2,907.7c-5.1,0-9.2-4.1-9.2-9.2s4.1-9.2,9.2-9.2h145.9c5.1,0,9.2,4.1,9.2,9.2s-4.1,9.2-9.2,9.2H637.2z"
			/>
		<path class="st18" d="M783.1,890.7c4.2,0,7.7,3.5,7.7,7.7s-3.5,7.7-7.7,7.7H637.2c-4.2,0-7.7-3.5-7.7-7.7s3.5-7.7,7.7-7.7H783.1
			 M783.1,887.7H637.2c-5.9,0-10.7,4.8-10.7,10.7l0,0c0,5.9,4.8,10.7,10.7,10.7h145.9c5.9,0,10.7-4.8,10.7-10.7l0,0
			C793.8,892.5,789,887.7,783.1,887.7L783.1,887.7z"/>
	</g>
</g>
<ellipse class="st22" cx="324.5" cy="114" rx="74" ry="60.5"/>
<path class="st23" d="M261.4,238.5H112.3l-3.5-1.7l3.5,1.7c-36.4-5.2-61.1-24.8-61.8-44c-0.4-10.1,6-18.6,7.7-20.9
	c16.2-21.4,47.2-18.6,49.2-18.4c0-0.1,0.1-0.3,0.1-0.4c0.1-0.5,0.3-1,0.5-1.6c0,0,0.3-1,0.8-1.9c0.3-0.6,17.7-27.2,49.8-28.2
	c20.3-0.7,22.1,9.7,40.4,7.8c16.6-1.7,18-10.5,36.4-16.7c23.1-7.8,57.6-6.3,69.4,10c7.7,10.6,2.5,23.2,14.4,33.9
	c2.5,2.3,12.2,10.2,12.2,10.2l0,0c25.1,5,29.4,8.7,29.4,8.7c7.6,6.4,10.9,17.9,8.4,27.4c-1.9,7.6-7,12.2-11.2,16.1
	c-4.3,3.9-11.1,8.9-23.1,12.7C307.1,242,269.1,239.1,261.4,238.5L261.4,238.5z"/>
<path class="st24" d="M432.4,238.5H283.3l-3.5-1.7l3.5,1.7c-36.4-5.2-61.1-24.8-61.8-44c-0.4-10.1,6-18.6,7.7-20.9
	c16.2-21.4,47.2-18.6,49.2-18.4c0-0.1,0.1-0.3,0.1-0.4c0.1-0.5,0.3-1,0.5-1.6c0,0,0.4-1,0.8-1.9c0.3-0.6,17.7-27.2,49.8-28.2
	c20.3-0.7,22.1,9.7,40.4,7.8c16.6-1.7,18-10.5,36.4-16.7c23.1-7.8,57.6-6.3,69.4,10c7.7,10.6,2.5,23.2,14.4,33.9
	c2.5,2.3,12.2,10.2,12.2,10.2l0,0c25.1,5,29.4,8.7,29.4,8.7c7.6,6.4,10.8,17.9,8.4,27.4c-1.9,7.6-7,12.2-11.2,16.1
	c-4.3,3.9-11.2,8.9-23.1,12.7C478.1,242,440.1,239.1,432.4,238.5L432.4,238.5z"/>
<g id="x">
	<path class="st25" d="M782.9,434.4c-68.5-1-137-2.1-205.5-3.1c8.5-4.5,14.7-9,18.4-11.9c9.3-7.4,17.1-15.8,43.3-52.8
		c5.1-7.2,7.7-10.9,10.1-14.4c12.5-18.3,34.9-48.1,78.1-98.9c-0.4,1.2-0.6,2.3-0.8,3c-0.7,3.1-1.1,5.5-1.3,7.2c0,0-0.2,1.4-0.3,2.7
		c-6.8,61.1,12.8,106.4,12.8,106.4C749.6,400.2,767.1,420.4,782.9,434.4L782.9,434.4z"/>
	<path class="st26" d="M773.6,448c-62.9-1-125.9-1.9-188.8-2.9c-1-0.6-2.4-1.5-3.7-3.1c-2-2.4-2.7-4.9-2.9-6.2l0,0
		c0.1-5,4.2-9.1,9.2-9c2.3-0.5,5.7-1,9.9-0.6c2.4,0.2,3.9,0.6,5.3,0.8c5,0.9,15.2-0.5,15.2-0.5c4.3-0.7,10.8-1.2,19.7,0.3
		c0.6,0.5,1.6,1.1,3,1.6c2.7,0.9,4.7,0.2,10.6-0.6c3.3-0.5,4.9-0.7,6.1-0.7c3.1,0.1,2.8,0.7,8.3,1.6c3.3,0.6,7.1,0.8,8.3,0.9
		c0.3,0,1.4,0.1,1.4,0.1s-1.4,0-1.4-0.1c0-0.1,6.2-1.1,11.4,0.2c0.7,0.2,2.3,0.6,4.3,0.2c1.2-0.2,2-0.6,2.5-0.9
		c3.6-1.5,6.5,1.8,11.3,1.7c4.1-0.1,4.1-2.6,8.4-2.9c4.2-0.3,5.3,2.1,9.8,3.2c6.7,1.7,8-2.8,17.5-2.8c7.3,0,15.1,2.5,15.1,2.5
		s5.4-2.3,10.7-2.1c5.9,0.1,9.1,3.2,13.6,3.3c0.3,0,1.1,0,1.9,0.4c1.7,1,2.1,3.3,2.4,4.4c0.2,0.7,0.2,1.4,0.2,2.1l0,0
		C782.8,444,778.7,448.1,773.6,448L773.6,448z"/>
	<path class="st27" d="M580.2,431.3l200,3c6.5,0.1,11.8,5.5,11.7,12l0,0c-0.1,6.5-5.5,11.8-12,11.7l-200-3
		c-6.5-0.1-11.8-5.5-11.7-12l0,0C568.3,436.4,573.7,431.2,580.2,431.3z"/>
</g>
<ellipse transform="matrix(1.518383e-02 -0.9999 0.9999 1.518383e-02 249.8045 1037.439)" class="st28" cx="651.6" cy="391.9" rx="13" ry="14.4"/>
<ellipse transform="matrix(1.518383e-02 -0.9999 0.9999 1.518383e-02 313.7715 1104.4104)" class="st28" cx="717.5" cy="392.9" rx="13" ry="14.4"/>
<path class="st29" d="M696.8,410.3c1,2.4-6.7,10.8-15.3,10.4c-8.1-0.5-14.6-8.5-13.5-10.8c0.7-1.4,4-0.1,14.4,0.1
	C692.9,410.2,696.2,408.9,696.8,410.3L696.8,410.3z"/>
<ellipse transform="matrix(1.518383e-02 -0.9999 0.9999 1.518383e-02 295.7415 1121.6447)" class="st30" cx="717.3" cy="410.7" rx="5" ry="5.9"/>
<ellipse transform="matrix(1.518383e-02 -0.9999 0.9999 1.518383e-02 228.9453 1051.759)" class="st30" cx="648.4" cy="409.7" rx="5" ry="5.9"/>
<ellipse transform="matrix(1.518383e-02 -0.9999 0.9999 1.518383e-02 256.2878 1044.7748)" class="st31" cx="658.5" cy="392.3" rx="3.5" ry="4.4"/>
<ellipse transform="matrix(1.518383e-02 -0.9999 0.9999 1.518383e-02 308.6513 1098.0125)" class="st31" cx="711.7" cy="392.3" rx="3.5" ry="4.4"/>
<path class="st31" d="M724.7,390.5c-1.6,0-2.8-1.2-2.8-2.6s1.3-2.5,2.9-2.5s2.8,1.2,2.8,2.6S726.3,390.5,724.7,390.5"/>
<path class="st31" d="M643.7,390.5c-1.6-0.2-2.7-1.4-2.6-2.8s1.5-2.4,3.1-2.2s2.7,1.4,2.6,2.8S645.3,390.6,643.7,390.5"/>
<path d="M655.7,457.9c-6.3,15.8-8.2,33.2-5.7,50c0.2,1,1.6,0.5,1.5-0.4c-2.5-16.6-0.5-33.7,5.7-49.2
	C657.5,457.4,656,457,655.7,457.9L655.7,457.9z"/>
<path d="M727.2,458.2c2.8,2.2,1.7,7.4,1.4,10.4c-0.4,4.4-0.8,8.8-1.5,13.2c-1.2,8.6-3,17-5.2,25.4c-0.2,0.9,1.2,1.3,1.5,0.4
	c2.4-9,4.3-18.2,5.5-27.5c0.6-4.6,1.1-9.2,1.4-13.9c0.2-3.2,0.5-7.1-2.3-9.3C727.2,456.3,726.5,457.6,727.2,458.2L727.2,458.2
	L727.2,458.2z"/>
<path d="M625.9,382.5c-7.1-1.3-14.1-5.5-18-11.6c-6.2-9.7-4.4-22.8,2.7-31.5c2.5-3.1,5.6-5.7,9.1-7.5c0.8-0.5,0.1-1.8-0.8-1.3
	c-7.8,4.2-13.5,11.7-15.5,20.3c-1.5,6.2-1,12.9,2,18.6c2.4,4.7,6.3,8.5,10.9,11c2.9,1.6,6,2.9,9.3,3.4
	C626.4,384.1,626.8,382.6,625.9,382.5L625.9,382.5L625.9,382.5z"/>
<path d="M764.8,437.6c7.5-5.7,12.3-14.8,12-24.3s-5.8-18-14.2-22.4c-5-2.6-10.7-3.7-16.3-3.2c-1,0.1-1,1.6,0,1.5
	c9.2-0.8,18.8,2.9,24.4,10.5c5.1,7.1,5.9,16.4,2.7,24.5c-1.9,4.8-5.2,9-9.3,12.1C763.3,436.9,764.1,438.2,764.8,437.6L764.8,437.6
	L764.8,437.6z"/>
<path class="st10" d="M913,763.5h65c5.8,0,10.5,4.7,10.5,10.5v7c0,5.8-4.7,10.5-10.5,10.5h-65c-5.8,0-10.5-4.7-10.5-10.5v-7
	C902.5,768.2,907.2,763.5,913,763.5z"/>
<path class="st11" d="M978,765c5,0,9,4,9,9v7c0,5-4,9-9,9h-65c-5,0-9-4-9-9v-7c0-5,4-9,9-9H978 M978,762h-65c-6.6,0-12,5.4-12,12v7
	c0,6.6,5.4,12,12,12h65c6.6,0,12-5.4,12-12v-7C990,767.4,984.6,762,978,762L978,762z"/>
<circle class="st10" cx="891.5" cy="858.5" r="6"/>
<path class="st11" d="M891.5,854c2.5,0,4.5,2,4.5,4.5s-2,4.5-4.5,4.5s-4.5-2-4.5-4.5S889,854,891.5,854 M891.5,851
	c-4.1,0-7.5,3.4-7.5,7.5s3.4,7.5,7.5,7.5s7.5-3.4,7.5-7.5S895.6,851,891.5,851L891.5,851z"/>
<path d="M929.1,762.5c7.4-10.8,15.2-21.4,23.4-31.6c1.2-1.5-0.9-3.6-2.1-2.1c-8.3,10.5-16.3,21.2-23.8,32.2
	C925.4,762.5,928,764,929.1,762.5L929.1,762.5L929.1,762.5z"/>
<path d="M974.3,761.3c-6.8-10.6-13.6-21.2-20.5-31.8c-1-1.6-3.6-0.1-2.6,1.5c6.9,10.6,13.7,21.2,20.5,31.8
	C972.7,764.4,975.3,762.9,974.3,761.3L974.3,761.3z"/>
<path d="M932.7,782.9c-0.4,0-0.8,0-1.1-0.1s-0.7-0.2-1.1-0.4s-0.6-0.4-0.9-0.6s-0.5-0.5-0.7-0.9s-0.4-0.7-0.5-1.2s-0.2-0.9-0.2-1.5
	c0-0.8,0.1-1.5,0.4-2.1s0.6-1.1,1-1.4s0.9-0.7,1.4-0.8s1.1-0.3,1.7-0.3c0.7,0,1.3,0.1,1.9,0.3c0.5,0.2,1,0.5,1.4,1s0.7,0.9,0.9,1.5
	s0.3,1.2,0.3,1.9c0,0.8-0.1,1.5-0.3,2.1s-0.5,1.1-0.9,1.4s-0.9,0.7-1.4,0.8S933.3,783,932.7,782.9L932.7,782.9z M933,778
	c0-0.2,0-0.4,0-0.6c0-0.2,0-0.3,0-0.4c0-0.1,0-0.2-0.1-0.2s-0.1,0-0.1,0s-0.1,0-0.1,0c0,0,0,0-0.1,0c0,0.1,0,0.2,0,0.2
	c0,0.1,0,0.2,0,0.2c0,0.1,0,0.2,0,0.3c0,0.1,0,0.3,0,0.4v0.4c0,0.2,0,0.3,0,0.4s0,0.2,0,0.3c0,0.1,0,0.2,0,0.2c0,0.1,0,0.2,0,0.2
	c0,0,0,0,0.1,0c0,0,0.1,0,0.1,0s0.1,0,0.1,0s0.1-0.1,0.1-0.2c0-0.1,0-0.2,0-0.4c0-0.2,0-0.3,0-0.6V778L933,778z"/>
<path d="M938.7,775.2c0.2,0,0.4,0,0.5,0s0.3,0.1,0.4,0.1c-0.3,0.2-0.4,0.3-0.5,0.5c0,0,0,0.1,0,0.2c0,0,0,0.1,0,0.1s0.1,0.1,0.2,0.1
	c0.1-0.2,0.3-0.4,0.4-0.5c0.2-0.2,0.3-0.3,0.5-0.4c0.2-0.1,0.4-0.2,0.6-0.2c0.2,0,0.5-0.1,0.8-0.1c0.2,0,0.4,0,0.6,0
	c0.2,0,0.5,0.1,0.7,0.2c0.2,0.1,0.5,0.2,0.7,0.4s0.5,0.4,0.7,0.7c0.2,0.3,0.3,0.6,0.5,1.1s0.2,0.9,0.2,1.5s-0.1,1.1-0.2,1.6
	c-0.2,0.5-0.4,0.9-0.7,1.2s-0.7,0.6-1.1,0.7c-0.4,0.2-1,0.2-1.5,0.2c-0.2,0-0.5,0-0.6,0s-0.3,0-0.4-0.1c-0.1,0-0.2,0-0.3-0.1
	c-0.1,0-0.1,0-0.2-0.1c0,0,0,0.1,0,0.1c0,0.1,0,0.1,0.1,0.2c0,0,0.1,0.1,0.2,0.1s0.3,0.1,0.4,0.1s0.4,0,0.7,0v1.8
	c-0.1,0-0.2,0.1-0.3,0.1s-0.2,0.1-0.4,0.1c-0.1,0-0.3,0-0.4,0.1c-0.1,0-0.3,0-0.4,0c-0.3,0-0.6,0-0.8-0.1c-0.3-0.1-0.5-0.2-0.7-0.3
	c-0.2-0.1-0.3-0.3-0.4-0.5s-0.2-0.4-0.2-0.7v-5.5c-0.1-0.2-0.2-0.4-0.3-0.7s-0.1-0.5-0.1-0.8c0-0.1,0-0.2,0-0.3s0-0.2,0.1-0.4
	s0.1-0.2,0.1-0.4s0.1-0.2,0.2-0.3L938.7,775.2L938.7,775.2z M941.2,780c0,0,0.1,0,0.1,0c0.1,0,0.1,0,0.2-0.1c0,0,0-0.1,0-0.3V779
	c0-0.2,0-0.4,0-0.5s0-0.3,0-0.3s0-0.2-0.1-0.2s-0.1,0-0.1,0c0,0-0.1,0-0.1,0s0,0-0.1,0c0,0.1,0,0.1,0,0.2s0,0.1,0,0.2
	c0,0.1,0,0.2,0,0.3c0,0.1,0,0.2,0,0.4L941.2,780L941.2,780z"/>
<path d="M949.4,782.9c-0.6,0-1.2-0.1-1.7-0.3s-0.9-0.4-1.3-0.8s-0.6-0.8-0.8-1.2s-0.3-1-0.3-1.7c0-0.6,0.1-1.2,0.3-1.7
	s0.5-0.9,0.8-1.2s0.8-0.6,1.2-0.8s1-0.2,1.5-0.2c0.5,0,1,0.1,1.5,0.2s0.8,0.4,1.1,0.7s0.5,0.6,0.7,1s0.2,0.8,0.2,1.2
	c0,0.4-0.1,0.8-0.2,1s-0.3,0.5-0.6,0.7c-0.3,0.2-0.6,0.3-0.9,0.4s-0.7,0.1-1.1,0.1c-0.3,0-0.6,0-0.9-0.1s-0.5-0.2-0.7-0.3
	c0,0,0,0,0,0.1s0,0.1,0,0.1c0,0.1,0,0.1,0.2,0.2c0.1,0.1,0.2,0.1,0.4,0.2c0.2,0,0.3,0.1,0.5,0.1c0.2,0,0.4,0,0.6,0
	c0.3,0,0.5,0,0.8-0.1c0.2,0,0.4-0.1,0.6-0.1c0.2-0.1,0.3-0.1,0.5-0.2s0.2-0.1,0.3-0.2c0.1,0,0.1,0.1,0.2,0.2c0,0.1,0.1,0.2,0.1,0.3
	s0.1,0.2,0.1,0.4c0,0.1,0,0.2,0,0.3s0,0.2,0,0.3c0,0.1,0,0.2,0,0.2c-0.2,0.1-0.3,0.2-0.5,0.3s-0.4,0.2-0.6,0.3
	c-0.2,0.1-0.5,0.2-0.8,0.2C950.2,782.9,949.8,782.9,949.4,782.9L949.4,782.9z M949.3,778.3c0.1,0,0.2,0,0.3-0.1s0.1-0.1,0.1-0.2
	c0-0.1,0-0.2-0.1-0.2s-0.1,0-0.2,0c-0.1,0-0.2,0-0.3,0.1c-0.1,0.1-0.1,0.2-0.1,0.3c0,0,0.1,0,0.2,0.1
	C949.1,778.3,949.2,778.3,949.3,778.3L949.3,778.3z"/>
<path d="M954.5,775.2c0.2,0,0.3,0,0.5,0.1s0.2,0.2,0.3,0.3c-0.2,0.2-0.3,0.3-0.3,0.5c0,0,0,0.1,0,0.2c0,0,0.1,0.1,0.2,0.1
	c0.1-0.2,0.2-0.3,0.4-0.5s0.3-0.3,0.5-0.4s0.4-0.2,0.7-0.3c0.2-0.1,0.5-0.1,0.8-0.1c0.3,0,0.7,0,1,0.1s0.7,0.2,0.9,0.5
	s0.5,0.5,0.7,0.9s0.3,0.8,0.3,1.4c0,0.2,0,0.4,0,0.7s0,0.5,0,0.7c0,0.3,0,0.6,0.1,0.8s0.2,0.4,0.4,0.5c0,0,0,0.1,0,0.1v0.1
	c0,0.3,0,0.6-0.2,0.9c-0.1,0.2-0.2,0.5-0.4,0.6s-0.4,0.3-0.6,0.4c-0.2,0.1-0.5,0.1-0.7,0.1c-0.3,0-0.5,0-0.8-0.1s-0.5-0.2-0.7-0.4
	s-0.3-0.4-0.5-0.7c-0.1-0.3-0.2-0.6-0.2-1c0-0.2,0-0.4,0-0.6s0-0.4,0-0.5c0-0.2,0-0.3,0.1-0.5s0-0.3,0-0.4c0-0.2,0-0.4-0.1-0.5
	s-0.1-0.1-0.2-0.1c-0.1,0-0.1,0-0.2,0l0.1,1.1c0,0.1,0,0.3-0.1,0.4c0,0.1,0,0.3,0,0.4s0,0.2,0,0.3s0,0.2,0,0.2c0,0.4,0,0.7,0.1,0.9
	s0.2,0.4,0.2,0.6c-0.2,0.2-0.5,0.4-0.8,0.5s-0.7,0.2-1.1,0.2c-0.2,0-0.4,0-0.6-0.1s-0.4-0.2-0.6-0.3s-0.3-0.3-0.4-0.5
	s-0.2-0.4-0.2-0.6v-3.3c-0.1-0.2-0.2-0.4-0.3-0.7s-0.1-0.5-0.1-0.8c0-0.2,0-0.5,0.1-0.7s0.2-0.5,0.3-0.7L954.5,775.2L954.5,775.2z"
	/>
<path class="st32" d="M559.1,106.7c1.9-3.1,4.5-5.5,7.8-7.2c3.3-1.7,7.1-2.5,11.4-2.5c3.4,0,6.3,0.4,8.7,1.2
	c2.4,0.8,4.5,1.9,6.1,3.2s3,2.8,4,4.6s1.8,3.5,2.3,5.4l-2.1,44.2c0.5,0.1,1,0.2,1.3,0.2c0.7,0,1.2-0.2,1.6-0.7
	c0.4-0.5,0.7-1.4,0.7-2.8l2.8-50.6c0.7-0.7,1.8-1.3,3-1.9c1.3-0.6,2.7-1,4.3-1.4c1.5-0.4,3.1-0.7,4.7-0.9s3.1-0.3,4.5-0.3
	c3.4,0,6.3,0.4,8.8,1.4c2.4,0.9,4.5,2.1,6,3.7c1.6,1.6,2.7,3.4,3.5,5.5s1.1,4.3,1.1,6.6c0,2.8-1,9.1-3.1,18.8s-5.2,23.1-9.2,40.2
	c-0.8,3.1-2,5.8-3.7,7.8c-1.7,2.1-3.8,3.7-6.2,4.9c-2.4,1.2-5.1,2.1-8.1,2.6c-3,0.5-6.2,0.8-9.5,0.8c-2.3,0-4.5-0.1-6.7-0.4
	s-4.3-0.7-6.3-1.2c-2-0.5-3.8-1.2-5.6-2s-3.2-1.8-4.5-2.8c-1.6-3.8-3.2-8.4-5-13.8s-3.4-11.5-5-18.1c-1.6-6.6-3.1-13.6-4.5-21.1
	C561.2,122.3,560.1,114.6,559.1,106.7L559.1,106.7z"/>
<path class="st32" d="M677.1,190.2c-5.9,0-11.2-0.9-16-2.8s-8.8-4.5-12.2-7.9c-3.4-3.4-6-7.7-7.8-12.6c-1.8-5-2.7-10.6-2.7-16.8
	c0-6.5,1-12.3,2.9-17.3c2-5,4.6-9.2,7.9-12.6c3.3-3.4,7.2-5.9,11.6-7.7c4.4-1.7,9.1-2.6,14-2.6c5.2,0,9.9,0.8,14,2.5
	c4.2,1.7,7.7,3.9,10.6,6.8c2.9,2.9,5.2,6.2,6.8,10.1c1.6,3.9,2.4,7.9,2.4,12.3c0,4.1-0.7,7.7-2,10.6c-1.3,3-3.2,5.4-5.6,7.3
	c-2.4,1.9-5.2,3.4-8.5,4.3s-6.9,1.4-10.7,1.4c-2.9,0-5.7-0.4-8.5-1.1c-2.7-0.7-5-1.7-7-3c-0.2,0.2-0.3,0.4-0.4,0.7
	c-0.1,0.3-0.1,0.6-0.1,0.8c0,0.7,0.5,1.4,1.4,2.1s2.2,1.3,3.7,1.8c1.5,0.5,3.2,1,5.1,1.3s3.9,0.5,5.8,0.5c2.7,0,5.1-0.2,7.3-0.6
	s4.2-0.9,5.9-1.5c1.7-0.6,3.2-1.2,4.5-1.9s2.4-1.4,3.2-2c0.6,0.5,1,1.3,1.5,2.3c0.4,1,0.8,2.1,1.1,3.3c0.3,1.2,0.5,2.4,0.7,3.7
	c0.2,1.3,0.2,2.4,0.2,3.5s0,2.1-0.2,3c-0.1,0.9-0.2,1.8-0.4,2.5c-1.4,1.2-2.9,2.4-4.5,3.6c-1.6,1.1-3.6,2.1-5.8,3s-4.8,1.6-7.8,2.1
	C684.6,189.9,681.1,190.2,677.1,190.2L677.1,190.2z M676.3,143.1c1.1,0,1.9-0.2,2.4-0.7c0.5-0.5,0.8-1.1,0.8-1.9
	c0-0.9-0.3-1.6-0.9-1.9s-1.4-0.6-2.2-0.6c-1.2,0-2.2,0.4-2.9,1.1c-0.7,0.7-1.2,1.7-1.3,2.9c0.4,0.3,1,0.6,1.7,0.8
	C674.5,143,675.3,143.1,676.3,143.1L676.3,143.1z"/>
<path class="st32" d="M743.7,165.7c0,0.1-0.1,0.3-0.1,0.5c0,0.2-0.1,0.5-0.1,0.7c0,1,0.7,1.6,2,2c1.3,0.4,3,0.6,5.2,0.6
	c3.2,0,6.3-0.3,9.3-0.9s5.6-1.4,7.8-2.3c2.6,0.7,4.7,1.9,6.5,3.4c1.8,1.5,3.2,3.2,4.3,5.1c1.1,1.9,1.9,3.9,2.4,6.1s0.7,4.3,0.7,6.5
	c0,4.4-0.9,8.3-2.7,11.7c-1.8,3.4-4.3,6.2-7.6,8.5c-3.2,2.3-7.1,4-11.6,5.2c-4.5,1.2-9.4,1.8-14.8,1.8s-10-0.6-14-1.6
	c-4-1.1-7.3-2.6-10-4.4c-2.7-1.9-4.7-4.1-6-6.5s-2-5.1-2-8c0-1.2,0.1-2.4,0.4-3.6c0.3-1.1,0.6-2.2,1.1-3.2s1-1.8,1.5-2.5
	c0.6-0.7,1.2-1.3,1.8-1.6c2,1.9,5.1,3.4,9.2,4.7s9.1,1.9,15,1.9c3.3,0,5.5-0.2,6.8-0.5s1.9-1,1.9-2c0-0.3,0-0.6-0.1-0.8
	s-0.2-0.4-0.3-0.6c-1,0.2-2.3,0.4-3.9,0.6s-2.9,0.2-4.2,0.2c-3.6,0-7.2-0.3-10.5-0.9s-6.4-1.6-9-3c-2.6-1.4-4.7-3.2-6.2-5.5
	s-2.3-5-2.3-8.4c0-2.3,0.4-4.5,1.3-6.6s2.2-3.7,4-4.8c-1-0.6-2-1.5-3-2.6s-1.9-2.4-2.7-4s-1.5-3.4-2-5.4s-0.8-4.4-0.8-6.9
	c0-4.5,0.8-8.6,2.5-12.2c1.7-3.6,4-6.6,6.9-9c3-2.5,6.5-4.3,10.5-5.6c4.1-1.3,8.5-1.9,13.3-1.9c2.7,0,5.3,0.3,7.7,0.8
	c2.4,0.5,4.4,1.1,6.1,1.8v-4.9c1-0.4,2.3-0.8,4-1.1c1.7-0.3,3.5-0.5,5.6-0.5s3.9,0.2,5.6,0.5c1.7,0.3,3.2,0.9,4.4,1.8
	c1.2,0.9,2.2,2.1,2.9,3.7s1.1,3.6,1.1,6.1c0,1.2-0.1,2.3-0.2,3.4c-0.1,1.1-0.4,2.2-0.7,3.2c-0.5,1.5-1.1,3.1-2,4.6
	c0.6,1.5,1,3.1,1.2,4.9s0.4,3.9,0.4,6.5c0,4.2-0.7,7.9-2.2,11.2s-3.5,5.9-6.1,8.1c-2.6,2.2-5.8,3.8-9.4,4.9
	c-3.6,1.1-7.7,1.7-12.1,1.7c-1.4,0-2.7-0.1-4-0.2S744.4,165.9,743.7,165.7L743.7,165.7z M748.4,138.2c0-0.8-0.1-1.4-0.4-1.8
	c-0.3-0.4-0.7-0.7-1.3-0.7c-0.4,0-0.8,0.1-1.1,0.4s-0.5,0.9-0.5,1.6v7.2c0.4,0.3,0.8,0.5,1.3,0.5c0.9,0,1.5-0.3,1.7-0.9
	c0.2-0.6,0.3-1.6,0.3-3L748.4,138.2L748.4,138.2z"/>
<path class="st32" d="M817.6,165.7c0,0.1-0.1,0.3-0.1,0.5c0,0.2-0.1,0.5-0.1,0.7c0,1,0.7,1.6,2,2c1.3,0.4,3,0.6,5.2,0.6
	c3.2,0,6.3-0.3,9.3-0.9s5.6-1.4,7.8-2.3c2.6,0.7,4.7,1.9,6.5,3.4c1.8,1.5,3.2,3.2,4.3,5.1c1.1,1.9,1.9,3.9,2.4,6.1s0.7,4.3,0.7,6.5
	c0,4.4-0.9,8.3-2.7,11.7c-1.8,3.4-4.3,6.2-7.6,8.5c-3.2,2.3-7.1,4-11.6,5.2c-4.5,1.2-9.4,1.8-14.8,1.8s-10-0.6-14-1.6
	c-4-1.1-7.3-2.6-10-4.4c-2.7-1.9-4.7-4.1-6-6.5s-2-5.1-2-8c0-1.2,0.1-2.4,0.4-3.6c0.3-1.1,0.6-2.2,1.1-3.2s1-1.8,1.5-2.5
	c0.6-0.7,1.2-1.3,1.8-1.6c2,1.9,5.1,3.4,9.2,4.7s9.1,1.9,15,1.9c3.3,0,5.5-0.2,6.8-0.5s1.9-1,1.9-2c0-0.3,0-0.6-0.1-0.8
	s-0.2-0.4-0.3-0.6c-1,0.2-2.3,0.4-3.9,0.6s-2.9,0.2-4.2,0.2c-3.6,0-7.2-0.3-10.5-0.9s-6.4-1.6-9-3c-2.6-1.4-4.7-3.2-6.2-5.5
	s-2.3-5-2.3-8.4c0-2.3,0.4-4.5,1.3-6.6s2.2-3.7,4-4.8c-1-0.6-2-1.5-3-2.6s-1.9-2.4-2.7-4s-1.5-3.4-2-5.4s-0.8-4.4-0.8-6.9
	c0-4.5,0.8-8.6,2.5-12.2c1.7-3.6,4-6.6,6.9-9c3-2.5,6.5-4.3,10.5-5.6c4.1-1.3,8.5-1.9,13.3-1.9c2.7,0,5.3,0.3,7.7,0.8
	c2.4,0.5,4.4,1.1,6.1,1.8v-4.9c1-0.4,2.3-0.8,4-1.1c1.7-0.3,3.5-0.5,5.6-0.5s3.9,0.2,5.6,0.5c1.7,0.3,3.2,0.9,4.4,1.8
	c1.2,0.9,2.2,2.1,2.9,3.7s1.1,3.6,1.1,6.1c0,1.2-0.1,2.3-0.2,3.4c-0.1,1.1-0.4,2.2-0.7,3.2c-0.5,1.5-1.1,3.1-2,4.6
	c0.6,1.5,1,3.1,1.2,4.9s0.4,3.9,0.4,6.5c0,4.2-0.7,7.9-2.2,11.2s-3.5,5.9-6.1,8.1c-2.6,2.2-5.8,3.8-9.4,4.9
	c-3.6,1.1-7.7,1.7-12.1,1.7c-1.4,0-2.7-0.1-4-0.2S818.3,165.9,817.6,165.7L817.6,165.7z M822.3,138.2c0-0.8-0.1-1.4-0.4-1.8
	c-0.3-0.4-0.7-0.7-1.3-0.7c-0.4,0-0.8,0.1-1.1,0.4s-0.5,0.9-0.5,1.6v7.2c0.4,0.3,0.8,0.5,1.3,0.5c0.9,0,1.5-0.3,1.7-0.9
	c0.2-0.6,0.3-1.6,0.3-3L822.3,138.2L822.3,138.2z"/>
<path class="st32" d="M859.2,121.2c0.9-0.6,1.7-1.1,2.6-1.5s1.8-0.8,2.8-1.4c-0.8-0.5-1.7-1.1-2.5-1.9c-0.9-0.8-1.6-1.8-2.3-3
	c-0.7-1.2-1.3-2.5-1.7-4.1s-0.7-3.2-0.7-5.2c0-3,0.5-5.7,1.5-8.1c1-2.4,2.3-4.5,4-6.3s3.6-3.1,5.8-4.1c2.2-1,4.6-1.5,7.2-1.5
	s5,0.5,7.2,1.5c2.2,1,4.1,2.4,5.8,4.2c1.6,1.8,2.9,3.9,3.8,6.3c0.9,2.4,1.4,5.1,1.4,7.9c0,2.4-0.4,4.7-1.1,6.7
	c-0.8,2.1-1.8,3.9-3,5.5c-1.2,1.6-2.7,3-4.4,4.1s-3.4,1.8-5.2,2.3c0,0.7,0.1,1.3,0.4,1.8c0.3,0.5,0.8,0.8,1.5,0.8
	c2.1,0,4.4-0.9,6.7-2.8c0.1,0.1,0.3,0.3,0.6,0.5c0.3,0.2,0.6,0.5,1,0.8s0.7,0.6,1,0.9c0.3,0.3,0.5,0.5,0.6,0.7V153
	c0,3.2,0.3,5.9,1,8.2c0.6,2.3,1.9,4,3.7,5.2c0,0.4,0.1,0.8,0.1,1.4v1.2c0,3.5-0.5,6.6-1.3,9.1c-0.9,2.6-2.2,4.6-3.8,6.3
	c-1.6,1.6-3.6,2.9-5.8,3.6s-4.7,1.2-7.4,1.2c-2.1,0-4.2-0.4-6.5-1.1s-4.3-2-6.2-3.8s-3.4-4.1-4.6-7.1c-1.2-2.9-1.8-6.6-1.8-11
	L859.2,121.2L859.2,121.2z"/>
<path class="st32" d="M936,190.2c-5.9,0-11.2-0.9-16-2.8s-8.8-4.5-12.2-7.9c-3.4-3.4-6-7.7-7.8-12.6c-1.8-5-2.7-10.6-2.7-16.8
	c0-6.5,1-12.3,2.9-17.3c2-5,4.6-9.2,7.9-12.6c3.3-3.4,7.2-5.9,11.6-7.7c4.4-1.7,9.1-2.6,14-2.6c5.2,0,9.9,0.8,14,2.5
	c4.2,1.7,7.7,3.9,10.6,6.8c2.9,2.9,5.2,6.2,6.8,10.1c1.6,3.9,2.4,7.9,2.4,12.3c0,4.1-0.7,7.7-2,10.6c-1.3,3-3.2,5.4-5.6,7.3
	c-2.4,1.9-5.2,3.4-8.5,4.3s-6.9,1.4-10.7,1.4c-2.9,0-5.7-0.4-8.5-1.1c-2.7-0.7-5-1.7-7-3c-0.2,0.2-0.3,0.4-0.4,0.7
	c-0.1,0.3-0.1,0.6-0.1,0.8c0,0.7,0.5,1.4,1.4,2.1s2.2,1.3,3.7,1.8s3.2,1,5.1,1.3s3.9,0.5,5.8,0.5c2.7,0,5.1-0.2,7.3-0.6
	s4.2-0.9,5.9-1.5c1.7-0.6,3.2-1.2,4.5-1.9c1.3-0.7,2.4-1.4,3.2-2c0.6,0.5,1,1.3,1.5,2.3c0.4,1,0.8,2.1,1.1,3.3
	c0.3,1.2,0.5,2.4,0.7,3.7c0.2,1.3,0.2,2.4,0.2,3.5s0,2.1-0.2,3c-0.1,0.9-0.2,1.8-0.4,2.5c-1.4,1.2-2.9,2.4-4.5,3.6
	c-1.6,1.1-3.6,2.1-5.8,3s-4.8,1.6-7.8,2.1C943.4,189.9,940,190.2,936,190.2L936,190.2z M935.2,143.1c1.1,0,1.9-0.2,2.4-0.7
	c0.5-0.5,0.8-1.1,0.8-1.9c0-0.9-0.3-1.6-0.9-1.9s-1.4-0.6-2.2-0.6c-1.2,0-2.2,0.4-2.9,1.1c-0.7,0.7-1.2,1.7-1.3,2.9
	c0.4,0.3,1,0.6,1.7,0.8C933.4,143,934.2,143.1,935.2,143.1L935.2,143.1z"/>
<path class="st32" d="M1001.8,108.8c0-1.5,1-3,2.9-4.5c1.9-1.5,4.5-2.8,7.7-4s6.9-2.1,11.1-2.8c4.2-0.7,8.6-1.1,13.1-1.1
	c6.3,0,12.1,0.9,17.1,2.7s9.4,4.3,13,7.5c3.6,3.2,6.3,7.2,8.2,11.8s2.9,9.7,2.9,15.2c0,5.9-0.9,11.1-2.6,15.6s-4.2,8.2-7.5,11.3
	c-3.2,3-7.1,5.3-11.7,6.8c-4.6,1.5-9.6,2.3-15.2,2.3c-1.4,0-2.9-0.1-4.4-0.3c-1.5-0.2-2.9-0.5-4.2-0.8c-1.3-0.3-2.5-0.6-3.5-0.9
	c-1-0.3-1.8-0.6-2.2-0.8c-0.1,0.1-0.2,0.3-0.3,0.6c-0.1,0.2-0.2,0.6-0.2,1c0,0.5,0.2,1,0.6,1.5s1.1,0.9,2.2,1.2c1,0.4,2.4,0.7,4.2,1
	c1.7,0.3,3.9,0.6,6.6,0.7v10.6c-1,0.9-2.3,1.8-3.7,2.5s-3,1.3-4.6,1.8s-3.3,0.9-5.1,1.1c-1.8,0.2-3.5,0.4-5.3,0.4
	c-2.4,0-4.8-0.3-7.1-0.8s-4.3-1.4-6-2.5c-1.7-1.2-3.1-2.6-4.2-4.5c-1-1.8-1.6-4-1.6-6.6L1001.8,108.8L1001.8,108.8z M1037.7,141.4
	c0.1,0.1,0.3,0.1,0.6,0.2s0.5,0,0.6,0c1,0,1.8-0.4,2.2-1c0.4-0.7,0.6-1.8,0.6-3.4v-5.3c0-1.6-0.2-2.8-0.6-3.6c-0.4-0.7-1-1.1-2-1.1
	c-0.2,0-0.5,0-0.8,0.1s-0.5,0.1-0.7,0.2c0,0.4,0.1,0.8,0.1,1.2L1037.7,141.4L1037.7,141.4z"/>
<path class="st32" d="M1081.1,121.2c0.9-0.6,1.7-1.1,2.6-1.5s1.8-0.8,2.8-1.4c-0.8-0.5-1.7-1.1-2.5-1.9c-0.9-0.8-1.6-1.8-2.3-3
	s-1.3-2.5-1.7-4.1s-0.7-3.2-0.7-5.2c0-3,0.5-5.7,1.4-8.1c1-2.4,2.3-4.5,4-6.3s3.6-3.1,5.8-4.1c2.2-1,4.6-1.5,7.2-1.5s5,0.5,7.2,1.5
	c2.2,1,4.1,2.4,5.8,4.2c1.6,1.8,2.9,3.9,3.8,6.3c0.9,2.4,1.4,5.1,1.4,7.9c0,2.4-0.4,4.7-1.1,6.7s-1.8,3.9-3,5.5
	c-1.2,1.6-2.7,3-4.4,4.1s-3.4,1.8-5.2,2.3c0,0.7,0.1,1.3,0.4,1.8s0.8,0.8,1.4,0.8c2.1,0,4.4-0.9,6.7-2.8c0.1,0.1,0.3,0.3,0.6,0.5
	c0.3,0.2,0.6,0.5,1,0.8s0.7,0.6,1,0.9c0.3,0.3,0.5,0.5,0.6,0.7V153c0,3.2,0.3,5.9,1,8.2c0.6,2.3,1.9,4,3.7,5.2
	c0,0.4,0.1,0.8,0.1,1.4v1.2c0,3.5-0.4,6.6-1.3,9.1s-2.2,4.6-3.8,6.3c-1.6,1.6-3.6,2.9-5.8,3.6s-4.7,1.2-7.4,1.2
	c-2.1,0-4.2-0.4-6.5-1.1s-4.3-2-6.2-3.8c-1.9-1.8-3.4-4.1-4.6-7.1c-1.2-2.9-1.8-6.6-1.8-11L1081.1,121.2L1081.1,121.2z"/>
<path class="st32" d="M1179.3,112.1c0.4,0.7,0.9,1.5,1.4,2.5s0.9,2.3,1.3,3.7s0.8,3.2,1,5.1c0.3,1.9,0.4,4.1,0.4,6.5
	c0,0.8-0.1,1.8-0.2,2.8s-0.2,2-0.4,3c-0.2,1-0.3,2-0.6,2.9c-0.2,0.9-0.4,1.8-0.6,2.5c-2,2.9-4.2,5.6-6.6,8.2s-5,4.8-7.8,6.9
	c-5.5,0.3-9.6,0.9-12.1,1.8c-2.5,0.9-3.8,2-3.8,3.1c0,0.4,0.1,0.8,0.2,1c0.1,0.3,0.3,0.5,0.5,0.7c0.8-0.5,1.8-0.9,3-1.4
	s2.5-0.8,4-1.1s3-0.5,4.7-0.7c1.6-0.2,3.3-0.3,4.9-0.3h12.4c0.6,1,1.1,2.1,1.5,3.3c0.4,1.2,0.8,2.4,1.2,3.6c0.3,1.2,0.6,2.4,0.8,3.6
	c0.2,1.2,0.3,2.3,0.3,3.2c0,2.9-0.4,5.4-1.1,7.3c-0.8,1.9-1.7,3.5-2.9,4.7c-1.2,1.2-2.6,2-4.1,2.4c-1.5,0.5-3.1,0.7-4.7,0.7h-45.8
	c-2-2.2-3.4-5-4.3-8.4c-0.9-3.4-1.4-7.3-1.4-11.8c0-1.1,0.1-2.3,0.2-3.4c0.1-1.2,0.3-2.3,0.4-3.4c0.2-1.1,0.3-2.1,0.6-3
	c0.2-0.9,0.3-1.6,0.5-2.1c1.7-2,3.5-4,5.3-5.8c1.8-1.8,3.7-3.5,5.5-5.2s3.6-3.2,5.4-4.7s3.5-3,5.1-4.5c-0.1-0.4-0.3-0.7-0.6-1.1
	s-0.7-0.5-1.2-0.5c-0.3,0-0.6,0.1-0.9,0.2c-0.4,0.1-0.9,0.4-1.5,0.9c-0.6,0.5-1.5,1.1-2.4,2c-1,0.9-2.2,2.1-3.8,3.7h-8
	c-1.4-2.5-2.3-4.9-2.9-7.3c-0.6-2.4-0.9-4.8-0.9-7.2c0-3.5,0.5-6.5,1.5-9s2.1-4.3,3.3-5.5L1179.3,112.1L1179.3,112.1z"/>
<path class="st32" d="M1246.4,112.1c0.4,0.7,0.9,1.5,1.4,2.5s0.9,2.3,1.3,3.7s0.8,3.2,1,5.1c0.3,1.9,0.4,4.1,0.4,6.5
	c0,0.8-0.1,1.8-0.2,2.8s-0.2,2-0.4,3c-0.2,1-0.3,2-0.6,2.9c-0.2,0.9-0.4,1.8-0.6,2.5c-2,2.9-4.2,5.6-6.6,8.2s-5,4.8-7.8,6.9
	c-5.5,0.3-9.6,0.9-12.1,1.8c-2.5,0.9-3.8,2-3.8,3.1c0,0.4,0.1,0.8,0.2,1c0.1,0.3,0.3,0.5,0.5,0.7c0.8-0.5,1.8-0.9,3-1.4
	s2.5-0.8,4-1.1s3-0.5,4.7-0.7c1.6-0.2,3.3-0.3,4.9-0.3h12.4c0.6,1,1.1,2.1,1.5,3.3c0.4,1.2,0.8,2.4,1.2,3.6c0.3,1.2,0.6,2.4,0.8,3.6
	c0.2,1.2,0.3,2.3,0.3,3.2c0,2.9-0.4,5.4-1.1,7.3c-0.8,1.9-1.7,3.5-2.9,4.7c-1.2,1.2-2.6,2-4.1,2.4c-1.5,0.5-3.1,0.7-4.7,0.7h-45.8
	c-2-2.2-3.4-5-4.3-8.4c-0.9-3.4-1.4-7.3-1.4-11.8c0-1.1,0.1-2.3,0.2-3.4c0.1-1.2,0.3-2.3,0.4-3.4c0.2-1.1,0.3-2.1,0.6-3
	c0.2-0.9,0.3-1.6,0.5-2.1c1.7-2,3.5-4,5.3-5.8c1.8-1.8,3.7-3.5,5.5-5.2s3.6-3.2,5.4-4.7s3.5-3,5.1-4.5c-0.1-0.4-0.3-0.7-0.6-1.1
	s-0.7-0.5-1.2-0.5c-0.3,0-0.6,0.1-0.9,0.2c-0.4,0.1-0.9,0.4-1.5,0.9c-0.6,0.5-1.5,1.1-2.4,2c-1,0.9-2.2,2.1-3.8,3.7h-8
	c-1.4-2.5-2.3-4.9-2.9-7.3c-0.6-2.4-0.9-4.8-0.9-7.2c0-3.5,0.5-6.5,1.5-9s2.1-4.3,3.3-5.5L1246.4,112.1L1246.4,112.1z"/>
<path class="st32" d="M1290.2,190.2c-5.9,0-11.2-0.9-15.9-2.8s-8.8-4.5-12.2-7.9c-3.4-3.4-6-7.7-7.8-12.6c-1.8-5-2.7-10.6-2.7-16.8
	c0-6.5,1-12.3,2.9-17.3c1.9-5,4.6-9.2,7.9-12.6c3.3-3.4,7.2-5.9,11.6-7.7c4.4-1.7,9.1-2.6,13.9-2.6c5.2,0,9.9,0.8,14,2.5
	s7.7,3.9,10.6,6.8c2.9,2.9,5.2,6.2,6.8,10.1c1.6,3.9,2.4,7.9,2.4,12.3c0,4.1-0.7,7.7-2,10.6s-3.2,5.4-5.6,7.3
	c-2.4,1.9-5.2,3.4-8.6,4.3s-6.9,1.4-10.7,1.4c-2.9,0-5.7-0.4-8.5-1.1c-2.7-0.7-5.1-1.7-7-3c-0.2,0.2-0.3,0.4-0.4,0.7
	c-0.1,0.3-0.1,0.6-0.1,0.8c0,0.7,0.5,1.4,1.4,2.1c0.9,0.7,2.2,1.3,3.7,1.8s3.2,1,5.1,1.3s3.9,0.5,5.8,0.5c2.7,0,5.1-0.2,7.3-0.6
	c2.2-0.4,4.2-0.9,5.9-1.5c1.7-0.6,3.2-1.2,4.5-1.9c1.3-0.7,2.4-1.4,3.2-2c0.6,0.5,1,1.3,1.4,2.3c0.4,1,0.8,2.1,1.1,3.3
	c0.3,1.2,0.5,2.4,0.7,3.7c0.2,1.3,0.2,2.4,0.2,3.5s-0.1,2.1-0.2,3c-0.1,0.9-0.2,1.8-0.4,2.5c-1.4,1.2-2.9,2.4-4.5,3.6
	c-1.6,1.1-3.6,2.1-5.8,3s-4.8,1.6-7.8,2.1C1297.6,189.9,1294.2,190.2,1290.2,190.2L1290.2,190.2z M1289.4,143.1
	c1.1,0,1.9-0.2,2.4-0.7c0.5-0.5,0.8-1.1,0.8-1.9c0-0.9-0.3-1.6-0.9-1.9s-1.4-0.6-2.2-0.6c-1.2,0-2.2,0.4-2.9,1.1s-1.2,1.7-1.3,2.9
	c0.4,0.3,1,0.6,1.7,0.8C1287.6,143,1288.4,143.1,1289.4,143.1L1289.4,143.1z"/>
<path class="st32" d="M1336.5,112.1c2.7,0,4.9,0.5,6.7,1.4s3.2,2.2,4.2,3.9c-0.6,0.7-1.1,1.4-1.6,2.4c-0.5,0.9-0.9,1.8-1.3,2.8
	c-0.4,0.9-0.7,1.8-0.9,2.6s-0.3,1.4-0.3,1.9c0,0.6,0.2,1.1,0.6,1.5c0.4,0.4,1,0.7,1.8,0.7c0.8-3.4,2-6.3,3.4-8.6s3.2-4.2,5.1-5.6
	s4-2.4,6.2-3c2.2-0.6,4.4-0.9,6.7-0.9c1.8,0,3.5,0.1,5.1,0.4c1.5,0.3,2.9,0.6,4.2,1c1.2,0.4,2.3,0.9,3.3,1.4
	c0.9,0.5,1.7,1.1,2.4,1.6c0.7,1.9,1.2,4,1.5,6.2c0.3,2.2,0.4,4.3,0.4,6.4c0,3.8-0.3,6.9-0.9,9.4c-0.6,2.5-1.3,4.6-2,6.2
	c-0.7,0.4-1.5,0.7-2.6,1.1c-1,0.4-2.2,0.7-3.4,1c-1.2,0.3-2.5,0.5-3.9,0.7s-2.7,0.2-4.1,0.2c-1.4,0-2.7-0.1-3.8-0.1s-2.1-0.2-3-0.4
	s-1.7-0.4-2.5-0.6c-0.8-0.2-1.5-0.4-2.3-0.6c-0.3,0.4-0.5,0.9-0.5,1.6c0,0.6,0.4,1.2,1.2,1.5c0.8,0.4,2.2,0.8,4.3,1.2v34.9
	c-1.5,1-2.9,1.8-4.4,2.5s-3,1.1-4.4,1.5s-2.8,0.6-4.1,0.7c-1.3,0.1-2.5,0.2-3.6,0.2c-2.4,0-4.7-0.2-6.8-0.7
	c-2.1-0.5-3.9-1.2-5.5-2.2s-2.8-2.3-3.7-3.8c-0.9-1.5-1.3-3.4-1.3-5.5v-35.8c-1.3-1.9-2.2-4.1-2.9-6.6s-0.9-5-0.9-7.7
	c0-2.2,0.3-4.7,0.9-7.4s1.6-5.1,2.9-7.2L1336.5,112.1L1336.5,112.1z"/>
<path class="st32" d="M1387.1,121.2c0.9-0.6,1.7-1.1,2.6-1.5s1.8-0.8,2.8-1.4c-0.8-0.5-1.7-1.1-2.5-1.9c-0.9-0.8-1.6-1.8-2.3-3
	s-1.3-2.5-1.7-4.1s-0.7-3.2-0.7-5.2c0-3,0.5-5.7,1.4-8.1c1-2.4,2.3-4.5,4-6.3s3.6-3.1,5.8-4.1c2.2-1,4.6-1.5,7.2-1.5s5,0.5,7.2,1.5
	c2.2,1,4.1,2.4,5.8,4.2c1.6,1.8,2.9,3.9,3.8,6.3c0.9,2.4,1.4,5.1,1.4,7.9c0,2.4-0.4,4.7-1.1,6.7s-1.8,3.9-3,5.5
	c-1.2,1.6-2.7,3-4.4,4.1s-3.4,1.8-5.2,2.3c0,0.7,0.1,1.3,0.4,1.8s0.8,0.8,1.4,0.8c2.1,0,4.4-0.9,6.7-2.8c0.1,0.1,0.3,0.3,0.6,0.5
	c0.3,0.2,0.6,0.5,1,0.8s0.7,0.6,1,0.9c0.3,0.3,0.5,0.5,0.6,0.7V153c0,3.2,0.3,5.9,1,8.2c0.6,2.3,1.9,4,3.7,5.2
	c0,0.4,0.1,0.8,0.1,1.4v1.2c0,3.5-0.4,6.6-1.3,9.1s-2.2,4.6-3.8,6.3c-1.6,1.6-3.6,2.9-5.8,3.6s-4.7,1.2-7.4,1.2
	c-2.1,0-4.2-0.4-6.5-1.1s-4.3-2-6.2-3.8c-1.9-1.8-3.4-4.1-4.6-7.1c-1.2-2.9-1.8-6.6-1.8-11L1387.1,121.2L1387.1,121.2z"/>
<path class="st32" d="M1492.4,153.6c0,3.2,0.3,5.8,1,7.9s1.9,3.7,3.7,4.9c0,0.4,0.1,0.8,0.1,1.4v1.2c0,3.5-0.5,6.6-1.5,9.1
	s-2.4,4.6-4,6.3c-1.7,1.6-3.5,2.9-5.6,3.6s-4.2,1.2-6.4,1.2c-1.5,0-3.1-0.2-4.5-0.6s-2.9-1-4.2-1.8c-1.3-0.8-2.5-1.8-3.5-3
	c-1.1-1.2-1.9-2.7-2.5-4.4c-0.7,0-1.3,0.2-1.6,0.6s-0.6,1-0.6,1.7c0,0.6,0.2,1.4,0.6,2.1c0.4,0.7,0.9,1.5,1.7,2.3
	c-1.4,1-3.2,1.8-5.5,2.3c-2.3,0.5-4.7,0.8-7.1,0.8c-3.9,0-7.4-0.6-10.6-1.7s-5.9-2.9-8.2-5.1c-2.3-2.3-4.1-5-5.3-8.3
	s-1.9-7-1.9-11.3s0.7-8.2,2-11.4s3.2-5.9,5.5-8s5-3.7,8.1-4.7c3.1-1,6.3-1.5,9.7-1.5c1.5,0,2.9,0.1,4.1,0.2c1.2,0.1,2.2,0.2,3.1,0.4
	c1,0.2,1.8,0.4,2.5,0.6c0.1-0.5,0.2-0.9,0.2-1.2c0-0.6-0.3-1.1-0.9-1.5s-1.3-0.7-2.3-0.9c-0.9-0.2-2-0.4-3.3-0.4s-2.5-0.1-3.8-0.1
	c-2.9,0-5.8,0.4-8.8,1s-5.5,1.8-7.8,3.2c-0.9-1.7-1.7-3.9-2.3-6.5c-0.6-2.6-0.9-5.3-0.9-8.1c0-1.3,0.1-2.6,0.2-3.9s0.5-2.5,0.9-3.5
	c1.1-0.6,2.5-1.2,4.3-1.8s3.8-1.3,6-1.9c2.3-0.6,4.8-1.1,7.6-1.5s5.7-0.6,8.9-0.6c5.5,0,10.4,0.7,14.5,2s7.6,3.3,10.3,5.8
	s4.8,5.6,6.2,9.3c1.4,3.7,2.1,7.8,2.1,12.5L1492.4,153.6L1492.4,153.6z M1459,157.1c-1,0-1.7,0.3-2.1,0.8c-0.4,0.5-0.6,1.1-0.6,1.8
	c0,0.9,0.3,1.6,0.9,1.9s1.4,0.6,2.2,0.6c1.4,0,2.4-0.4,3.2-1.1s1.1-2.1,1.1-4L1459,157.1L1459,157.1z"/>
<g id="h_00000114068809118630384580000013412761522722405013_">
	<path class="st8" d="M2279.4,483.2c-4.2,0-7.6-3.9-7.6-8.7v-36.9c0-4.8,3.4-8.7,7.6-8.7s7.6,3.9,7.6,8.7v36.9
		C2287,479.3,2283.6,483.2,2279.4,483.2z"/>
	<path class="st9" d="M2279.4,430.7c3.3,0,5.9,3.1,5.9,6.8v36.9c0,3.8-2.6,6.8-5.9,6.8s-5.9-3.1-5.9-6.8v-36.9
		C2273.5,433.8,2276.1,430.7,2279.4,430.7 M2279.4,426.8c-5.1,0-9.3,4.8-9.3,10.7v36.9c0,5.9,4.2,10.7,9.3,10.7s9.3-4.8,9.3-10.7
		v-36.9C2288.7,431.6,2284.5,426.8,2279.4,426.8L2279.4,426.8z"/>
	<path class="st8" d="M2410.9,483.2c-4.2,0-7.6-3.9-7.6-8.7v-36.9c0-4.8,3.4-8.7,7.6-8.7c4.2,0,7.6,3.9,7.6,8.7v36.9
		C2418.5,479.3,2415.1,483.2,2410.9,483.2z"/>
	<path class="st9" d="M2410.9,430.7c3.3,0,5.9,3.1,5.9,6.8v36.9c0,3.8-2.6,6.8-5.9,6.8c-3.3,0-5.9-3.1-5.9-6.8v-36.9
		C2405,433.8,2407.6,430.7,2410.9,430.7 M2410.9,426.8c-5.1,0-9.3,4.8-9.3,10.7v36.9c0,5.9,4.2,10.7,9.3,10.7
		c5.1,0,9.3-4.8,9.3-10.7v-36.9C2420.2,431.6,2416,426.8,2410.9,426.8L2410.9,426.8z"/>
	<path class="st10" d="M2153.8,348.1h363.4c4.7,0,8.4,4.4,8.4,9.7v71.9c0,5.4-3.8,9.7-8.4,9.7h-363.4c-4.7,0-8.4-4.4-8.4-9.7v-71.9
		C2145.3,352.5,2149.1,348.1,2153.8,348.1z"/>
	<path class="st11" d="M2517.1,350c3.7,0,6.7,3.5,6.7,7.8v71.9c0,4.3-3,7.8-6.7,7.8h-363.4c-3.7,0-6.7-3.5-6.7-7.8v-71.9
		c0-4.3,3-7.8,6.7-7.8H2517.1 M2517.1,346.2h-363.4c-5.6,0-10.1,5.2-10.1,11.7v71.9c0,6.4,4.6,11.7,10.1,11.7h363.4
		c5.6,0,10.1-5.2,10.1-11.7v-71.9C2527.2,351.4,2522.7,346.2,2517.1,346.2L2517.1,346.2z"/>
	<text transform="matrix(0.8673 0 0 1 2178.1943 419.7148)" class="st12 st13 st33">PLAY GAME</text>
</g>
<g id="h_00000154410769424088706470000010838319744969896353_">
	<path class="st8" d="M1620.8,1015.9c-4.2,0-7.6-3.9-7.6-8.7v-36.9c0-4.8,3.4-8.7,7.6-8.7c4.2,0,7.6,3.9,7.6,8.7v36.9
		C1628.4,1012,1625,1015.9,1620.8,1015.9z"/>
	<path class="st9" d="M1620.8,963.4c3.3,0,5.9,3.1,5.9,6.8v36.9c0,3.8-2.6,6.8-5.9,6.8s-5.9-3.1-5.9-6.8v-36.9
		C1614.9,966.5,1617.6,963.4,1620.8,963.4 M1620.8,959.5c-5.1,0-9.3,4.8-9.3,10.7v36.9c0,5.9,4.2,10.7,9.3,10.7s9.3-4.8,9.3-10.7
		v-36.9C1630.1,964.4,1625.9,959.5,1620.8,959.5L1620.8,959.5z"/>
	<path class="st8" d="M1752.3,1015.9c-4.2,0-7.6-3.9-7.6-8.7v-36.9c0-4.8,3.4-8.7,7.6-8.7s7.6,3.9,7.6,8.7v36.9
		C1759.9,1012,1756.5,1015.9,1752.3,1015.9z"/>
	<path class="st9" d="M1752.3,963.4c3.3,0,5.9,3.1,5.9,6.8v36.9c0,3.8-2.6,6.8-5.9,6.8s-5.9-3.1-5.9-6.8v-36.9
		C1746.4,966.5,1749.1,963.4,1752.3,963.4 M1752.3,959.5c-5.1,0-9.3,4.8-9.3,10.7v36.9c0,5.9,4.2,10.7,9.3,10.7
		c5.1,0,9.3-4.8,9.3-10.7v-36.9C1761.6,964.4,1757.4,959.5,1752.3,959.5L1752.3,959.5z"/>
	<path class="st10" d="M1495.2,880.8h363.4c4.7,0,8.4,4.4,8.4,9.7v71.9c0,5.4-3.8,9.7-8.4,9.7h-363.4c-4.7,0-8.4-4.4-8.4-9.7v-71.9
		C1486.8,885.2,1490.6,880.8,1495.2,880.8z"/>
	<path class="st11" d="M1858.6,882.8c3.7,0,6.7,3.5,6.7,7.8v71.9c0,4.3-3,7.8-6.7,7.8h-363.4c-3.7,0-6.7-3.5-6.7-7.8v-71.9
		c0-4.3,3-7.8,6.7-7.8H1858.6 M1858.6,878.9h-363.4c-5.6,0-10.1,5.2-10.1,11.7v71.9c0,6.4,4.6,11.7,10.1,11.7h363.4
		c5.6,0,10.1-5.2,10.1-11.7v-71.9C1868.7,884.1,1864.1,878.9,1858.6,878.9L1858.6,878.9z"/>
	<text transform="matrix(0.8673 0 0 1 1519.642 952.4257)" class="st12 st13 st33">PLAY GAME</text>
</g>
</svg>
