<?xml version="1.0" encoding="utf-8"?>
<!-- Generator: Adobe Illustrator 28.0.0, SVG Export Plug-In . SVG Version: 6.00 Build 0)  -->
<svg version="1.1" id="a" xmlns="http://www.w3.org/2000/svg" xmlns:xlink="http://www.w3.org/1999/xlink" x="0px" y="0px"
	 viewBox="0 0 11.9 7.1" style="enable-background:new 0 0 11.9 7.1;" xml:space="preserve">
<style type="text/css">
	.st0{fill:#DBD6C1;stroke:#C1BCA7;stroke-width:0.5;stroke-miterlimit:10;}
	.st1{fill:#C1BCA7;}
</style>
<g id="b">
	<path class="st0" d="M36.5-49.3c-4.2,1-10.8,2-18.6,0.8c-2.6-0.4-4.9-1-6.8-1.7c1.7-2.5,2.7-4.7,3.3-6.2c2.5-6.7,1.8-12.5,1.5-15
		c-0.1-1-0.3-1.8-0.4-2.2c-0.8-3.9-2.2-7-3.3-9.1h24.9c-2.3,5.6-4.9,14.8-2.9,25.5C34.8-54.3,35.6-51.7,36.5-49.3L36.5-49.3z"/>
	<path class="st0" d="M61.6-95.8c0.9,3.8,1.9,13.3-0.7,14.7c-0.1,0.1-0.3,0.2-0.6,0.3c-1.4,0.4-3.2-0.5-12.7-1.3
		c-3.2-0.3-4.8-0.4-6.1-0.3c-2.6,0.1-4.6,0.6-4.8,0c-0.1-0.2,0.2-0.6,0.5-1c0.4-0.4,0.8-0.7,0.9-0.7c0,0-1.4,1.7-1.4,1.7
		c0.9-1.3,1.4-1.7,1.4-1.7c0.1,0.1-1.6,1.7-1.5,1.8c0,0,0.1-0.1,0.1-0.1c0,0-0.1,0.1-0.5,0.3l0,0c-0.4,0.1-0.8,0-1,0c0,0,0,0-4,0
		c-6.3,0-12.5,0-18.8,0c-0.8,0-2.6,0-3.6,0c-0.3,0-1.8,0-2.1,0c0.1,0,0.1,0,0.2,0c-2.9,0.7-4,1-4,1c0,0,1.1-0.3,1.1-0.3
		c0,0-3.4,1-6.8,1.3c-3.2,0.3-7.4,0.8-9.5-1c-3.6-3.1-1.1-13.6,2.9-20.6c6.4-11.1,19.8-19.1,34.1-18.9
		C42.7-120.5,58.7-107.7,61.6-95.8L61.6-95.8z"/>
	<path class="st1" d="M38.3-83.3c1.7-0.9,3.5-1.2,5.4-1.5c2.2-0.4,4.3-0.7,6.5-0.5c1.9,0.2,3.8,0.5,5.8,0.7c2,0.2,4,0.5,5.4,2
		c0.7,0.7,1.7-0.4,1.1-1.1c-1.4-1.4-3.2-2.1-5.1-2.3c-2.2-0.3-4.4-0.5-6.6-0.8c-2.3-0.3-4.6,0-6.9,0.4c-2.1,0.4-4.3,0.7-6.2,1.8
		C36.7-84.1,37.4-82.8,38.3-83.3L38.3-83.3L38.3-83.3z"/>
	<path class="st1" d="M36.7-81.7c4.8-0.2,9.6,0,14.4,0.6c2.2,0.2,4.3,0.8,6.4,1c1.7,0.1,3.6,0,4.4-1.8c0.4-0.9-0.9-1.6-1.3-0.8
		c-0.9,1.9-4.2,0.9-5.8,0.6c-1.9-0.3-3.7-0.6-5.6-0.8c-4.2-0.4-8.4-0.5-12.6-0.4C35.7-83.2,35.7-81.7,36.7-81.7L36.7-81.7L36.7-81.7
		z"/>
	<path class="st1" d="M13.8-82.7c-1.9-1.5-3.8-2.7-6.1-3.4c-2.5-0.7-5.2-1-7.8-0.8c-1.1,0.1-2.3,0.2-3.4,0.6
		c-0.6,0.2-1.1,0.6-1.7,0.8c-0.5,0.2-1.1,0.2-1.7,0.3c-2.3,0.4-4.4,1.4-6.2,2.8c-0.8,0.6,0.3,1.7,1.1,1.1c1.8-1.4,3.9-2.2,6.2-2.5
		c0.9-0.1,1.6-0.5,2.4-0.8c1-0.5,2.2-0.6,3.3-0.7c2.2-0.2,4.5,0,6.7,0.5c2.4,0.6,4.2,1.7,6.1,3.2C13.5-81,14.6-82.1,13.8-82.7
		C13.8-82.7,13.8-82.7,13.8-82.7z"/>
	<path class="st1" d="M-12.8-81c1.7,1,3.6,1.2,5.5,1.4c2.3,0.2,4.6,0.4,7,0.2c4.5-0.5,8.8-2,13.3-2c1,0,1-1.5,0-1.5
		c-4.1,0-8.1,1.3-12.1,1.9c-2.2,0.3-4.5,0.3-6.7,0.1c-2.1-0.2-4.3-0.3-6.2-1.3C-12.9-82.8-13.7-81.5-12.8-81L-12.8-81L-12.8-81z"/>
</g>
</svg>
