<?xml version="1.0" encoding="UTF-8"?><svg id="a" xmlns="http://www.w3.org/2000/svg" width="105.75" height="73.24" viewBox="0 0 105.75 73.24"><defs><style>.c{fill:#dbd6c1;stroke:#c1bca7;stroke-miterlimit:10;stroke-width:.5px;}.d{fill:#c1bca7;stroke-width:0px;}</style></defs><g id="b"><path class="c" d="m50.7,71.64c-4.2,1.01-10.84,2.03-18.6.75-2.58-.43-4.87-1.04-6.85-1.71,1.73-2.49,2.73-4.69,3.32-6.23,2.55-6.65,1.83-12.48,1.48-15.04-.14-1.04-.3-1.85-.38-2.22-.81-3.93-2.2-7.02-3.32-9.11h24.89c-2.3,5.63-4.89,14.77-2.87,25.55.56,2.96,1.38,5.64,2.32,8.01Z"/><path class="c" d="m75.79,25.09c.94,3.81,1.94,13.27-.73,14.71-.12.06-.35.19-.63.27-1.39.39-3.23-.49-12.66-1.26-3.18-.26-4.8-.39-6.1-.33-2.63.12-4.58.57-4.79,0-.09-.25.19-.64.53-.97.39-.38.85-.7.87-.68.04.04-1.4,1.65-1.4,1.65.86-1.26,1.38-1.67,1.39-1.65.08.09-1.58,1.71-1.53,1.75.01.01.14-.09.14-.1,0,0-.11.07-.5.33,0,0,0,0,0,0-.43.12-.79.03-.95,0-.03,0-.02,0-3.95,0-6.27,0-12.55,0-18.82,0-.79,0-2.57,0-3.56,0-.34,0-1.79,0-2.13,0,.07,0,.14,0,.22,0-2.88.72-4.01,1-4.01.99,0-.01,1.15-.31,1.14-.33-.01-.05-3.43.99-6.83,1.32-3.25.32-7.44.76-9.49-.99-3.63-3.1-1.11-13.6,2.91-20.6C11.3,8.12,24.75.14,39.01.25c17.89.14,33.87,12.99,36.79,24.84Z"/><path class="d" d="m52.45,37.66c1.67-.88,3.55-1.18,5.39-1.51,2.15-.39,4.33-.71,6.51-.51,1.93.17,3.83.54,5.77.71s3.96.51,5.37,2.01c.66.7,1.72-.36,1.06-1.06-1.36-1.44-3.2-2.05-5.12-2.31-2.2-.3-4.42-.55-6.62-.8-2.31-.27-4.62.03-6.9.43-2.13.37-4.28.73-6.21,1.75-.85.45-.1,1.74.76,1.3h0Z"/><path class="d" d="m50.87,39.21c4.81-.15,9.64.01,14.42.56,2.16.25,4.27.81,6.44.98,1.71.14,3.59-.05,4.44-1.75.43-.86-.86-1.62-1.3-.76-.94,1.86-4.22.9-5.8.61-1.86-.34-3.71-.6-5.59-.77-4.2-.39-8.41-.51-12.62-.37-.96.03-.97,1.53,0,1.5h0Z"/><path class="d" d="m28.01,38.22c-1.9-1.52-3.79-2.73-6.14-3.41-2.51-.72-5.18-.99-7.78-.79-1.12.09-2.29.21-3.35.59-.6.21-1.13.58-1.72.79-.54.19-1.14.19-1.7.28-2.29.37-4.37,1.38-6.19,2.8-.76.59.31,1.65,1.06,1.06,1.82-1.43,3.89-2.19,6.17-2.5.91-.12,1.58-.48,2.4-.84,1.04-.45,2.21-.59,3.33-.68,2.25-.18,4.52,0,6.71.55,2.38.6,4.24,1.68,6.15,3.21.75.6,1.81-.46,1.06-1.06h0Z"/><path class="d" d="m1.33,39.9c1.72.95,3.6,1.23,5.53,1.42,2.32.23,4.64.42,6.97.18,4.47-.46,8.77-2.02,13.29-2.01.97,0,.97-1.5,0-1.5-4.14-.01-8.07,1.26-12.13,1.86-2.25.33-4.47.29-6.72.09-2.11-.18-4.29-.3-6.18-1.35-.85-.47-1.6.83-.76,1.3h0Z"/></g></svg>