<?xml version="1.0" encoding="UTF-8"?><svg id="a" xmlns="http://www.w3.org/2000/svg" width="157.03" height="251" viewBox="0 0 157.03 251"><defs><style>.b{fill:#ed6b6b;stroke:#c10000;stroke-miterlimit:10;stroke-width:2px;}</style></defs><path class="b" d="m2.59,250c-4.4-30.07.94-49.02,8.66-61.44,5.03-8.11,9.71-11.23,19.14-21.56,10.27-11.24,21.87-26.3,32.8-46.35-8.68-6.34-35.65-27.75-46.18-67.91C11.37,31.22,12.54,12.43,14.13,1h132.75c1.6,9.08,5.84,39.01-8.66,71.14-13.67,30.29-35.7,44.19-43.29,48.51,15.02,21.28,27.25,38.09,35.58,49.42,9.02,12.27,12.66,17.04,16.37,24.95,9.56,20.4,9.84,41.04,8.66,54.97H2.59Z"/></svg>