<?xml version="1.0" encoding="UTF-8"?><svg id="a" xmlns="http://www.w3.org/2000/svg" width="578" height="168" viewBox="0 0 578 168"><defs><style>.c{fill:#c10000;stroke:#710000;stroke-miterlimit:10;stroke-width:5px;}.d{fill:#dde3e0;}.d,.e{stroke-width:0px;}.e{fill:#f4f6f5;}</style></defs><g id="b"><rect class="e" x="2.54" y="3.39" width="572.92" height="132.42" rx="10" ry="10"/><path class="d" d="m565.46,5.39c4.41,0,8,3.59,8,8v112.42c0,4.41-3.59,8-8,8H12.54c-4.41,0-8-3.59-8-8V13.39c0-4.41,3.59-8,8-8h552.92m0-4H12.54C5.94,1.39.54,6.79.54,13.39v112.42c0,6.6,5.4,12,12,12h552.92c6.6,0,12-5.4,12-12V13.39c0-6.6-5.4-12-12-12h0Z"/></g><path class="c" d="m110.94,102.94c-1.25,1.31-3.03,2.48-5.34,3.54-2.31,1.05-5.08,1.58-8.31,1.58-1.71,0-3.36-.22-4.95-.65-1.59-.43-2.99-1.1-4.19-1.98-1.21-.89-2.17-2.01-2.89-3.37s-1.08-2.96-1.08-4.81v-35.02h-10.67c-1.16-1.99-2-3.98-2.52-5.95-.52-1.98-.78-4.07-.78-6.28,0-1.67.12-3.18.37-4.54.24-1.36.56-2.57.96-3.64s.85-2.01,1.35-2.83,1.01-1.5,1.53-2.04h47.36c.85,1.56,1.58,3.5,2.18,5.82.6,2.32.89,4.66.89,7.01,0,2.21-.22,4.11-.66,5.68-.44,1.58-1.05,2.86-1.83,3.86-.78,1-1.7,1.73-2.77,2.2-1.07.47-2.24.71-3.53.71h-13.42c-.09.29-.14.56-.14.82,0,.33.06.59.18.79.12.2.37.37.76.52.38.15.92.25,1.6.3.69.05,1.59.08,2.72.08h3.16v38.23Z"/><path class="c" d="m183.81,90.43c-.52,5.55-1.99,9.87-4.42,12.97-2.43,3.1-5.86,4.65-10.28,4.65-1.44,0-2.88-.2-4.33-.6s-2.86-1.12-4.21-2.15-2.63-2.45-3.82-4.24c-1.19-1.79-2.21-4.09-3.07-6.88l-1.65-5.33c-1.19-.04-2.15-.12-2.89-.25-.73-.13-1.39-.24-1.97-.35-.09.11-.18.25-.25.43-.08.18-.12.43-.12.76,0,.43.24.81.73,1.11.49.31,1.48.52,2.98.62l2.61,7.83v4.62c-1.71,1.45-3.74,2.55-6.09,3.29-2.35.74-4.83,1.11-7.42,1.11-1.89,0-3.63-.23-5.2-.68-1.57-.45-2.94-1.15-4.1-2.09-1.16-.94-2.06-2.11-2.7-3.51-.64-1.39-.96-3.05-.96-4.98v-51.66c0-.83.35-1.66,1.05-2.47.7-.82,1.66-1.58,2.88-2.31,1.22-.72,2.66-1.39,4.31-1.98,1.65-.6,3.41-1.12,5.29-1.55,1.88-.44,3.83-.77,5.86-1.01,2.03-.24,4.04-.35,6.02-.35,4.43,0,8.47.56,12.12,1.69,3.65,1.12,6.77,2.8,9.37,5.03,2.59,2.23,4.6,4.99,6.02,8.27,1.42,3.28,2.13,7.1,2.13,11.45,0,2.54-.33,4.88-.98,7.01-.66,2.14-1.53,4.04-2.63,5.71-1.1,1.67-2.39,3.09-3.87,4.27-1.48,1.18-3.05,2.08-4.69,2.69,0,.65.15,1.11.46,1.36.3.25.67.38,1.1.38s1.07-.18,1.92-.54c.85-.36,1.82-1.01,2.89-1.96l7.92,9.62Zm-31.56-22.02c.09.07.24.12.43.14.2.02.33.03.39.03.73,0,1.25-.27,1.56-.82.3-.54.46-1.43.46-2.66v-1.96c0-1.27-.13-2.19-.39-2.77-.26-.58-.74-.87-1.44-.87-.15,0-.34.02-.55.05-.21.04-.38.09-.5.16.03.29.05.6.05.92v7.78Z"/><path class="c" d="m203.96,88.86c-3.45-2.72-6.47-5.75-9.05-9.08-2.58-3.33-4.75-6.91-6.5-10.74-1.76-3.82-3.12-7.88-4.1-12.15-.98-4.28-1.57-8.72-1.79-13.32.76-1.34,1.71-2.48,2.84-3.43,1.13-.94,2.35-1.72,3.66-2.34,1.31-.62,2.67-1.07,4.08-1.36,1.4-.29,2.75-.43,4.03-.43,2.11,0,3.95.24,5.52.71,1.57.47,3.01,1.12,4.33,1.96.21.65.52,1.66.92,3.02.4,1.36.8,2.81,1.21,4.35s.81,3.06,1.19,4.57c.38,1.5.68,2.75.89,3.72l-2.02,10.55c-.06.4-.14.85-.25,1.36-.11.51-.16.96-.16,1.36,0,.54.12.99.37,1.33.24.34.67.52,1.28.52.18-.69.43-1.8.76-3.34.32-1.54.67-3.3,1.05-5.27s.78-4.08,1.19-6.31.81-4.38,1.19-6.44c.38-2.07.74-3.96,1.08-5.68.34-1.72.61-3.09.83-4.11,1.19-.69,2.61-1.26,4.26-1.71,1.65-.45,3.44-.68,5.36-.68,2.14,0,4.09.32,5.86.95s3.28,1.57,4.54,2.8c1.25,1.23,2.22,2.76,2.91,4.59.69,1.83,1.03,3.94,1.03,6.33,0,3.81-.46,7.41-1.37,10.82-.92,3.41-2.11,6.58-3.57,9.52-1.47,2.94-3.11,5.64-4.92,8.1-1.82,2.47-3.61,4.64-5.38,6.53v17.94c-1.34.98-2.6,1.77-3.76,2.37-1.16.6-2.28,1.06-3.37,1.39-1.08.33-2.12.54-3.12.65-.99.11-1.98.16-2.95.16-2.01,0-3.85-.22-5.52-.65-1.67-.43-3.09-1.11-4.28-2.04-1.19-.92-2.11-2.09-2.77-3.51-.66-1.41-.99-3.1-.99-5.06v-9.57c.18.22.46.52.83.9.37.38.75.75,1.14,1.12s.8.67,1.21.92c.41.25.76.38,1.03.38.37,0,.67-.14.92-.41.24-.27.37-.7.37-1.28Z"/><path class="c" d="m273.4,41.82c1.19-.91,2.53-1.73,4.03-2.47s3.08-1.37,4.74-1.88c1.66-.51,3.39-.9,5.18-1.17,1.79-.27,3.58-.41,5.38-.41,2.38,0,4.74.25,7.08.76s4.47,1.3,6.39,2.39c1.92,1.09,3.57,2.49,4.95,4.21s2.3,3.78,2.79,6.17l10.44,51.28c-1.4,2.14-3.37,3.9-5.91,5.27-2.54,1.38-5.74,2.07-9.62,2.07-1.71,0-3.31-.18-4.81-.54s-2.82-.9-3.96-1.6c-1.14-.71-2.09-1.59-2.84-2.66s-1.23-2.33-1.44-3.78l-1.01-6.63c.95-.04,1.88-.17,2.82-.41.93-.24,1.77-.53,2.52-.87.75-.34,1.36-.73,1.83-1.17.47-.43.71-.87.71-1.3,0-.58-.2-1.05-.6-1.41-.55.47-1.19.9-1.92,1.28-.73.38-1.5.7-2.31.95-.81.25-1.62.44-2.43.57-.81.13-1.56.19-2.27.19-1.31,0-2.48-.1-3.5-.3-1.02-.2-1.92-.44-2.68-.73-.76-.29-1.42-.61-1.97-.95-.55-.34-1.01-.68-1.37-1.01-.12.18-.23.39-.32.62-.09.24-.14.5-.14.79,0,.54.24,1.04.71,1.5.47.45,1.11.85,1.9,1.2.79.34,1.7.62,2.73.84,1.02.22,2.1.36,3.23.43.18,2.54.39,4.56.62,6.06.23,1.5.45,2.46.66,2.85-.27.62-.82,1.28-1.63,1.98-.81.71-1.82,1.37-3.02,1.99s-2.58,1.12-4.12,1.52-3.18.6-4.92.6c-2.17,0-4.21-.29-6.14-.87-1.92-.58-3.6-1.39-5.04-2.42s-2.58-2.28-3.43-3.75c-.86-1.47-1.28-3.11-1.28-4.92,0-.4.01-.81.05-1.22.03-.42.09-.84.18-1.28l9.76-51.77Zm21.53,28c-.34-2.17-.6-3.92-.8-5.22-.2-1.3-.4-2.29-.6-2.96s-.41-1.11-.64-1.3c-.23-.2-.51-.3-.85-.3-.21,0-.41.04-.6.11-.18.07-.35.14-.5.22l1.74,10.98c.12.15.3.25.53.33.23.07.44.11.62.11.28,0,.53-.04.78-.14.24-.09.43-.17.55-.24l-.23-1.58Z"/><path class="c" d="m357.44,83.15c-.98,0-1.89-.23-2.72-.68-.84-.45-1.58-1.13-2.22-2.04s-1.15-2.04-1.51-3.4c-.37-1.36-.55-2.93-.55-4.7,0-1.38.11-2.64.32-3.78.21-1.14.47-2.16.78-3.04.3-.89.64-1.64,1.01-2.26.37-.62.69-1.1.96-1.47h27.16c.95,1.63,1.62,3.42,2.02,5.36.4,1.94.6,3.85.6,5.74,0,2.17-.22,4.16-.66,5.95-.44,1.79-.97,3.25-1.58,4.38h-1.88v16.31c-1.19,1.23-2.55,2.41-4.08,3.54-1.53,1.12-3.26,2.11-5.2,2.96-1.94.85-4.12,1.53-6.53,2.04-2.41.51-5.08.76-8.02.76s-5.62-.31-8.34-.92c-2.72-.62-5.28-1.57-7.7-2.85-2.41-1.29-4.63-2.92-6.64-4.89-2.02-1.98-3.76-4.32-5.22-7.04s-2.6-5.83-3.41-9.33c-.81-3.5-1.21-7.42-1.21-11.77,0-6.09.79-11.43,2.36-16.01,1.57-4.58,3.77-8.42,6.6-11.5s6.2-5.4,10.12-6.96,8.25-2.34,12.99-2.34c2.47,0,4.88.25,7.24.73s4.55,1.14,6.6,1.96c2.04.82,3.91,1.76,5.59,2.83,1.68,1.07,3.1,2.2,4.26,3.4,0,1.2-.06,2.5-.18,3.92s-.28,2.82-.48,4.21c-.2,1.4-.44,2.72-.73,3.97s-.6,2.29-.94,3.13h-24.14c-.37.47-.79,1.11-1.26,1.9-.47.8-.92,1.75-1.33,2.86s-.76,2.37-1.05,3.81c-.29,1.43-.43,3.02-.43,4.76,0,2.21.24,4.12.71,5.74.47,1.61,1.1,2.95,1.88,4.02.78,1.07,1.68,1.87,2.7,2.39,1.02.53,2.08.79,3.18.79.55,0,.93-.12,1.15-.35.21-.24.32-.52.32-.84v-1.25h-.5Z"/><path class="c" d="m392.62,41.82c1.19-.91,2.53-1.73,4.03-2.47s3.08-1.37,4.74-1.88c1.66-.51,3.39-.9,5.18-1.17,1.79-.27,3.58-.41,5.38-.41,2.38,0,4.74.25,7.08.76s4.47,1.3,6.39,2.39c1.92,1.09,3.57,2.49,4.95,4.21s2.3,3.78,2.79,6.17l10.44,51.28c-1.4,2.14-3.37,3.9-5.91,5.27-2.54,1.38-5.74,2.07-9.62,2.07-1.71,0-3.31-.18-4.81-.54s-2.82-.9-3.96-1.6c-1.14-.71-2.09-1.59-2.84-2.66s-1.23-2.33-1.44-3.78l-1.01-6.63c.95-.04,1.88-.17,2.82-.41.93-.24,1.77-.53,2.52-.87.75-.34,1.36-.73,1.83-1.17.47-.43.71-.87.71-1.3,0-.58-.2-1.05-.6-1.41-.55.47-1.19.9-1.92,1.28-.73.38-1.5.7-2.31.95-.81.25-1.62.44-2.43.57-.81.13-1.56.19-2.27.19-1.31,0-2.48-.1-3.5-.3-1.02-.2-1.92-.44-2.68-.73-.76-.29-1.42-.61-1.97-.95-.55-.34-1.01-.68-1.37-1.01-.12.18-.23.39-.32.62-.09.24-.14.5-.14.79,0,.54.24,1.04.71,1.5.47.45,1.11.85,1.9,1.2.79.34,1.7.62,2.73.84,1.02.22,2.1.36,3.23.43.18,2.54.39,4.56.62,6.06.23,1.5.45,2.46.66,2.85-.27.62-.82,1.28-1.63,1.98-.81.71-1.82,1.37-3.02,1.99s-2.58,1.12-4.12,1.52-3.18.6-4.92.6c-2.17,0-4.21-.29-6.14-.87-1.92-.58-3.6-1.39-5.04-2.42s-2.58-2.28-3.43-3.75c-.86-1.47-1.28-3.11-1.28-4.92,0-.4.01-.81.05-1.22.03-.42.09-.84.18-1.28l9.76-51.77Zm21.53,28c-.34-2.17-.6-3.92-.8-5.22-.2-1.3-.4-2.29-.6-2.96s-.41-1.11-.64-1.3c-.23-.2-.51-.3-.85-.3-.21,0-.41.04-.6.11-.18.07-.35.14-.5.22l1.74,10.98c.12.15.3.25.53.33.23.07.44.11.62.11.28,0,.53-.04.78-.14.24-.09.43-.17.55-.24l-.23-1.58Z"/><path class="c" d="m466.43,106.47c-2.31,1.05-5.08,1.58-8.31,1.58-1.71,0-3.36-.22-4.95-.65-1.59-.43-2.98-1.1-4.19-1.98-1.21-.89-2.17-2.01-2.89-3.37-.72-1.36-1.08-2.96-1.08-4.81v-56.17c1.25-1.31,3.03-2.48,5.34-3.53,2.3-1.05,5.08-1.58,8.31-1.58,1.71,0,3.36.22,4.95.65,1.59.43,2.98,1.1,4.19,1.98,1.21.89,2.17,2.01,2.89,3.37.72,1.36,1.08,2.96,1.08,4.81v56.17c-1.25,1.31-3.03,2.48-5.34,3.54Z"/><path class="c" d="m503.14,40.68c.79-.8,1.69-1.5,2.68-2.09.99-.6,2.04-1.1,3.14-1.5,1.1-.4,2.23-.7,3.39-.9,1.16-.2,2.29-.3,3.39-.3,1.71,0,3.38.19,5.02.57,1.63.38,3.08,1.02,4.35,1.93,1.27.91,2.28,2.12,3.05,3.64.76,1.52,1.14,3.43,1.14,5.71v51.49c0,1.63-.34,3.01-1.03,4.13-.69,1.12-1.6,2.02-2.75,2.69-1.15.67-2.46,1.15-3.94,1.44s-3.02.44-4.6.44c-.98,0-1.96-.06-2.95-.19-.99-.13-1.93-.32-2.82-.57-.89-.25-1.71-.54-2.47-.87-.76-.33-1.42-.69-1.97-1.09-1.31-1.99-2.5-3.92-3.55-5.76s-2.02-3.62-2.91-5.33c-.89-1.7-1.71-3.33-2.47-4.87-.76-1.54-1.5-3-2.2-4.38-.52.07-.87.26-1.05.57-.18.31-.27.68-.27,1.11,0,.54.12,1.08.37,1.6.24.53.56,1.17.96,1.93l5.72,10.98v2.88c-.46.36-1.04.78-1.74,1.25-.7.47-1.57.92-2.59,1.33-1.02.42-2.21.77-3.55,1.06-1.34.29-2.88.43-4.63.43-1.99,0-3.82-.24-5.5-.71-1.68-.47-3.13-1.17-4.35-2.09-1.22-.92-2.17-2.08-2.84-3.45-.67-1.38-1.01-2.97-1.01-4.79v-54.48c0-.91.34-1.77,1.01-2.58.67-.82,1.59-1.51,2.75-2.09,1.16-.58,2.52-1.04,4.08-1.39s3.22-.52,4.99-.52c2.02,0,3.88.29,5.59.87s3.01,1.29,3.89,2.12c.67,1.02,1.4,2.22,2.2,3.62s1.63,2.94,2.52,4.62c.88,1.69,1.81,3.48,2.77,5.38s1.95,3.85,2.95,5.85c.31,0,.6-.12.89-.35.29-.24.43-.62.43-1.17,0-.4-.12-.88-.37-1.44-.24-.56-.5-1.11-.78-1.66l-4.95-10.11v-2.99Z"/></svg>