<?xml version="1.0" encoding="UTF-8"?><svg id="a" xmlns="http://www.w3.org/2000/svg" width="1920" height="1080" viewBox="0 0 1920 1080"><defs><style>.p{fill:#c10000;stroke:#710000;stroke-width:5px;}.p,.q,.r,.s,.t,.u,.v,.w,.x,.y,.z,.aa,.ab,.ac,.ad,.ae,.af,.ag{stroke-miterlimit:10;}.ah{fill:none;}.ah,.ai,.aj,.ak,.al,.am{stroke-width:0px;}.q,.w,.x,.aa,.ac{stroke:#5b4034;}.r{fill:#9b6f59;stroke-width:4px;}.r,.ag{stroke:#825d4a;}.s,.t,.u,.v,.af{stroke-width:.5px;}.s,.x{fill:#fff;}.s,.ae,.af{stroke:#000;}.t{fill:#ff9492;}.t,.u,.y{stroke:#7f5d2a;}.u{fill:#ff9497;}.v{fill:#dbd6c1;stroke:#c1bca7;}.w{fill:#fffefd;}.y{fill:#fed266;}.z{fill:#fbbb71;stroke:#7f5d3f;}.aa{fill:#f5f5f5;}.ab{fill:#cd5522;stroke:#f17083;}.ac{fill:#8e6652;}.ad{fill:#5b4134;stroke:#271b16;}.ae{fill:#3d465a;}.ag{fill:#deb985;stroke-width:3px;}.aj{fill:#dde3e0;}.ak{fill:#c1bca7;}.al{fill:#fde7c3;}.am{fill:#f4f6f5;}</style></defs><rect id="b" class="al" x="-.04" y="-.5" width="1920.54" height="605.04"/><rect id="c" class="ah" x="-.04" y="604.54" width="1919" height="481"/><rect id="d" class="ad" x="-.5" y="981.5" width="1919.96" height="103.54"/><rect class="q" x="-.04" y="610.54" width="109" height="47"/><rect class="aa" x="108.96" y="613.54" width="109" height="47"/><rect class="q" x="217.96" y="610.54" width="109" height="47"/><rect class="x" x="326.96" y="610.54" width="109" height="47"/><rect class="x" x="-.04" y="657.54" width="109" height="61"/><rect class="q" x="435.96" y="613.54" width="109" height="47"/><rect class="x" x="544.96" y="610.54" width="109" height="47"/><rect class="q" x="653.96" y="610.54" width="109" height="47"/><rect class="x" x="762.96" y="613.54" width="109" height="47"/><rect class="q" x="871.96" y="610.54" width="109" height="47"/><rect class="x" x="980.96" y="619.54" width="109" height="47"/><rect class="q" x="1089.96" y="610.54" width="109" height="47"/><rect class="x" x="1198.96" y="611.54" width="109" height="47"/><rect class="q" x="1307.96" y="611.54" width="109" height="47"/><rect class="x" x="1416.96" y="611.54" width="109" height="47"/><rect class="q" x="1525.96" y="619.54" width="109" height="47"/><rect class="x" x="1634.96" y="611.54" width="109" height="47"/><rect class="q" x="1743.96" y="611.54" width="109" height="47"/><rect class="w" x="1852.96" y="611.54" width="66" height="47"/><rect class="q" x="108.96" y="657.54" width="109" height="61"/><rect class="x" x="217.96" y="657.54" width="109" height="61"/><rect class="q" x="-.04" y="709.54" width="109" height="61"/><rect class="q" x="326.96" y="657.54" width="109" height="61"/><rect class="x" x="435.96" y="657.54" width="109" height="61"/><rect class="q" x="544.96" y="657.54" width="109" height="61"/><rect class="x" x="653.96" y="657.54" width="109" height="61"/><rect class="q" x="762.96" y="657.54" width="109" height="61"/><rect class="x" x="871.96" y="657.54" width="109" height="61"/><rect class="q" x="980.96" y="657.54" width="109" height="61"/><rect class="x" x="1089.96" y="657.54" width="109" height="61"/><rect class="q" x="1198.96" y="657.54" width="109" height="61"/><rect class="x" x="1307.96" y="657.54" width="109" height="61"/><rect class="q" x="1416.96" y="657.54" width="109" height="61"/><rect class="x" x="1525.96" y="657.54" width="109" height="61"/><rect class="q" x="1634.96" y="657.54" width="109" height="61"/><rect class="x" x="1743.96" y="657.54" width="109" height="61"/><rect class="q" x="1852.96" y="657.54" width="66" height="61"/><rect class="x" x="1852.96" y="709.54" width="66" height="61"/><rect class="x" x="108.96" y="709.54" width="109" height="61"/><rect class="q" x="217.96" y="709.54" width="109" height="61"/><rect class="x" x="326.96" y="709.54" width="109" height="61"/><rect class="q" x="435.96" y="709.54" width="109" height="61"/><rect class="x" x="544.96" y="709.54" width="109" height="61"/><rect class="q" x="653.96" y="709.54" width="109" height="61"/><rect id="e" class="r" x=".46" y="591.04" width="1919" height="36"/><rect class="x" x="762.96" y="709.54" width="109" height="61"/><rect class="q" x="871.96" y="709.54" width="109" height="61"/><rect class="x" x="980.96" y="709.54" width="109" height="61"/><rect class="q" x="1089.96" y="709.54" width="109" height="61"/><rect class="x" x="1198.96" y="709.54" width="109" height="61"/><rect class="q" x="1307.96" y="709.54" width="109" height="61"/><rect class="x" x="1416.96" y="709.54" width="109" height="61"/><rect class="q" x="1525.96" y="709.54" width="109" height="61"/><rect class="x" x="1634.96" y="709.54" width="109" height="61"/><rect class="q" x="1743.96" y="709.54" width="109" height="61"/><rect id="f" class="ac" x="-.5" y="465.5" width="1920" height="516"/><g id="g"><rect class="ag" x="363.37" y="791.36" width="933.59" height="94.57"/><polygon class="ag" points="360.34 943.39 116 170.56 195.39 140.23 439.73 913.07 360.34 943.39"/><polygon class="ag" points="359.07 943.99 328.27 846.57 363.24 833.22 394.03 930.63 359.07 943.99"/><polygon class="ag" points="436.92 913.9 192.43 140.56 204.78 135.85 449.27 909.18 436.92 913.9"/><rect class="ag" x="1199.22" y="833.22" width="97.74" height="108.35" transform="translate(2496.18 1774.78) rotate(180)"/><rect class="ag" x="363.36" y="833.22" width="915.26" height="108.52"/><polygon class="ag" points="329.82 845.98 116.29 170.57 149.7 157.8 363.24 833.22 329.82 845.98"/><polygon class="ag" points="215.14 155.74 123.12 190.88 116.56 170.15 208.58 135 215.14 155.74"/></g><g id="h"><path class="y" d="m1086.61,667.31h-483.07c19.94-12.3,34.25-24.47,42.78-32.29,21.68-19.88,39.55-42.43,99.82-141.28,11.81-19.37,17.71-29.05,23.17-38.35,28.73-48.92,80.32-128.42,180.04-264.39-.8,3.3-1.38,6.07-1.78,8.07-1.61,8.14-2.36,14.65-2.85,19.09,0,0-.41,3.67-.71,7.15-13.92,161.62,33.87,280.54,33.87,280.54,29.06,72.3,70.98,125.02,108.73,161.46Z"/><path class="ab" d="m1065.22,703.64h-443.85c-2.38-1.46-5.76-3.96-8.91-8.07-4.76-6.2-6.47-12.72-7.13-16.15h0c0-13.32,9.63-24.22,21.39-24.22,5.4-1.35,13.46-2.75,23.17-2.02,5.66.43,9.16,1.38,12.48,2.02,11.8,2.28,35.65-2.02,35.65-2.02,10.14-2.07,25.32-3.51,46.35,0,1.49,1.21,3.91,2.9,7.13,4.04,6.47,2.28,11.03.47,24.96-2.02,7.66-1.37,11.5-2.06,14.26-2.02,7.34.1,6.63,1.62,19.61,4.04,7.83,1.46,16.63,1.88,19.61,2.02.69.03,3.31.15,3.31.16,0,0-3.31-.08-3.31-.16,0-.16,14.43-3.08,26.74,0,1.55.39,5.38,1.45,10.14.37,2.93-.66,4.75-1.81,5.9-2.39,8.43-4.24,15.44,4.56,26.74,4.04,9.69-.45,9.51-7.15,19.61-8.07,9.91-.91,12.62,5.31,23.17,8.07,15.88,4.16,18.6-7.6,41-8.07,17.07-.36,35.65,6.05,35.65,6.05,0,0,12.55-6.18,24.96-6.05,13.95.14,21.4,8.18,32.09,8.07.8,0,2.58-.07,4.41,1.06,3.97,2.45,5.11,8.66,5.72,11.57.37,1.78.57,3.63.57,5.54h0c0,13.32-9.63,24.22-21.39,24.22Z"/><rect class="z" x="582.15" y="667.31" width="525.85" height="62.57" rx="12" ry="12"/></g><path class="ai" d="m1005.9,561.96c17.75-4.63,32.61-17.91,40.02-34.59,7.3-16.44,6.87-35.97-3.39-51.1-5.58-8.24-13.64-14.48-22.97-17.91-.91-.33-1.3,1.12-.4,1.45,16.5,6.05,28.04,21.35,30,38.74,1.97,17.47-5.43,35.07-17.86,47.22-7.18,7.03-16.06,12.21-25.8,14.75-.93.24-.54,1.69.4,1.45h0Z"/><path class="ai" d="m892.47,730.6c4.21,3.49,3.71,10.06,3.43,14.97-.4,6.89-.94,13.78-1.63,20.64-1.39,13.89-3.37,27.71-5.94,41.43-1.43,7.62-3.04,15.21-4.83,22.76-.22.94,1.22,1.34,1.45.4,6.58-27.82,10.74-56.21,12.42-84.75.32-5.43.84-12.64-3.84-16.51-.74-.61-1.8.44-1.06,1.06h0Z"/><ellipse class="af" cx="775.54" cy="558.76" rx="32.96" ry="32.74"/><ellipse class="af" cx="931.58" cy="557.76" rx="33.92" ry="31.74"/><ellipse class="u" cx="931.54" cy="607.32" rx="13.81" ry="13.12"/><ellipse class="s" cx="792.81" cy="561.06" rx="10.37" ry="9.37"/><ellipse class="s" cx="917.87" cy="558" rx="10.37" ry="9.37"/><path class="s" d="m946.18,552.61c-3.7,0-6.69-3.01-6.69-6.72s3-6.72,6.69-6.72,6.69,3.01,6.69,6.72-3,6.72-6.69,6.72"/><path class="ai" d="m794.14,729.95c-8.84,25.06-12.84,51.8-11.97,78.35.24,7.45.88,14.87,1.89,22.25.13.95,1.58.55,1.45-.4-3.57-26.19-2.25-53.08,3.88-78.79,1.7-7.11,3.77-14.12,6.2-21.01.32-.91-1.13-1.3-1.45-.4h0Z"/><ellipse class="u" cx="771.55" cy="607.77" rx="13.81" ry="13.12"/><path class="s" d="m763.17,553.42c-3.7,0-6.69-3.01-6.69-6.72s3-6.72,6.69-6.72,6.69,3.01,6.69,6.72-3,6.72-6.69,6.72"/><ellipse class="u" cx="771.52" cy="607.09" rx="13.81" ry="13.12"/><path class="ai" d="m671.6,462.13c-15.08,9.13-23.68,26-23.46,43.49.23,18.57,10.23,35.8,25.43,46.22,8.59,5.89,18.67,9.48,29.07,10.16.96.06.96-1.44,0-1.5-18.14-1.18-35.13-11.66-44.74-27.03-9.11-14.57-11.02-33.31-3.96-49.12,3.88-8.68,10.28-16,18.41-20.93.82-.5.07-1.8-.76-1.3h0Z"/><g id="i"><path class="v" d="m937.19,502.11c-2.18,2.22-5.8,5.39-10.76,7.66-1.65.76-3.19,1.29-4.55,1.67.28-2.11.22-3.78.1-4.9-.48-4.85-2.63-7.95-3.6-9.3-.39-.55-.73-.95-.88-1.14-1.65-1.96-3.39-3.22-4.67-3.99,4.9-3.23,9.8-6.45,14.7-9.68.32,4.16,1.51,10.47,5.91,15.93,1.21,1.5,2.5,2.73,3.76,3.74Z"/><path class="v" d="m938.15,465.35c1.69,1.85,5.1,6.94,3.95,8.82-.05.08-.15.25-.29.4-.7.77-2.05.97-7.85,4.19-1.96,1.09-2.95,1.64-3.7,2.18-1.52,1.09-2.54,2.11-2.83,1.86-.13-.11-.08-.44.03-.77.12-.37.29-.74.31-.73.03,0-.34,1.5-.34,1.5.13-1.07.32-1.5.33-1.5.08.02-.42,1.6-.38,1.61.01,0,.06-.11.05-.11,0,0-.05.08-.2.38,0,0,0,0,0,0-.22.24-.46.33-.56.37t-2.34,1.54c-3.7,2.44-7.41,4.88-11.11,7.32-.46.31-1.52,1-2.1,1.38-.2.13-1.06.7-1.26.83.04-.03.09-.06.13-.08-1.48,1.54-2.07,2.14-2.08,2.13,0,0,.59-.62.57-.64-.02-.03-1.73,1.91-3.64,3.42-1.83,1.45-4.17,3.33-5.9,3.12-3.07-.39-4.71-7.46-4.41-13.08.47-8.91,6.04-18.76,14.49-24.25,10.61-6.88,23.87-5.63,29.12.1Z"/><path class="ak" d="m928.34,481.87c.73-1.17,1.77-2.08,2.78-3.01s2.01-1.8,3.17-2.5,2.46-1.19,3.66-1.86,2.54-1.48,3.94-1.13c.94.23,1.34-1.21.4-1.45-1.46-.36-2.88.12-4.18.78-.7.36-1.36.77-2.06,1.12-.76.38-1.56.69-2.29,1.11-1.32.75-2.48,1.75-3.59,2.77s-2.29,2.08-3.11,3.4c-.51.82.79,1.58,1.3.76h0Z"/><path class="ak" d="m927.79,483.44c2.69-1.89,5.5-3.61,8.41-5.14,1.37-.72,2.83-1.25,4.2-1.98,1.19-.63,2.4-1.54,2.38-3.02-.02-.96-1.52-.97-1.5,0,.02,1.26-2.02,1.94-2.95,2.35-1.3.58-2.57,1.18-3.82,1.86-2.58,1.4-5.07,2.96-7.47,4.64-.78.55-.04,1.85.76,1.3h0Z"/><path class="ak" d="m913.69,491.31c-1.91-.17-3.61,0-5.4.71-1.58.62-3.05,1.48-4.38,2.53-.65.51-1.28,1.06-1.77,1.72-.24.33-.42.71-.71,1-.25.26-.55.47-.82.71-1.25,1.12-2.17,2.53-2.82,4.07-.37.89,1.08,1.28,1.45.4.58-1.38,1.49-2.6,2.62-3.57.52-.45.93-.87,1.3-1.45.43-.65,1-1.17,1.6-1.66,1.18-.95,2.52-1.76,3.93-2.31,1.67-.66,3.22-.82,5-.66.96.09.96-1.41,0-1.5h0Z"/><path class="ak" d="m898.61,503.12c1.62-.14,3.02-.9,4.42-1.67s2.74-1.58,3.97-2.6c2.34-1.93,4.29-4.34,6.85-6.01.81-.52.06-1.82-.76-1.3-2.4,1.56-4.28,3.71-6.41,5.6-1.11.98-2.29,1.82-3.58,2.55-1.38.78-2.88,1.78-4.49,1.92-.95.08-.96,1.59,0,1.5h0Z"/></g><g id="j"><path class="v" d="m917.3,343.03c-2.18,2.22-5.8,5.39-10.76,7.66-1.65.76-3.19,1.29-4.55,1.67.28-2.11.22-3.78.1-4.9-.48-4.85-2.63-7.95-3.6-9.3-.39-.55-.73-.95-.88-1.14-1.65-1.96-3.39-3.22-4.67-3.99,4.9-3.23,9.8-6.45,14.7-9.68.32,4.16,1.51,10.47,5.91,15.93,1.21,1.5,2.5,2.73,3.76,3.74Z"/><path class="v" d="m918.27,306.28c1.69,1.85,5.1,6.94,3.95,8.82-.05.08-.15.25-.29.4-.7.77-2.05.97-7.85,4.19-1.96,1.09-2.95,1.64-3.7,2.18-1.52,1.09-2.54,2.11-2.83,1.86-.13-.11-.08-.44.03-.77.12-.37.29-.74.31-.73.03,0-.34,1.5-.34,1.5.13-1.07.32-1.5.33-1.5.08.02-.42,1.6-.38,1.61.01,0,.06-.11.05-.11,0,0-.05.08-.2.38,0,0,0,0,0,0-.22.24-.46.33-.56.37t-2.34,1.54c-3.7,2.44-7.41,4.88-11.11,7.32-.46.31-1.52,1-2.1,1.38-.2.13-1.06.7-1.26.83.04-.03.09-.06.13-.08-1.48,1.54-2.07,2.14-2.08,2.13,0,0,.59-.62.57-.64-.02-.03-1.73,1.91-3.64,3.42-1.83,1.45-4.17,3.33-5.9,3.12-3.07-.39-4.71-7.46-4.41-13.08.47-8.91,6.04-18.76,14.49-24.25,10.61-6.88,23.87-5.63,29.12.1Z"/><path class="ak" d="m908.45,322.79c.73-1.17,1.77-2.08,2.78-3.01s2.01-1.8,3.17-2.5,2.46-1.19,3.66-1.86,2.54-1.48,3.94-1.13c.94.23,1.34-1.21.4-1.45-1.46-.36-2.88.12-4.18.78-.7.36-1.36.77-2.06,1.12-.76.38-1.56.69-2.29,1.11-1.32.75-2.48,1.75-3.59,2.77s-2.29,2.08-3.11,3.4c-.51.82.79,1.58,1.3.76h0Z"/><path class="ak" d="m907.91,324.37c2.69-1.89,5.5-3.61,8.41-5.14,1.37-.72,2.83-1.25,4.2-1.98,1.19-.63,2.4-1.54,2.38-3.02-.02-.96-1.52-.97-1.5,0,.02,1.26-2.02,1.94-2.95,2.35-1.3.58-2.57,1.18-3.82,1.86-2.58,1.4-5.07,2.96-7.47,4.64-.78.55-.04,1.85.76,1.3h0Z"/><path class="ak" d="m893.8,332.23c-1.91-.17-3.61,0-5.4.71-1.58.62-3.05,1.48-4.38,2.53-.65.51-1.28,1.06-1.77,1.72-.24.33-.42.71-.71,1-.25.26-.55.47-.82.71-1.25,1.12-2.17,2.53-2.82,4.07-.37.89,1.08,1.28,1.45.4.58-1.38,1.49-2.6,2.62-3.57.52-.45.93-.87,1.3-1.45.43-.65,1-1.17,1.6-1.66,1.18-.95,2.52-1.76,3.93-2.31,1.67-.66,3.22-.82,5-.66.96.09.96-1.41,0-1.5h0Z"/></g><path class="t" d="m900.7,610.59c3.17,9.11-19.44,41.7-45.37,40.38-24.12-1.23-44.08-31.42-40.84-40.38,2.01-5.54,11.99-.48,43.1-.38,31.31.1,41.24-4.97,43.1.38Z"/><g id="k"><path class="ae" d="m897.2,392.55c-5,6.72-3.26,16.48,3.89,21.8,7.15,5.32,17,4.18,22-2.54,5-6.72,3.26-16.48-3.89-21.8-7.15-5.32-17-4.18-22,2.54Z"/><ellipse id="l" class="ae" cx="924" cy="383.54" rx="15.17" ry="16.13" transform="translate(64.83 896.1) rotate(-53.36)"/></g><g id="m"><path class="ae" d="m783.65,467.43c-5.75,7.73-4.35,18.5,3.12,24.06,7.47,5.56,18.19,3.8,23.94-3.93,5.75-7.73,4.35-18.5-3.12-24.06-7.47-5.56-18.19-3.8-23.94,3.93Z"/><ellipse id="n" class="ae" cx="813.12" cy="456.06" rx="17.44" ry="16.86" transform="translate(-38.07 836.37) rotate(-53.36)"/></g><path class="p" d="m687.97,138.2c-5.44-3.66-10.2-7.74-14.27-12.23-4.07-4.49-7.49-9.31-10.26-14.47-2.77-5.15-4.93-10.61-6.47-16.37-1.54-5.76-2.48-11.74-2.82-17.94,1.2-1.81,2.7-3.34,4.48-4.61,1.78-1.27,3.71-2.32,5.78-3.15,2.07-.83,4.22-1.44,6.43-1.83,2.22-.39,4.34-.59,6.36-.59,3.32,0,6.23.32,8.71.95,2.48.64,4.76,1.51,6.83,2.64.34.88.82,2.23,1.45,4.06.63,1.83,1.26,3.78,1.92,5.86.65,2.08,1.28,4.13,1.88,6.15.6,2.03,1.07,3.7,1.41,5.02l-3.18,14.21c-.1.54-.23,1.15-.4,1.83-.17.68-.25,1.29-.25,1.83,0,.73.19,1.33.58,1.79.38.46,1.06.7,2.02.7.29-.93.69-2.43,1.19-4.5.51-2.07,1.06-4.44,1.66-7.1.6-2.66,1.23-5.49,1.88-8.5s1.28-5.9,1.88-8.68c.6-2.78,1.17-5.33,1.7-7.65.53-2.32.96-4.16,1.3-5.53,1.88-.93,4.12-1.7,6.72-2.31,2.6-.61,5.42-.92,8.46-.92,3.37,0,6.46.43,9.25,1.28,2.79.85,5.18,2.11,7.15,3.77,1.98,1.66,3.5,3.72,4.59,6.19,1.08,2.47,1.63,5.31,1.63,8.53,0,5.13-.72,9.99-2.17,14.58-1.45,4.59-3.32,8.86-5.64,12.82s-4.9,7.59-7.77,10.91c-2.87,3.32-5.7,6.25-8.49,8.79v24.17c-2.12,1.32-4.1,2.38-5.93,3.19-1.83.81-3.6,1.43-5.31,1.87-1.71.44-3.35.73-4.91.88-1.57.15-3.12.22-4.66.22-3.18,0-6.08-.29-8.71-.88-2.63-.59-4.88-1.5-6.76-2.75s-3.34-2.82-4.37-4.72c-1.04-1.9-1.55-4.17-1.55-6.81v-12.89c.29.29.72.7,1.3,1.21s1.18,1.01,1.81,1.5c.63.49,1.26.9,1.92,1.25.65.34,1.19.51,1.63.51.58,0,1.06-.18,1.45-.55.39-.37.58-.94.58-1.72Z"/><path class="p" d="m793.33,165.08c-4.05,0-8.05-.43-12-1.28-3.95-.85-7.69-2.16-11.2-3.92-3.52-1.76-6.76-3.98-9.72-6.67-2.96-2.68-5.53-5.86-7.7-9.52s-3.85-7.84-5.06-12.52c-1.2-4.69-1.81-9.91-1.81-15.67,0-8.54,1.3-15.93,3.9-22.16s6.07-11.38,10.41-15.45c4.34-4.08,9.33-7.09,15-9.05,5.66-1.95,11.57-2.93,17.74-2.93,7.32,0,13.9,1.21,19.73,3.63,5.83,2.42,10.77,5.8,14.81,10.14,4.05,4.35,7.15,9.57,9.32,15.67,2.17,6.1,3.25,12.82,3.25,20.14,0,8.69-1.22,16.16-3.65,22.41-2.43,6.25-5.76,11.39-9.97,15.42-4.22,4.03-9.15,6.99-14.81,8.9-5.66,1.9-11.74,2.86-18.25,2.86Zm2.89-52.88c0-2.34-.05-4.36-.14-6.04-.1-1.68-.27-3.09-.51-4.21-.24-1.03-.57-1.71-.98-2.05-.41-.34-.88-.51-1.41-.51s-.94.09-1.23.26c-.29.17-.53.33-.72.48.05.88.12,1.7.22,2.45.1.76.18,1.61.25,2.56s.13,2.05.18,3.3c.05,1.25.07,2.77.07,4.58v4.76c0,1.81-.02,3.33-.07,4.58-.05,1.25-.11,2.34-.18,3.3s-.16,1.81-.25,2.56c-.1.76-.17,1.57-.22,2.45.19.15.43.31.72.48.29.17.7.26,1.23.26s1-.17,1.41-.51c.41-.34.73-1.03.98-2.05.24-1.12.41-2.53.51-4.21.1-1.68.14-3.7.14-6.04v-6.37Z"/><path class="p" d="m906.64,66.94c2.7,0,5.34.38,7.91,1.14,2.58.76,4.87,1.89,6.87,3.41,2,1.51,3.6,3.42,4.81,5.71,1.2,2.3,1.81,4.98,1.81,8.06v40.72c0,6.3-.99,11.87-2.96,16.7-1.98,4.83-4.78,8.89-8.42,12.16-3.64,3.27-8.02,5.74-13.15,7.4s-10.85,2.49-17.16,2.49c-6.7,0-12.67-.83-17.92-2.49-5.25-1.66-9.7-4.11-13.33-7.36-3.64-3.25-6.41-7.29-8.31-12.12-1.9-4.83-2.85-10.42-2.85-16.77v-52.22c2.31-1.85,5.15-3.47,8.53-4.83,3.37-1.37,7.11-2.05,11.2-2.05,3.04,0,5.79.4,8.27,1.21,2.48.81,4.63,2.04,6.43,3.7,1.81,1.66,3.2,3.76,4.19,6.3.99,2.54,1.48,5.54,1.48,9.01v42.7c.48.39,1.08.59,1.81.59.67,0,1.18-.17,1.52-.51.34-.34.51-1.05.51-2.12v-40.72c0-1.61-.04-3.03-.11-4.25-.07-1.22-.19-2.32-.36-3.3-.17-.98-.4-1.88-.69-2.71-.29-.83-.63-1.66-1.01-2.49,2.65-2.25,5.67-4.03,9.07-5.35s7.36-1.98,11.89-1.98Z"/><path class="p" d="m965.18,77.04c2.17-3.17,5.13-5.66,8.89-7.47,3.76-1.81,7.95-2.71,12.57-2.71,3.37,0,6.43.33,9.18.99s5.09,1.65,7.05,2.97,3.46,2.94,4.52,4.87c1.06,1.93,1.59,4.16,1.59,6.7-.24,2.88-.43,5.97-.58,9.27s-.28,6.56-.4,9.78c-.12,3.22-.21,6.3-.25,9.23-.05,2.93-.07,5.45-.07,7.54,0,1.32.13,2.5.4,3.55.26,1.05.95,1.57,2.06,1.57.38,0,.87-.07,1.45-.22-.05-.68-.07-1.42-.07-2.2v-2.56c0-3.12.05-6.74.14-10.84.1-4.1.25-8.25.47-12.45.22-4.2.48-8.24.79-12.12.31-3.88.66-7.14,1.05-9.78,2.07-1.27,4.54-2.27,7.41-3,2.87-.73,5.82-1.1,8.85-1.1,2.36,0,4.72.2,7.08.59,2.36.39,4.5,1.04,6.43,1.94,1.93.9,3.52,2.09,4.77,3.55,1.25,1.46,1.95,3.27,2.1,5.42-.14,2.64-.41,5.63-.79,8.97-.39,3.35-.83,6.85-1.34,10.51s-1.05,7.43-1.62,11.32-1.13,7.68-1.66,11.39c.43.2.89.29,1.37.29.67,0,1.28-.23,1.81-.7.53-.46.99-1.65,1.37-3.55.82-4.39,1.54-8.76,2.17-13.11.62-4.35,1.17-8.54,1.62-12.6.46-4.05.83-7.91,1.12-11.57s.51-7.03.65-10.11c1.78-1.22,4.11-2.28,6.97-3.19,2.87-.9,6.66-1.35,11.38-1.35,3.13,0,5.97.44,8.53,1.32,2.55.88,4.73,2.14,6.54,3.77,1.81,1.64,3.2,3.61,4.19,5.93.99,2.32,1.48,4.9,1.48,7.73,0,.93-.14,2.41-.43,4.43-.29,2.03-.67,4.42-1.16,7.18-.48,2.76-1.06,5.77-1.73,9.05-.68,3.27-1.4,6.64-2.17,10.11-.77,3.47-1.57,6.91-2.38,10.33-.82,3.42-1.64,6.62-2.46,9.59-.82,2.98-1.6,5.67-2.35,8.06-.75,2.39-1.43,4.3-2.06,5.71-1.16,2.59-2.58,4.76-4.26,6.52-1.69,1.76-3.65,3.19-5.89,4.28s-4.75,1.89-7.52,2.38c-2.77.49-5.82.73-9.14.73-1.45,0-3-.11-4.66-.33s-3.3-.51-4.91-.88-3.13-.79-4.55-1.28c-1.42-.49-2.61-1-3.58-1.54-.53-.83-1.07-1.83-1.63-3s-1.08-2.4-1.59-3.7c-.51-1.29-.96-2.56-1.37-3.81s-.71-2.35-.9-3.33c-1.11.05-1.86.34-2.24.88-.39.54-.58,1.27-.58,2.2,0,1.03.22,2.3.65,3.81.43,1.51.96,3.13,1.59,4.83-2.75,2.25-5.89,3.83-9.43,4.76s-7.6,1.39-12.18,1.39c-1.88,0-3.83-.07-5.85-.22s-3.99-.43-5.89-.84c-1.9-.41-3.67-.96-5.31-1.65-1.64-.68-3.04-1.59-4.19-2.71-1.78-3.81-3.69-8.37-5.71-13.7-2.02-5.32-4-11.4-5.93-18.24-1.93-6.84-3.72-14.39-5.38-22.67s-3-17.25-4.01-26.92Z"/><path class="p" d="m1141.8,165.08c-4.05,0-8.05-.43-12-1.28-3.95-.85-7.68-2.16-11.2-3.92-3.52-1.76-6.76-3.98-9.72-6.67-2.96-2.68-5.53-5.86-7.7-9.52s-3.85-7.84-5.06-12.52c-1.21-4.69-1.81-9.91-1.81-15.67,0-8.54,1.3-15.93,3.9-22.16s6.07-11.38,10.41-15.45c4.34-4.08,9.33-7.09,15-9.05,5.66-1.95,11.57-2.93,17.74-2.93,7.32,0,13.9,1.21,19.73,3.63,5.83,2.42,10.77,5.8,14.81,10.14,4.05,4.35,7.15,9.57,9.32,15.67,2.17,6.1,3.25,12.82,3.25,20.14,0,8.69-1.22,16.16-3.65,22.41-2.43,6.25-5.76,11.39-9.97,15.42-4.22,4.03-9.15,6.99-14.81,8.9-5.66,1.9-11.74,2.86-18.25,2.86Zm2.89-52.88c0-2.34-.05-4.36-.14-6.04s-.26-3.09-.51-4.21c-.24-1.03-.57-1.71-.98-2.05-.41-.34-.88-.51-1.41-.51s-.94.09-1.23.26c-.29.17-.53.33-.72.48.05.88.12,1.7.22,2.45.1.76.18,1.61.25,2.56s.13,2.05.18,3.3.07,2.77.07,4.58v4.76c0,1.81-.02,3.33-.07,4.58s-.11,2.34-.18,3.3-.16,1.81-.25,2.56c-.1.76-.17,1.57-.22,2.45.19.15.43.31.72.48.29.17.7.26,1.23.26s1-.17,1.41-.51c.41-.34.73-1.03.98-2.05.24-1.12.41-2.53.51-4.21s.14-3.7.14-6.04v-6.37Z"/><path class="p" d="m1236.54,73.31c1.25-1.07,2.66-2.01,4.23-2.82s3.22-1.48,4.95-2.01c1.73-.54,3.52-.94,5.35-1.21,1.83-.27,3.61-.4,5.35-.4,2.7,0,5.34.26,7.91.77,2.58.51,4.87,1.38,6.87,2.6,2,1.22,3.6,2.86,4.81,4.91,1.2,2.05,1.81,4.61,1.81,7.69v69.36c0,2.2-.54,4.05-1.63,5.57-1.08,1.51-2.53,2.72-4.34,3.63-1.81.9-3.88,1.55-6.21,1.94-2.34.39-4.76.59-7.26.59-1.54,0-3.1-.09-4.66-.26-1.57-.17-3.05-.43-4.44-.77s-2.7-.73-3.9-1.17-2.24-.93-3.11-1.46c-2.07-2.68-3.94-5.27-5.6-7.76s-3.19-4.88-4.59-7.18c-1.4-2.29-2.7-4.48-3.9-6.56-1.2-2.07-2.36-4.04-3.47-5.9-.82.1-1.37.35-1.66.77-.29.42-.43.92-.43,1.5,0,.73.19,1.45.58,2.16.39.71.89,1.57,1.52,2.6l9.03,14.79v3.88c-.72.49-1.64,1.05-2.75,1.68-1.11.64-2.47,1.23-4.08,1.79-1.61.56-3.48,1.04-5.6,1.43-2.12.39-4.55.59-7.3.59-3.13,0-6.02-.32-8.67-.95-2.65-.63-4.94-1.57-6.87-2.82-1.93-1.25-3.42-2.79-4.48-4.65-1.06-1.85-1.59-4-1.59-6.45v-73.39c0-1.22.53-2.38,1.59-3.48,1.06-1.1,2.5-2.04,4.34-2.82,1.83-.78,3.97-1.4,6.43-1.87,2.46-.46,5.08-.7,7.88-.7,3.18,0,6.12.39,8.82,1.17,2.7.78,4.75,1.73,6.14,2.86,1.06,1.37,2.22,2.99,3.47,4.87,1.25,1.88,2.58,3.96,3.97,6.23s2.85,4.69,4.37,7.25,3.07,5.19,4.66,7.87c.48,0,.95-.16,1.41-.48.46-.32.69-.84.69-1.57,0-.54-.19-1.18-.58-1.94-.39-.76-.79-1.5-1.23-2.23l-7.8-13.62v-4.03Z"/><g id="o"><rect class="am" x="1309.96" y="577.14" width="573" height="132.65" rx="10" ry="10"/><path class="aj" d="m1872.96,579.14c4.41,0,8,3.59,8,8v112.65c0,4.41-3.59,8-8,8h-553c-4.41,0-8-3.59-8-8v-112.65c0-4.41,3.59-8,8-8h553m0-4h-553c-6.6,0-12,5.4-12,12v112.65c0,6.6,5.4,12,12,12h553c6.6,0,12-5.4,12-12v-112.65c0-6.6-5.4-12-12-12h0Z"/></g><path class="p" d="m1348.79,618.96c0-1.2.68-2.37,2.04-3.51,1.36-1.14,3.18-2.18,5.47-3.1s4.92-1.67,7.9-2.23c2.98-.56,6.1-.84,9.37-.84,4.52,0,8.59.7,12.21,2.1s6.7,3.37,9.23,5.91c2.53,2.54,4.49,5.61,5.86,9.21,1.38,3.59,2.06,7.57,2.06,11.93,0,4.65-.63,8.73-1.88,12.25-1.25,3.52-3.03,6.46-5.34,8.82-2.31,2.36-5.08,4.13-8.34,5.31-3.25,1.18-6.86,1.77-10.83,1.77-1.01,0-2.05-.08-3.11-.25-1.07-.16-2.08-.36-3.02-.6-.95-.23-1.79-.47-2.52-.71-.73-.24-1.27-.45-1.6-.63-.09.11-.18.25-.25.44-.08.18-.11.44-.11.76,0,.4.14.78.43,1.14.29.36.8.69,1.54.98.73.29,1.72.55,2.95.79,1.24.24,2.8.43,4.7.57v8.33c-.73.73-1.61,1.37-2.63,1.93-1.02.56-2.12,1.04-3.28,1.44-1.16.4-2.38.7-3.64.9-1.27.2-2.53.3-3.78.3-1.74,0-3.42-.21-5.04-.63-1.62-.42-3.05-1.08-4.28-1.99-1.24-.91-2.23-2.08-2.98-3.51s-1.12-3.15-1.12-5.15v-51.74Zm25.61,25.49c.09.07.24.12.43.14.2.02.33.03.39.03.73,0,1.25-.27,1.56-.82.3-.54.46-1.43.46-2.67v-4.14c0-1.27-.13-2.2-.39-2.78-.26-.58-.74-.87-1.44-.87-.15,0-.34.02-.55.05-.21.04-.38.09-.5.16.03.29.05.6.05.93v9.97Z"/><path class="p" d="m1415.49,681.06c-3.3,0-5.89-1.04-7.79-3.13-1.89-2.09-2.84-5.35-2.84-9.78v-53.27c1.62-1.63,3.6-2.9,5.96-3.79,2.35-.89,4.76-1.33,7.24-1.33,1.71,0,3.38.27,5.02.82,1.63.54,3.08,1.37,4.35,2.48,1.27,1.11,2.28,2.52,3.05,4.22.76,1.71,1.14,3.7,1.14,5.99v29.79c-.76.07-1.58.25-2.45.54-.87.29-1.68.65-2.43,1.09-.75.44-1.38.92-1.88,1.44-.5.53-.76,1.06-.76,1.61,0,.4.08.72.25.95s.37.45.62.63c1.71-1.71,3.66-2.89,5.86-3.54,2.2-.65,4.73-.98,7.6-.98h10.86c.46.94.87,1.93,1.24,2.97s.68,2.09.94,3.16c.26,1.07.46,2.13.62,3.19.15,1.05.23,2.03.23,2.94,0,1.31-.08,2.64-.25,4-.17,1.36-.41,2.66-.71,3.89-.31,1.24-.67,2.38-1.1,3.43-.43,1.05-.92,1.94-1.47,2.67h-33.3Z"/><path class="p" d="m1463.86,615.64c1.19-.91,2.53-1.73,4.03-2.48,1.5-.74,3.08-1.37,4.74-1.88,1.67-.51,3.39-.9,5.18-1.17,1.79-.27,3.58-.41,5.38-.41,2.38,0,4.74.25,7.08.76,2.34.51,4.47,1.31,6.39,2.4,1.92,1.09,3.57,2.5,4.95,4.22s2.31,3.79,2.79,6.18l10.44,51.36c-1.41,2.14-3.38,3.9-5.91,5.28-2.54,1.38-5.74,2.07-9.62,2.07-1.71,0-3.31-.18-4.81-.54-1.5-.36-2.82-.9-3.96-1.61-1.14-.71-2.09-1.6-2.84-2.67-.75-1.07-1.23-2.33-1.44-3.79l-1.01-6.65c.95-.04,1.88-.17,2.82-.41.93-.24,1.77-.53,2.52-.87.75-.34,1.36-.74,1.83-1.17.47-.44.71-.87.71-1.31,0-.58-.2-1.05-.6-1.42-.55.47-1.19.9-1.92,1.28-.73.38-1.5.7-2.31.95-.81.26-1.62.45-2.43.57-.81.13-1.57.19-2.27.19-1.31,0-2.48-.1-3.5-.3-1.02-.2-1.92-.44-2.68-.74s-1.42-.61-1.97-.95c-.55-.34-1.01-.68-1.37-1.01-.12.18-.23.39-.32.63s-.14.5-.14.79c0,.54.24,1.04.71,1.5.47.45,1.11.85,1.9,1.2.79.34,1.7.63,2.73.84,1.02.22,2.1.36,3.23.44.18,2.54.39,4.57.62,6.07.23,1.51.45,2.46.66,2.86-.27.62-.82,1.28-1.63,1.99-.81.71-1.82,1.37-3.02,1.99-1.21.62-2.58,1.13-4.12,1.53-1.54.4-3.18.6-4.92.6-2.17,0-4.21-.29-6.14-.87s-3.6-1.39-5.04-2.42c-1.44-1.03-2.58-2.29-3.44-3.76-.86-1.47-1.28-3.11-1.28-4.93,0-.4.01-.81.05-1.23.03-.42.09-.84.18-1.28l9.76-51.85Zm21.53,28.05c-.34-2.18-.6-3.92-.8-5.23-.2-1.31-.4-2.3-.59-2.97-.2-.67-.41-1.11-.64-1.31-.23-.2-.51-.3-.85-.3-.21,0-.41.04-.6.11-.18.07-.35.15-.5.22l1.74,11c.12.14.3.25.53.33.23.07.44.11.62.11.27,0,.53-.04.78-.14.24-.09.43-.17.55-.24l-.23-1.58Z"/><path class="p" d="m1529.23,662.75c-3.45-2.72-6.47-5.75-9.05-9.1-2.58-3.34-4.75-6.93-6.5-10.76s-3.12-7.89-4.1-12.17-1.57-8.73-1.79-13.35c.76-1.34,1.71-2.49,2.84-3.43s2.35-1.72,3.67-2.34c1.31-.62,2.67-1.07,4.08-1.36,1.4-.29,2.75-.44,4.03-.44,2.11,0,3.95.24,5.52.71,1.57.47,3.02,1.13,4.33,1.96.21.65.52,1.66.92,3.02.4,1.36.8,2.81,1.21,4.36.41,1.54.81,3.07,1.19,4.58s.68,2.75.89,3.73l-2.02,10.57c-.06.4-.15.85-.25,1.36-.11.51-.16.96-.16,1.36,0,.54.12.99.37,1.33s.67.52,1.28.52c.18-.69.43-1.81.76-3.35.32-1.54.67-3.3,1.05-5.28.38-1.98.78-4.08,1.19-6.32s.81-4.38,1.19-6.45c.38-2.07.74-3.97,1.08-5.69s.61-3.1.82-4.11c1.19-.69,2.61-1.26,4.26-1.71s3.44-.68,5.36-.68c2.14,0,4.09.32,5.86.95,1.77.64,3.28,1.57,4.54,2.81,1.25,1.24,2.22,2.77,2.91,4.6.69,1.83,1.03,3.95,1.03,6.35,0,3.81-.46,7.43-1.37,10.84-.92,3.41-2.11,6.59-3.57,9.53-1.47,2.94-3.11,5.65-4.92,8.12-1.82,2.47-3.61,4.65-5.38,6.54v17.97c-1.34.98-2.6,1.77-3.76,2.37-1.16.6-2.28,1.06-3.37,1.39-1.08.33-2.12.54-3.12.65-.99.11-1.98.16-2.96.16-2.01,0-3.86-.22-5.52-.65-1.67-.44-3.09-1.12-4.28-2.04-1.19-.93-2.12-2.1-2.77-3.51-.66-1.42-.98-3.1-.98-5.07v-9.59c.18.22.46.52.82.9s.75.75,1.15,1.12c.4.36.8.67,1.21.93s.76.38,1.03.38c.37,0,.67-.14.92-.41.24-.27.37-.7.37-1.28Z"/><path class="p" d="m1598.68,615.64c1.19-.91,2.53-1.73,4.03-2.48,1.5-.74,3.08-1.37,4.74-1.88,1.67-.51,3.39-.9,5.18-1.17,1.79-.27,3.58-.41,5.38-.41,2.38,0,4.74.25,7.08.76,2.34.51,4.47,1.31,6.39,2.4,1.92,1.09,3.57,2.5,4.95,4.22s2.31,3.79,2.79,6.18l10.44,51.36c-1.41,2.14-3.38,3.9-5.91,5.28-2.54,1.38-5.74,2.07-9.62,2.07-1.71,0-3.31-.18-4.81-.54-1.5-.36-2.82-.9-3.96-1.61-1.14-.71-2.09-1.6-2.84-2.67-.75-1.07-1.23-2.33-1.44-3.79l-1.01-6.65c.95-.04,1.88-.17,2.82-.41.93-.24,1.77-.53,2.52-.87.75-.34,1.36-.74,1.83-1.17.47-.44.71-.87.71-1.31,0-.58-.2-1.05-.6-1.42-.55.47-1.19.9-1.92,1.28-.73.38-1.5.7-2.31.95-.81.26-1.62.45-2.43.57-.81.13-1.57.19-2.27.19-1.31,0-2.48-.1-3.5-.3-1.02-.2-1.92-.44-2.68-.74s-1.42-.61-1.97-.95c-.55-.34-1.01-.68-1.37-1.01-.12.18-.23.39-.32.63s-.14.5-.14.79c0,.54.24,1.04.71,1.5.47.45,1.11.85,1.9,1.2.79.34,1.7.63,2.73.84,1.02.22,2.1.36,3.23.44.18,2.54.39,4.57.62,6.07.23,1.51.45,2.46.66,2.86-.27.62-.82,1.28-1.63,1.99-.81.71-1.82,1.37-3.02,1.99-1.21.62-2.58,1.13-4.12,1.53-1.54.4-3.18.6-4.92.6-2.17,0-4.21-.29-6.14-.87s-3.6-1.39-5.04-2.42c-1.44-1.03-2.58-2.29-3.44-3.76-.86-1.47-1.28-3.11-1.28-4.93,0-.4.01-.81.05-1.23.03-.42.09-.84.18-1.28l9.76-51.85Zm21.53,28.05c-.34-2.18-.6-3.92-.8-5.23-.2-1.31-.4-2.3-.59-2.97-.2-.67-.41-1.11-.64-1.31-.23-.2-.51-.3-.85-.3-.21,0-.41.04-.6.11-.18.07-.35.15-.5.22l1.74,11c.12.14.3.25.53.33.23.07.44.11.62.11.27,0,.53-.04.78-.14.24-.09.43-.17.55-.24l-.23-1.58Z"/><path class="p" d="m1682.73,657.04c-.98,0-1.89-.23-2.73-.68s-1.58-1.13-2.22-2.04c-.64-.91-1.14-2.04-1.51-3.4-.37-1.36-.55-2.93-.55-4.71,0-1.38.11-2.64.32-3.79.21-1.14.47-2.16.78-3.05.3-.89.64-1.64,1.01-2.26.37-.62.69-1.11.96-1.47h27.17c.95,1.63,1.62,3.42,2.02,5.37.4,1.94.59,3.86.59,5.75,0,2.18-.22,4.17-.66,5.96-.44,1.8-.97,3.26-1.58,4.38h-1.88v16.34c-1.19,1.24-2.55,2.42-4.08,3.54-1.53,1.13-3.26,2.12-5.2,2.97-1.94.85-4.12,1.53-6.53,2.04-2.41.51-5.08.76-8.02.76s-5.62-.31-8.34-.93-5.28-1.57-7.7-2.86c-2.41-1.29-4.63-2.92-6.64-4.9-2.02-1.98-3.76-4.33-5.22-7.05-1.47-2.72-2.6-5.84-3.41-9.34-.81-3.5-1.21-7.43-1.21-11.79,0-6.1.79-11.45,2.36-16.04,1.57-4.59,3.77-8.43,6.6-11.52,2.83-3.09,6.2-5.41,10.12-6.97,3.92-1.56,8.25-2.34,12.99-2.34,2.47,0,4.89.24,7.24.73s4.55,1.14,6.6,1.96c2.04.82,3.91,1.76,5.59,2.83,1.68,1.07,3.1,2.21,4.26,3.4,0,1.2-.06,2.51-.18,3.92s-.28,2.82-.48,4.22c-.2,1.4-.44,2.72-.73,3.98-.29,1.25-.6,2.3-.94,3.13h-24.14c-.37.47-.79,1.11-1.26,1.91s-.92,1.75-1.33,2.86-.76,2.38-1.05,3.81c-.29,1.43-.44,3.02-.44,4.77,0,2.21.24,4.13.71,5.75.47,1.62,1.1,2.96,1.88,4.03.78,1.07,1.68,1.87,2.7,2.4s2.08.79,3.18.79c.55,0,.93-.12,1.15-.35.21-.24.32-.52.32-.84v-1.25h-.5Z"/><path class="p" d="m1717.92,615.64c1.19-.91,2.53-1.73,4.03-2.48,1.5-.74,3.08-1.37,4.74-1.88,1.67-.51,3.39-.9,5.18-1.17,1.79-.27,3.58-.41,5.38-.41,2.38,0,4.74.25,7.08.76,2.34.51,4.47,1.31,6.39,2.4,1.92,1.09,3.57,2.5,4.95,4.22s2.31,3.79,2.79,6.18l10.44,51.36c-1.41,2.14-3.38,3.9-5.91,5.28-2.54,1.38-5.74,2.07-9.62,2.07-1.71,0-3.31-.18-4.81-.54-1.5-.36-2.82-.9-3.96-1.61-1.14-.71-2.09-1.6-2.84-2.67-.75-1.07-1.23-2.33-1.44-3.79l-1.01-6.65c.95-.04,1.88-.17,2.82-.41.93-.24,1.77-.53,2.52-.87.75-.34,1.36-.74,1.83-1.17.47-.44.71-.87.71-1.31,0-.58-.2-1.05-.6-1.42-.55.47-1.19.9-1.92,1.28-.73.38-1.5.7-2.31.95-.81.26-1.62.45-2.43.57-.81.13-1.57.19-2.27.19-1.31,0-2.48-.1-3.5-.3-1.02-.2-1.92-.44-2.68-.74s-1.42-.61-1.97-.95c-.55-.34-1.01-.68-1.37-1.01-.12.18-.23.39-.32.63s-.14.5-.14.79c0,.54.24,1.04.71,1.5.47.45,1.11.85,1.9,1.2.79.34,1.7.63,2.73.84,1.02.22,2.1.36,3.23.44.18,2.54.39,4.57.62,6.07.23,1.51.45,2.46.66,2.86-.27.62-.82,1.28-1.63,1.99-.81.71-1.82,1.37-3.02,1.99-1.21.62-2.58,1.13-4.12,1.53-1.54.4-3.18.6-4.92.6-2.17,0-4.21-.29-6.14-.87s-3.6-1.39-5.04-2.42c-1.44-1.03-2.58-2.29-3.44-3.76-.86-1.47-1.28-3.11-1.28-4.93,0-.4.01-.81.05-1.23.03-.42.09-.84.18-1.28l9.76-51.85Zm21.53,28.05c-.34-2.18-.6-3.92-.8-5.23-.2-1.31-.4-2.3-.59-2.97-.2-.67-.41-1.11-.64-1.31-.23-.2-.51-.3-.85-.3-.21,0-.41.04-.6.11-.18.07-.35.15-.5.22l1.74,11c.12.14.3.25.53.33.23.07.44.11.62.11.27,0,.53-.04.78-.14.24-.09.43-.17.55-.24l-.23-1.58Z"/><path class="p" d="m1791.73,680.4c-2.31,1.05-5.08,1.58-8.31,1.58-1.71,0-3.36-.22-4.95-.65-1.59-.44-2.99-1.1-4.19-1.99-1.21-.89-2.17-2.02-2.89-3.38s-1.08-2.97-1.08-4.82v-56.26c1.25-1.31,3.03-2.49,5.34-3.54,2.31-1.05,5.08-1.58,8.31-1.58,1.71,0,3.36.22,4.95.65,1.59.44,2.98,1.1,4.19,1.99,1.21.89,2.17,2.02,2.89,3.38.72,1.36,1.08,2.97,1.08,4.82v56.26c-1.25,1.31-3.03,2.49-5.34,3.54Z"/><path class="p" d="m1828.45,614.5c.79-.8,1.69-1.5,2.68-2.1.99-.6,2.04-1.1,3.14-1.5,1.1-.4,2.23-.7,3.39-.9,1.16-.2,2.29-.3,3.39-.3,1.71,0,3.38.19,5.02.57,1.63.38,3.08,1.03,4.35,1.93,1.27.91,2.28,2.12,3.05,3.65.76,1.52,1.15,3.43,1.15,5.72v51.58c0,1.63-.34,3.01-1.03,4.14-.69,1.13-1.6,2.02-2.75,2.7-1.14.67-2.46,1.15-3.94,1.44-1.48.29-3.02.44-4.6.44-.98,0-1.96-.06-2.96-.19s-1.93-.32-2.82-.57c-.89-.25-1.71-.54-2.47-.87-.76-.33-1.42-.69-1.97-1.09-1.31-2-2.5-3.92-3.55-5.77s-2.02-3.63-2.91-5.34c-.89-1.71-1.71-3.33-2.47-4.87s-1.5-3-2.2-4.38c-.52.07-.87.26-1.05.57-.18.31-.27.68-.27,1.12,0,.54.12,1.08.37,1.61.24.53.56,1.17.96,1.93l5.73,11v2.89c-.46.36-1.04.78-1.74,1.25-.7.47-1.57.92-2.59,1.33-1.02.42-2.21.77-3.55,1.06-1.34.29-2.89.44-4.63.44-1.99,0-3.82-.24-5.5-.71-1.68-.47-3.13-1.17-4.35-2.1s-2.17-2.08-2.84-3.46c-.67-1.38-1.01-2.98-1.01-4.79v-54.58c0-.91.34-1.77,1.01-2.59.67-.82,1.59-1.52,2.75-2.1,1.16-.58,2.52-1.04,4.08-1.39,1.56-.34,3.22-.52,4.99-.52,2.02,0,3.88.29,5.59.87,1.71.58,3.01,1.29,3.89,2.12.67,1.02,1.4,2.22,2.2,3.62.79,1.4,1.63,2.94,2.52,4.63.88,1.69,1.81,3.49,2.77,5.39.96,1.91,1.95,3.86,2.95,5.85.3,0,.6-.12.89-.35.29-.24.44-.63.44-1.17,0-.4-.12-.88-.37-1.44s-.5-1.12-.78-1.66l-4.95-10.13v-3Z"/></svg>